<svg width="607" height="281" viewBox="0 0 607 281" fill="none" xmlns="http://www.w3.org/2000/svg">
<rect x="51" y="35" width="500" height="209" fill="url(#paint0_linear_708_7139)"/>
<rect x="17" y="14" width="22" height="14" rx="7" fill="url(#paint1_linear_708_7139)"/>
<rect x="568" y="14" width="22" height="14" rx="7" fill="url(#paint2_linear_708_7139)"/>
<rect x="17" y="253" width="22" height="14" rx="7" fill="url(#paint3_linear_708_7139)"/>
<rect x="568" y="253" width="22" height="14" rx="7" fill="url(#paint4_linear_708_7139)"/>
<rect x="69" y="50" width="470" height="180" fill="#FAF0E3"/>
<g filter="url(#filter0_d_708_7139)">
<rect x="551" y="19" width="56" height="241" fill="url(#paint5_linear_708_7139)"/>
</g>
<g filter="url(#filter1_d_708_7139)">
<rect y="19" width="56" height="241" fill="url(#paint6_linear_708_7139)"/>
</g>
<path d="M312.547 63.2122L312.604 63.3292L312.607 63.3351L312.725 63.5739L312.592 63.8049L312.233 64.431L312.068 64.7181L311.739 64.6785C310.918 64.5796 310.05 64.5884 309.148 64.6029L309.027 64.6049C308.178 64.6188 307.298 64.6331 306.46 64.5483L312.547 63.2122ZM312.547 63.2122L312.439 63.1383M312.547 63.2122L312.439 63.1383M312.439 63.1383C312.223 62.9894 311.981 62.94 311.78 62.9238M312.439 63.1383L311.78 62.9238M311.78 62.9238C311.579 62.9076 311.374 62.922 311.207 62.936M311.78 62.9238L311.207 62.936M311.207 62.936C311.17 62.9391 311.135 62.9421 311.103 62.9449M311.207 62.936L311.103 62.9449M311.103 62.9449C310.971 62.9564 310.869 62.9654 310.775 62.9655M311.103 62.9449L310.775 62.9655M310.775 62.9655C310.723 62.9656 310.692 62.9624 310.674 62.96M310.775 62.9655L310.674 62.96M310.674 62.96C310.667 62.9492 310.657 62.9316 310.644 62.9041C310.639 62.8928 310.63 62.875 310.62 62.8524C310.582 62.7676 310.514 62.6162 310.438 62.4979C310.321 62.3153 310.15 62.1354 309.884 62.0059C309.628 61.8814 309.314 61.8182 308.928 61.8108C308.622 61.8041 308.36 61.8575 308.133 61.9631C307.908 62.0679 307.744 62.2115 307.618 62.3439C307.557 62.4088 307.502 62.4738 307.456 62.5287L307.436 62.552C307.397 62.5993 307.365 62.6373 307.332 62.6737C307.26 62.754 307.213 62.7898 307.174 62.8093C307.175 62.8085 307.174 62.8087 307.169 62.8095C307.154 62.8121 307.099 62.8214 306.976 62.8221C306.911 62.8225 306.842 62.8209 306.763 62.819L306.737 62.8184C306.651 62.8164 306.554 62.8144 306.457 62.8162C306.278 62.8196 306.032 62.8355 305.813 62.9321C305.554 63.0459 305.337 63.2717 305.29 63.6209C305.29 63.6213 305.29 63.6216 305.29 63.622L305.786 63.6886L310.674 62.96ZM295.868 63.6734L295.871 63.672C296.056 63.5864 296.208 63.4509 296.326 63.3366C296.389 63.2757 296.469 63.1928 296.546 63.113C296.599 63.0573 296.652 63.003 296.696 62.9587C296.947 62.706 297.231 62.4598 297.623 62.2926C297.919 62.1671 298.409 62.0451 299.078 61.9363C299.739 61.8289 300.542 61.7391 301.446 61.6664C303.254 61.521 305.441 61.4458 307.644 61.4308C309.847 61.4159 312.06 61.4612 313.917 61.5559C315.789 61.6512 317.262 61.795 318.01 61.9677C320.556 62.5564 323.046 63.9743 325.486 65.6322C326.548 66.3534 327.591 67.1132 328.621 67.864C328.773 67.9746 328.924 68.085 329.075 68.195C330.25 69.0494 331.409 69.8826 332.542 70.6062L332.543 70.6064C333.979 71.5208 335.537 72.3126 337.083 73.0981L337.084 73.0987C338.637 73.8879 340.179 74.6714 341.622 75.5816L341.622 75.5818C388.509 105.12 390.027 173.764 343.995 205.164C301.862 233.901 243.542 214.772 226.752 166.564C211.1 121.617 239.55 73.1238 286.196 64.7625L286.196 64.7624C286.871 64.6408 288.79 64.4625 290.759 64.2796C290.942 64.2626 291.125 64.2456 291.307 64.2286C292.373 64.1294 293.411 64.0309 294.217 63.9421C294.619 63.8977 294.968 63.8553 295.235 63.8158C295.369 63.7961 295.487 63.7764 295.584 63.7567C295.665 63.74 295.777 63.7149 295.868 63.6734ZM312.04 63.488L311.725 63.3071L311.661 63.4177C311.798 63.4224 311.928 63.4416 312.04 63.488ZM294.279 68.7053L293.889 68.9622L293.817 68.5434C258.451 74.6798 233.035 106.205 234.579 142.298C236.496 187.135 280.476 217.774 323.026 200.838C366.142 183.68 376.768 126.502 342.884 94.9561C341.373 93.5472 338.758 91.3525 336.056 89.3549C333.373 87.3708 330.539 85.5304 328.606 84.8872L328.606 84.8871C328.123 84.7266 327.455 84.6331 326.728 84.5734C325.992 84.513 325.155 84.4847 324.315 84.4684C323.804 84.4584 323.294 84.4529 322.803 84.4475C321.656 84.4349 320.609 84.4234 319.882 84.3604C319.571 84.3335 319.243 84.3072 318.903 84.2799C316.882 84.1174 314.459 83.9227 312.785 83.3804C311.985 83.1215 310.678 82.419 309.096 81.4295C307.527 80.4489 305.729 79.2124 303.961 77.9177C302.193 76.6231 300.461 75.2739 299.026 74.0688C297.582 72.8565 296.466 71.8126 295.906 71.1238C295.611 70.7589 295.39 70.3876 295.152 69.9877L295.136 69.9597C294.896 69.5565 294.636 69.1226 294.279 68.7053ZM301.711 74.0833L301.528 74.6194L304.087 77.0463L303.846 77.4844C303.846 77.4845 303.846 77.4847 303.846 77.4848C304.109 77.6293 304.358 77.7044 304.599 77.7219C304.84 77.7394 305.045 77.6974 305.212 77.6466C305.293 77.6219 305.369 77.5942 305.43 77.5712L305.447 77.5651C305.505 77.5436 305.549 77.5273 305.592 77.5134C305.677 77.4859 305.721 77.4814 305.751 77.4837C305.75 77.4838 305.752 77.4846 305.757 77.4868C305.773 77.4944 305.827 77.5193 305.93 77.5922C305.992 77.6366 306.059 77.6877 306.134 77.7459L306.16 77.7668C306.225 77.8174 306.297 77.873 306.367 77.9247C306.509 78.0292 306.728 78.1817 306.968 78.2327C307.103 78.2614 307.276 78.2651 307.451 78.1837C307.626 78.1022 307.741 77.9638 307.815 77.8231L307.816 77.821C307.915 77.6287 307.952 77.4194 307.907 77.2086C307.864 77.0092 307.758 76.8594 307.664 76.7561C307.571 76.6541 307.465 76.5713 307.389 76.5132C307.365 76.495 307.344 76.4795 307.326 76.4657C307.275 76.4269 307.243 76.4027 307.214 76.3771C306.957 76.1459 305.878 75.3113 304.852 74.5625C304.335 74.1851 303.819 73.8205 303.413 73.5566C303.212 73.4257 303.028 73.3128 302.881 73.235C302.809 73.1972 302.729 73.1591 302.653 73.1327C302.615 73.1198 302.56 73.1035 302.498 73.0959C302.448 73.09 302.315 73.0787 302.174 73.1522L301.996 73.2447L301.932 73.4344L301.711 74.0833Z" stroke="url(#paint7_linear_708_7139)" stroke-opacity="0.1"/>
<path d="M332.07 86.009C331.042 84.5968 331.434 83.1895 332.508 81.9218C332.799 82.5678 333.224 82.8154 333.909 82.7985C333.032 83.7933 332.257 84.8597 332.357 86.2361L332.07 86.009Z" fill="url(#paint8_linear_708_7139)" fill-opacity="0.1"/>
<path d="M336.928 84.6675C336.912 84.6225 337.03 84.1374 337.058 84.1316C338.308 84.2211 338.738 85.8589 339.836 85.6326L338.69 84.7238L339.742 83.6905L340.889 84.5993C341.218 83.9178 339.864 83.6425 339.855 83.5471L340.423 82.2418C341.027 82.2161 341.258 83.3846 341.878 83.0497C341.441 82.1993 340.252 82.1392 339.805 81.4071C339.584 81.0448 339.621 80.6681 340.046 80.6786C340.451 80.6865 342.035 82.2217 342.308 82.6717C342.665 83.258 343.131 85.7691 342.581 86.1739C342.227 86.439 340.123 86.602 339.61 86.513C338.762 86.3638 337.176 85.48 336.922 84.663L336.928 84.6675Z" fill="url(#paint9_linear_708_7139)" fill-opacity="0.1"/>
<path d="M335.501 80.7939C335.932 79.9212 336.618 80.451 337.337 80.3625C338.366 80.2354 339.43 79.4117 340.462 79.24L340.349 78.8052C339.054 79.3797 337.673 80.3158 336.184 79.9388C337.39 78.6402 338.103 77.3571 340.045 77.8925C341.054 78.1688 341.577 78.5692 342.232 79.3683C339.934 80.1189 338.046 82.3063 335.499 80.7968L335.501 80.7939Z" fill="url(#paint10_linear_708_7139)" fill-opacity="0.1"/>
<path d="M335.277 81.0804C336.631 82.2282 335.209 83.9815 335.454 85.4218C335.758 85.4804 335.689 85.0431 335.734 84.8686C336.03 83.8056 336.271 82.671 336.05 81.5767C336.224 81.2337 336.384 81.4443 336.564 81.6475C337.722 82.9481 335.867 85.5667 336.105 87.1042C335.002 86.758 333.713 85.2094 333.713 84.061C333.712 83.1966 334.774 81.7975 335.277 81.0804Z" fill="url(#paint11_linear_708_7139)" fill-opacity="0.1"/>
<path d="M337.087 77.8787C337.194 78.1787 334.59 81.483 334.14 81.9336C331.958 84.1161 333.347 79.2937 333.098 78.5362C334.035 78.6906 336.582 76.471 337.087 77.8787ZM333.452 81.0341C334.093 81.262 333.84 80.609 334.087 80.2444C334.592 79.501 335.162 78.7527 336.006 78.3946C335.698 78.0343 335.698 78.2583 335.424 78.3864C334.384 78.8689 333.745 79.9689 333.447 81.0347L333.452 81.0341Z" fill="url(#paint12_linear_708_7139)" fill-opacity="0.1"/>
<path d="M336.907 81.6701L339.198 81.1885L339.911 82.1736C339.898 82.3497 339.148 82.7125 338.945 82.9575C338.31 83.7055 338.745 84.7878 337.252 83.7864L336.91 81.6672L336.907 81.6701Z" fill="url(#paint13_linear_708_7139)" fill-opacity="0.1"/>
<path d="M337.435 78.3565C337.302 77.6349 337.213 77.1817 336.375 77.0496C337.313 75.7951 338.855 74.856 340.281 75.9486C338.974 76.3787 338.207 77.2593 337.438 78.3587L337.435 78.3565Z" fill="url(#paint14_linear_708_7139)" fill-opacity="0.1"/>
<path d="M360.938 122.968C361.069 121.226 362.279 120.407 363.918 120.137C363.722 120.817 363.885 121.281 364.418 121.712C363.106 121.902 361.825 122.213 361.01 123.327L360.938 122.968Z" fill="url(#paint15_linear_708_7139)" fill-opacity="0.1"/>
<path d="M365.506 125.091C365.524 125.046 365.928 124.753 365.953 124.767C366.847 125.644 366.114 127.17 367.098 127.709L366.812 126.274L368.283 126.168L368.569 127.603C369.262 127.298 368.407 126.211 368.463 126.132L369.74 125.505C370.217 125.876 369.637 126.917 370.327 127.063C370.544 126.132 369.677 125.316 369.81 124.469C369.876 124.049 370.148 123.786 370.466 124.07C370.769 124.338 370.982 126.534 370.899 127.054C370.792 127.732 369.52 129.947 368.839 129.899C368.398 129.872 366.689 128.634 366.356 128.234C365.806 127.571 365.169 125.87 365.505 125.084L365.506 125.091Z" fill="url(#paint16_linear_708_7139)" fill-opacity="0.1"/>
<path d="M366.929 121.216C367.822 120.829 368.002 121.677 368.607 122.075C369.474 122.645 370.818 122.706 371.716 123.244L371.911 122.839C370.552 122.438 368.893 122.257 368.003 121.006C369.763 120.797 371.137 120.281 372.271 121.947C372.861 122.811 373 123.454 372.982 124.487C370.744 123.571 367.89 124.016 366.926 121.217L366.929 121.216Z" fill="url(#paint17_linear_708_7139)" fill-opacity="0.1"/>
<path d="M366.571 121.287C366.86 123.039 364.641 123.454 363.896 124.711C364.089 124.952 364.32 124.574 364.467 124.47C365.381 123.852 366.299 123.143 366.839 122.166C367.194 122.017 367.179 122.281 367.185 122.553C367.226 124.294 364.116 125.088 363.302 126.414C362.686 125.436 362.706 123.422 363.45 122.546C364.009 121.887 365.724 121.508 366.571 121.287Z" fill="url(#paint18_linear_708_7139)" fill-opacity="0.1"/>
<path d="M370.021 120.018C369.908 120.317 365.784 121.149 365.149 121.201C362.073 121.451 366.254 118.675 366.555 117.937C367.169 118.661 370.548 118.619 370.021 120.018ZM365.208 120.07C365.549 120.659 365.779 119.997 366.203 119.879C367.069 119.64 367.988 119.438 368.863 119.712C368.862 119.238 368.717 119.409 368.425 119.329C367.32 119.023 366.121 119.448 365.204 120.067L365.208 120.07Z" fill="url(#paint19_linear_708_7139)" fill-opacity="0.1"/>
<path d="M367.433 122.794L369.491 123.91L369.396 125.123C369.272 125.248 368.466 125.039 368.152 125.094C367.184 125.253 366.815 126.36 366.325 124.63L367.437 122.793L367.433 122.794Z" fill="url(#paint20_linear_708_7139)" fill-opacity="0.1"/>
<path d="M369.979 120.609C370.345 119.973 370.571 119.57 370.017 118.927C371.544 118.578 373.328 118.861 373.707 120.617C372.433 120.098 371.277 120.272 369.98 120.613L369.979 120.609Z" fill="url(#paint21_linear_708_7139)" fill-opacity="0.1"/>
<path d="M360.923 161.831C362.008 160.463 363.469 160.463 364.978 161.159C364.434 161.612 364.309 162.087 364.509 162.743C363.316 162.165 362.081 161.704 360.781 162.169L360.923 161.831Z" fill="url(#paint22_linear_708_7139)" fill-opacity="0.1"/>
<path d="M363.518 166.152C363.557 166.125 364.056 166.109 364.07 166.135C364.318 167.363 362.855 168.215 363.368 169.213L363.936 167.865L365.213 168.602L364.645 169.95C365.39 170.086 365.292 168.706 365.382 168.673L366.791 168.87C366.978 169.445 365.914 169.981 366.403 170.489C367.105 169.84 366.845 168.678 367.43 168.051C367.72 167.741 368.093 167.676 368.197 168.089C368.298 168.48 367.243 170.418 366.882 170.802C366.413 171.303 364.118 172.424 363.581 172.003C363.231 171.732 362.51 169.749 362.459 169.231C362.375 168.374 362.802 166.609 363.521 166.146L363.518 166.152Z" fill="url(#paint23_linear_708_7139)" fill-opacity="0.1"/>
<path d="M366.868 163.741C367.825 163.922 367.498 164.725 367.776 165.394C368.174 166.352 369.252 167.156 369.694 168.104L370.083 167.879C369.182 166.785 367.911 165.705 367.875 164.17C369.449 164.984 370.877 165.328 370.881 167.342C370.885 168.388 370.639 168.999 370.045 169.844C368.706 167.831 366.093 166.598 366.865 163.74L366.868 163.741Z" fill="url(#paint24_linear_708_7139)" fill-opacity="0.1"/>
<path d="M366.532 163.599C365.788 165.212 363.718 164.311 362.396 164.933C362.421 165.241 362.824 165.058 363.004 165.054C364.108 165.055 365.265 164.983 366.261 164.478C366.638 164.553 366.477 164.764 366.33 164.991C365.387 166.456 362.367 165.369 360.95 166.011C360.988 164.856 362.135 163.199 363.241 162.891C364.074 162.659 365.706 163.307 366.532 163.599Z" fill="url(#paint25_linear_708_7139)" fill-opacity="0.1"/>
<path d="M370.102 164.484C369.841 164.669 365.96 163.045 365.406 162.731C362.718 161.214 367.737 161.26 368.4 160.817C368.502 161.762 371.323 163.622 370.102 164.484ZM366.088 161.828C366.04 162.507 366.602 162.088 367.019 162.228C367.871 162.516 368.744 162.864 369.315 163.581C369.58 163.189 369.364 163.249 369.167 163.019C368.424 162.145 367.193 161.825 366.086 161.823L366.088 161.828Z" fill="url(#paint26_linear_708_7139)" fill-opacity="0.1"/>
<path d="M366.403 165.331L367.481 167.409L366.723 168.36C366.55 168.394 365.999 167.769 365.709 167.639C364.818 167.227 363.892 167.937 364.457 166.23L366.407 165.332L366.403 165.331Z" fill="url(#paint27_linear_708_7139)" fill-opacity="0.1"/>
<path d="M369.734 164.949C370.394 164.628 370.807 164.421 370.709 163.578C372.169 164.146 373.487 165.38 372.816 167.046C372.052 165.902 370.998 165.399 369.733 164.953L369.734 164.949Z" fill="url(#paint28_linear_708_7139)" fill-opacity="0.1"/>
<path d="M339.723 191.886C341.358 191.272 342.61 192.024 343.546 193.398C342.846 193.506 342.494 193.849 342.327 194.514C341.602 193.404 340.781 192.373 339.428 192.102L339.723 191.886Z" fill="url(#paint29_linear_708_7139)" fill-opacity="0.1"/>
<path d="M339.722 196.926C339.769 196.923 340.205 197.166 340.203 197.194C339.784 198.375 338.091 198.353 338.016 199.472L339.198 198.609L339.913 199.898L338.732 200.761C339.301 201.261 339.927 200.029 340.021 200.046L341.128 200.941C340.992 201.53 339.804 201.441 339.961 202.128C340.898 201.934 341.272 200.804 342.097 200.568C342.505 200.451 342.859 200.587 342.735 200.995C342.62 201.382 340.718 202.5 340.211 202.644C339.551 202.832 337.006 202.611 336.763 201.973C336.602 201.561 337.005 199.49 337.228 199.019C337.598 198.242 338.873 196.948 339.727 196.921L339.722 196.926Z" fill="url(#paint30_linear_708_7139)" fill-opacity="0.1"/>
<path d="M343.836 196.584C344.563 197.231 343.869 197.752 343.763 198.468C343.611 199.494 344.121 200.739 344.012 201.779L344.461 201.787C344.252 200.385 343.718 198.804 344.478 197.47C345.408 198.978 346.455 200.008 345.421 201.737C344.886 202.636 344.361 203.033 343.416 203.451C343.305 201.036 341.7 198.634 343.834 196.581L343.836 196.584Z" fill="url(#paint31_linear_708_7139)" fill-opacity="0.1"/>
<path d="M343.618 196.289C342.151 197.289 340.84 195.451 339.387 195.303C339.249 195.58 339.689 195.63 339.845 195.72C340.791 196.289 341.82 196.823 342.934 196.903C343.218 197.161 342.972 197.259 342.729 197.378C341.166 198.148 339.137 195.662 337.592 195.482C338.219 194.511 340.055 193.682 341.162 193.988C341.996 194.217 343.061 195.613 343.618 196.289Z" fill="url(#paint32_linear_708_7139)" fill-opacity="0.1"/>
<path d="M346.222 198.886C345.904 198.91 343.413 195.519 343.099 194.965C341.577 192.28 345.855 194.904 346.651 194.866C346.253 195.728 347.713 198.775 346.222 198.886ZM344.149 194.542C343.759 195.099 344.456 195.029 344.741 195.364C345.323 196.049 345.893 196.798 346.013 197.707C346.442 197.506 346.226 197.447 346.176 197.148C345.988 196.017 345.098 195.108 344.15 194.537L344.149 194.542Z" fill="url(#paint33_linear_708_7139)" fill-opacity="0.1"/>
<path d="M342.613 197.706L342.467 200.042L341.327 200.467C341.161 200.407 341.011 199.588 340.829 199.327C340.278 198.515 339.118 198.647 340.482 197.474L342.615 197.709L342.613 197.706Z" fill="url(#paint34_linear_708_7139)" fill-opacity="0.1"/>
<path d="M345.668 199.096C346.399 199.16 346.86 199.195 347.21 198.422C348.17 199.66 348.664 201.397 347.23 202.48C347.164 201.106 346.52 200.131 345.665 199.098L345.668 199.096Z" fill="url(#paint35_linear_708_7139)" fill-opacity="0.1"/>
<path d="M301.73 205.338C303.443 205.68 304.108 206.98 304.177 208.641C303.525 208.363 303.045 208.468 302.552 208.945C302.523 207.619 302.371 206.31 301.365 205.365L301.73 205.338Z" fill="url(#paint36_linear_708_7139)" fill-opacity="0.1"/>
<path d="M299.065 209.616C299.107 209.639 299.349 210.076 299.332 210.099C298.352 210.88 296.927 209.966 296.272 210.877L297.731 210.768L297.658 212.241L296.198 212.35C296.417 213.075 297.6 212.359 297.671 212.424L298.138 213.768C297.712 214.196 296.75 213.494 296.52 214.16C297.418 214.49 298.333 213.728 299.158 213.964C299.567 214.08 299.795 214.382 299.474 214.663C299.171 214.931 296.966 214.875 296.46 214.73C295.8 214.541 293.757 213.009 293.886 212.339C293.968 211.904 295.404 210.359 295.842 210.077C296.566 209.612 298.332 209.186 299.072 209.616L299.065 209.616Z" fill="url(#paint37_linear_708_7139)" fill-opacity="0.1"/>
<path d="M302.739 211.499C303.014 212.433 302.15 212.508 301.682 213.06C301.01 213.851 300.787 215.178 300.144 216.003L300.521 216.247C301.085 214.946 301.466 213.322 302.817 212.59C302.809 214.363 303.154 215.79 301.363 216.712C300.434 217.192 299.778 217.252 298.755 217.108C299.937 214.999 299.843 212.111 302.739 211.496L302.739 211.499Z" fill="url(#paint38_linear_708_7139)" fill-opacity="0.1"/>
<path d="M302.712 211.134C300.938 211.208 300.796 208.955 299.64 208.062C299.377 208.225 299.724 208.5 299.809 208.658C300.311 209.641 300.903 210.638 301.807 211.294C301.911 211.664 301.651 211.617 301.381 211.59C299.648 211.418 299.238 208.235 298.021 207.265C299.067 206.773 301.064 207.039 301.842 207.883C302.429 208.518 302.596 210.266 302.712 211.134Z" fill="url(#paint39_linear_708_7139)" fill-opacity="0.1"/>
<path d="M303.55 214.715C303.268 214.567 302.944 210.372 302.97 209.736C303.096 206.652 305.341 211.14 306.038 211.528C305.244 212.05 304.875 215.408 303.55 214.715ZM304.085 209.931C303.459 210.198 304.087 210.507 304.153 210.943C304.285 211.832 304.373 212.768 303.995 213.603C304.465 213.66 304.314 213.495 304.429 213.215C304.867 212.155 304.591 210.914 304.088 209.928L304.085 209.931Z" fill="url(#paint40_linear_708_7139)" fill-opacity="0.1"/>
<path d="M301.109 211.808L299.751 213.714L298.559 213.472C298.45 213.334 298.755 212.559 298.739 212.241C298.699 211.261 297.645 210.76 299.422 210.484L301.109 211.811L301.109 211.808Z" fill="url(#paint41_linear_708_7139)" fill-opacity="0.1"/>
<path d="M302.969 214.6C303.556 215.041 303.929 215.314 304.635 214.843C304.795 216.401 304.297 218.137 302.508 218.3C303.178 217.098 303.146 215.93 302.966 214.601L302.969 214.6Z" fill="url(#paint42_linear_708_7139)" fill-opacity="0.1"/>
<path d="M255.242 187.59C256.11 189.106 255.567 190.462 254.36 191.605C254.141 190.931 253.747 190.638 253.063 190.58C254.044 189.687 254.93 188.712 254.982 187.333L255.242 187.59Z" fill="url(#paint43_linear_708_7139)" fill-opacity="0.1"/>
<path d="M250.27 188.392C250.28 188.439 250.11 188.908 250.081 188.911C248.849 188.685 248.601 187.01 247.484 187.115L248.525 188.144L247.366 189.056L246.325 188.027C245.923 188.669 247.239 189.09 247.237 189.186L246.531 190.422C245.928 190.381 245.825 189.194 245.172 189.459C245.514 190.353 246.689 190.542 247.053 191.319C247.234 191.703 247.156 192.074 246.734 192.017C246.333 191.965 244.926 190.265 244.703 189.788C244.412 189.166 244.224 186.619 244.815 186.277C245.196 186.052 247.305 186.12 247.805 186.265C248.632 186.506 250.112 187.558 250.275 188.397L250.27 188.392Z" fill="url(#paint44_linear_708_7139)" fill-opacity="0.1"/>
<path d="M251.262 192.399C250.74 193.219 250.115 192.617 249.391 192.627C248.354 192.641 247.207 193.343 246.162 193.401L246.226 193.846C247.577 193.416 249.052 192.637 250.491 193.174C249.15 194.333 248.301 195.531 246.429 194.786C245.456 194.401 244.98 193.946 244.416 193.08C246.783 192.585 248.898 190.617 251.265 192.396L251.262 192.399Z" fill="url(#paint45_linear_708_7139)" fill-opacity="0.1"/>
<path d="M251.519 192.139C250.298 190.85 251.903 189.262 251.817 187.804C251.521 187.712 251.542 188.155 251.478 188.323C251.068 189.347 250.704 190.449 250.804 191.561C250.594 191.883 250.458 191.656 250.301 191.434C249.292 190.015 251.423 187.615 251.354 186.06C252.412 186.525 253.524 188.205 253.399 189.347C253.305 190.206 252.097 191.481 251.519 192.139Z" fill="url(#paint46_linear_708_7139)" fill-opacity="0.1"/>
<path d="M249.37 195.123C249.296 194.813 252.246 191.814 252.743 191.415C255.15 189.484 253.242 194.126 253.407 194.906C252.492 194.65 249.718 196.578 249.37 195.123ZM253.328 192.384C252.715 192.088 252.895 192.764 252.61 193.1C252.027 193.783 251.379 194.465 250.501 194.729C250.767 195.12 250.792 194.898 251.078 194.8C252.165 194.434 252.92 193.411 253.333 192.384L253.328 192.384Z" fill="url(#paint47_linear_708_7139)" fill-opacity="0.1"/>
<path d="M249.959 191.374L247.63 191.602L247.029 190.545C247.061 190.372 247.846 190.093 248.075 189.872C248.788 189.197 248.473 188.074 249.849 189.233L249.957 191.376L249.959 191.374Z" fill="url(#paint48_linear_708_7139)" fill-opacity="0.1"/>
<path d="M249.076 194.61C249.13 195.342 249.169 195.802 249.988 196.025C248.918 197.17 247.282 197.935 245.984 196.693C247.33 196.408 248.19 195.617 249.074 194.608L249.076 194.61Z" fill="url(#paint49_linear_708_7139)" fill-opacity="0.1"/>
<path d="M232.921 144.774C232.641 145.93 231.737 146.347 230.606 146.348C230.813 145.912 230.754 145.583 230.443 145.234C231.346 145.251 232.241 145.183 232.912 144.525L232.921 144.774Z" fill="url(#paint50_linear_708_7139)" fill-opacity="0.1"/>
<path d="M230.079 142.843C230.062 142.871 229.758 143.024 229.743 143.012C229.238 142.323 229.899 141.378 229.297 140.908L229.331 141.904L228.331 141.813L228.297 140.817C227.798 140.946 228.252 141.771 228.206 141.817L227.278 142.098C226.999 141.796 227.503 141.161 227.056 140.986C226.807 141.588 227.3 142.232 227.117 142.787C227.027 143.062 226.815 143.208 226.633 142.983C226.459 142.769 226.557 141.27 226.67 140.93C226.817 140.486 227.916 139.137 228.368 139.244C228.662 139.311 229.674 140.331 229.854 140.637C230.151 141.143 230.391 142.356 230.079 142.848L230.079 142.843Z" fill="url(#paint51_linear_708_7139)" fill-opacity="0.1"/>
<path d="M228.699 145.291C228.056 145.452 228.028 144.862 227.666 144.528C227.146 144.05 226.249 143.861 225.705 143.401L225.529 143.651C226.398 144.07 227.493 144.375 227.954 145.314C226.748 145.26 225.767 145.455 225.189 144.211C224.888 143.565 224.865 143.117 224.991 142.425C226.394 143.287 228.362 143.303 228.701 145.291L228.699 145.291Z" fill="url(#paint52_linear_708_7139)" fill-opacity="0.1"/>
<path d="M228.946 145.283C228.945 144.073 230.482 144.039 231.122 143.276C231.019 143.093 230.822 143.322 230.712 143.375C230.029 143.69 229.334 144.065 228.863 144.662C228.608 144.723 228.647 144.547 228.673 144.364C228.838 143.189 231.015 142.998 231.709 142.197C232.015 142.922 231.779 144.274 231.183 144.78C230.735 145.162 229.54 145.227 228.946 145.283Z" fill="url(#paint53_linear_708_7139)" fill-opacity="0.1"/>
<path d="M226.487 145.755C226.595 145.567 229.458 145.462 229.891 145.497C231.986 145.668 228.87 147.073 228.586 147.536C228.253 146.981 225.978 146.637 226.487 145.755ZM229.727 146.251C229.563 145.817 229.335 146.237 229.037 146.269C228.428 146.335 227.789 146.369 227.231 146.089C227.179 146.407 227.296 146.308 227.483 146.394C228.192 146.722 229.045 146.568 229.73 146.253L229.727 146.251Z" fill="url(#paint54_linear_708_7139)" fill-opacity="0.1"/>
<path d="M228.533 144.175L227.274 143.198L227.471 142.393C227.568 142.323 228.087 142.552 228.304 142.549C228.972 142.549 229.342 141.846 229.48 143.063L228.531 144.175L228.533 144.175Z" fill="url(#paint55_linear_708_7139)" fill-opacity="0.1"/>
<path d="M226.579 145.363C226.263 145.75 226.067 145.996 226.368 146.49C225.303 146.556 224.136 146.169 224.074 144.947C224.874 145.436 225.669 145.446 226.579 145.36L226.579 145.363Z" fill="url(#paint56_linear_708_7139)" fill-opacity="0.1"/>
<path d="M238.616 113.263C237.902 114.215 236.907 114.24 235.867 113.793C236.23 113.475 236.307 113.149 236.159 112.706C236.982 113.079 237.831 113.371 238.707 113.031L238.616 113.263Z" fill="url(#paint57_linear_708_7139)" fill-opacity="0.1"/>
<path d="M236.774 110.367C236.748 110.387 236.409 110.406 236.399 110.389C236.208 109.557 237.189 108.951 236.823 108.281L236.46 109.209L235.577 108.73L235.94 107.802C235.43 107.723 235.521 108.66 235.461 108.684L234.498 108.575C234.36 108.187 235.075 107.803 234.733 107.466C234.267 107.92 234.465 108.707 234.077 109.144C233.885 109.36 233.633 109.411 233.555 109.132C233.479 108.867 234.163 107.529 234.401 107.261C234.712 106.912 236.255 106.108 236.628 106.385C236.871 106.563 237.397 107.901 237.441 108.252C237.513 108.834 237.254 110.044 236.773 110.372L236.774 110.367Z" fill="url(#paint58_linear_708_7139)" fill-opacity="0.1"/>
<path d="M234.537 112.068C233.883 111.962 234.091 111.41 233.89 110.959C233.602 110.314 232.853 109.786 232.536 109.148L232.275 109.308C232.907 110.037 233.792 110.75 233.844 111.795C232.758 111.268 231.78 111.06 231.741 109.688C231.72 108.976 231.876 108.555 232.266 107.969C233.213 109.317 235.014 110.109 234.539 112.069L234.537 112.068Z" fill="url(#paint59_linear_708_7139)" fill-opacity="0.1"/>
<path d="M234.765 112.159C235.242 111.048 236.668 111.625 237.557 111.178C237.534 110.968 237.263 111.1 237.141 111.106C236.389 111.125 235.602 111.195 234.934 111.556C234.676 111.512 234.781 111.366 234.877 111.208C235.493 110.194 237.569 110.88 238.523 110.418C238.517 111.206 237.766 112.354 237.018 112.583C236.455 112.756 235.332 112.344 234.765 112.159Z" fill="url(#paint60_linear_708_7139)" fill-opacity="0.1"/>
<path d="M232.324 111.62C232.498 111.49 235.169 112.526 235.553 112.73C237.409 113.716 233.991 113.773 233.548 114.086C233.461 113.445 231.508 112.229 232.324 111.62ZM235.104 113.357C235.124 112.894 234.75 113.189 234.463 113.101C233.878 112.92 233.277 112.699 232.876 112.221C232.702 112.493 232.848 112.448 232.986 112.601C233.508 113.182 234.352 113.379 235.105 113.36L235.104 113.357Z" fill="url(#paint61_linear_708_7139)" fill-opacity="0.1"/>
<path d="M234.827 110.978L234.057 109.582L234.556 108.921C234.674 108.895 235.059 109.311 235.259 109.394C235.873 109.658 236.491 109.159 236.137 110.332L234.825 110.977L234.827 110.978Z" fill="url(#paint62_linear_708_7139)" fill-opacity="0.1"/>
<path d="M232.562 111.297C232.118 111.527 231.841 111.676 231.922 112.248C230.918 111.887 229.999 111.07 230.426 109.924C230.967 110.689 231.693 111.013 232.562 111.295L232.562 111.297Z" fill="url(#paint63_linear_708_7139)" fill-opacity="0.1"/>
<path d="M257.318 82.3657C256.864 82.6022 256.473 82.4275 256.152 82.061C256.352 82.0047 256.443 81.8925 256.467 81.6931C256.718 81.9905 256.993 82.2614 257.396 82.2924L257.318 82.3657Z" fill="url(#paint64_linear_708_7139)" fill-opacity="0.1"/>
<path d="M257.142 80.8997C257.128 80.9022 256.992 80.8469 256.992 80.8385C257.072 80.4801 257.566 80.4269 257.548 80.0987L257.235 80.3915L256.981 80.0417L257.294 79.7488C257.111 79.6235 256.972 80.0042 256.944 80.0025L256.591 79.7813C256.609 79.6052 256.958 79.5888 256.888 79.3945C256.623 79.4842 256.553 79.8263 256.322 79.9239C256.207 79.9724 256.1 79.9453 256.121 79.8224C256.141 79.7055 256.655 79.3131 256.797 79.2534C256.983 79.1755 257.731 79.1498 257.824 79.3266C257.885 79.441 257.841 80.0577 257.793 80.2025C257.713 80.4418 257.388 80.8632 257.14 80.9011L257.142 80.8997Z" fill="url(#paint65_linear_708_7139)" fill-opacity="0.1"/>
<path d="M255.958 81.1443C255.723 80.9817 255.907 80.8058 255.912 80.5936C255.92 80.2897 255.728 79.9457 255.723 79.6391L255.592 79.6529C255.702 80.0533 255.913 80.4943 255.739 80.9094C255.415 80.5033 255.075 80.2408 255.314 79.7012C255.438 79.4209 255.577 79.2867 255.837 79.1316C255.955 79.8304 256.507 80.4725 255.958 81.1451L255.958 81.1443Z" fill="url(#paint66_linear_708_7139)" fill-opacity="0.1"/>
<path d="M256.029 81.2227C256.421 80.8801 256.867 81.3684 257.295 81.36C257.325 81.2746 257.196 81.2755 257.147 81.2549C256.852 81.1229 256.533 81.0037 256.207 81.02C256.115 80.9548 256.183 80.9176 256.25 80.8743C256.677 80.5951 257.355 81.2468 257.811 81.2446C257.663 81.5491 257.158 81.8553 256.825 81.8054C256.575 81.7682 256.215 81.3996 256.029 81.2227Z" fill="url(#paint67_linear_708_7139)" fill-opacity="0.1"/>
<path d="M255.182 80.5591C255.274 80.541 256.118 81.4394 256.229 81.5895C256.767 82.3169 255.43 81.7045 255.199 81.7438C255.285 81.4789 254.752 80.6441 255.182 80.5591ZM255.939 81.7497C256.033 81.5738 255.832 81.6187 255.737 81.5313C255.544 81.3526 255.352 81.155 255.285 80.8948C255.167 80.9682 255.232 80.978 255.257 81.063C255.352 81.3856 255.643 81.6184 255.939 81.7512L255.939 81.7497Z" fill="url(#paint68_linear_708_7139)" fill-opacity="0.1"/>
<path d="M256.27 80.7747L256.23 80.0899L256.547 79.9261C256.597 79.9376 256.67 80.1707 256.732 80.2403C256.921 80.4567 257.254 80.3777 256.898 80.767L256.269 80.7739L256.27 80.7747Z" fill="url(#paint69_linear_708_7139)" fill-opacity="0.1"/>
<path d="M255.336 80.4785C255.121 80.4857 254.986 80.4918 254.911 80.7289C254.588 80.4025 254.383 79.9147 254.762 79.549C254.83 79.9464 255.051 80.2072 255.337 80.4778L255.336 80.4785Z" fill="url(#paint70_linear_708_7139)" fill-opacity="0.1"/>
<path d="M234.688 169.114C234.879 168.833 235.429 167.56 235.914 168.098C236.225 168.446 235.778 169.083 235.446 169.263C236.567 169.553 236.259 169.691 235.569 170.23C236.254 170.4 236.989 170.139 237.285 170.946C236.8 171.512 236.206 171.054 235.628 170.887C235.928 171.36 236.126 171.672 235.336 171.72L234.8 170.771C235.471 170.853 235.122 170.506 235.246 170.385C235.338 170.292 235.49 170.288 235.566 170.231C235.46 170.203 235.382 170.12 235.226 170.202L235.171 169.817L234.88 169.875L235.023 169.467L234.753 169.583C234.712 169.569 234.74 169.243 234.686 169.115C234.478 169.417 234.441 169.726 234.051 169.935L233.93 168.793L234.418 168.73C234.561 168.822 234.619 168.969 234.686 169.115L234.688 169.114Z" fill="url(#paint71_linear_708_7139)" fill-opacity="0.1"/>
<path d="M233.295 169.783C233.52 170.001 233.757 170.103 233.909 170.345L233.491 170.546L233.901 170.692L232.683 171.368C232.762 171.532 234.223 170.485 234.392 171.278L234.783 171.142C234.959 171.201 235.468 172.88 234.98 173.098C234.002 173.366 234.546 171.64 234.307 171.529L233.968 172.021L233.441 171.86L233.76 171.106C232.226 172.634 230.867 171.265 233.213 170.681L232.74 170.054C232.921 169.998 233.13 169.818 233.296 169.786C231.302 167.852 233.743 167.829 233.845 169.865C233.803 169.947 233.447 169.758 233.296 169.786L233.295 169.783Z" fill="url(#paint72_linear_708_7139)" fill-opacity="0.1"/>
<path d="M230.208 122.853C230.399 122.573 230.948 121.3 231.433 121.838C231.745 122.185 231.297 122.823 230.966 123.003C232.086 123.293 231.779 123.431 231.088 123.969C231.774 124.14 232.509 123.878 232.805 124.686C232.32 125.252 231.725 124.794 231.147 124.626C231.447 125.099 231.646 125.412 230.856 125.46L230.32 124.511C230.99 124.592 230.642 124.246 230.765 124.125C230.858 124.032 231.01 124.027 231.085 123.971C230.979 123.943 230.902 123.86 230.746 123.942L230.691 123.557L230.4 123.615L230.543 123.207L230.273 123.323C230.231 123.308 230.26 122.983 230.205 122.855C229.997 123.157 229.961 123.466 229.571 123.674L229.45 122.533L229.937 122.469C230.081 122.561 230.138 122.709 230.205 122.855L230.208 122.853Z" fill="url(#paint73_linear_708_7139)" fill-opacity="0.1"/>
<path d="M228.815 123.523C229.039 123.741 229.277 123.842 229.428 124.085L229.011 124.286L229.42 124.432L228.202 125.107C228.281 125.272 229.742 124.225 229.912 125.018L230.302 124.882C230.478 124.941 230.988 126.619 230.5 126.837C229.521 127.106 230.065 125.38 229.826 125.268L229.487 125.761L228.961 125.6L229.28 124.846C227.745 126.373 226.387 125.004 228.732 124.42L228.259 123.794C228.441 123.737 228.65 123.558 228.816 123.526C226.821 121.592 229.262 121.569 229.365 123.605C229.322 123.687 228.967 123.498 228.816 123.526L228.815 123.523Z" fill="url(#paint74_linear_708_7139)" fill-opacity="0.1"/>
<path d="M273.153 206.242C273.344 205.961 273.893 204.689 274.379 205.226C274.69 205.574 274.243 206.211 273.911 206.391C275.032 206.682 274.724 206.819 274.033 207.358C274.719 207.528 275.454 207.267 275.75 208.074C275.265 208.641 274.671 208.183 274.093 208.015C274.393 208.488 274.591 208.801 273.801 208.848L273.265 207.899C273.936 207.981 273.587 207.634 273.711 207.513C273.803 207.421 273.955 207.416 274.031 207.359C273.925 207.331 273.847 207.249 273.691 207.331L273.636 206.946L273.345 207.003L273.488 206.595L273.218 206.711C273.177 206.697 273.205 206.371 273.15 206.243C272.943 206.546 272.906 206.855 272.516 207.063L272.395 205.921L272.882 205.858C273.026 205.95 273.083 206.097 273.15 206.243L273.153 206.242Z" fill="url(#paint75_linear_708_7139)" fill-opacity="0.1"/>
<path d="M271.76 206.912C271.985 207.129 272.222 207.231 272.373 207.474L271.956 207.675L272.365 207.82L271.148 208.496C271.227 208.66 272.688 207.614 272.857 208.407L273.247 208.27C273.423 208.33 273.933 210.008 273.445 210.226C272.467 210.495 273.011 208.768 272.772 208.657L272.433 209.15L271.906 208.988L272.225 208.234C270.691 209.762 269.332 208.393 271.677 207.809L271.204 207.183C271.386 207.126 271.595 206.947 271.761 206.915C269.767 204.981 272.208 204.958 272.31 206.993C272.267 207.076 271.912 206.886 271.761 206.915L271.76 206.912Z" fill="url(#paint76_linear_708_7139)" fill-opacity="0.1"/>
<path d="M322.419 206.881C322.609 206.6 323.159 205.328 323.644 205.865C323.956 206.213 323.508 206.85 323.177 207.03C324.297 207.321 323.99 207.458 323.299 207.997C323.985 208.167 324.72 207.906 325.016 208.713C324.531 209.28 323.936 208.822 323.358 208.654C323.658 209.127 323.857 209.439 323.067 209.487L322.531 208.538C323.201 208.62 322.853 208.273 322.976 208.152C323.069 208.06 323.221 208.055 323.296 207.998C323.19 207.97 323.113 207.888 322.957 207.97L322.902 207.585L322.611 207.642L322.753 207.234L322.484 207.35C322.442 207.336 322.471 207.01 322.416 206.882C322.208 207.185 322.172 207.494 321.782 207.702L321.661 206.56L322.148 206.497C322.292 206.589 322.349 206.736 322.416 206.882L322.419 206.881Z" fill="url(#paint77_linear_708_7139)" fill-opacity="0.1"/>
<path d="M321.026 207.551C321.25 207.768 321.488 207.87 321.639 208.113L321.221 208.314L321.631 208.46L320.413 209.135C320.492 209.299 321.953 208.253 322.123 209.046L322.513 208.909C322.689 208.969 323.199 210.647 322.711 210.865C321.732 211.134 322.276 209.407 322.037 209.296L321.698 209.789L321.172 209.627L321.491 208.873C319.956 210.401 318.598 209.032 320.943 208.448L320.47 207.822C320.652 207.765 320.861 207.586 321.027 207.554C319.032 205.62 321.473 205.597 321.576 207.632C321.533 207.715 321.178 207.526 321.027 207.554L321.026 207.551Z" fill="url(#paint78_linear_708_7139)" fill-opacity="0.1"/>
<path d="M358.446 182.174C358.637 181.893 359.186 180.62 359.672 181.158C359.983 181.506 359.536 182.143 359.204 182.323C360.325 182.613 360.017 182.751 359.326 183.29C360.012 183.46 360.747 183.199 361.043 184.006C360.558 184.572 359.964 184.114 359.386 183.947C359.685 184.42 359.884 184.732 359.094 184.78L358.558 183.831C359.229 183.913 358.88 183.566 359.003 183.445C359.096 183.353 359.248 183.348 359.324 183.291C359.218 183.263 359.14 183.18 358.984 183.262L358.929 182.877L358.638 182.935L358.781 182.527L358.511 182.643C358.47 182.629 358.498 182.303 358.443 182.175C358.236 182.477 358.199 182.786 357.809 182.995L357.688 181.853L358.175 181.79C358.319 181.882 358.376 182.029 358.443 182.175L358.446 182.174Z" fill="url(#paint79_linear_708_7139)" fill-opacity="0.1"/>
<path d="M357.053 182.844C357.278 183.061 357.515 183.163 357.666 183.405L357.249 183.607L357.658 183.752L356.441 184.428C356.52 184.592 357.981 183.546 358.15 184.339L358.54 184.202C358.716 184.261 359.226 185.94 358.738 186.158C357.76 186.426 358.304 184.7 358.065 184.589L357.726 185.081L357.199 184.92L357.518 184.166C355.984 185.694 354.625 184.325 356.97 183.741L356.497 183.114C356.679 183.058 356.888 182.878 357.054 182.846C355.06 180.912 357.501 180.889 357.603 182.925C357.56 183.007 357.205 182.818 357.054 182.846L357.053 182.844Z" fill="url(#paint80_linear_708_7139)" fill-opacity="0.1"/>
<path d="M369.95 140.776C370.141 140.496 370.69 139.223 371.176 139.761C371.487 140.108 371.039 140.745 370.708 140.926C371.828 141.216 371.521 141.354 370.83 141.892C371.516 142.063 372.251 141.801 372.547 142.609C372.062 143.175 371.468 142.717 370.89 142.549C371.189 143.022 371.388 143.335 370.598 143.383L370.062 142.434C370.733 142.515 370.384 142.169 370.507 142.048C370.6 141.955 370.752 141.95 370.828 141.893C370.722 141.866 370.644 141.783 370.488 141.865L370.433 141.48L370.142 141.538L370.285 141.13L370.015 141.246C369.974 141.231 370.002 140.906 369.947 140.778C369.74 141.08 369.703 141.389 369.313 141.597L369.192 140.455L369.679 140.392C369.823 140.484 369.88 140.632 369.947 140.778L369.95 140.776Z" fill="url(#paint81_linear_708_7139)" fill-opacity="0.1"/>
<path d="M368.557 141.446C368.782 141.664 369.019 141.765 369.17 142.008L368.753 142.209L369.162 142.355L367.945 143.031C368.024 143.195 369.485 142.148 369.654 142.941L370.044 142.805C370.22 142.864 370.73 144.542 370.242 144.76C369.264 145.029 369.807 143.303 369.569 143.191L369.23 143.684L368.703 143.523L369.022 142.769C367.488 144.297 366.129 142.928 368.474 142.343L368.001 141.717C368.183 141.66 368.392 141.481 368.558 141.449C366.564 139.515 369.005 139.492 369.107 141.528C369.064 141.61 368.709 141.421 368.558 141.449L368.557 141.446Z" fill="url(#paint82_linear_708_7139)" fill-opacity="0.1"/>
<path d="M359.294 101.727C359.484 101.446 360.034 100.173 360.519 100.711C360.831 101.058 360.383 101.696 360.052 101.876C361.172 102.166 360.865 102.304 360.174 102.842C360.86 103.013 361.595 102.752 361.891 103.559C361.406 104.125 360.811 103.667 360.233 103.5C360.533 103.973 360.732 104.285 359.942 104.333L359.406 103.384C360.076 103.466 359.728 103.119 359.851 102.998C359.944 102.905 360.096 102.901 360.171 102.844C360.065 102.816 359.988 102.733 359.832 102.815L359.777 102.43L359.486 102.488L359.628 102.08L359.359 102.196C359.317 102.182 359.346 101.856 359.291 101.728C359.083 102.03 359.047 102.339 358.657 102.548L358.536 101.406L359.023 101.343C359.167 101.435 359.224 101.582 359.291 101.728L359.294 101.727Z" fill="url(#paint83_linear_708_7139)" fill-opacity="0.1"/>
<path d="M357.901 102.396C358.125 102.614 358.363 102.716 358.514 102.958L358.096 103.159L358.506 103.305L357.288 103.981C357.367 104.145 358.828 103.098 358.998 103.891L359.388 103.755C359.564 103.814 360.074 105.492 359.586 105.71C358.607 105.979 359.151 104.253 358.912 104.142L358.573 104.634L358.047 104.473L358.366 103.719C356.831 105.247 355.473 103.878 357.818 103.293L357.345 102.667C357.527 102.611 357.736 102.431 357.902 102.399C355.907 100.465 358.348 100.442 358.451 102.478C358.408 102.56 358.053 102.371 357.902 102.399L357.901 102.396Z" fill="url(#paint84_linear_708_7139)" fill-opacity="0.1"/>
<path d="M323.145 74.8249C323.336 74.5444 323.886 73.2715 324.371 73.8094C324.682 74.1567 324.235 74.7941 323.903 74.9743C325.024 75.2646 324.716 75.4024 324.026 75.9407C324.711 76.1112 325.446 75.8499 325.742 76.6572C325.257 77.2235 324.663 76.7655 324.085 76.598C324.385 77.071 324.583 77.3835 323.793 77.4312L323.258 76.4821C323.928 76.5639 323.579 76.2174 323.703 76.0962C323.795 76.0036 323.947 75.999 324.023 75.9421C323.917 75.9142 323.839 75.8316 323.683 75.9135L323.628 75.5285L323.337 75.5864L323.48 75.1781L323.21 75.2943C323.169 75.2799 323.197 74.9542 323.143 74.8262C322.935 75.1285 322.899 75.4376 322.508 75.646L322.387 74.5041L322.875 74.4408C323.018 74.5328 323.076 74.6801 323.143 74.8262L323.145 74.8249Z" fill="url(#paint85_linear_708_7139)" fill-opacity="0.1"/>
<path d="M321.752 75.4947C321.977 75.7123 322.214 75.8139 322.366 76.0566L321.948 76.2577L322.358 76.4034L321.14 77.079C321.219 77.2432 322.68 76.1967 322.849 76.9897L323.24 76.8532C323.416 76.9124 323.925 78.5908 323.437 78.8088C322.459 79.0775 323.003 77.3513 322.764 77.2399L322.425 77.7324L321.898 77.5712L322.217 76.8172C320.683 78.345 319.324 76.976 321.67 76.3918L321.197 75.7656C321.379 75.7089 321.587 75.5296 321.753 75.4975C319.759 73.5636 322.2 73.5404 322.302 75.5762C322.26 75.6584 321.904 75.4694 321.753 75.4975L321.752 75.4947Z" fill="url(#paint86_linear_708_7139)" fill-opacity="0.1"/>
<defs>
<filter id="filter0_d_708_7139" x="511" y="0" width="96" height="281" filterUnits="userSpaceOnUse" color-interpolation-filters="sRGB">
<feFlood flood-opacity="0" result="BackgroundImageFix"/>
<feColorMatrix in="SourceAlpha" type="matrix" values="0 0 0 0 0 0 0 0 0 0 0 0 0 0 0 0 0 0 127 0" result="hardAlpha"/>
<feOffset dx="-20" dy="1"/>
<feGaussianBlur stdDeviation="10"/>
<feComposite in2="hardAlpha" operator="out"/>
<feColorMatrix type="matrix" values="0 0 0 0 0 0 0 0 0 0 0 0 0 0 0 0 0 0 0.25 0"/>
<feBlend mode="normal" in2="BackgroundImageFix" result="effect1_dropShadow_708_7139"/>
<feBlend mode="normal" in="SourceGraphic" in2="effect1_dropShadow_708_7139" result="shape"/>
</filter>
<filter id="filter1_d_708_7139" x="0" y="0" width="96" height="281" filterUnits="userSpaceOnUse" color-interpolation-filters="sRGB">
<feFlood flood-opacity="0" result="BackgroundImageFix"/>
<feColorMatrix in="SourceAlpha" type="matrix" values="0 0 0 0 0 0 0 0 0 0 0 0 0 0 0 0 0 0 127 0" result="hardAlpha"/>
<feOffset dx="20" dy="1"/>
<feGaussianBlur stdDeviation="10"/>
<feComposite in2="hardAlpha" operator="out"/>
<feColorMatrix type="matrix" values="0 0 0 0 0 0 0 0 0 0 0 0 0 0 0 0 0 0 0.25 0"/>
<feBlend mode="normal" in2="BackgroundImageFix" result="effect1_dropShadow_708_7139"/>
<feBlend mode="normal" in="SourceGraphic" in2="effect1_dropShadow_708_7139" result="shape"/>
</filter>
<linearGradient id="paint0_linear_708_7139" x1="575.306" y1="256.579" x2="528.81" y2="-37.9644" gradientUnits="userSpaceOnUse">
<stop stop-color="#CBA118"/>
<stop offset="0.333333" stop-color="#FFCB1F"/>
<stop offset="0.465" stop-color="white"/>
<stop offset="0.635" stop-color="#FFB300"/>
<stop offset="1" stop-color="#FFB300"/>
</linearGradient>
<linearGradient id="paint1_linear_708_7139" x1="28" y1="14" x2="28" y2="28" gradientUnits="userSpaceOnUse">
<stop stop-color="#FFCB1F"/>
<stop offset="1" stop-color="#997A12"/>
</linearGradient>
<linearGradient id="paint2_linear_708_7139" x1="579" y1="14" x2="579" y2="28" gradientUnits="userSpaceOnUse">
<stop stop-color="#FFCB1F"/>
<stop offset="1" stop-color="#997A12"/>
</linearGradient>
<linearGradient id="paint3_linear_708_7139" x1="28" y1="253" x2="28" y2="267" gradientUnits="userSpaceOnUse">
<stop stop-color="#FFCB1F"/>
<stop offset="1" stop-color="#997A12"/>
</linearGradient>
<linearGradient id="paint4_linear_708_7139" x1="579" y1="253" x2="579" y2="267" gradientUnits="userSpaceOnUse">
<stop stop-color="#FFCB1F"/>
<stop offset="1" stop-color="#997A12"/>
</linearGradient>
<linearGradient id="paint5_linear_708_7139" x1="607" y1="139.5" x2="551" y2="139.5" gradientUnits="userSpaceOnUse">
<stop offset="0.035" stop-color="#CC2F2F"/>
<stop offset="0.46" stop-color="#FF3131"/>
<stop offset="1" stop-color="#730000"/>
</linearGradient>
<linearGradient id="paint6_linear_708_7139" x1="56" y1="139.5" x2="0" y2="139.5" gradientUnits="userSpaceOnUse">
<stop offset="0.035" stop-color="#CC2F2F"/>
<stop offset="0.46" stop-color="#FF3131"/>
<stop offset="1" stop-color="#730000"/>
</linearGradient>
<linearGradient id="paint7_linear_708_7139" x1="226.682" y1="114.371" x2="374.624" y2="164.779" gradientUnits="userSpaceOnUse">
<stop stop-color="#FFD445"/>
<stop offset="1" stop-color="#D53030"/>
</linearGradient>
<linearGradient id="paint8_linear_708_7139" x1="333.624" y1="82.5725" x2="331.352" y2="85.4399" gradientUnits="userSpaceOnUse">
<stop stop-color="#FFD445"/>
<stop offset="1" stop-color="#D53030"/>
</linearGradient>
<linearGradient id="paint9_linear_708_7139" x1="342.157" y1="82.2118" x2="338.789" y2="86.4623" gradientUnits="userSpaceOnUse">
<stop stop-color="#FFD445"/>
<stop offset="1" stop-color="#D53030"/>
</linearGradient>
<linearGradient id="paint10_linear_708_7139" x1="340.588" y1="77.8841" x2="337.208" y2="82.1504" gradientUnits="userSpaceOnUse">
<stop stop-color="#FFD445"/>
<stop offset="1" stop-color="#D53030"/>
</linearGradient>
<linearGradient id="paint11_linear_708_7139" x1="337.241" y1="82.1365" x2="334.285" y2="85.8671" gradientUnits="userSpaceOnUse">
<stop stop-color="#FFD445"/>
<stop offset="1" stop-color="#D53030"/>
</linearGradient>
<linearGradient id="paint12_linear_708_7139" x1="336.193" y1="77.0166" x2="332.362" y2="81.8523" gradientUnits="userSpaceOnUse">
<stop stop-color="#FFD445"/>
<stop offset="1" stop-color="#D53030"/>
</linearGradient>
<linearGradient id="paint13_linear_708_7139" x1="339.077" y1="81.0927" x2="337.062" y2="83.6361" gradientUnits="userSpaceOnUse">
<stop stop-color="#FFD445"/>
<stop offset="1" stop-color="#D53030"/>
</linearGradient>
<linearGradient id="paint14_linear_708_7139" x1="339.349" y1="75.2096" x2="337.079" y2="78.0741" gradientUnits="userSpaceOnUse">
<stop stop-color="#FFD445"/>
<stop offset="1" stop-color="#D53030"/>
</linearGradient>
<linearGradient id="paint15_linear_708_7139" x1="364.347" y1="121.355" x2="360.759" y2="122.069" gradientUnits="userSpaceOnUse">
<stop stop-color="#FFD445"/>
<stop offset="1" stop-color="#D53030"/>
</linearGradient>
<linearGradient id="paint16_linear_708_7139" x1="371.081" y1="126.605" x2="365.763" y2="127.664" gradientUnits="userSpaceOnUse">
<stop stop-color="#FFD445"/>
<stop offset="1" stop-color="#D53030"/>
</linearGradient>
<linearGradient id="paint17_linear_708_7139" x1="372.69" y1="122.292" x2="367.351" y2="123.354" gradientUnits="userSpaceOnUse">
<stop stop-color="#FFD445"/>
<stop offset="1" stop-color="#D53030"/>
</linearGradient>
<linearGradient id="paint18_linear_708_7139" x1="367.384" y1="123.363" x2="362.716" y2="124.293" gradientUnits="userSpaceOnUse">
<stop stop-color="#FFD445"/>
<stop offset="1" stop-color="#D53030"/>
</linearGradient>
<linearGradient id="paint19_linear_708_7139" x1="369.898" y1="118.783" x2="363.847" y2="119.987" gradientUnits="userSpaceOnUse">
<stop stop-color="#FFD445"/>
<stop offset="1" stop-color="#D53030"/>
</linearGradient>
<linearGradient id="paint20_linear_708_7139" x1="369.461" y1="123.759" x2="366.278" y2="124.392" gradientUnits="userSpaceOnUse">
<stop stop-color="#FFD445"/>
<stop offset="1" stop-color="#D53030"/>
</linearGradient>
<linearGradient id="paint21_linear_708_7139" x1="373.475" y1="119.45" x2="369.89" y2="120.163" gradientUnits="userSpaceOnUse">
<stop stop-color="#FFD445"/>
<stop offset="1" stop-color="#D53030"/>
</linearGradient>
<linearGradient id="paint22_linear_708_7139" x1="364.65" y1="162.408" x2="361.279" y2="160.987" gradientUnits="userSpaceOnUse">
<stop stop-color="#FFD445"/>
<stop offset="1" stop-color="#D53030"/>
</linearGradient>
<linearGradient id="paint23_linear_708_7139" x1="367.285" y1="170.533" x2="362.288" y2="168.426" gradientUnits="userSpaceOnUse">
<stop stop-color="#FFD445"/>
<stop offset="1" stop-color="#D53030"/>
</linearGradient>
<linearGradient id="paint24_linear_708_7139" x1="371.034" y1="167.863" x2="366.019" y2="165.748" gradientUnits="userSpaceOnUse">
<stop stop-color="#FFD445"/>
<stop offset="1" stop-color="#D53030"/>
</linearGradient>
<linearGradient id="paint25_linear_708_7139" x1="366.04" y1="165.774" x2="361.654" y2="163.926" gradientUnits="userSpaceOnUse">
<stop stop-color="#FFD445"/>
<stop offset="1" stop-color="#D53030"/>
</linearGradient>
<linearGradient id="paint26_linear_708_7139" x1="370.693" y1="163.393" x2="365.008" y2="160.997" gradientUnits="userSpaceOnUse">
<stop stop-color="#FFD445"/>
<stop offset="1" stop-color="#D53030"/>
</linearGradient>
<linearGradient id="paint27_linear_708_7139" x1="367.541" y1="167.267" x2="364.551" y2="166.006" gradientUnits="userSpaceOnUse">
<stop stop-color="#FFD445"/>
<stop offset="1" stop-color="#D53030"/>
</linearGradient>
<linearGradient id="paint28_linear_708_7139" x1="373.279" y1="165.95" x2="369.911" y2="164.53" gradientUnits="userSpaceOnUse">
<stop stop-color="#FFD445"/>
<stop offset="1" stop-color="#D53030"/>
</linearGradient>
<linearGradient id="paint29_linear_708_7139" x1="342.621" y1="194.3" x2="340.463" y2="191.346" gradientUnits="userSpaceOnUse">
<stop stop-color="#FFD445"/>
<stop offset="1" stop-color="#D53030"/>
</linearGradient>
<linearGradient id="paint30_linear_708_7139" x1="340.695" y1="202.62" x2="337.496" y2="198.241" gradientUnits="userSpaceOnUse">
<stop stop-color="#FFD445"/>
<stop offset="1" stop-color="#D53030"/>
</linearGradient>
<linearGradient id="paint31_linear_708_7139" x1="345.285" y1="202.262" x2="342.074" y2="197.867" gradientUnits="userSpaceOnUse">
<stop stop-color="#FFD445"/>
<stop offset="1" stop-color="#D53030"/>
</linearGradient>
<linearGradient id="paint32_linear_708_7139" x1="342.077" y1="197.9" x2="339.269" y2="194.057" gradientUnits="userSpaceOnUse">
<stop stop-color="#FFD445"/>
<stop offset="1" stop-color="#D53030"/>
</linearGradient>
<linearGradient id="paint33_linear_708_7139" x1="347.291" y1="198.255" x2="343.651" y2="193.273" gradientUnits="userSpaceOnUse">
<stop stop-color="#FFD445"/>
<stop offset="1" stop-color="#D53030"/>
</linearGradient>
<linearGradient id="paint34_linear_708_7139" x1="342.591" y1="199.951" x2="340.677" y2="197.331" gradientUnits="userSpaceOnUse">
<stop stop-color="#FFD445"/>
<stop offset="1" stop-color="#D53030"/>
</linearGradient>
<linearGradient id="paint35_linear_708_7139" x1="348.191" y1="201.778" x2="346.035" y2="198.827" gradientUnits="userSpaceOnUse">
<stop stop-color="#FFD445"/>
<stop offset="1" stop-color="#D53030"/>
</linearGradient>
<linearGradient id="paint36_linear_708_7139" x1="302.915" y1="208.918" x2="302.643" y2="205.27" gradientUnits="userSpaceOnUse">
<stop stop-color="#FFD445"/>
<stop offset="1" stop-color="#D53030"/>
</linearGradient>
<linearGradient id="paint37_linear_708_7139" x1="296.883" y1="214.965" x2="296.48" y2="209.557" gradientUnits="userSpaceOnUse">
<stop stop-color="#FFD445"/>
<stop offset="1" stop-color="#D53030"/>
</linearGradient>
<linearGradient id="paint38_linear_708_7139" x1="300.97" y1="217.086" x2="300.565" y2="211.658" gradientUnits="userSpaceOnUse">
<stop stop-color="#FFD445"/>
<stop offset="1" stop-color="#D53030"/>
</linearGradient>
<linearGradient id="paint39_linear_708_7139" x1="300.552" y1="211.688" x2="300.198" y2="206.942" gradientUnits="userSpaceOnUse">
<stop stop-color="#FFD445"/>
<stop offset="1" stop-color="#D53030"/>
</linearGradient>
<linearGradient id="paint40_linear_708_7139" x1="304.791" y1="214.744" x2="304.332" y2="208.591" gradientUnits="userSpaceOnUse">
<stop stop-color="#FFD445"/>
<stop offset="1" stop-color="#D53030"/>
</linearGradient>
<linearGradient id="paint41_linear_708_7139" x1="299.905" y1="213.702" x2="299.663" y2="210.466" gradientUnits="userSpaceOnUse">
<stop stop-color="#FFD445"/>
<stop offset="1" stop-color="#D53030"/>
</linearGradient>
<linearGradient id="paint42_linear_708_7139" x1="303.695" y1="218.211" x2="303.423" y2="214.567" gradientUnits="userSpaceOnUse">
<stop stop-color="#FFD445"/>
<stop offset="1" stop-color="#D53030"/>
</linearGradient>
<linearGradient id="paint43_linear_708_7139" x1="253.322" y1="190.836" x2="255.894" y2="188.234" gradientUnits="userSpaceOnUse">
<stop stop-color="#FFD445"/>
<stop offset="1" stop-color="#D53030"/>
</linearGradient>
<linearGradient id="paint44_linear_708_7139" x1="244.804" y1="190.262" x2="248.616" y2="186.405" gradientUnits="userSpaceOnUse">
<stop stop-color="#FFD445"/>
<stop offset="1" stop-color="#D53030"/>
</linearGradient>
<linearGradient id="paint45_linear_708_7139" x1="245.888" y1="194.735" x2="249.715" y2="190.864" gradientUnits="userSpaceOnUse">
<stop stop-color="#FFD445"/>
<stop offset="1" stop-color="#D53030"/>
</linearGradient>
<linearGradient id="paint46_linear_708_7139" x1="249.682" y1="190.874" x2="253.028" y2="187.489" gradientUnits="userSpaceOnUse">
<stop stop-color="#FFD445"/>
<stop offset="1" stop-color="#D53030"/>
</linearGradient>
<linearGradient id="paint47_linear_708_7139" x1="250.164" y1="196.078" x2="254.501" y2="191.69" gradientUnits="userSpaceOnUse">
<stop stop-color="#FFD445"/>
<stop offset="1" stop-color="#D53030"/>
</linearGradient>
<linearGradient id="paint48_linear_708_7139" x1="247.74" y1="191.711" x2="250.021" y2="189.403" gradientUnits="userSpaceOnUse">
<stop stop-color="#FFD445"/>
<stop offset="1" stop-color="#D53030"/>
</linearGradient>
<linearGradient id="paint49_linear_708_7139" x1="246.831" y1="197.529" x2="249.4" y2="194.93" gradientUnits="userSpaceOnUse">
<stop stop-color="#FFD445"/>
<stop offset="1" stop-color="#D53030"/>
</linearGradient>
<linearGradient id="paint50_linear_708_7139" x1="230.452" y1="145.482" x2="232.942" y2="145.398" gradientUnits="userSpaceOnUse">
<stop stop-color="#FFD445"/>
<stop offset="1" stop-color="#D53030"/>
</linearGradient>
<linearGradient id="paint51_linear_708_7139" x1="226.498" y1="141.211" x2="230.19" y2="141.086" gradientUnits="userSpaceOnUse">
<stop stop-color="#FFD445"/>
<stop offset="1" stop-color="#D53030"/>
</linearGradient>
<linearGradient id="paint52_linear_708_7139" x1="224.946" y1="143.933" x2="228.651" y2="143.807" gradientUnits="userSpaceOnUse">
<stop stop-color="#FFD445"/>
<stop offset="1" stop-color="#D53030"/>
</linearGradient>
<linearGradient id="paint53_linear_708_7139" x1="228.629" y1="143.797" x2="231.869" y2="143.687" gradientUnits="userSpaceOnUse">
<stop stop-color="#FFD445"/>
<stop offset="1" stop-color="#D53030"/>
</linearGradient>
<linearGradient id="paint54_linear_708_7139" x1="226.433" y1="146.599" x2="230.632" y2="146.456" gradientUnits="userSpaceOnUse">
<stop stop-color="#FFD445"/>
<stop offset="1" stop-color="#D53030"/>
</linearGradient>
<linearGradient id="paint55_linear_708_7139" x1="227.277" y1="143.303" x2="229.486" y2="143.228" gradientUnits="userSpaceOnUse">
<stop stop-color="#FFD445"/>
<stop offset="1" stop-color="#D53030"/>
</linearGradient>
<linearGradient id="paint56_linear_708_7139" x1="224.102" y1="145.757" x2="226.59" y2="145.673" gradientUnits="userSpaceOnUse">
<stop stop-color="#FFD445"/>
<stop offset="1" stop-color="#D53030"/>
</linearGradient>
<linearGradient id="paint57_linear_708_7139" x1="236.069" y1="112.937" x2="238.389" y2="113.845" gradientUnits="userSpaceOnUse">
<stop stop-color="#FFD445"/>
<stop offset="1" stop-color="#D53030"/>
</linearGradient>
<linearGradient id="paint58_linear_708_7139" x1="234.132" y1="107.452" x2="237.572" y2="108.797" gradientUnits="userSpaceOnUse">
<stop stop-color="#FFD445"/>
<stop offset="1" stop-color="#D53030"/>
</linearGradient>
<linearGradient id="paint59_linear_708_7139" x1="231.627" y1="109.336" x2="235.08" y2="110.687" gradientUnits="userSpaceOnUse">
<stop stop-color="#FFD445"/>
<stop offset="1" stop-color="#D53030"/>
</linearGradient>
<linearGradient id="paint60_linear_708_7139" x1="235.061" y1="110.67" x2="238.08" y2="111.851" gradientUnits="userSpaceOnUse">
<stop stop-color="#FFD445"/>
<stop offset="1" stop-color="#D53030"/>
</linearGradient>
<linearGradient id="paint61_linear_708_7139" x1="231.941" y1="112.373" x2="235.854" y2="113.904" gradientUnits="userSpaceOnUse">
<stop stop-color="#FFD445"/>
<stop offset="1" stop-color="#D53030"/>
</linearGradient>
<linearGradient id="paint62_linear_708_7139" x1="234.019" y1="109.68" x2="236.077" y2="110.485" gradientUnits="userSpaceOnUse">
<stop stop-color="#FFD445"/>
<stop offset="1" stop-color="#D53030"/>
</linearGradient>
<linearGradient id="paint63_linear_708_7139" x1="230.131" y1="110.679" x2="232.449" y2="111.585" gradientUnits="userSpaceOnUse">
<stop stop-color="#FFD445"/>
<stop offset="1" stop-color="#D53030"/>
</linearGradient>
<linearGradient id="paint64_linear_708_7139" x1="256.39" y1="81.7659" x2="257.122" y2="82.5491" gradientUnits="userSpaceOnUse">
<stop stop-color="#FFD445"/>
<stop offset="1" stop-color="#D53030"/>
</linearGradient>
<linearGradient id="paint65_linear_708_7139" x1="256.657" y1="79.2774" x2="257.743" y2="80.4383" gradientUnits="userSpaceOnUse">
<stop stop-color="#FFD445"/>
<stop offset="1" stop-color="#D53030"/>
</linearGradient>
<linearGradient id="paint66_linear_708_7139" x1="255.335" y1="79.5436" x2="256.425" y2="80.7088" gradientUnits="userSpaceOnUse">
<stop stop-color="#FFD445"/>
<stop offset="1" stop-color="#D53030"/>
</linearGradient>
<linearGradient id="paint67_linear_708_7139" x1="256.421" y1="80.6995" x2="257.373" y2="81.7184" gradientUnits="userSpaceOnUse">
<stop stop-color="#FFD445"/>
<stop offset="1" stop-color="#D53030"/>
</linearGradient>
<linearGradient id="paint68_linear_708_7139" x1="254.894" y1="80.7805" x2="256.128" y2="82.1013" gradientUnits="userSpaceOnUse">
<stop stop-color="#FFD445"/>
<stop offset="1" stop-color="#D53030"/>
</linearGradient>
<linearGradient id="paint69_linear_708_7139" x1="256.197" y1="80.1208" x2="256.847" y2="80.8154" gradientUnits="userSpaceOnUse">
<stop stop-color="#FFD445"/>
<stop offset="1" stop-color="#D53030"/>
</linearGradient>
<linearGradient id="paint70_linear_708_7139" x1="254.507" y1="79.7871" x2="255.238" y2="80.5695" gradientUnits="userSpaceOnUse">
<stop stop-color="#FFD445"/>
<stop offset="1" stop-color="#D53030"/>
</linearGradient>
<linearGradient id="paint71_linear_708_7139" x1="234.694" y1="168.399" x2="236.21" y2="171.547" gradientUnits="userSpaceOnUse">
<stop stop-color="#FFD445"/>
<stop offset="1" stop-color="#D53030"/>
</linearGradient>
<linearGradient id="paint72_linear_708_7139" x1="232.078" y1="168.636" x2="234.368" y2="173.392" gradientUnits="userSpaceOnUse">
<stop stop-color="#FFD445"/>
<stop offset="1" stop-color="#D53030"/>
</linearGradient>
<linearGradient id="paint73_linear_708_7139" x1="230.214" y1="122.138" x2="231.73" y2="125.286" gradientUnits="userSpaceOnUse">
<stop stop-color="#FFD445"/>
<stop offset="1" stop-color="#D53030"/>
</linearGradient>
<linearGradient id="paint74_linear_708_7139" x1="227.597" y1="122.376" x2="229.888" y2="127.132" gradientUnits="userSpaceOnUse">
<stop stop-color="#FFD445"/>
<stop offset="1" stop-color="#D53030"/>
</linearGradient>
<linearGradient id="paint75_linear_708_7139" x1="273.159" y1="205.527" x2="274.675" y2="208.675" gradientUnits="userSpaceOnUse">
<stop stop-color="#FFD445"/>
<stop offset="1" stop-color="#D53030"/>
</linearGradient>
<linearGradient id="paint76_linear_708_7139" x1="270.543" y1="205.765" x2="272.833" y2="210.521" gradientUnits="userSpaceOnUse">
<stop stop-color="#FFD445"/>
<stop offset="1" stop-color="#D53030"/>
</linearGradient>
<linearGradient id="paint77_linear_708_7139" x1="322.425" y1="206.166" x2="323.941" y2="209.314" gradientUnits="userSpaceOnUse">
<stop stop-color="#FFD445"/>
<stop offset="1" stop-color="#D53030"/>
</linearGradient>
<linearGradient id="paint78_linear_708_7139" x1="319.808" y1="206.404" x2="322.099" y2="211.16" gradientUnits="userSpaceOnUse">
<stop stop-color="#FFD445"/>
<stop offset="1" stop-color="#D53030"/>
</linearGradient>
<linearGradient id="paint79_linear_708_7139" x1="358.452" y1="181.459" x2="359.968" y2="184.607" gradientUnits="userSpaceOnUse">
<stop stop-color="#FFD445"/>
<stop offset="1" stop-color="#D53030"/>
</linearGradient>
<linearGradient id="paint80_linear_708_7139" x1="355.836" y1="181.696" x2="358.126" y2="186.452" gradientUnits="userSpaceOnUse">
<stop stop-color="#FFD445"/>
<stop offset="1" stop-color="#D53030"/>
</linearGradient>
<linearGradient id="paint81_linear_708_7139" x1="369.956" y1="140.061" x2="371.472" y2="143.209" gradientUnits="userSpaceOnUse">
<stop stop-color="#FFD445"/>
<stop offset="1" stop-color="#D53030"/>
</linearGradient>
<linearGradient id="paint82_linear_708_7139" x1="367.34" y1="140.299" x2="369.63" y2="145.055" gradientUnits="userSpaceOnUse">
<stop stop-color="#FFD445"/>
<stop offset="1" stop-color="#D53030"/>
</linearGradient>
<linearGradient id="paint83_linear_708_7139" x1="359.3" y1="101.012" x2="360.816" y2="104.16" gradientUnits="userSpaceOnUse">
<stop stop-color="#FFD445"/>
<stop offset="1" stop-color="#D53030"/>
</linearGradient>
<linearGradient id="paint84_linear_708_7139" x1="356.683" y1="101.249" x2="358.974" y2="106.005" gradientUnits="userSpaceOnUse">
<stop stop-color="#FFD445"/>
<stop offset="1" stop-color="#D53030"/>
</linearGradient>
<linearGradient id="paint85_linear_708_7139" x1="323.151" y1="74.1099" x2="324.667" y2="77.258" gradientUnits="userSpaceOnUse">
<stop stop-color="#FFD445"/>
<stop offset="1" stop-color="#D53030"/>
</linearGradient>
<linearGradient id="paint86_linear_708_7139" x1="320.535" y1="74.3476" x2="322.825" y2="79.1035" gradientUnits="userSpaceOnUse">
<stop stop-color="#FFD445"/>
<stop offset="1" stop-color="#D53030"/>
</linearGradient>
</defs>
</svg>
