<svg width="282" height="65" viewBox="0 0 282 65" fill="none" xmlns="http://www.w3.org/2000/svg">
<rect width="282" height="65" rx="32.5" fill="url(#paint0_linear_708_6957)"/>
<g filter="url(#filter0_d_708_6957)">
<rect x="6" y="5" width="267" height="54" rx="27" fill="url(#paint1_linear_708_6957)"/>
</g>
<g filter="url(#filter1_d_708_6957)">
<mask id="path-3-outside-1_708_6957" maskUnits="userSpaceOnUse" x="78" y="20" width="125" height="28" fill="black">
<rect fill="white" x="78" y="20" width="125" height="28"/>
<path d="M79.4148 40V39.28L82.8468 38.968H83.5668L87.1188 39.28V40H79.4148ZM81.8148 40C81.8628 37.336 81.8628 34.624 81.8628 31.864V30.616C81.8628 27.88 81.8628 25.144 81.8148 22.456H84.4308C84.3588 25.12 84.3588 27.856 84.3588 30.616V32.296C84.3588 34.648 84.3588 37.312 84.4308 40H81.8148ZM83.1348 32.848V32.056H85.6548C89.1348 32.056 90.5748 30.208 90.5748 27.568C90.5748 24.76 89.1828 23.272 86.1588 23.272H83.1348V22.456H86.3028C90.9108 22.456 92.9748 24.4 92.9748 27.592C92.9748 30.544 90.8628 32.848 85.7028 32.848H83.1348ZM79.4148 23.2V22.456H83.1348V23.464H82.8468L79.4148 23.2ZM94.4058 40V39.328L97.1658 39.064H98.1498L100.958 39.328V40H94.4058ZM96.4698 40C96.5178 38.464 96.5418 36.232 96.5418 34.48V22.144L94.5018 22.024V21.376L98.5818 20.584L98.9418 20.8L98.8698 24.568V34.48C98.8698 36.232 98.8938 38.464 98.9418 40H96.4698ZM106.117 40.384C104.197 40.384 102.781 39.232 102.781 37.24C102.781 35.32 103.933 34.096 107.245 33.136C108.541 32.728 110.149 32.32 111.445 32.032V32.632C110.149 32.968 108.757 33.328 107.749 33.712C105.829 34.432 105.013 35.488 105.013 36.88C105.013 38.368 105.877 39.112 107.173 39.112C108.133 39.112 109.069 38.608 110.845 36.784L111.109 37.96H110.461C108.997 39.544 107.965 40.384 106.117 40.384ZM112.621 40.36C111.133 40.36 110.413 39.328 110.269 37.648V31.24C110.269 28.6 109.477 27.904 107.605 27.904C106.693 27.904 105.829 28.12 104.725 28.672L105.901 28.048L105.565 29.92C105.445 30.928 104.941 31.288 104.293 31.288C103.669 31.288 103.261 30.976 103.117 30.376C103.549 28.36 105.373 27.136 108.277 27.136C111.181 27.136 112.549 28.408 112.549 31.48V37.504C112.549 38.896 112.861 39.304 113.509 39.304C113.893 39.304 114.157 39.136 114.589 38.656L114.973 39.016C114.421 39.928 113.677 40.36 112.621 40.36ZM116.888 46.504C115.784 46.504 114.704 46 114.632 45.112C114.752 44.368 115.424 44.032 116.144 44.032C116.84 44.032 117.416 44.416 117.968 44.992L118.664 45.736L117.896 46.144L117.416 45.736C118.976 45.256 120.152 43.696 121.064 41.32L121.76 39.568L121.904 39.184L124.04 33.328L126.032 27.496H126.968L121.904 41.104C120.44 44.992 118.832 46.504 116.888 46.504ZM121.448 41.392L115.832 27.496H118.4L122.384 38.32L122.528 38.632L121.448 41.392ZM114.656 28.168V27.496H120.848V28.168L118.352 28.408H117.032L114.656 28.168ZM123.392 28.168V27.496H128.264V28.168L126.32 28.408H125.936L123.392 28.168ZM134.706 40V39.28L137.058 38.992H137.49L140.082 39.28V40H134.706ZM136.41 40L142.314 22.312H143.874L149.85 40H147.306L142.098 23.944H142.578L142.506 24.28L137.466 40H136.41ZM139.026 34.096L139.146 33.304H146.538L146.634 34.096H139.026ZM144.402 40V39.256L147.618 38.992H148.458L151.65 39.256V40H144.402ZM157.645 46.24C153.901 46.24 152.533 44.896 152.533 43.072C152.533 41.632 153.613 40.576 155.749 39.76L155.845 39.976C154.693 40.888 154.189 41.56 154.189 42.688C154.189 44.44 155.461 45.352 157.693 45.352C161.005 45.352 162.709 44.08 162.709 42.328C162.709 41.32 162.085 40.408 160.141 40.408H157.237C156.349 40.408 155.797 40.384 155.221 40.216V40.144C153.973 39.808 153.349 39.064 153.349 37.96C153.349 36.928 153.925 35.992 155.461 34.888V34.672L155.965 34.912C155.197 35.752 154.837 36.28 154.837 37.048C154.837 37.864 155.365 38.392 156.661 38.392H160.189C163.285 38.392 164.677 39.64 164.677 41.68C164.677 43.984 162.181 46.24 157.645 46.24ZM157.981 35.728C154.909 35.728 153.133 33.976 153.133 31.456C153.133 28.864 154.933 27.136 157.981 27.136C159.613 27.136 160.861 27.592 161.629 28.384L161.701 28.456C162.445 29.176 162.853 30.208 162.853 31.456C162.853 33.976 161.029 35.728 157.981 35.728ZM157.957 35.008C159.637 35.008 160.717 33.568 160.717 31.432C160.717 29.224 159.637 27.856 158.005 27.856C156.349 27.856 155.269 29.248 155.269 31.456C155.269 33.592 156.301 35.008 157.957 35.008ZM160.885 28.696V28.288H161.029L164.389 27.184L164.797 27.448V28.864L160.885 28.696ZM169.61 40.384C167.69 40.384 166.274 39.232 166.274 37.24C166.274 35.32 167.426 34.096 170.738 33.136C172.034 32.728 173.642 32.32 174.938 32.032V32.632C173.642 32.968 172.25 33.328 171.242 33.712C169.322 34.432 168.506 35.488 168.506 36.88C168.506 38.368 169.37 39.112 170.666 39.112C171.626 39.112 172.562 38.608 174.338 36.784L174.602 37.96H173.954C172.49 39.544 171.458 40.384 169.61 40.384ZM176.114 40.36C174.626 40.36 173.906 39.328 173.762 37.648V31.24C173.762 28.6 172.97 27.904 171.098 27.904C170.186 27.904 169.322 28.12 168.218 28.672L169.394 28.048L169.058 29.92C168.938 30.928 168.434 31.288 167.786 31.288C167.162 31.288 166.754 30.976 166.61 30.376C167.042 28.36 168.866 27.136 171.77 27.136C174.674 27.136 176.042 28.408 176.042 31.48V37.504C176.042 38.896 176.354 39.304 177.002 39.304C177.386 39.304 177.65 39.136 178.082 38.656L178.466 39.016C177.914 39.928 177.17 40.36 176.114 40.36ZM179.676 40V39.328L182.268 39.064H183.252L185.796 39.328V40H179.676ZM181.572 40C181.62 38.824 181.668 36.112 181.668 34.48V32.944C181.668 31.336 181.62 30.136 181.572 28.936L179.508 28.84V28.216L183.756 27.184L184.044 27.376L183.972 30.832V34.48C183.972 36.112 183.996 38.824 184.068 40H181.572ZM182.652 24.28C181.812 24.28 181.14 23.68 181.14 22.816C181.14 21.976 181.812 21.352 182.652 21.352C183.468 21.352 184.164 21.976 184.164 22.816C184.164 23.68 183.468 24.28 182.652 24.28ZM187.714 40V39.328L190.282 39.064H191.29L193.786 39.328V40H187.714ZM189.586 40C189.658 38.824 189.682 36.112 189.682 34.48V32.92C189.682 31.312 189.658 30.16 189.586 28.984L187.546 28.864V28.24L191.53 27.184L191.842 27.376L192.01 30.16V34.48C192.01 36.112 192.034 38.824 192.082 40H189.586ZM195.898 40V39.328L198.466 39.064H199.45L201.994 39.328V40H195.898ZM197.77 40C197.818 38.824 197.842 36.184 197.842 34.48V31.576C197.842 29.32 197.098 28.504 195.754 28.504C194.674 28.504 193.162 29.128 191.506 31L191.314 30.136H191.602C193.354 27.952 195.034 27.136 196.714 27.136C198.85 27.136 200.17 28.456 200.17 31.672V34.48C200.17 36.184 200.194 38.824 200.242 40H197.77Z"/>
</mask>
<path d="M79.4148 40V39.28L82.8468 38.968H83.5668L87.1188 39.28V40H79.4148ZM81.8148 40C81.8628 37.336 81.8628 34.624 81.8628 31.864V30.616C81.8628 27.88 81.8628 25.144 81.8148 22.456H84.4308C84.3588 25.12 84.3588 27.856 84.3588 30.616V32.296C84.3588 34.648 84.3588 37.312 84.4308 40H81.8148ZM83.1348 32.848V32.056H85.6548C89.1348 32.056 90.5748 30.208 90.5748 27.568C90.5748 24.76 89.1828 23.272 86.1588 23.272H83.1348V22.456H86.3028C90.9108 22.456 92.9748 24.4 92.9748 27.592C92.9748 30.544 90.8628 32.848 85.7028 32.848H83.1348ZM79.4148 23.2V22.456H83.1348V23.464H82.8468L79.4148 23.2ZM94.4058 40V39.328L97.1658 39.064H98.1498L100.958 39.328V40H94.4058ZM96.4698 40C96.5178 38.464 96.5418 36.232 96.5418 34.48V22.144L94.5018 22.024V21.376L98.5818 20.584L98.9418 20.8L98.8698 24.568V34.48C98.8698 36.232 98.8938 38.464 98.9418 40H96.4698ZM106.117 40.384C104.197 40.384 102.781 39.232 102.781 37.24C102.781 35.32 103.933 34.096 107.245 33.136C108.541 32.728 110.149 32.32 111.445 32.032V32.632C110.149 32.968 108.757 33.328 107.749 33.712C105.829 34.432 105.013 35.488 105.013 36.88C105.013 38.368 105.877 39.112 107.173 39.112C108.133 39.112 109.069 38.608 110.845 36.784L111.109 37.96H110.461C108.997 39.544 107.965 40.384 106.117 40.384ZM112.621 40.36C111.133 40.36 110.413 39.328 110.269 37.648V31.24C110.269 28.6 109.477 27.904 107.605 27.904C106.693 27.904 105.829 28.12 104.725 28.672L105.901 28.048L105.565 29.92C105.445 30.928 104.941 31.288 104.293 31.288C103.669 31.288 103.261 30.976 103.117 30.376C103.549 28.36 105.373 27.136 108.277 27.136C111.181 27.136 112.549 28.408 112.549 31.48V37.504C112.549 38.896 112.861 39.304 113.509 39.304C113.893 39.304 114.157 39.136 114.589 38.656L114.973 39.016C114.421 39.928 113.677 40.36 112.621 40.36ZM116.888 46.504C115.784 46.504 114.704 46 114.632 45.112C114.752 44.368 115.424 44.032 116.144 44.032C116.84 44.032 117.416 44.416 117.968 44.992L118.664 45.736L117.896 46.144L117.416 45.736C118.976 45.256 120.152 43.696 121.064 41.32L121.76 39.568L121.904 39.184L124.04 33.328L126.032 27.496H126.968L121.904 41.104C120.44 44.992 118.832 46.504 116.888 46.504ZM121.448 41.392L115.832 27.496H118.4L122.384 38.32L122.528 38.632L121.448 41.392ZM114.656 28.168V27.496H120.848V28.168L118.352 28.408H117.032L114.656 28.168ZM123.392 28.168V27.496H128.264V28.168L126.32 28.408H125.936L123.392 28.168ZM134.706 40V39.28L137.058 38.992H137.49L140.082 39.28V40H134.706ZM136.41 40L142.314 22.312H143.874L149.85 40H147.306L142.098 23.944H142.578L142.506 24.28L137.466 40H136.41ZM139.026 34.096L139.146 33.304H146.538L146.634 34.096H139.026ZM144.402 40V39.256L147.618 38.992H148.458L151.65 39.256V40H144.402ZM157.645 46.24C153.901 46.24 152.533 44.896 152.533 43.072C152.533 41.632 153.613 40.576 155.749 39.76L155.845 39.976C154.693 40.888 154.189 41.56 154.189 42.688C154.189 44.44 155.461 45.352 157.693 45.352C161.005 45.352 162.709 44.08 162.709 42.328C162.709 41.32 162.085 40.408 160.141 40.408H157.237C156.349 40.408 155.797 40.384 155.221 40.216V40.144C153.973 39.808 153.349 39.064 153.349 37.96C153.349 36.928 153.925 35.992 155.461 34.888V34.672L155.965 34.912C155.197 35.752 154.837 36.28 154.837 37.048C154.837 37.864 155.365 38.392 156.661 38.392H160.189C163.285 38.392 164.677 39.64 164.677 41.68C164.677 43.984 162.181 46.24 157.645 46.24ZM157.981 35.728C154.909 35.728 153.133 33.976 153.133 31.456C153.133 28.864 154.933 27.136 157.981 27.136C159.613 27.136 160.861 27.592 161.629 28.384L161.701 28.456C162.445 29.176 162.853 30.208 162.853 31.456C162.853 33.976 161.029 35.728 157.981 35.728ZM157.957 35.008C159.637 35.008 160.717 33.568 160.717 31.432C160.717 29.224 159.637 27.856 158.005 27.856C156.349 27.856 155.269 29.248 155.269 31.456C155.269 33.592 156.301 35.008 157.957 35.008ZM160.885 28.696V28.288H161.029L164.389 27.184L164.797 27.448V28.864L160.885 28.696ZM169.61 40.384C167.69 40.384 166.274 39.232 166.274 37.24C166.274 35.32 167.426 34.096 170.738 33.136C172.034 32.728 173.642 32.32 174.938 32.032V32.632C173.642 32.968 172.25 33.328 171.242 33.712C169.322 34.432 168.506 35.488 168.506 36.88C168.506 38.368 169.37 39.112 170.666 39.112C171.626 39.112 172.562 38.608 174.338 36.784L174.602 37.96H173.954C172.49 39.544 171.458 40.384 169.61 40.384ZM176.114 40.36C174.626 40.36 173.906 39.328 173.762 37.648V31.24C173.762 28.6 172.97 27.904 171.098 27.904C170.186 27.904 169.322 28.12 168.218 28.672L169.394 28.048L169.058 29.92C168.938 30.928 168.434 31.288 167.786 31.288C167.162 31.288 166.754 30.976 166.61 30.376C167.042 28.36 168.866 27.136 171.77 27.136C174.674 27.136 176.042 28.408 176.042 31.48V37.504C176.042 38.896 176.354 39.304 177.002 39.304C177.386 39.304 177.65 39.136 178.082 38.656L178.466 39.016C177.914 39.928 177.17 40.36 176.114 40.36ZM179.676 40V39.328L182.268 39.064H183.252L185.796 39.328V40H179.676ZM181.572 40C181.62 38.824 181.668 36.112 181.668 34.48V32.944C181.668 31.336 181.62 30.136 181.572 28.936L179.508 28.84V28.216L183.756 27.184L184.044 27.376L183.972 30.832V34.48C183.972 36.112 183.996 38.824 184.068 40H181.572ZM182.652 24.28C181.812 24.28 181.14 23.68 181.14 22.816C181.14 21.976 181.812 21.352 182.652 21.352C183.468 21.352 184.164 21.976 184.164 22.816C184.164 23.68 183.468 24.28 182.652 24.28ZM187.714 40V39.328L190.282 39.064H191.29L193.786 39.328V40H187.714ZM189.586 40C189.658 38.824 189.682 36.112 189.682 34.48V32.92C189.682 31.312 189.658 30.16 189.586 28.984L187.546 28.864V28.24L191.53 27.184L191.842 27.376L192.01 30.16V34.48C192.01 36.112 192.034 38.824 192.082 40H189.586ZM195.898 40V39.328L198.466 39.064H199.45L201.994 39.328V40H195.898ZM197.77 40C197.818 38.824 197.842 36.184 197.842 34.48V31.576C197.842 29.32 197.098 28.504 195.754 28.504C194.674 28.504 193.162 29.128 191.506 31L191.314 30.136H191.602C193.354 27.952 195.034 27.136 196.714 27.136C198.85 27.136 200.17 28.456 200.17 31.672V34.48C200.17 36.184 200.194 38.824 200.242 40H197.77Z" fill="url(#paint2_linear_708_6957)"/>
<path d="M79.4148 40H78.9148V40.5H79.4148V40ZM79.4148 39.28L79.3696 38.7821L78.9148 38.8234V39.28H79.4148ZM82.8468 38.968V38.468H82.8242L82.8016 38.4701L82.8468 38.968ZM83.5668 38.968L83.6106 38.4699L83.5888 38.468H83.5668V38.968ZM87.1188 39.28H87.6188V38.822L87.1626 38.7819L87.1188 39.28ZM87.1188 40V40.5H87.6188V40H87.1188ZM81.8148 40L81.3149 39.991L81.3058 40.5H81.8148V40ZM81.8148 22.456V21.956H81.3058L81.3149 22.4649L81.8148 22.456ZM84.4308 22.456L84.9307 22.4695L84.9445 21.956H84.4308V22.456ZM84.4308 40V40.5H84.9444L84.9307 39.9866L84.4308 40ZM83.1348 32.848H82.6348V33.348H83.1348V32.848ZM83.1348 32.056V31.556H82.6348V32.056H83.1348ZM83.1348 23.272H82.6348V23.772H83.1348V23.272ZM83.1348 22.456V21.956H82.6348V22.456H83.1348ZM79.4148 23.2H78.9148V23.663L79.3765 23.6985L79.4148 23.2ZM79.4148 22.456V21.956H78.9148V22.456H79.4148ZM83.1348 22.456H83.6348V21.956H83.1348V22.456ZM83.1348 23.464V23.964H83.6348V23.464H83.1348ZM82.8468 23.464L82.8085 23.9625L82.8276 23.964H82.8468V23.464ZM79.9148 40V39.28H78.9148V40H79.9148ZM79.4601 39.7779L82.8921 39.4659L82.8016 38.4701L79.3696 38.7821L79.4601 39.7779ZM82.8468 39.468H83.5668V38.468H82.8468V39.468ZM83.5231 39.4661L87.0751 39.7781L87.1626 38.7819L83.6106 38.4699L83.5231 39.4661ZM86.6188 39.28V40H87.6188V39.28H86.6188ZM87.1188 39.5H79.4148V40.5H87.1188V39.5ZM82.3148 40.009C82.3629 37.3397 82.3628 34.6232 82.3628 31.864H81.3628C81.3628 34.6248 81.3628 37.3323 81.3149 39.991L82.3148 40.009ZM82.3628 31.864V30.616H81.3628V31.864H82.3628ZM82.3628 30.616C82.3628 27.8808 82.3629 25.1403 82.3148 22.4471L81.3149 22.4649C81.3628 25.1477 81.3628 27.8792 81.3628 30.616H82.3628ZM81.8148 22.956H84.4308V21.956H81.8148V22.956ZM83.931 22.4425C83.8588 25.1144 83.8588 27.8573 83.8588 30.616H84.8588C84.8588 27.8547 84.8589 25.1256 84.9307 22.4695L83.931 22.4425ZM83.8588 30.616V32.296H84.8588V30.616H83.8588ZM83.8588 32.296C83.8588 34.6471 83.8588 37.3177 83.931 40.0134L84.9307 39.9866C84.8589 37.3063 84.8588 34.6489 84.8588 32.296H83.8588ZM84.4308 39.5H81.8148V40.5H84.4308V39.5ZM83.6348 32.848V32.056H82.6348V32.848H83.6348ZM83.1348 32.556H85.6548V31.556H83.1348V32.556ZM85.6548 32.556C87.48 32.556 88.8552 32.0703 89.7727 31.1562C90.6899 30.2425 91.0748 28.9754 91.0748 27.568H90.0748C90.0748 28.8006 89.7398 29.7775 89.067 30.4478C88.3945 31.1177 87.3097 31.556 85.6548 31.556V32.556ZM91.0748 27.568C91.0748 26.088 90.7077 24.8633 89.8537 24.0127C89 23.1626 87.7459 22.772 86.1588 22.772V23.772C87.5958 23.772 88.5497 24.1254 89.148 24.7213C89.7459 25.3167 90.0748 26.24 90.0748 27.568H91.0748ZM86.1588 22.772H83.1348V23.772H86.1588V22.772ZM83.6348 23.272V22.456H82.6348V23.272H83.6348ZM83.1348 22.956H86.3028V21.956H83.1348V22.956ZM86.3028 22.956C88.5478 22.956 90.0843 23.4312 91.052 24.2154C92.0014 24.9849 92.4748 26.1106 92.4748 27.592H93.4748C93.4748 25.8813 92.9163 24.4391 91.6817 23.4386C90.4654 22.4528 88.6659 21.956 86.3028 21.956V22.956ZM92.4748 27.592C92.4748 28.94 91.9983 30.1013 90.9602 30.9376C89.9074 31.7858 88.2168 32.348 85.7028 32.348V33.348C88.3489 33.348 90.2943 32.7582 91.5875 31.7164C92.8954 30.6627 93.4748 29.196 93.4748 27.592H92.4748ZM85.7028 32.348H83.1348V33.348H85.7028V32.348ZM79.9148 23.2V22.456H78.9148V23.2H79.9148ZM79.4148 22.956H83.1348V21.956H79.4148V22.956ZM82.6348 22.456V23.464H83.6348V22.456H82.6348ZM83.1348 22.964H82.8468V23.964H83.1348V22.964ZM82.8852 22.9655L79.4532 22.7015L79.3765 23.6985L82.8085 23.9625L82.8852 22.9655ZM94.4058 40H93.9058V40.5H94.4058V40ZM94.4058 39.328L94.3582 38.8303L93.9058 38.8735V39.328H94.4058ZM97.1658 39.064V38.564H97.142L97.1182 38.5663L97.1658 39.064ZM98.1498 39.064L98.1966 38.5662L98.1733 38.564H98.1498V39.064ZM100.958 39.328H101.458V38.8728L101.005 38.8302L100.958 39.328ZM100.958 40V40.5H101.458V40H100.958ZM96.4698 40L95.9701 39.9844L95.954 40.5H96.4698V40ZM96.5418 22.144H97.0418V21.6725L96.5712 21.6449L96.5418 22.144ZM94.5018 22.024H94.0018V22.4955L94.4725 22.5231L94.5018 22.024ZM94.5018 21.376L94.4066 20.8852L94.0018 20.9637V21.376H94.5018ZM98.5818 20.584L98.8391 20.1553L98.6747 20.0566L98.4866 20.0932L98.5818 20.584ZM98.9418 20.8L99.4418 20.8096L99.4473 20.5202L99.1991 20.3713L98.9418 20.8ZM98.8698 24.568L98.3698 24.5584V24.568H98.8698ZM98.9418 40V40.5H99.4577L99.4416 39.9844L98.9418 40ZM94.9058 40V39.328H93.9058V40H94.9058ZM94.4535 39.8257L97.2135 39.5617L97.1182 38.5663L94.3582 38.8303L94.4535 39.8257ZM97.1658 39.564H98.1498V38.564H97.1658V39.564ZM98.103 39.5618L100.911 39.8258L101.005 38.8302L98.1966 38.5662L98.103 39.5618ZM100.458 39.328V40H101.458V39.328H100.458ZM100.958 39.5H94.4058V40.5H100.958V39.5ZM96.9696 40.0156C97.0178 38.4725 97.0418 36.2348 97.0418 34.48H96.0418C96.0418 36.2292 96.0179 38.4555 95.9701 39.9844L96.9696 40.0156ZM97.0418 34.48V22.144H96.0418V34.48H97.0418ZM96.5712 21.6449L94.5312 21.5249L94.4725 22.5231L96.5125 22.6431L96.5712 21.6449ZM95.0018 22.024V21.376H94.0018V22.024H95.0018ZM94.5971 21.8668L98.6771 21.0748L98.4866 20.0932L94.4066 20.8852L94.5971 21.8668ZM98.3246 21.0127L98.6846 21.2287L99.1991 20.3713L98.8391 20.1553L98.3246 21.0127ZM98.4419 20.7904L98.3699 24.5584L99.3698 24.5776L99.4418 20.8096L98.4419 20.7904ZM98.3698 24.568V34.48H99.3698V24.568H98.3698ZM98.3698 34.48C98.3698 36.2348 98.3939 38.4725 98.4421 40.0156L99.4416 39.9844C99.3938 38.4555 99.3698 36.2292 99.3698 34.48H98.3698ZM98.9418 39.5H96.4698V40.5H98.9418V39.5ZM107.245 33.136L107.385 33.6164L107.396 33.6129L107.245 33.136ZM111.445 32.032H111.945V31.4087L111.337 31.5439L111.445 32.032ZM111.445 32.632L111.571 33.116L111.945 33.0189V32.632H111.445ZM107.749 33.712L107.925 34.1802L107.927 34.1792L107.749 33.712ZM110.845 36.784L111.333 36.6745L111.131 35.7739L110.487 36.4352L110.845 36.784ZM111.109 37.96V38.46H111.734L111.597 37.8505L111.109 37.96ZM110.461 37.96V37.46H110.243L110.094 37.6206L110.461 37.96ZM110.269 37.648H109.769V37.6694L109.771 37.6907L110.269 37.648ZM104.725 28.672L104.491 28.2303L104.949 29.1192L104.725 28.672ZM105.901 28.048L106.394 28.1363L106.575 27.1245L105.667 27.6063L105.901 28.048ZM105.565 29.92L105.073 29.8317L105.071 29.8462L105.069 29.8609L105.565 29.92ZM103.117 30.376L102.629 30.2712L102.605 30.3823L102.631 30.4927L103.117 30.376ZM114.589 38.656L114.931 38.2912L114.559 37.9422L114.218 38.3215L114.589 38.656ZM114.973 39.016L115.401 39.2749L115.611 38.9283L115.315 38.6512L114.973 39.016ZM106.117 39.884C105.255 39.884 104.549 39.626 104.065 39.1881C103.587 38.7558 103.281 38.1102 103.281 37.24H102.281C102.281 38.3618 102.684 39.2882 103.394 39.9299C104.098 40.566 105.06 40.884 106.117 40.884V39.884ZM103.281 37.24C103.281 36.398 103.526 35.7499 104.116 35.1907C104.731 34.6069 105.755 34.0885 107.385 33.6162L107.106 32.6558C105.424 33.1435 104.216 33.7171 103.427 34.4653C102.613 35.2381 102.281 36.162 102.281 37.24H103.281ZM107.396 33.6129C108.674 33.2106 110.267 32.8061 111.554 32.5201L111.337 31.5439C110.032 31.8339 108.409 32.2454 107.095 32.6591L107.396 33.6129ZM110.945 32.032V32.632H111.945V32.032H110.945ZM111.32 32.148C110.034 32.4814 108.611 32.8487 107.571 33.2448L107.927 34.1792C108.904 33.8073 110.265 33.4546 111.571 33.116L111.32 32.148ZM107.574 33.2438C106.565 33.6221 105.796 34.1066 105.279 34.7222C104.752 35.3481 104.513 36.0769 104.513 36.88H105.513C105.513 36.2911 105.682 35.7959 106.044 35.3658C106.414 34.9254 107.014 34.5219 107.925 34.1802L107.574 33.2438ZM104.513 36.88C104.513 37.7209 104.76 38.4212 105.257 38.9104C105.752 39.3977 106.432 39.612 107.173 39.612V38.612C106.619 38.612 106.219 38.4543 105.958 38.1976C105.699 37.9428 105.513 37.5271 105.513 36.88H104.513ZM107.173 39.612C108.358 39.612 109.424 38.961 111.204 37.1328L110.487 36.4352C108.715 38.255 107.909 38.612 107.173 38.612V39.612ZM110.358 36.8935L110.622 38.0695L111.597 37.8505L111.333 36.6745L110.358 36.8935ZM111.109 37.46H110.461V38.46H111.109V37.46ZM110.094 37.6206C109.365 38.4094 108.781 38.9698 108.174 39.3386C107.584 39.6968 106.955 39.884 106.117 39.884V40.884C107.128 40.884 107.939 40.6512 108.693 40.1934C109.429 39.7462 110.094 39.0946 110.829 38.2994L110.094 37.6206ZM112.621 39.86C112.007 39.86 111.605 39.6544 111.328 39.3168C111.034 38.9581 110.835 38.3942 110.768 37.6053L109.771 37.6907C109.848 38.5818 110.081 39.3739 110.555 39.9512C111.046 40.5496 111.748 40.86 112.621 40.86V39.86ZM110.769 37.648V31.24H109.769V37.648H110.769ZM110.769 31.24C110.769 29.901 110.576 28.9059 110.019 28.2566C109.441 27.5816 108.583 27.404 107.605 27.404V28.404C108.5 28.404 108.974 28.5744 109.26 28.9074C109.567 29.2661 109.769 29.939 109.769 31.24H110.769ZM107.605 27.404C106.6 27.404 105.659 27.6462 104.502 28.2248L104.949 29.1192C106 28.5938 106.787 28.404 107.605 28.404V27.404ZM104.96 29.1137L106.136 28.4897L105.667 27.6063L104.491 28.2303L104.96 29.1137ZM105.409 27.9597L105.073 29.8317L106.058 30.0083L106.394 28.1363L105.409 27.9597ZM105.069 29.8609C105.017 30.2956 104.891 30.514 104.779 30.6236C104.673 30.7268 104.523 30.788 104.293 30.788V31.788C104.712 31.788 105.138 31.6692 105.476 31.3404C105.807 31.018 105.994 30.5524 106.062 29.9791L105.069 29.8609ZM104.293 30.788C104.065 30.788 103.922 30.7319 103.831 30.6614C103.741 30.5918 103.655 30.4725 103.604 30.2593L102.631 30.4927C102.724 30.8795 102.914 31.2162 103.22 31.4526C103.525 31.6881 103.898 31.788 104.293 31.788V30.788ZM103.606 30.4808C103.794 29.6043 104.278 28.9079 105.04 28.4213C105.811 27.9286 106.891 27.636 108.277 27.636V26.636C106.76 26.636 105.476 26.9554 104.501 27.5787C103.516 28.2081 102.873 29.1317 102.629 30.2712L103.606 30.4808ZM108.277 27.636C109.669 27.636 110.579 27.9422 111.15 28.5103C111.72 29.0782 112.049 30.0063 112.049 31.48H113.049C113.049 29.8817 112.695 28.6378 111.855 27.8017C111.016 26.9658 109.79 26.636 108.277 26.636V27.636ZM112.049 31.48V37.504H113.049V31.48H112.049ZM112.049 37.504C112.049 38.2109 112.124 38.7772 112.353 39.1756C112.477 39.3899 112.646 39.5578 112.863 39.666C113.074 39.7709 113.297 39.804 113.509 39.804V38.804C113.398 38.804 113.339 38.7861 113.309 38.771C113.286 38.7592 113.255 38.7381 113.22 38.6764C113.131 38.5228 113.049 38.1891 113.049 37.504H112.049ZM113.509 39.804C113.788 39.804 114.04 39.7395 114.291 39.5874C114.523 39.4464 114.737 39.2399 114.961 38.9905L114.218 38.3215C114.01 38.5521 113.876 38.6696 113.772 38.7326C113.686 38.7845 113.615 38.804 113.509 38.804V39.804ZM114.247 39.0208L114.631 39.3808L115.315 38.6512L114.931 38.2912L114.247 39.0208ZM114.546 38.7571C114.304 39.1569 114.036 39.425 113.738 39.5963C113.44 39.7671 113.079 39.86 112.621 39.86V40.86C113.22 40.86 113.759 40.7369 114.235 40.4637C114.711 40.191 115.091 39.7871 115.401 39.2749L114.546 38.7571ZM114.632 45.112L114.138 45.0324L114.128 45.0921L114.133 45.1524L114.632 45.112ZM117.968 44.992L118.333 44.6504L118.329 44.646L117.968 44.992ZM118.664 45.736L118.898 46.1776L119.475 45.8712L119.029 45.3944L118.664 45.736ZM117.896 46.144L117.572 46.525L117.83 46.7448L118.13 46.5856L117.896 46.144ZM117.416 45.736L117.269 45.2581L116.397 45.5263L117.092 46.117L117.416 45.736ZM121.064 41.32L120.599 41.1354L120.597 41.1408L121.064 41.32ZM121.76 39.568L122.224 39.7526L122.228 39.7436L121.76 39.568ZM121.904 39.184L122.372 39.3596L122.373 39.3553L121.904 39.184ZM124.04 33.328L124.509 33.4994L124.513 33.4896L124.04 33.328ZM126.032 27.496V26.996H125.674L125.558 27.3344L126.032 27.496ZM126.968 27.496L127.436 27.6704L127.687 26.996H126.968V27.496ZM121.904 41.104L122.372 41.2802L122.372 41.2784L121.904 41.104ZM121.448 41.392L120.984 41.5794L121.455 42.745L121.913 41.5742L121.448 41.392ZM115.832 27.496V26.996H115.09L115.368 27.6833L115.832 27.496ZM118.4 27.496L118.869 27.3233L118.748 26.996H118.4V27.496ZM122.384 38.32L121.914 38.4927L121.921 38.5114L121.93 38.5295L122.384 38.32ZM122.528 38.632L122.993 38.8142L123.071 38.6159L122.982 38.4225L122.528 38.632ZM114.656 28.168H114.156V28.62L114.605 28.6655L114.656 28.168ZM114.656 27.496V26.996H114.156V27.496H114.656ZM120.848 27.496H121.348V26.996H120.848V27.496ZM120.848 28.168L120.896 28.6657L121.348 28.6222V28.168H120.848ZM118.352 28.408V28.908H118.376L118.4 28.9057L118.352 28.408ZM117.032 28.408L116.981 28.9055L117.006 28.908H117.032V28.408ZM123.392 28.168H122.892V28.623L123.345 28.6658L123.392 28.168ZM123.392 27.496V26.996H122.892V27.496H123.392ZM128.264 27.496H128.764V26.996H128.264V27.496ZM128.264 28.168L128.325 28.6642L128.764 28.6101V28.168H128.264ZM126.32 28.408V28.908H126.35L126.381 28.9042L126.32 28.408ZM125.936 28.408L125.889 28.9058L125.912 28.908H125.936V28.408ZM116.888 46.004C116.404 46.004 115.947 45.8922 115.62 45.7063C115.294 45.5214 115.148 45.2988 115.13 45.0716L114.133 45.1524C114.187 45.8132 114.617 46.2866 115.126 46.5757C115.632 46.8638 116.267 47.004 116.888 47.004V46.004ZM115.125 45.1916C115.189 44.7936 115.547 44.532 116.144 44.532V43.532C115.301 43.532 114.314 43.9424 114.138 45.0324L115.125 45.1916ZM116.144 44.532C116.636 44.532 117.089 44.7974 117.607 45.338L118.329 44.646C117.743 44.0346 117.044 43.532 116.144 43.532V44.532ZM117.603 45.3336L118.299 46.0776L119.029 45.3944L118.333 44.6504L117.603 45.3336ZM118.429 45.2944L117.661 45.7024L118.13 46.5856L118.898 46.1776L118.429 45.2944ZM118.219 45.763L117.739 45.355L117.092 46.117L117.572 46.525L118.219 45.763ZM117.563 46.2139C119.354 45.6626 120.606 43.9078 121.53 41.4992L120.597 41.1408C119.697 43.4842 118.597 44.8494 117.269 45.2581L117.563 46.2139ZM121.528 41.5046L122.224 39.7526L121.295 39.3834L120.599 41.1354L121.528 41.5046ZM122.228 39.7436L122.372 39.3596L121.435 39.0084L121.291 39.3924L122.228 39.7436ZM122.373 39.3553L124.509 33.4993L123.57 33.1567L121.434 39.0127L122.373 39.3553ZM124.513 33.4896L126.505 27.6576L125.558 27.3344L123.566 33.1664L124.513 33.4896ZM126.032 27.996H126.968V26.996H126.032V27.996ZM126.499 27.3216L121.435 40.9296L122.372 41.2784L127.436 27.6704L126.499 27.3216ZM121.436 40.9278C120.714 42.8443 119.975 44.1224 119.215 44.916C118.47 45.6935 117.708 46.004 116.888 46.004V47.004C118.012 47.004 119.026 46.5585 119.937 45.608C120.832 44.6736 121.629 43.2517 122.372 41.2802L121.436 40.9278ZM121.911 41.2046L116.295 27.3086L115.368 27.6833L120.984 41.5794L121.911 41.2046ZM115.832 27.996H118.4V26.996H115.832V27.996ZM117.93 27.6687L121.914 38.4927L122.853 38.1473L118.869 27.3233L117.93 27.6687ZM121.93 38.5295L122.074 38.8415L122.982 38.4225L122.838 38.1105L121.93 38.5295ZM122.062 38.4498L120.982 41.2098L121.913 41.5742L122.993 38.8142L122.062 38.4498ZM115.156 28.168V27.496H114.156V28.168H115.156ZM114.656 27.996H120.848V26.996H114.656V27.996ZM120.348 27.496V28.168H121.348V27.496H120.348ZM120.8 27.6703L118.304 27.9103L118.4 28.9057L120.896 28.6657L120.8 27.6703ZM118.352 27.908H117.032V28.908H118.352V27.908ZM117.082 27.9105L114.706 27.6705L114.605 28.6655L116.981 28.9055L117.082 27.9105ZM123.892 28.168V27.496H122.892V28.168H123.892ZM123.392 27.996H128.264V26.996H123.392V27.996ZM127.764 27.496V28.168H128.764V27.496H127.764ZM128.202 27.6718L126.258 27.9118L126.381 28.9042L128.325 28.6642L128.202 27.6718ZM126.32 27.908H125.936V28.908H126.32V27.908ZM125.983 27.9102L123.439 27.6702L123.345 28.6658L125.889 28.9058L125.983 27.9102ZM134.706 40H134.206V40.5H134.706V40ZM134.706 39.28L134.645 38.7837L134.206 38.8375V39.28H134.706ZM137.058 38.992V38.492H137.027L136.997 38.4957L137.058 38.992ZM137.49 38.992L137.545 38.4951L137.518 38.492H137.49V38.992ZM140.082 39.28H140.582V38.8325L140.137 38.7831L140.082 39.28ZM140.082 40V40.5H140.582V40H140.082ZM136.41 40L135.936 39.8417L135.716 40.5H136.41V40ZM142.314 22.312V21.812H141.954L141.84 22.1537L142.314 22.312ZM143.874 22.312L144.348 22.152L144.233 21.812H143.874V22.312ZM149.85 40V40.5H150.547L150.324 39.84L149.85 40ZM147.306 40L146.83 40.1543L146.943 40.5H147.306V40ZM142.098 23.944V23.444H141.41L141.622 24.0983L142.098 23.944ZM142.578 23.944L143.067 24.0488L143.196 23.444H142.578V23.944ZM142.506 24.28L142.982 24.4327L142.99 24.409L142.995 24.3848L142.506 24.28ZM137.466 40V40.5H137.831L137.942 40.1527L137.466 40ZM139.026 34.096L138.532 34.0211L138.445 34.596H139.026V34.096ZM139.146 33.304V32.804H138.716L138.652 33.2291L139.146 33.304ZM146.538 33.304L147.034 33.2438L146.981 32.804H146.538V33.304ZM146.634 34.096V34.596H147.198L147.13 34.0358L146.634 34.096ZM144.402 40H143.902V40.5H144.402V40ZM144.402 39.256L144.361 38.7577L143.902 38.7954V39.256H144.402ZM147.618 38.992V38.492H147.597L147.577 38.4937L147.618 38.992ZM148.458 38.992L148.499 38.4937L148.479 38.492H148.458V38.992ZM151.65 39.256H152.15V38.7956L151.691 38.7577L151.65 39.256ZM151.65 40V40.5H152.15V40H151.65ZM135.206 40V39.28H134.206V40H135.206ZM134.767 39.7763L137.119 39.4883L136.997 38.4957L134.645 38.7837L134.767 39.7763ZM137.058 39.492H137.49V38.492H137.058V39.492ZM137.435 39.4889L140.027 39.7769L140.137 38.7831L137.545 38.4951L137.435 39.4889ZM139.582 39.28V40H140.582V39.28H139.582ZM140.082 39.5H134.706V40.5H140.082V39.5ZM136.884 40.1583L142.788 22.4703L141.84 22.1537L135.936 39.8417L136.884 40.1583ZM142.314 22.812H143.874V21.812H142.314V22.812ZM143.4 22.472L149.376 40.16L150.324 39.84L144.348 22.152L143.4 22.472ZM149.85 39.5H147.306V40.5H149.85V39.5ZM147.782 39.8457L142.574 23.7897L141.622 24.0983L146.83 40.1543L147.782 39.8457ZM142.098 24.444H142.578V23.444H142.098V24.444ZM142.089 23.8392L142.017 24.1752L142.995 24.3848L143.067 24.0488L142.089 23.8392ZM142.03 24.1273L136.99 39.8473L137.942 40.1527L142.982 24.4327L142.03 24.1273ZM137.466 39.5H136.41V40.5H137.466V39.5ZM139.52 34.1709L139.64 33.3789L138.652 33.2291L138.532 34.0211L139.52 34.1709ZM139.146 33.804H146.538V32.804H139.146V33.804ZM146.042 33.3642L146.138 34.1562L147.13 34.0358L147.034 33.2438L146.042 33.3642ZM146.634 33.596H139.026V34.596H146.634V33.596ZM144.902 40V39.256H143.902V40H144.902ZM144.443 39.7543L147.659 39.4903L147.577 38.4937L144.361 38.7577L144.443 39.7543ZM147.618 39.492H148.458V38.492H147.618V39.492ZM148.417 39.4903L151.609 39.7543L151.691 38.7577L148.499 38.4937L148.417 39.4903ZM151.15 39.256V40H152.15V39.256H151.15ZM151.65 39.5H144.402V40.5H151.65V39.5ZM155.749 39.76L156.205 39.5569L156.013 39.1238L155.57 39.2929L155.749 39.76ZM155.845 39.976L156.155 40.368L156.459 40.1273L156.301 39.7729L155.845 39.976ZM155.221 40.216H154.721V40.591L155.081 40.696L155.221 40.216ZM155.221 40.144H155.721V39.7608L155.351 39.6612L155.221 40.144ZM155.461 34.888L155.752 35.294L155.961 35.1444V34.888H155.461ZM155.461 34.672L155.675 34.2206L154.961 33.8801V34.672H155.461ZM155.965 34.912L156.334 35.2494L156.789 34.7509L156.179 34.4606L155.965 34.912ZM161.629 28.384L161.27 28.7321L161.275 28.7376L161.629 28.384ZM161.701 28.456L161.347 28.8096L161.353 28.8153L161.701 28.456ZM160.885 28.696H160.385V29.175L160.863 29.1955L160.885 28.696ZM160.885 28.288V27.788H160.385V28.288H160.885ZM161.029 28.288V28.788H161.109L161.185 28.763L161.029 28.288ZM164.389 27.184L164.66 26.7642L164.46 26.6344L164.232 26.709L164.389 27.184ZM164.797 27.448H165.297V27.176L165.068 27.0282L164.797 27.448ZM164.797 28.864L164.775 29.3635L165.297 29.3859V28.864H164.797ZM157.645 45.74C155.818 45.74 154.66 45.4097 153.97 44.9297C153.311 44.4705 153.033 43.8413 153.033 43.072H152.033C152.033 44.1267 152.438 45.0815 153.399 45.7503C154.329 46.3983 155.727 46.74 157.645 46.74V45.74ZM153.033 43.072C153.033 41.9618 153.837 41.0255 155.927 40.2271L155.57 39.2929C153.388 40.1265 152.033 41.3022 152.033 43.072H153.033ZM155.292 39.9631L155.388 40.1791L156.301 39.7729L156.205 39.5569L155.292 39.9631ZM155.534 39.584C154.946 40.0495 154.479 40.4872 154.163 40.982C153.837 41.4934 153.689 42.0388 153.689 42.688H154.689C154.689 42.2092 154.792 41.8546 155.006 41.52C155.23 41.1688 155.591 40.8145 156.155 40.368L155.534 39.584ZM153.689 42.688C153.689 43.6991 154.064 44.5231 154.804 45.0772C155.521 45.6142 156.52 45.852 157.693 45.852V44.852C156.633 44.852 155.88 44.6338 155.403 44.2768C154.949 43.9369 154.689 43.4289 154.689 42.688H153.689ZM157.693 45.852C159.403 45.852 160.763 45.5251 161.712 44.9183C162.68 44.2992 163.209 43.392 163.209 42.328H162.209C162.209 43.016 161.885 43.6208 161.173 44.0757C160.442 44.5429 159.294 44.852 157.693 44.852V45.852ZM163.209 42.328C163.209 41.7194 163.017 41.0877 162.485 40.616C161.962 40.152 161.183 39.908 160.141 39.908V40.908C161.042 40.908 161.547 41.12 161.822 41.364C162.088 41.6003 162.209 41.9286 162.209 42.328H163.209ZM160.141 39.908H157.237V40.908H160.141V39.908ZM157.237 39.908C156.349 39.908 155.861 39.882 155.361 39.736L155.081 40.696C155.732 40.886 156.348 40.908 157.237 40.908V39.908ZM155.721 40.216V40.144H154.721V40.216H155.721ZM155.351 39.6612C154.793 39.5111 154.425 39.2834 154.197 39.0156C153.974 38.7538 153.849 38.4125 153.849 37.96H152.849C152.849 38.6115 153.035 39.1942 153.436 39.6644C153.832 40.1286 154.4 40.4409 155.091 40.6268L155.351 39.6612ZM153.849 37.96C153.849 37.1664 154.268 36.3609 155.752 35.294L155.169 34.482C153.581 35.6231 152.849 36.6896 152.849 37.96H153.849ZM155.961 34.888V34.672H154.961V34.888H155.961ZM155.246 35.1234L155.75 35.3634L156.179 34.4606L155.675 34.2206L155.246 35.1234ZM155.596 34.5746C154.822 35.4205 154.337 36.0738 154.337 37.048H155.337C155.337 36.4862 155.571 36.0835 156.334 35.2494L155.596 34.5746ZM154.337 37.048C154.337 37.5713 154.512 38.0675 154.951 38.4172C155.37 38.7506 155.957 38.892 156.661 38.892V37.892C156.068 37.892 155.743 37.7694 155.574 37.6348C155.425 37.5165 155.337 37.3407 155.337 37.048H154.337ZM156.661 38.892H160.189V37.892H156.661V38.892ZM160.189 38.892C161.681 38.892 162.676 39.1948 163.288 39.6669C163.878 40.1218 164.177 40.7841 164.177 41.68H165.177C165.177 40.5359 164.779 39.5542 163.899 38.8751C163.041 38.2132 161.792 37.892 160.189 37.892V38.892ZM164.177 41.68C164.177 43.5662 162.071 45.74 157.645 45.74V46.74C162.29 46.74 165.177 44.4018 165.177 41.68H164.177ZM157.981 35.228C156.538 35.228 155.456 34.8177 154.741 34.1671C154.03 33.5204 153.633 32.5933 153.633 31.456H152.633C152.633 32.8387 153.123 34.0476 154.068 34.9069C155.009 35.7623 156.351 36.228 157.981 36.228V35.228ZM153.633 31.456C153.633 30.281 154.037 29.3425 154.75 28.6938C155.468 28.0408 156.549 27.636 157.981 27.636V26.636C156.364 26.636 155.021 27.0952 154.077 27.9542C153.128 28.8175 152.633 30.039 152.633 31.456H153.633ZM157.981 27.636C159.528 27.636 160.626 28.0686 161.27 28.7321L161.987 28.0359C161.095 27.1154 159.697 26.636 157.981 26.636V27.636ZM161.275 28.7376L161.347 28.8096L162.054 28.1024L161.982 28.0304L161.275 28.7376ZM161.353 28.8153C161.984 29.4257 162.353 30.3196 162.353 31.456H163.353C163.353 30.0964 162.905 28.9263 162.048 28.0967L161.353 28.8153ZM162.353 31.456C162.353 32.5893 161.946 33.5167 161.225 34.1653C160.5 34.818 159.41 35.228 157.981 35.228V36.228C159.599 36.228 160.946 35.762 161.894 34.9087C162.847 34.0513 163.353 32.8427 163.353 31.456H162.353ZM157.957 35.508C158.955 35.508 159.791 35.0731 160.364 34.3249C160.927 33.5888 161.217 32.5786 161.217 31.432H160.217C160.217 32.4214 159.966 33.1992 159.57 33.7171C159.182 34.2229 158.638 34.508 157.957 34.508V35.508ZM161.217 31.432C161.217 30.2525 160.929 29.2409 160.369 28.5117C159.8 27.7698 158.975 27.356 158.005 27.356V28.356C158.666 28.356 159.197 28.6262 159.576 29.1203C159.964 29.6271 160.217 30.4035 160.217 31.432H161.217ZM158.005 27.356C157.021 27.356 156.19 27.7764 155.618 28.5243C155.056 29.2593 154.769 30.2766 154.769 31.456H155.769C155.769 30.4274 156.021 29.6446 156.413 29.1317C156.795 28.6316 157.332 28.356 158.005 28.356V27.356ZM154.769 31.456C154.769 32.5979 155.044 33.6014 155.591 34.3327C156.149 35.0781 156.969 35.508 157.957 35.508V34.508C157.288 34.508 156.764 34.2299 156.392 33.7333C156.009 33.2226 155.769 32.4501 155.769 31.456H154.769ZM161.385 28.696V28.288H160.385V28.696H161.385ZM160.885 28.788H161.029V27.788H160.885V28.788ZM161.185 28.763L164.545 27.659L164.232 26.709L160.872 27.813L161.185 28.763ZM164.117 27.6038L164.525 27.8678L165.068 27.0282L164.66 26.7642L164.117 27.6038ZM164.297 27.448V28.864H165.297V27.448H164.297ZM164.818 28.3645L160.906 28.1965L160.863 29.1955L164.775 29.3635L164.818 28.3645ZM170.738 33.136L170.877 33.6164L170.888 33.6129L170.738 33.136ZM174.938 32.032H175.438V31.4087L174.829 31.5439L174.938 32.032ZM174.938 32.632L175.063 33.116L175.438 33.0189V32.632H174.938ZM171.242 33.712L171.417 34.1802L171.42 34.1792L171.242 33.712ZM174.338 36.784L174.826 36.6745L174.623 35.7739L173.979 36.4352L174.338 36.784ZM174.602 37.96V38.46H175.226L175.09 37.8505L174.602 37.96ZM173.954 37.96V37.46H173.735L173.586 37.6206L173.954 37.96ZM173.762 37.648H173.262V37.6694L173.263 37.6907L173.762 37.648ZM168.218 28.672L167.983 28.2303L168.441 29.1192L168.218 28.672ZM169.394 28.048L169.886 28.1363L170.067 27.1245L169.159 27.6063L169.394 28.048ZM169.058 29.92L168.566 29.8317L168.563 29.8462L168.561 29.8609L169.058 29.92ZM166.61 30.376L166.121 30.2712L166.097 30.3823L166.123 30.4927L166.61 30.376ZM178.082 38.656L178.424 38.2912L178.051 37.9422L177.71 38.3215L178.082 38.656ZM178.466 39.016L178.893 39.2749L179.103 38.9283L178.808 38.6512L178.466 39.016ZM169.61 39.884C168.747 39.884 168.041 39.626 167.557 39.1881C167.079 38.7558 166.774 38.1102 166.774 37.24H165.774C165.774 38.3618 166.176 39.2882 166.886 39.9299C167.59 40.566 168.552 40.884 169.61 40.884V39.884ZM166.774 37.24C166.774 36.398 167.018 35.7499 167.608 35.1907C168.223 34.6069 169.247 34.0885 170.877 33.6162L170.598 32.6558C168.916 33.1435 167.708 33.7171 166.92 34.4653C166.105 35.2381 165.774 36.162 165.774 37.24H166.774ZM170.888 33.6129C172.166 33.2106 173.759 32.8061 175.046 32.5201L174.829 31.5439C173.524 31.8339 171.901 32.2454 170.588 32.6591L170.888 33.6129ZM174.438 32.032V32.632H175.438V32.032H174.438ZM174.812 32.148C173.526 32.4814 172.103 32.8487 171.064 33.2448L171.42 34.1792C172.396 33.8073 173.757 33.4546 175.063 33.116L174.812 32.148ZM171.066 33.2438C170.057 33.6221 169.289 34.1066 168.771 34.7222C168.245 35.3481 168.006 36.0769 168.006 36.88H169.006C169.006 36.2911 169.175 35.7959 169.536 35.3658C169.907 34.9254 170.506 34.5219 171.417 34.1802L171.066 33.2438ZM168.006 36.88C168.006 37.7209 168.252 38.4212 168.749 38.9104C169.244 39.3977 169.924 39.612 170.666 39.612V38.612C170.111 38.612 169.711 38.4543 169.45 38.1976C169.191 37.9428 169.006 37.5271 169.006 36.88H168.006ZM170.666 39.612C171.85 39.612 172.916 38.961 174.696 37.1328L173.979 36.4352C172.208 38.255 171.401 38.612 170.666 38.612V39.612ZM173.85 36.8935L174.114 38.0695L175.09 37.8505L174.826 36.6745L173.85 36.8935ZM174.602 37.46H173.954V38.46H174.602V37.46ZM173.586 37.6206C172.857 38.4094 172.274 38.9698 171.666 39.3386C171.076 39.6968 170.447 39.884 169.61 39.884V40.884C170.621 40.884 171.431 40.6512 172.185 40.1934C172.922 39.7462 173.586 39.0946 174.321 38.2994L173.586 37.6206ZM176.114 39.86C175.499 39.86 175.097 39.6544 174.82 39.3168C174.526 38.9581 174.327 38.3942 174.26 37.6053L173.263 37.6907C173.34 38.5818 173.573 39.3739 174.047 39.9512C174.538 40.5496 175.24 40.86 176.114 40.86V39.86ZM174.262 37.648V31.24H173.262V37.648H174.262ZM174.262 31.24C174.262 29.901 174.068 28.9059 173.511 28.2566C172.933 27.5816 172.075 27.404 171.098 27.404V28.404C171.992 28.404 172.467 28.5744 172.752 28.9074C173.06 29.2661 173.262 29.939 173.262 31.24H174.262ZM171.098 27.404C170.092 27.404 169.151 27.6462 167.994 28.2248L168.441 29.1192C169.492 28.5938 170.28 28.404 171.098 28.404V27.404ZM168.452 29.1137L169.628 28.4897L169.159 27.6063L167.983 28.2303L168.452 29.1137ZM168.902 27.9597L168.566 29.8317L169.55 30.0083L169.886 28.1363L168.902 27.9597ZM168.561 29.8609C168.509 30.2956 168.384 30.514 168.271 30.6236C168.165 30.7268 168.015 30.788 167.786 30.788V31.788C168.204 31.788 168.63 31.6692 168.968 31.3404C169.3 31.018 169.486 30.5524 169.554 29.9791L168.561 29.8609ZM167.786 30.788C167.557 30.788 167.415 30.7319 167.323 30.6614C167.233 30.5918 167.147 30.4725 167.096 30.2593L166.123 30.4927C166.216 30.8795 166.406 31.2162 166.712 31.4526C167.017 31.6881 167.39 31.788 167.786 31.788V30.788ZM167.099 30.4808C167.286 29.6043 167.771 28.9079 168.532 28.4213C169.303 27.9286 170.384 27.636 171.77 27.636V26.636C170.252 26.636 168.969 26.9554 167.993 27.5787C167.009 28.2081 166.365 29.1317 166.121 30.2712L167.099 30.4808ZM171.77 27.636C173.161 27.636 174.071 27.9422 174.642 28.5103C175.212 29.0782 175.542 30.0063 175.542 31.48H176.542C176.542 29.8817 176.187 28.6378 175.347 27.8017C174.508 26.9658 173.282 26.636 171.77 26.636V27.636ZM175.542 31.48V37.504H176.542V31.48H175.542ZM175.542 37.504C175.542 38.2109 175.616 38.7772 175.845 39.1756C175.969 39.3899 176.138 39.5578 176.355 39.666C176.566 39.7709 176.79 39.804 177.002 39.804V38.804C176.89 38.804 176.832 38.7861 176.801 38.771C176.778 38.7592 176.747 38.7381 176.712 38.6764C176.623 38.5228 176.542 38.1891 176.542 37.504H175.542ZM177.002 39.804C177.28 39.804 177.533 39.7395 177.783 39.5874C178.015 39.4464 178.229 39.2399 178.453 38.9905L177.71 38.3215C177.502 38.5521 177.368 38.6696 177.264 38.7326C177.179 38.7845 177.107 38.804 177.002 38.804V39.804ZM177.74 39.0208L178.124 39.3808L178.808 38.6512L178.424 38.2912L177.74 39.0208ZM178.038 38.7571C177.796 39.1569 177.528 39.425 177.23 39.5963C176.932 39.7671 176.571 39.86 176.114 39.86V40.86C176.712 40.86 177.251 40.7369 177.727 40.4637C178.203 40.191 178.583 39.7871 178.893 39.2749L178.038 38.7571ZM179.676 40H179.176V40.5H179.676V40ZM179.676 39.328L179.625 38.8306L179.176 38.8763V39.328H179.676ZM182.268 39.064V38.564H182.243L182.217 38.5666L182.268 39.064ZM183.252 39.064L183.304 38.5667L183.278 38.564H183.252V39.064ZM185.796 39.328H186.296V38.8772L185.848 38.8307L185.796 39.328ZM185.796 40V40.5H186.296V40H185.796ZM181.572 40L181.072 39.9796L181.051 40.5H181.572V40ZM181.572 28.936L182.072 28.916L182.053 28.4578L181.595 28.4365L181.572 28.936ZM179.508 28.84H179.008V29.3173L179.485 29.3395L179.508 28.84ZM179.508 28.216L179.39 27.7301L179.008 27.8229V28.216H179.508ZM183.756 27.184L184.033 26.768L183.851 26.6464L183.638 26.6981L183.756 27.184ZM184.044 27.376L184.544 27.3864L184.55 27.1121L184.321 26.96L184.044 27.376ZM183.972 30.832L183.472 30.8216V30.832H183.972ZM184.068 40V40.5H184.6L184.567 39.9694L184.068 40ZM180.176 40V39.328H179.176V40H180.176ZM179.727 39.8254L182.319 39.5614L182.217 38.5666L179.625 38.8306L179.727 39.8254ZM182.268 39.564H183.252V38.564H182.268V39.564ZM183.2 39.5613L185.744 39.8253L185.848 38.8307L183.304 38.5667L183.2 39.5613ZM185.296 39.328V40H186.296V39.328H185.296ZM185.796 39.5H179.676V40.5H185.796V39.5ZM182.072 40.0204C182.12 38.8358 182.168 36.1167 182.168 34.48H181.168C181.168 36.1073 181.12 38.8122 181.072 39.9796L182.072 40.0204ZM182.168 34.48V32.944H181.168V34.48H182.168ZM182.168 32.944C182.168 31.3252 182.12 30.1166 182.072 28.916L181.072 28.956C181.12 30.1554 181.168 31.3468 181.168 32.944H182.168ZM181.595 28.4365L179.531 28.3405L179.485 29.3395L181.549 29.4355L181.595 28.4365ZM180.008 28.84V28.216H179.008V28.84H180.008ZM179.626 28.7019L183.874 27.6699L183.638 26.6981L179.39 27.7301L179.626 28.7019ZM183.479 27.6L183.767 27.792L184.321 26.96L184.033 26.768L183.479 27.6ZM183.544 27.3656L183.472 30.8216L184.472 30.8424L184.544 27.3864L183.544 27.3656ZM183.472 30.832V34.48H184.472V30.832H183.472ZM183.472 34.48C183.472 36.1087 183.496 38.8365 183.569 40.0306L184.567 39.9694C184.496 38.8115 184.472 36.1153 184.472 34.48H183.472ZM184.068 39.5H181.572V40.5H184.068V39.5ZM182.652 23.78C182.061 23.78 181.64 23.3776 181.64 22.816H180.64C180.64 23.9824 181.563 24.78 182.652 24.78V23.78ZM181.64 22.816C181.64 22.2731 182.067 21.852 182.652 21.852V20.852C181.557 20.852 180.64 21.6789 180.64 22.816H181.64ZM182.652 21.852C183.219 21.852 183.664 22.2781 183.664 22.816H184.664C184.664 21.6739 183.717 20.852 182.652 20.852V21.852ZM183.664 22.816C183.664 23.3726 183.224 23.78 182.652 23.78V24.78C183.712 24.78 184.664 23.9874 184.664 22.816H183.664ZM187.714 40H187.214V40.5H187.714V40ZM187.714 39.328L187.663 38.8306L187.214 38.8768V39.328H187.714ZM190.282 39.064V38.564H190.256L190.231 38.5666L190.282 39.064ZM191.29 39.064L191.342 38.5668L191.316 38.564H191.29V39.064ZM193.786 39.328H194.286V38.8781L193.838 38.8308L193.786 39.328ZM193.786 40V40.5H194.286V40H193.786ZM189.586 40L189.087 39.9694L189.054 40.5H189.586V40ZM189.586 28.984L190.085 28.9534L190.058 28.5109L189.615 28.4849L189.586 28.984ZM187.546 28.864H187.046V29.3355L187.517 29.3631L187.546 28.864ZM187.546 28.24L187.418 27.7567L187.046 27.8553V28.24H187.546ZM191.53 27.184L191.792 26.7582L191.609 26.6457L191.402 26.7007L191.53 27.184ZM191.842 27.376L192.341 27.3459L192.325 27.0864L192.104 26.9502L191.842 27.376ZM192.01 30.16H192.51V30.1449L192.509 30.1299L192.01 30.16ZM192.082 40V40.5H192.603L192.581 39.9796L192.082 40ZM195.898 40H195.398V40.5H195.898V40ZM195.898 39.328L195.847 38.8306L195.398 38.8768V39.328H195.898ZM198.466 39.064V38.564H198.44L198.415 38.5666L198.466 39.064ZM199.45 39.064L199.502 38.5667L199.476 38.564H199.45V39.064ZM201.994 39.328H202.494V38.8772L202.046 38.8307L201.994 39.328ZM201.994 40V40.5H202.494V40H201.994ZM197.77 40L197.27 39.9796L197.249 40.5H197.77V40ZM191.506 31L191.018 31.1085L191.231 32.0659L191.88 31.3313L191.506 31ZM191.314 30.136V29.636H190.691L190.826 30.2445L191.314 30.136ZM191.602 30.136V30.636H191.842L191.992 30.4489L191.602 30.136ZM200.242 40V40.5H200.763L200.741 39.9796L200.242 40ZM188.214 40V39.328H187.214V40H188.214ZM187.765 39.8254L190.333 39.5614L190.231 38.5666L187.663 38.8306L187.765 39.8254ZM190.282 39.564H191.29V38.564H190.282V39.564ZM191.237 39.5612L193.733 39.8252L193.838 38.8308L191.342 38.5668L191.237 39.5612ZM193.286 39.328V40H194.286V39.328H193.286ZM193.786 39.5H187.714V40.5H193.786V39.5ZM190.085 40.0306C190.158 38.8365 190.182 36.1087 190.182 34.48H189.182C189.182 36.1153 189.158 38.8115 189.087 39.9694L190.085 40.0306ZM190.182 34.48V32.92H189.182V34.48H190.182ZM190.182 32.92C190.182 31.307 190.158 30.1437 190.085 28.9534L189.087 29.0146C189.158 30.1763 189.182 31.317 189.182 32.92H190.182ZM189.615 28.4849L187.575 28.3649L187.517 29.3631L189.557 29.4831L189.615 28.4849ZM188.046 28.864V28.24H187.046V28.864H188.046ZM187.674 28.7233L191.658 27.6673L191.402 26.7007L187.418 27.7567L187.674 28.7233ZM191.268 27.6098L191.58 27.8018L192.104 26.9502L191.792 26.7582L191.268 27.6098ZM191.343 27.4061L191.511 30.1901L192.509 30.1299L192.341 27.3459L191.343 27.4061ZM191.51 30.16V34.48H192.51V30.16H191.51ZM191.51 34.48C191.51 36.1117 191.534 38.833 191.582 40.0204L192.581 39.9796C192.534 38.815 192.51 36.1123 192.51 34.48H191.51ZM192.082 39.5H189.586V40.5H192.082V39.5ZM196.398 40V39.328H195.398V40H196.398ZM195.949 39.8254L198.517 39.5614L198.415 38.5666L195.847 38.8306L195.949 39.8254ZM198.466 39.564H199.45V38.564H198.466V39.564ZM199.398 39.5613L201.942 39.8253L202.046 38.8307L199.502 38.5667L199.398 39.5613ZM201.494 39.328V40H202.494V39.328H201.494ZM201.994 39.5H195.898V40.5H201.994V39.5ZM198.269 40.0204C198.318 38.8331 198.342 36.1838 198.342 34.48H197.342C197.342 36.1842 197.318 38.8149 197.27 39.9796L198.269 40.0204ZM198.342 34.48V31.576H197.342V34.48H198.342ZM198.342 31.576C198.342 30.4124 198.154 29.5143 197.706 28.8996C197.232 28.2487 196.536 28.004 195.754 28.004V29.004C196.316 29.004 196.664 29.1673 196.898 29.4884C197.158 29.8457 197.342 30.4836 197.342 31.576H198.342ZM195.754 28.004C194.482 28.004 192.844 28.7327 191.131 30.6687L191.88 31.3313C193.48 29.5233 194.866 29.004 195.754 29.004V28.004ZM191.994 30.8915L191.802 30.0275L190.826 30.2445L191.018 31.1085L191.994 30.8915ZM191.314 30.636H191.602V29.636H191.314V30.636ZM191.992 30.4489C193.681 28.3435 195.23 27.636 196.714 27.636V26.636C194.838 26.636 193.027 27.5605 191.212 29.8231L191.992 30.4489ZM196.714 27.636C197.674 27.636 198.377 27.9276 198.855 28.514C199.349 29.1197 199.67 30.1199 199.67 31.672H200.67C200.67 30.0081 200.33 28.7403 199.63 27.882C198.915 27.0044 197.89 26.636 196.714 26.636V27.636ZM199.67 31.672V34.48H200.67V31.672H199.67ZM199.67 34.48C199.67 36.1838 199.694 38.8331 199.742 40.0204L200.741 39.9796C200.694 38.8149 200.67 36.1842 200.67 34.48H199.67ZM200.242 39.5H197.77V40.5H200.242V39.5Z" fill="#FFD445" mask="url(#path-3-outside-1_708_6957)"/>
</g>
<g filter="url(#filter2_i_708_6957)">
<path d="M48.4703 35.7193C45.0682 36.4193 45.1985 33.0497 43.5869 31.2428C40.4941 27.7593 35.9688 24.9758 31.3784 24.341C35.6107 28.2314 41.2429 28.7523 44.3845 34.4984C43.2939 36.1914 43.0661 35.231 42.1219 35.1658C40.1523 35.0356 32.0458 34.0427 30.9063 33.3264C27.7647 31.3242 24.3789 21.3784 26.495 17.8135L41.5359 24.3247C44.8729 27.271 48.0634 30.9987 48.4541 35.7193H48.4703Z" fill="url(#paint3_linear_708_6957)"/>
<path d="M50.095 34.9054C50.7624 28.3291 60.0409 27.6291 63.9313 23.1038C63.2965 21.8993 61.9779 23.2829 61.2617 23.6898C58.2991 25.3502 54.5877 27.1245 51.9018 28.9965C51.0717 29.5825 48.3044 33.9776 48.4509 30.4289C48.6137 26.6036 51.8042 24.5363 54.7994 22.9248L67.6264 17.8135C69.6775 21.4923 66.1777 31.194 62.7918 33.359C61.4896 34.1892 50.6973 35.4751 50.1113 34.9217L50.095 34.9054Z" fill="url(#paint4_linear_708_6957)"/>
<path d="M47.9334 47.4394C47.4614 47.8626 47.8683 49.0183 47.2497 48.7416C43.8964 44.0861 33.9994 44.3628 34.6994 37.4121C35.7412 35.8657 54.9818 36.468 58.2374 36.9238C62.7627 42.3606 51.5471 44.2489 47.9334 47.4394ZM54.1679 38.9748C52.182 39.512 49.138 40.4886 47.1684 40.5049C44.6127 40.5375 40.0711 37.933 38.7201 40.5863C42.9686 41.3351 48.438 42.1653 52.5889 40.9933C54.0377 40.5863 54.4934 40.7654 54.1679 38.9585V38.9748Z" fill="url(#paint5_linear_708_6957)"/>
<path d="M52.5243 17L53.1917 22.5508L47.2502 27.5807C44.3202 23.5763 38.216 23.0066 41.1623 17C44.6132 18.3185 49.1222 18.3022 52.5406 17H52.5243Z" fill="url(#paint6_linear_708_6957)"/>
<path d="M60.6786 41.417L59.0508 35.7359C64.2272 34.3849 69.371 35.6057 73.6847 31.6501C73.6196 38.3892 66.8968 42.3448 60.6786 41.417Z" fill="url(#paint7_linear_708_6957)"/>
<path d="M33.82 41.417C26.8042 42.1332 20.8302 39.0892 20 31.6501C24.3951 35.1011 28.5785 34.8244 33.8363 35.2964C35.4153 36.1592 33.1038 37.2335 32.9736 38.6009C32.8759 39.6752 33.5759 40.4566 33.82 41.4007V41.417Z" fill="url(#paint8_linear_708_6957)"/>
</g>
<g filter="url(#filter3_i_708_6957)">
<path d="M237.47 35.7193C234.068 36.4193 234.198 33.0497 232.587 31.2428C229.494 27.7593 224.969 24.9758 220.378 24.341C224.611 28.2314 230.243 28.7523 233.385 34.4984C232.294 36.1914 232.066 35.231 231.122 35.1658C229.152 35.0356 221.046 34.0427 219.906 33.3264C216.765 31.3242 213.379 21.3784 215.495 17.8135L230.536 24.3247C233.873 27.271 237.063 30.9987 237.454 35.7193H237.47Z" fill="url(#paint9_linear_708_6957)"/>
<path d="M239.095 34.9054C239.762 28.3291 249.041 27.6291 252.931 23.1038C252.296 21.8993 250.978 23.2829 250.262 23.6898C247.299 25.3502 243.588 27.1245 240.902 28.9965C240.072 29.5825 237.304 33.9776 237.451 30.4289C237.614 26.6036 240.804 24.5363 243.799 22.9248L256.626 17.8135C258.677 21.4923 255.178 31.194 251.792 33.359C250.49 34.1892 239.697 35.4751 239.111 34.9217L239.095 34.9054Z" fill="url(#paint10_linear_708_6957)"/>
<path d="M236.933 47.4394C236.461 47.8626 236.868 49.0183 236.25 48.7416C232.896 44.0861 222.999 44.3628 223.699 37.4121C224.741 35.8657 243.982 36.468 247.237 36.9238C251.763 42.3606 240.547 44.2489 236.933 47.4394ZM243.168 38.9748C241.182 39.512 238.138 40.4886 236.168 40.5049C233.613 40.5375 229.071 37.933 227.72 40.5863C231.969 41.3351 237.438 42.1653 241.589 40.9933C243.038 40.5863 243.493 40.7654 243.168 38.9585V38.9748Z" fill="url(#paint11_linear_708_6957)"/>
<path d="M241.524 17L242.192 22.5508L236.25 27.5807C233.32 23.5763 227.216 23.0066 230.162 17C233.613 18.3185 238.122 18.3022 241.541 17H241.524Z" fill="url(#paint12_linear_708_6957)"/>
<path d="M249.679 41.417L248.051 35.7359C253.227 34.3849 258.371 35.6057 262.685 31.6501C262.62 38.3892 255.897 42.3448 249.679 41.417Z" fill="url(#paint13_linear_708_6957)"/>
<path d="M222.82 41.417C215.804 42.1332 209.83 39.0892 209 31.6501C213.395 35.1011 217.579 34.8244 222.836 35.2964C224.415 36.1592 222.104 37.2335 221.974 38.6009C221.876 39.6752 222.576 40.4566 222.82 41.4007V41.417Z" fill="url(#paint14_linear_708_6957)"/>
</g>
<defs>
<filter id="filter0_d_708_6957" x="6" y="5" width="269" height="57" filterUnits="userSpaceOnUse" color-interpolation-filters="sRGB">
<feFlood flood-opacity="0" result="BackgroundImageFix"/>
<feColorMatrix in="SourceAlpha" type="matrix" values="0 0 0 0 0 0 0 0 0 0 0 0 0 0 0 0 0 0 127 0" result="hardAlpha"/>
<feOffset dx="1" dy="2"/>
<feGaussianBlur stdDeviation="0.5"/>
<feComposite in2="hardAlpha" operator="out"/>
<feColorMatrix type="matrix" values="0 0 0 0 0 0 0 0 0 0 0 0 0 0 0 0 0 0 0.25 0"/>
<feBlend mode="normal" in2="BackgroundImageFix" result="effect1_dropShadow_708_6957"/>
<feBlend mode="normal" in="SourceGraphic" in2="effect1_dropShadow_708_6957" result="shape"/>
</filter>
<filter id="filter1_d_708_6957" x="75.4141" y="17.584" width="130.578" height="33.92" filterUnits="userSpaceOnUse" color-interpolation-filters="sRGB">
<feFlood flood-opacity="0" result="BackgroundImageFix"/>
<feColorMatrix in="SourceAlpha" type="matrix" values="0 0 0 0 0 0 0 0 0 0 0 0 0 0 0 0 0 0 127 0" result="hardAlpha"/>
<feOffset dy="1"/>
<feGaussianBlur stdDeviation="2"/>
<feComposite in2="hardAlpha" operator="out"/>
<feColorMatrix type="matrix" values="0 0 0 0 0 0 0 0 0 0 0 0 0 0 0 0 0 0 0.25 0"/>
<feBlend mode="normal" in2="BackgroundImageFix" result="effect1_dropShadow_708_6957"/>
<feBlend mode="normal" in="SourceGraphic" in2="effect1_dropShadow_708_6957" result="shape"/>
</filter>
<filter id="filter2_i_708_6957" x="20" y="17" width="53.6836" height="31.7839" filterUnits="userSpaceOnUse" color-interpolation-filters="sRGB">
<feFlood flood-opacity="0" result="BackgroundImageFix"/>
<feBlend mode="normal" in="SourceGraphic" in2="BackgroundImageFix" result="shape"/>
<feColorMatrix in="SourceAlpha" type="matrix" values="0 0 0 0 0 0 0 0 0 0 0 0 0 0 0 0 0 0 127 0" result="hardAlpha"/>
<feOffset/>
<feGaussianBlur stdDeviation="0.5"/>
<feComposite in2="hardAlpha" operator="arithmetic" k2="-1" k3="1"/>
<feColorMatrix type="matrix" values="0 0 0 0 0 0 0 0 0 0 0 0 0 0 0 0 0 0 0.25 0"/>
<feBlend mode="normal" in2="shape" result="effect1_innerShadow_708_6957"/>
</filter>
<filter id="filter3_i_708_6957" x="209" y="17" width="53.6836" height="31.7839" filterUnits="userSpaceOnUse" color-interpolation-filters="sRGB">
<feFlood flood-opacity="0" result="BackgroundImageFix"/>
<feBlend mode="normal" in="SourceGraphic" in2="BackgroundImageFix" result="shape"/>
<feColorMatrix in="SourceAlpha" type="matrix" values="0 0 0 0 0 0 0 0 0 0 0 0 0 0 0 0 0 0 127 0" result="hardAlpha"/>
<feOffset/>
<feGaussianBlur stdDeviation="0.5"/>
<feComposite in2="hardAlpha" operator="arithmetic" k2="-1" k3="1"/>
<feColorMatrix type="matrix" values="0 0 0 0 0 0 0 0 0 0 0 0 0 0 0 0 0 0 0.25 0"/>
<feBlend mode="normal" in2="shape" result="effect1_innerShadow_708_6957"/>
</filter>
<linearGradient id="paint0_linear_708_6957" x1="295.708" y1="68.912" x2="287.597" y2="-24.2689" gradientUnits="userSpaceOnUse">
<stop stop-color="#CBA118"/>
<stop offset="0.333333" stop-color="#FFCB1F"/>
<stop offset="0.465" stop-color="white"/>
<stop offset="0.635" stop-color="#FFB300"/>
<stop offset="1" stop-color="#FFB300"/>
</linearGradient>
<linearGradient id="paint1_linear_708_6957" x1="81.1275" y1="2" x2="81.5901" y2="47.5008" gradientUnits="userSpaceOnUse">
<stop stop-color="#FFEFBC"/>
<stop offset="0.7" stop-color="#FF0000"/>
<stop offset="0.965" stop-color="#D11F1F"/>
</linearGradient>
<linearGradient id="paint2_linear_708_6957" x1="209.076" y1="49.0463" x2="204.084" y2="0.448964" gradientUnits="userSpaceOnUse">
<stop stop-color="#CBA118"/>
<stop offset="0.333333" stop-color="#FFCB1F"/>
<stop offset="0.465" stop-color="white"/>
<stop offset="0.635" stop-color="#FFB300"/>
<stop offset="1" stop-color="#FFB300"/>
</linearGradient>
<linearGradient id="paint3_linear_708_6957" x1="49.5706" y1="36.8969" x2="42.4083" y2="13.0483" gradientUnits="userSpaceOnUse">
<stop stop-color="#CBA118"/>
<stop offset="0.333333" stop-color="#FFCB1F"/>
<stop offset="0.465" stop-color="white"/>
<stop offset="0.635" stop-color="#FFB300"/>
<stop offset="1" stop-color="#FFB300"/>
</linearGradient>
<linearGradient id="paint4_linear_708_6957" x1="69.1989" y1="36.0935" x2="61.8054" y2="13.621" gradientUnits="userSpaceOnUse">
<stop stop-color="#CBA118"/>
<stop offset="0.333333" stop-color="#FFCB1F"/>
<stop offset="0.465" stop-color="white"/>
<stop offset="0.635" stop-color="#FFB300"/>
<stop offset="1" stop-color="#FFB300"/>
</linearGradient>
<linearGradient id="paint5_linear_708_6957" x1="60.4941" y1="49.5282" x2="57.2246" y2="32.2845" gradientUnits="userSpaceOnUse">
<stop stop-color="#CBA118"/>
<stop offset="0.333333" stop-color="#FFCB1F"/>
<stop offset="0.465" stop-color="white"/>
<stop offset="0.635" stop-color="#FFB300"/>
<stop offset="1" stop-color="#FFB300"/>
</linearGradient>
<linearGradient id="paint6_linear_708_6957" x1="53.8146" y1="28.2175" x2="49.4709" y2="14.2892" gradientUnits="userSpaceOnUse">
<stop stop-color="#CBA118"/>
<stop offset="0.333333" stop-color="#FFCB1F"/>
<stop offset="0.465" stop-color="white"/>
<stop offset="0.635" stop-color="#FFB300"/>
<stop offset="1" stop-color="#FFB300"/>
</linearGradient>
<linearGradient id="paint7_linear_708_6957" x1="74.3961" y1="42.1469" x2="70.966" y2="28.7223" gradientUnits="userSpaceOnUse">
<stop stop-color="#CBA118"/>
<stop offset="0.333333" stop-color="#FFCB1F"/>
<stop offset="0.465" stop-color="white"/>
<stop offset="0.635" stop-color="#FFB300"/>
<stop offset="1" stop-color="#FFB300"/>
</linearGradient>
<linearGradient id="paint8_linear_708_6957" x1="35.0853" y1="42.1127" x2="31.6248" y2="28.7548" gradientUnits="userSpaceOnUse">
<stop stop-color="#CBA118"/>
<stop offset="0.333333" stop-color="#FFCB1F"/>
<stop offset="0.465" stop-color="white"/>
<stop offset="0.635" stop-color="#FFB300"/>
<stop offset="1" stop-color="#FFB300"/>
</linearGradient>
<linearGradient id="paint9_linear_708_6957" x1="238.571" y1="36.8969" x2="231.408" y2="13.0483" gradientUnits="userSpaceOnUse">
<stop stop-color="#CBA118"/>
<stop offset="0.333333" stop-color="#FFCB1F"/>
<stop offset="0.465" stop-color="white"/>
<stop offset="0.635" stop-color="#FFB300"/>
<stop offset="1" stop-color="#FFB300"/>
</linearGradient>
<linearGradient id="paint10_linear_708_6957" x1="258.199" y1="36.0935" x2="250.805" y2="13.621" gradientUnits="userSpaceOnUse">
<stop stop-color="#CBA118"/>
<stop offset="0.333333" stop-color="#FFCB1F"/>
<stop offset="0.465" stop-color="white"/>
<stop offset="0.635" stop-color="#FFB300"/>
<stop offset="1" stop-color="#FFB300"/>
</linearGradient>
<linearGradient id="paint11_linear_708_6957" x1="249.494" y1="49.5282" x2="246.225" y2="32.2845" gradientUnits="userSpaceOnUse">
<stop stop-color="#CBA118"/>
<stop offset="0.333333" stop-color="#FFCB1F"/>
<stop offset="0.465" stop-color="white"/>
<stop offset="0.635" stop-color="#FFB300"/>
<stop offset="1" stop-color="#FFB300"/>
</linearGradient>
<linearGradient id="paint12_linear_708_6957" x1="242.815" y1="28.2175" x2="238.471" y2="14.2892" gradientUnits="userSpaceOnUse">
<stop stop-color="#CBA118"/>
<stop offset="0.333333" stop-color="#FFCB1F"/>
<stop offset="0.465" stop-color="white"/>
<stop offset="0.635" stop-color="#FFB300"/>
<stop offset="1" stop-color="#FFB300"/>
</linearGradient>
<linearGradient id="paint13_linear_708_6957" x1="263.396" y1="42.1469" x2="259.966" y2="28.7223" gradientUnits="userSpaceOnUse">
<stop stop-color="#CBA118"/>
<stop offset="0.333333" stop-color="#FFCB1F"/>
<stop offset="0.465" stop-color="white"/>
<stop offset="0.635" stop-color="#FFB300"/>
<stop offset="1" stop-color="#FFB300"/>
</linearGradient>
<linearGradient id="paint14_linear_708_6957" x1="224.085" y1="42.1127" x2="220.625" y2="28.7548" gradientUnits="userSpaceOnUse">
<stop stop-color="#CBA118"/>
<stop offset="0.333333" stop-color="#FFCB1F"/>
<stop offset="0.465" stop-color="white"/>
<stop offset="0.635" stop-color="#FFB300"/>
<stop offset="1" stop-color="#FFB300"/>
</linearGradient>
</defs>
</svg>
