<svg width="261" height="97" viewBox="0 0 261 97" fill="none" xmlns="http://www.w3.org/2000/svg">
<rect y="18" width="261" height="65" rx="32.5" fill="url(#paint0_linear_708_6525)"/>
<g filter="url(#filter0_d_708_6525)">
<rect x="6" y="23" width="247" height="54" rx="27" fill="url(#paint1_linear_708_6525)"/>
</g>
<g filter="url(#filter1_d_708_6525)">
<mask id="path-3-outside-1_708_6525" maskUnits="userSpaceOnUse" x="90" y="39" width="83" height="22" fill="black">
<rect fill="white" x="90" y="39" width="83" height="22"/>
<path d="M95.7361 60.408C93.7681 60.408 91.8001 59.808 90.5761 59.016L90.7201 55.32H91.8001L92.6641 59.448L91.4641 58.896L91.2961 58.08C92.8561 59.208 93.8881 59.52 95.5441 59.52C98.1121 59.52 99.7681 58.344 99.7681 56.112C99.7681 54.408 98.9521 53.496 96.4561 52.464L95.4241 52.008C92.4961 50.76 90.9601 49.224 90.9601 46.704C90.9601 43.656 93.4801 42.024 96.7201 42.024C98.5921 42.024 99.9601 42.528 101.184 43.368L101.04 46.872H99.9361L99.0961 42.912L100.344 43.488L100.44 44.304C99.1921 43.296 98.3041 42.936 96.9361 42.936C94.7281 42.936 93.1441 44.016 93.1441 46.056C93.1441 47.832 94.2481 48.816 96.0721 49.584L97.2001 50.064C100.824 51.6 102 52.968 102 55.464C102 58.488 99.5761 60.408 95.7361 60.408ZM104.093 60V59.328L106.661 59.064H107.669L110.165 59.328V60H104.093ZM105.989 60C106.037 58.824 106.061 56.112 106.061 54.48V42.144L104.021 42.024V41.376L108.053 40.584L108.413 40.8L108.341 44.568V49.92L108.389 50.232V54.48C108.389 56.112 108.413 58.824 108.461 60H105.989ZM112.325 60V59.328L114.869 59.064H115.853L118.397 59.328V60H112.325ZM114.173 60C114.221 58.824 114.245 56.184 114.245 54.48V51.576C114.245 49.32 113.429 48.504 112.109 48.504C111.005 48.504 109.541 49.128 107.885 51L107.357 50.112H108.005C109.685 48.024 111.317 47.136 113.093 47.136C115.253 47.136 116.597 48.432 116.597 51.696V54.48C116.597 56.184 116.621 58.824 116.669 60H114.173ZM125.38 60.384C123.076 60.384 121.732 59.112 121.78 55.536L121.828 48.312L122.428 48.744L119.908 48.384V47.76L123.964 47.304L124.228 47.568L124.108 50.832V55.632C124.108 58.056 124.948 58.896 126.436 58.896C127.9 58.896 129.244 57.984 130.348 56.52L130.972 57.528H130.204C128.98 59.208 127.372 60.384 125.38 60.384ZM130.036 60.264L129.94 57.312V57.264L129.988 48.624L128.116 48.408V47.784L132.124 47.304L132.364 47.568L132.268 50.832V59.16L134.044 59.352V60.024L130.036 60.264ZM135.848 60V59.328L138.608 59.064H139.808L142.64 59.328V60H135.848ZM137.888 60C137.936 58.176 137.96 56.328 137.96 54.48V48.408H135.752V47.664L138.8 47.376L137.96 47.832V47.64C138.128 44.736 138.704 43.128 140.024 41.808C141.056 40.8 142.376 40.32 143.6 40.32C144.8 40.32 145.832 40.8 146.072 41.664C146.072 42.288 145.592 42.744 144.824 42.744C144.176 42.744 143.672 42.408 142.928 41.52L142.328 40.944V40.632H143.36V40.848C142.688 40.92 142.088 41.184 141.56 41.736C140.528 42.864 140.168 44.592 140.312 48.336V54.48C140.312 56.328 140.336 58.176 140.384 60H137.888ZM139.16 48.408V47.496H146.024V48.408H139.16ZM144.032 60V59.328L146.792 59.064H148.064L150.824 59.328V60H144.032ZM146.048 60C146.096 58.176 146.168 56.328 146.168 54.48V48.408H143.96V47.664L146.984 47.376L146.12 47.832C146.288 44.664 147.08 43.128 148.256 41.976C149.456 40.848 150.968 40.32 152.456 40.32C153.8 40.32 155.048 40.776 155.312 41.664C155.288 42.264 154.904 42.72 154.16 42.72C153.464 42.72 152.696 42.384 151.976 41.472L151.52 40.896V40.632H152.384V40.896C151.28 41.064 150.44 41.376 149.744 42.096C148.76 43.176 148.376 44.904 148.472 48.144V54.48C148.472 56.328 148.496 58.176 148.568 60H146.048ZM147.32 48.408V47.496H152.072V48.408H147.32ZM152.12 60V59.328L154.808 59.064H155.816L158.624 59.328V60H152.12ZM154.136 60C154.184 58.464 154.208 56.232 154.208 54.48V41.256L156.344 40.584L156.608 40.776L156.512 44.568V54.48C156.512 56.232 156.536 58.464 156.608 60H154.136ZM166.727 60.384C163.079 60.384 160.463 58.128 160.463 53.76C160.463 49.632 163.295 47.136 166.559 47.136C169.775 47.136 171.647 49.344 171.647 52.2C171.647 52.776 171.599 53.256 171.503 53.64H161.519V52.872H168.263C169.151 52.872 169.415 52.44 169.415 51.36C169.415 49.296 168.311 47.904 166.463 47.904C164.495 47.904 162.935 49.872 162.935 53.472C162.935 57.384 164.807 59.088 167.423 59.088C169.127 59.088 170.303 58.464 171.263 57.312L171.647 57.648C170.615 59.352 168.959 60.384 166.727 60.384Z"/>
</mask>
<path d="M95.7361 60.408C93.7681 60.408 91.8001 59.808 90.5761 59.016L90.7201 55.32H91.8001L92.6641 59.448L91.4641 58.896L91.2961 58.08C92.8561 59.208 93.8881 59.52 95.5441 59.52C98.1121 59.52 99.7681 58.344 99.7681 56.112C99.7681 54.408 98.9521 53.496 96.4561 52.464L95.4241 52.008C92.4961 50.76 90.9601 49.224 90.9601 46.704C90.9601 43.656 93.4801 42.024 96.7201 42.024C98.5921 42.024 99.9601 42.528 101.184 43.368L101.04 46.872H99.9361L99.0961 42.912L100.344 43.488L100.44 44.304C99.1921 43.296 98.3041 42.936 96.9361 42.936C94.7281 42.936 93.1441 44.016 93.1441 46.056C93.1441 47.832 94.2481 48.816 96.0721 49.584L97.2001 50.064C100.824 51.6 102 52.968 102 55.464C102 58.488 99.5761 60.408 95.7361 60.408ZM104.093 60V59.328L106.661 59.064H107.669L110.165 59.328V60H104.093ZM105.989 60C106.037 58.824 106.061 56.112 106.061 54.48V42.144L104.021 42.024V41.376L108.053 40.584L108.413 40.8L108.341 44.568V49.92L108.389 50.232V54.48C108.389 56.112 108.413 58.824 108.461 60H105.989ZM112.325 60V59.328L114.869 59.064H115.853L118.397 59.328V60H112.325ZM114.173 60C114.221 58.824 114.245 56.184 114.245 54.48V51.576C114.245 49.32 113.429 48.504 112.109 48.504C111.005 48.504 109.541 49.128 107.885 51L107.357 50.112H108.005C109.685 48.024 111.317 47.136 113.093 47.136C115.253 47.136 116.597 48.432 116.597 51.696V54.48C116.597 56.184 116.621 58.824 116.669 60H114.173ZM125.38 60.384C123.076 60.384 121.732 59.112 121.78 55.536L121.828 48.312L122.428 48.744L119.908 48.384V47.76L123.964 47.304L124.228 47.568L124.108 50.832V55.632C124.108 58.056 124.948 58.896 126.436 58.896C127.9 58.896 129.244 57.984 130.348 56.52L130.972 57.528H130.204C128.98 59.208 127.372 60.384 125.38 60.384ZM130.036 60.264L129.94 57.312V57.264L129.988 48.624L128.116 48.408V47.784L132.124 47.304L132.364 47.568L132.268 50.832V59.16L134.044 59.352V60.024L130.036 60.264ZM135.848 60V59.328L138.608 59.064H139.808L142.64 59.328V60H135.848ZM137.888 60C137.936 58.176 137.96 56.328 137.96 54.48V48.408H135.752V47.664L138.8 47.376L137.96 47.832V47.64C138.128 44.736 138.704 43.128 140.024 41.808C141.056 40.8 142.376 40.32 143.6 40.32C144.8 40.32 145.832 40.8 146.072 41.664C146.072 42.288 145.592 42.744 144.824 42.744C144.176 42.744 143.672 42.408 142.928 41.52L142.328 40.944V40.632H143.36V40.848C142.688 40.92 142.088 41.184 141.56 41.736C140.528 42.864 140.168 44.592 140.312 48.336V54.48C140.312 56.328 140.336 58.176 140.384 60H137.888ZM139.16 48.408V47.496H146.024V48.408H139.16ZM144.032 60V59.328L146.792 59.064H148.064L150.824 59.328V60H144.032ZM146.048 60C146.096 58.176 146.168 56.328 146.168 54.48V48.408H143.96V47.664L146.984 47.376L146.12 47.832C146.288 44.664 147.08 43.128 148.256 41.976C149.456 40.848 150.968 40.32 152.456 40.32C153.8 40.32 155.048 40.776 155.312 41.664C155.288 42.264 154.904 42.72 154.16 42.72C153.464 42.72 152.696 42.384 151.976 41.472L151.52 40.896V40.632H152.384V40.896C151.28 41.064 150.44 41.376 149.744 42.096C148.76 43.176 148.376 44.904 148.472 48.144V54.48C148.472 56.328 148.496 58.176 148.568 60H146.048ZM147.32 48.408V47.496H152.072V48.408H147.32ZM152.12 60V59.328L154.808 59.064H155.816L158.624 59.328V60H152.12ZM154.136 60C154.184 58.464 154.208 56.232 154.208 54.48V41.256L156.344 40.584L156.608 40.776L156.512 44.568V54.48C156.512 56.232 156.536 58.464 156.608 60H154.136ZM166.727 60.384C163.079 60.384 160.463 58.128 160.463 53.76C160.463 49.632 163.295 47.136 166.559 47.136C169.775 47.136 171.647 49.344 171.647 52.2C171.647 52.776 171.599 53.256 171.503 53.64H161.519V52.872H168.263C169.151 52.872 169.415 52.44 169.415 51.36C169.415 49.296 168.311 47.904 166.463 47.904C164.495 47.904 162.935 49.872 162.935 53.472C162.935 57.384 164.807 59.088 167.423 59.088C169.127 59.088 170.303 58.464 171.263 57.312L171.647 57.648C170.615 59.352 168.959 60.384 166.727 60.384Z" fill="url(#paint2_linear_708_6525)"/>
<path d="M90.5761 59.016L90.0765 58.9965L90.0654 59.2811L90.3045 59.4358L90.5761 59.016ZM90.7201 55.32V54.82H90.2392L90.2205 55.3005L90.7201 55.32ZM91.8001 55.32L92.2895 55.2176L92.2063 54.82H91.8001V55.32ZM92.6641 59.448L92.4552 59.9022L93.3568 60.317L93.1535 59.3456L92.6641 59.448ZM91.4641 58.896L90.9744 58.9968L91.0254 59.2445L91.2552 59.3502L91.4641 58.896ZM91.2961 58.08L91.5891 57.6748L90.5471 56.9214L90.8064 58.1808L91.2961 58.08ZM96.4561 52.464L96.254 52.9215L96.2651 52.9261L96.4561 52.464ZM95.4241 52.008L95.6262 51.5506L95.6202 51.548L95.4241 52.008ZM101.184 43.368L101.684 43.3885L101.695 43.1122L101.467 42.9557L101.184 43.368ZM101.04 46.872V47.372H101.52L101.54 46.8925L101.04 46.872ZM99.9361 46.872L99.447 46.9758L99.5311 47.372H99.9361V46.872ZM99.0961 42.912L99.3057 42.458L98.4 42.04L98.607 43.0158L99.0961 42.912ZM100.344 43.488L100.841 43.4296L100.808 43.1514L100.554 43.034L100.344 43.488ZM100.44 44.304L100.126 44.693L101.08 45.4635L100.937 44.2456L100.44 44.304ZM96.0721 49.584L96.2679 49.1239L96.2662 49.1232L96.0721 49.584ZM97.2001 50.064L97.0043 50.5241L97.005 50.5244L97.2001 50.064ZM95.7361 59.908C93.8541 59.908 91.9825 59.3305 90.8478 58.5962L90.3045 59.4358C91.6178 60.2855 93.6822 60.908 95.7361 60.908V59.908ZM91.0757 59.0355L91.2197 55.3395L90.2205 55.3005L90.0765 58.9965L91.0757 59.0355ZM90.7201 55.82H91.8001V54.82H90.7201V55.82ZM91.3107 55.4224L92.1747 59.5504L93.1535 59.3456L92.2895 55.2176L91.3107 55.4224ZM92.8731 58.9938L91.6731 58.4418L91.2552 59.3502L92.4552 59.9022L92.8731 58.9938ZM91.9539 58.7952L91.7859 57.9792L90.8064 58.1808L90.9744 58.9968L91.9539 58.7952ZM91.0032 58.4852C91.8071 59.0665 92.5013 59.4569 93.2267 59.6976C93.9541 59.9389 94.6836 60.02 95.5441 60.02V59.02C94.7487 59.02 94.1341 58.9451 93.5416 58.7484C92.9469 58.5511 92.3452 58.2215 91.5891 57.6748L91.0032 58.4852ZM95.5441 60.02C96.8959 60.02 98.0746 59.7115 98.9265 59.0473C99.796 58.3695 100.268 57.3649 100.268 56.112H99.2681C99.2681 57.0911 98.9122 57.7905 98.3117 58.2587C97.6936 58.7405 96.7603 59.02 95.5441 59.02V60.02ZM100.268 56.112C100.268 55.1672 100.037 54.3832 99.4188 53.7004C98.8254 53.0449 97.9111 52.5245 96.6472 52.0019L96.2651 52.9261C97.4971 53.4355 98.2389 53.8871 98.6775 54.3716C99.0914 54.8288 99.2681 55.3528 99.2681 56.112H100.268ZM96.6582 52.0067L95.6262 51.5507L95.222 52.4653L96.254 52.9213L96.6582 52.0067ZM95.6202 51.548C94.1876 50.9374 93.1493 50.2777 92.47 49.5033C91.8041 48.7442 91.4601 47.849 91.4601 46.704H90.4601C90.4601 48.079 90.8841 49.2118 91.7182 50.1627C92.5389 51.0983 93.7327 51.8306 95.2281 52.468L95.6202 51.548ZM91.4601 46.704C91.4601 45.3349 92.0182 44.3124 92.9283 43.6186C93.8534 42.9134 95.1771 42.524 96.7201 42.524V41.524C95.0231 41.524 93.4668 41.9506 92.322 42.8234C91.162 43.7076 90.4601 45.0251 90.4601 46.704H91.4601ZM96.7201 42.524C98.4869 42.524 99.7569 42.995 100.901 43.7803L101.467 42.9557C100.163 42.061 98.6974 41.524 96.7201 41.524V42.524ZM100.685 43.3475L100.541 46.8515L101.54 46.8925L101.684 43.3885L100.685 43.3475ZM101.04 46.372H99.9361V47.372H101.04V46.372ZM100.425 46.7682L99.5852 42.8082L98.607 43.0158L99.447 46.9758L100.425 46.7682ZM98.8866 43.366L100.135 43.942L100.554 43.034L99.3057 42.458L98.8866 43.366ZM99.8476 43.5464L99.9436 44.3624L100.937 44.2456L100.841 43.4296L99.8476 43.5464ZM100.754 43.915C100.11 43.3943 99.5308 43.0185 98.9162 42.7767C98.2962 42.5328 97.6676 42.436 96.9361 42.436V43.436C97.5727 43.436 98.072 43.5192 98.5501 43.7073C99.0335 43.8975 99.5226 44.2057 100.126 44.693L100.754 43.915ZM96.9361 42.436C95.7578 42.436 94.6896 42.7234 93.9043 43.337C93.1034 43.9627 92.6441 44.892 92.6441 46.056H93.6441C93.6441 45.18 93.9769 44.5493 94.5199 44.125C95.0786 43.6886 95.9064 43.436 96.9361 43.436V42.436ZM92.6441 46.056C92.6441 47.0613 92.9618 47.8714 93.5513 48.5312C94.1268 49.1752 94.937 49.6486 95.8781 50.0448L96.2662 49.1232C95.3833 48.7514 94.7294 48.3488 94.297 47.8648C93.8785 47.3966 93.6441 46.8267 93.6441 46.056H92.6441ZM95.8763 50.0441L97.0043 50.5241L97.3959 49.6039L96.2679 49.1239L95.8763 50.0441ZM97.005 50.5244C98.7994 51.2849 99.9137 51.9754 100.584 52.7349C101.232 53.4686 101.5 54.3067 101.5 55.464H102.5C102.5 54.1253 102.18 53.0314 101.334 52.0731C100.511 51.1406 99.2249 50.3791 97.3952 49.6036L97.005 50.5244ZM101.5 55.464C101.5 56.829 100.96 57.9181 99.9982 58.6777C99.0244 59.447 97.5785 59.908 95.7361 59.908V60.908C97.7337 60.908 99.4199 60.409 100.618 59.4623C101.829 58.5059 102.5 57.123 102.5 55.464H101.5ZM104.093 60H103.593V60.5H104.093V60ZM104.093 59.328L104.042 58.8306L103.593 58.8768V59.328H104.093ZM106.661 59.064V58.564H106.636L106.61 58.5666L106.661 59.064ZM107.669 59.064L107.722 58.5668L107.696 58.564H107.669V59.064ZM110.165 59.328H110.665V58.8781L110.218 58.8308L110.165 59.328ZM110.165 60V60.5H110.665V60H110.165ZM105.989 60L105.49 59.9796L105.469 60.5H105.989V60ZM106.061 42.144H106.561V41.6725L106.091 41.6449L106.061 42.144ZM104.021 42.024H103.521V42.4955L103.992 42.5231L104.021 42.024ZM104.021 41.376L103.925 40.8854L103.521 40.9647V41.376H104.021ZM108.053 40.584L108.311 40.1553L108.146 40.0563L107.957 40.0934L108.053 40.584ZM108.413 40.8L108.913 40.8096L108.919 40.5202L108.671 40.3713L108.413 40.8ZM108.341 44.568L107.841 44.5584V44.568H108.341ZM108.341 49.92H107.841V49.9582L107.847 49.996L108.341 49.92ZM108.389 50.232H108.889V50.1938L108.884 50.156L108.389 50.232ZM108.461 60V60.5H108.982L108.961 59.9796L108.461 60ZM112.325 60H111.825V60.5H112.325V60ZM112.325 59.328L112.274 58.8307L111.825 58.8772V59.328H112.325ZM114.869 59.064V58.564H114.844L114.818 58.5667L114.869 59.064ZM115.853 59.064L115.905 58.5667L115.879 58.564H115.853V59.064ZM118.397 59.328H118.897V58.8772L118.449 58.8307L118.397 59.328ZM118.397 60V60.5H118.897V60H118.397ZM114.173 60L113.674 59.9796L113.653 60.5H114.173V60ZM107.885 51L107.456 51.2555L107.806 51.8446L108.26 51.3313L107.885 51ZM107.357 50.112V49.612H106.478L106.928 50.3675L107.357 50.112ZM108.005 50.112V50.612H108.245L108.395 50.4254L108.005 50.112ZM116.669 60V60.5H117.19L117.169 59.9796L116.669 60ZM104.593 60V59.328H103.593V60H104.593ZM104.145 59.8254L106.713 59.5614L106.61 58.5666L104.042 58.8306L104.145 59.8254ZM106.661 59.564H107.669V58.564H106.661V59.564ZM107.617 59.5612L110.113 59.8252L110.218 58.8308L107.722 58.5668L107.617 59.5612ZM109.665 59.328V60H110.665V59.328H109.665ZM110.165 59.5H104.093V60.5H110.165V59.5ZM106.489 60.0204C106.537 58.833 106.561 56.1117 106.561 54.48H105.561C105.561 56.1123 105.537 58.815 105.49 59.9796L106.489 60.0204ZM106.561 54.48V42.144H105.561V54.48H106.561ZM106.091 41.6449L104.051 41.5249L103.992 42.5231L106.032 42.6431L106.091 41.6449ZM104.521 42.024V41.376H103.521V42.024H104.521ZM104.118 41.8666L108.15 41.0746L107.957 40.0934L103.925 40.8854L104.118 41.8666ZM107.796 41.0127L108.156 41.2287L108.671 40.3713L108.311 40.1553L107.796 41.0127ZM107.913 40.7904L107.841 44.5584L108.841 44.5776L108.913 40.8096L107.913 40.7904ZM107.841 44.568V49.92H108.841V44.568H107.841ZM107.847 49.996L107.895 50.308L108.884 50.156L108.836 49.844L107.847 49.996ZM107.889 50.232V54.48H108.889V50.232H107.889ZM107.889 54.48C107.889 56.1117 107.913 58.833 107.962 60.0204L108.961 59.9796C108.913 58.815 108.889 56.1123 108.889 54.48H107.889ZM108.461 59.5H105.989V60.5H108.461V59.5ZM112.825 60V59.328H111.825V60H112.825ZM112.377 59.8253L114.921 59.5613L114.818 58.5667L112.274 58.8307L112.377 59.8253ZM114.869 59.564H115.853V58.564H114.869V59.564ZM115.802 59.5613L118.346 59.8253L118.449 58.8307L115.905 58.5667L115.802 59.5613ZM117.897 59.328V60H118.897V59.328H117.897ZM118.397 59.5H112.325V60.5H118.397V59.5ZM114.673 60.0204C114.721 58.8331 114.745 56.1838 114.745 54.48H113.745C113.745 56.1842 113.721 58.8149 113.674 59.9796L114.673 60.0204ZM114.745 54.48V51.576H113.745V54.48H114.745ZM114.745 51.576C114.745 50.4042 114.536 49.5053 114.071 48.8916C113.583 48.2489 112.88 48.004 112.109 48.004V49.004C112.658 49.004 113.024 49.1671 113.274 49.4964C113.546 49.8547 113.745 50.4918 113.745 51.576H114.745ZM112.109 48.004C110.81 48.004 109.221 48.7361 107.511 50.6687L108.26 51.3313C109.862 49.5199 111.201 49.004 112.109 49.004V48.004ZM108.315 50.7445L107.787 49.8565L106.928 50.3675L107.456 51.2555L108.315 50.7445ZM107.357 50.612H108.005V49.612H107.357V50.612ZM108.395 50.4254C110.018 48.4087 111.52 47.636 113.093 47.636V46.636C111.115 46.636 109.353 47.6393 107.616 49.7986L108.395 50.4254ZM113.093 47.636C114.07 47.636 114.785 47.9244 115.27 48.5108C115.771 49.1156 116.097 50.1199 116.097 51.696H117.097C117.097 50.0081 116.752 48.7324 116.041 47.8732C115.314 46.9956 114.277 46.636 113.093 46.636V47.636ZM116.097 51.696V54.48H117.097V51.696H116.097ZM116.097 54.48C116.097 56.1838 116.121 58.8331 116.17 60.0204L117.169 59.9796C117.121 58.8149 117.097 56.1842 117.097 54.48H116.097ZM116.669 59.5H114.173V60.5H116.669V59.5ZM121.78 55.536L122.28 55.5427L122.28 55.5393L121.78 55.536ZM121.828 48.312L122.12 47.9062L121.335 47.3405L121.328 48.3087L121.828 48.312ZM122.428 48.744L122.357 49.239L122.72 48.3382L122.428 48.744ZM119.908 48.384H119.408V48.8176L119.837 48.879L119.908 48.384ZM119.908 47.76L119.852 47.2631L119.408 47.3131V47.76H119.908ZM123.964 47.304L124.318 46.9504L124.147 46.7802L123.908 46.8071L123.964 47.304ZM124.228 47.568L124.728 47.5864L124.736 47.3686L124.582 47.2144L124.228 47.568ZM124.108 50.832L123.608 50.8136L123.608 50.8228V50.832H124.108ZM130.348 56.52L130.773 56.2568L130.389 55.6357L129.949 56.219L130.348 56.52ZM130.972 57.528V58.028H131.87L131.397 57.2648L130.972 57.528ZM130.204 57.528V57.028H129.95L129.8 57.2336L130.204 57.528ZM130.036 60.264L129.536 60.2803L129.553 60.7938L130.066 60.7631L130.036 60.264ZM129.94 57.312H129.44V57.3201L129.44 57.3283L129.94 57.312ZM129.94 57.264L129.44 57.2612V57.264H129.94ZM129.988 48.624L130.488 48.6268L130.491 48.1787L130.045 48.1273L129.988 48.624ZM128.116 48.408H127.616V48.8536L128.059 48.9047L128.116 48.408ZM128.116 47.784L128.057 47.2875L127.616 47.3403V47.784H128.116ZM132.124 47.304L132.494 46.9677L132.321 46.7769L132.065 46.8075L132.124 47.304ZM132.364 47.568L132.864 47.5827L132.87 47.381L132.734 47.2317L132.364 47.568ZM132.268 50.832L131.768 50.8173L131.768 50.8246V50.832H132.268ZM132.268 59.16H131.768V59.6089L132.214 59.6571L132.268 59.16ZM134.044 59.352H134.544V58.9031L134.098 58.8549L134.044 59.352ZM134.044 60.024L134.074 60.5231L134.544 60.495V60.024H134.044ZM125.38 59.884C124.32 59.884 123.578 59.5951 123.087 58.9868C122.577 58.3553 122.257 57.2844 122.28 55.5427L121.28 55.5293C121.255 57.3636 121.583 58.7167 122.309 59.6152C123.054 60.5369 124.136 60.884 125.38 60.884V59.884ZM122.28 55.5393L122.328 48.3153L121.328 48.3087L121.28 55.5327L122.28 55.5393ZM121.536 48.7178L122.136 49.1498L122.72 48.3382L122.12 47.9062L121.536 48.7178ZM122.499 48.249L119.979 47.889L119.837 48.879L122.357 49.239L122.499 48.249ZM120.408 48.384V47.76H119.408V48.384H120.408ZM119.964 48.2569L124.02 47.8009L123.908 46.8071L119.852 47.2631L119.964 48.2569ZM123.611 47.6576L123.875 47.9216L124.582 47.2144L124.318 46.9504L123.611 47.6576ZM123.728 47.5496L123.608 50.8136L124.608 50.8504L124.728 47.5864L123.728 47.5496ZM123.608 50.832V55.632H124.608V50.832H123.608ZM123.608 55.632C123.608 56.8827 123.821 57.8344 124.318 58.4785C124.839 59.1533 125.594 59.396 126.436 59.396V58.396C125.79 58.396 125.381 58.2187 125.11 57.8675C124.815 57.4856 124.608 56.8053 124.608 55.632H123.608ZM126.436 59.396C128.122 59.396 129.596 58.3474 130.747 56.821L129.949 56.219C128.892 57.6206 127.678 58.396 126.436 58.396V59.396ZM129.923 56.7832L130.547 57.7912L131.397 57.2648L130.773 56.2568L129.923 56.7832ZM130.972 57.028H130.204V58.028H130.972V57.028ZM129.8 57.2336C128.627 58.8431 127.151 59.884 125.38 59.884V60.884C127.593 60.884 129.333 59.5729 130.608 57.8224L129.8 57.2336ZM130.536 60.2477L130.44 57.2957L129.44 57.3283L129.536 60.2803L130.536 60.2477ZM130.44 57.312V57.264H129.44V57.312H130.44ZM130.44 57.2668L130.488 48.6268L129.488 48.6212L129.44 57.2612L130.44 57.2668ZM130.045 48.1273L128.173 47.9113L128.059 48.9047L129.931 49.1207L130.045 48.1273ZM128.616 48.408V47.784H127.616V48.408H128.616ZM128.176 48.2805L132.184 47.8005L132.065 46.8075L128.057 47.2875L128.176 48.2805ZM131.754 47.6403L131.994 47.9043L132.734 47.2317L132.494 46.9677L131.754 47.6403ZM131.864 47.5533L131.768 50.8173L132.768 50.8467L132.864 47.5827L131.864 47.5533ZM131.768 50.832V59.16H132.768V50.832H131.768ZM132.214 59.6571L133.99 59.8491L134.098 58.8549L132.322 58.6629L132.214 59.6571ZM133.544 59.352V60.024H134.544V59.352H133.544ZM134.014 59.5249L130.006 59.7649L130.066 60.7631L134.074 60.5231L134.014 59.5249ZM135.848 60H135.348V60.5H135.848V60ZM135.848 59.328L135.8 58.8303L135.348 58.8735V59.328H135.848ZM138.608 59.064V58.564H138.584L138.56 58.5663L138.608 59.064ZM139.808 59.064L139.854 58.5662L139.831 58.564H139.808V59.064ZM142.64 59.328H143.14V58.8724L142.686 58.8302L142.64 59.328ZM142.64 60V60.5H143.14V60H142.64ZM137.888 60L137.388 59.9868L137.374 60.5H137.888V60ZM137.96 48.408H138.46V47.908H137.96V48.408ZM135.752 48.408H135.252V48.908H135.752V48.408ZM135.752 47.664L135.705 47.1662L135.252 47.209V47.664H135.752ZM138.8 47.376L139.038 47.8154L138.753 46.8782L138.8 47.376ZM137.96 47.832H137.46V48.6724L138.198 48.2714L137.96 47.832ZM137.96 47.64L137.461 47.6111L137.46 47.6255V47.64H137.96ZM140.024 41.808L139.674 41.4503L139.67 41.4544L140.024 41.808ZM146.072 41.664H146.572V41.5958L146.554 41.5302L146.072 41.664ZM142.928 41.52L143.311 41.1989L143.294 41.1781L143.274 41.1593L142.928 41.52ZM142.328 40.944H141.828V41.1571L141.982 41.3047L142.328 40.944ZM142.328 40.632V40.132H141.828V40.632H142.328ZM143.36 40.632H143.86V40.132H143.36V40.632ZM143.36 40.848L143.413 41.3452L143.86 41.2973V40.848H143.36ZM141.56 41.736L141.198 41.3903L141.191 41.3985L141.56 41.736ZM140.312 48.336H140.812V48.3264L140.811 48.3168L140.312 48.336ZM140.384 60V60.5H140.897L140.884 59.9868L140.384 60ZM139.16 48.408H138.66V48.908H139.16V48.408ZM139.16 47.496V46.996H138.66V47.496H139.16ZM146.024 47.496H146.524V46.996H146.024V47.496ZM146.024 48.408V48.908H146.524V48.408H146.024ZM144.032 60H143.532V60.5H144.032V60ZM144.032 59.328L143.984 58.8303L143.532 58.8735V59.328H144.032ZM146.792 59.064V58.564H146.768L146.744 58.5663L146.792 59.064ZM148.064 59.064L148.111 58.5663L148.088 58.564H148.064V59.064ZM150.824 59.328H151.324V58.8735L150.871 58.8303L150.824 59.328ZM150.824 60V60.5H151.324V60H150.824ZM146.048 60L145.548 59.9868L145.534 60.5H146.048V60ZM146.168 48.408H146.668V47.908H146.168V48.408ZM143.96 48.408H143.46V48.908H143.96V48.408ZM143.96 47.664L143.912 47.1663L143.46 47.2094V47.664H143.96ZM146.984 47.376L147.217 47.8182L146.936 46.8783L146.984 47.376ZM146.12 47.832L145.621 47.8055L145.574 48.6855L146.353 48.2742L146.12 47.832ZM148.256 41.976L147.913 41.6116L147.906 41.6188L148.256 41.976ZM155.312 41.664L155.811 41.684L155.815 41.6011L155.791 41.5215L155.312 41.664ZM151.976 41.472L152.368 41.1622L152.368 41.1616L151.976 41.472ZM151.52 40.896H151.02V41.07L151.128 41.2063L151.52 40.896ZM151.52 40.632V40.132H151.02V40.632H151.52ZM152.384 40.632H152.884V40.132H152.384V40.632ZM152.384 40.896L152.459 41.3903L152.884 41.3257V40.896H152.384ZM149.744 42.096L149.384 41.7485L149.379 41.7538L149.374 41.7593L149.744 42.096ZM148.472 48.144H148.972V48.1366L148.972 48.1292L148.472 48.144ZM148.568 60V60.5H149.088L149.067 59.9803L148.568 60ZM147.32 48.408H146.82V48.908H147.32V48.408ZM147.32 47.496V46.996H146.82V47.496H147.32ZM152.072 47.496H152.572V46.996H152.072V47.496ZM152.072 48.408V48.908H152.572V48.408H152.072ZM152.12 60H151.62V60.5H152.12V60ZM152.12 59.328L152.071 58.8304L151.62 58.8747V59.328H152.12ZM154.808 59.064V58.564H154.783L154.759 58.5664L154.808 59.064ZM155.816 59.064L155.863 58.5662L155.839 58.564H155.816V59.064ZM158.624 59.328H159.124V58.8728L158.671 58.8302L158.624 59.328ZM158.624 60V60.5H159.124V60H158.624ZM154.136 60L153.636 59.9844L153.62 60.5H154.136V60ZM154.208 41.256L154.058 40.779L153.708 40.8891V41.256H154.208ZM156.344 40.584L156.638 40.1796L156.434 40.0314L156.194 40.107L156.344 40.584ZM156.608 40.776L157.108 40.7887L157.114 40.5261L156.902 40.3716L156.608 40.776ZM156.512 44.568L156.012 44.5553V44.568H156.512ZM156.608 60V60.5H157.132L157.107 59.9766L156.608 60ZM136.348 60V59.328H135.348V60H136.348ZM135.895 59.8257L138.655 59.5617L138.56 58.5663L135.8 58.8303L135.895 59.8257ZM138.608 59.564H139.808V58.564H138.608V59.564ZM139.761 59.5618L142.593 59.8258L142.686 58.8302L139.854 58.5662L139.761 59.5618ZM142.14 59.328V60H143.14V59.328H142.14ZM142.64 59.5H135.848V60.5H142.64V59.5ZM138.388 60.0132C138.436 58.1847 138.46 56.3323 138.46 54.48H137.46C137.46 56.3237 137.436 58.1673 137.388 59.9868L138.388 60.0132ZM138.46 54.48V48.408H137.46V54.48H138.46ZM137.96 47.908H135.752V48.908H137.96V47.908ZM136.252 48.408V47.664H135.252V48.408H136.252ZM135.799 48.1618L138.847 47.8738L138.753 46.8782L135.705 47.1662L135.799 48.1618ZM138.561 46.9366L137.721 47.3926L138.198 48.2714L139.038 47.8154L138.561 46.9366ZM138.46 47.832V47.64H137.46V47.832H138.46ZM138.459 47.6689C138.624 44.8239 139.18 43.3585 140.377 42.1616L139.67 41.4544C138.227 42.8975 137.632 44.6481 137.461 47.6111L138.459 47.6689ZM140.373 42.1657C141.309 41.2512 142.503 40.82 143.6 40.82V39.82C142.249 39.82 140.802 40.3488 139.674 41.4503L140.373 42.1657ZM143.6 40.82C144.138 40.82 144.613 40.9284 144.965 41.1115C145.314 41.2932 145.516 41.5323 145.59 41.7978L146.554 41.5302C146.387 40.9317 145.954 40.4988 145.427 40.2245C144.902 39.9516 144.261 39.82 143.6 39.82V40.82ZM145.572 41.664C145.572 41.8408 145.507 41.9721 145.404 42.0643C145.296 42.1601 145.11 42.244 144.824 42.244V43.244C145.306 43.244 145.744 43.0999 146.068 42.8117C146.396 42.5199 146.572 42.1112 146.572 41.664H145.572ZM144.824 42.244C144.411 42.244 144.036 42.0638 143.311 41.1989L142.545 41.8411C143.308 42.7522 143.941 43.244 144.824 43.244V42.244ZM143.274 41.1593L142.674 40.5833L141.982 41.3047L142.582 41.8807L143.274 41.1593ZM142.828 40.944V40.632H141.828V40.944H142.828ZM142.328 41.132H143.36V40.132H142.328V41.132ZM142.86 40.632V40.848H143.86V40.632H142.86ZM143.307 40.3508C142.524 40.4347 141.813 40.7482 141.198 41.3904L141.921 42.0816C142.363 41.6198 142.852 41.4053 143.413 41.3452L143.307 40.3508ZM141.191 41.3985C140.008 42.6919 139.668 44.6174 139.812 48.3552L140.811 48.3168C140.667 44.5666 141.048 43.0361 141.929 42.0735L141.191 41.3985ZM139.812 48.336V54.48H140.812V48.336H139.812ZM139.812 54.48C139.812 56.3323 139.836 58.1847 139.884 60.0132L140.884 59.9868C140.836 58.1673 140.812 56.3237 140.812 54.48H139.812ZM140.384 59.5H137.888V60.5H140.384V59.5ZM139.66 48.408V47.496H138.66V48.408H139.66ZM139.16 47.996H146.024V46.996H139.16V47.996ZM145.524 47.496V48.408H146.524V47.496H145.524ZM146.024 47.908H139.16V48.908H146.024V47.908ZM144.532 60V59.328H143.532V60H144.532ZM144.079 59.8257L146.839 59.5617L146.744 58.5663L143.984 58.8303L144.079 59.8257ZM146.792 59.564H148.064V58.564H146.792V59.564ZM148.016 59.5617L150.776 59.8257L150.871 58.8303L148.111 58.5663L148.016 59.5617ZM150.324 59.328V60H151.324V59.328H150.324ZM150.824 59.5H144.032V60.5H150.824V59.5ZM146.548 60.0132C146.595 58.1976 146.668 56.3368 146.668 54.48H145.668C145.668 56.3192 145.596 58.1544 145.548 59.9868L146.548 60.0132ZM146.668 54.48V48.408H145.668V54.48H146.668ZM146.168 47.908H143.96V48.908H146.168V47.908ZM144.46 48.408V47.664H143.46V48.408H144.46ZM144.007 48.1617L147.031 47.8737L146.936 46.8783L143.912 47.1663L144.007 48.1617ZM146.75 46.9338L145.886 47.3898L146.353 48.2742L147.217 47.8182L146.75 46.9338ZM146.619 47.8585C146.782 44.7798 147.542 43.3754 148.606 42.3332L147.906 41.6188C146.618 42.8806 145.793 44.5482 145.621 47.8055L146.619 47.8585ZM148.598 42.3403C149.699 41.3053 151.086 40.82 152.456 40.82V39.82C150.849 39.82 149.212 40.3907 147.913 41.6117L148.598 42.3403ZM152.456 40.82C153.078 40.82 153.654 40.9263 154.088 41.1169C154.528 41.3099 154.758 41.5572 154.833 41.8065L155.791 41.5215C155.601 40.8828 155.076 40.4581 154.49 40.2011C153.898 39.9416 153.178 39.82 152.456 39.82V40.82ZM154.812 41.644C154.804 41.8433 154.739 41.9777 154.655 42.0607C154.574 42.1408 154.427 42.22 154.16 42.22V43.22C154.637 43.22 155.054 43.0712 155.357 42.7733C155.656 42.4783 155.795 42.0847 155.811 41.684L154.812 41.644ZM154.16 42.22C153.646 42.22 153.013 41.9791 152.368 41.1622L151.583 41.7818C152.378 42.7889 153.282 43.22 154.16 43.22V42.22ZM152.368 41.1616L151.912 40.5856L151.128 41.2063L151.584 41.7824L152.368 41.1616ZM152.02 40.896V40.632H151.02V40.896H152.02ZM151.52 41.132H152.384V40.132H151.52V41.132ZM151.884 40.632V40.896H152.884V40.632H151.884ZM152.309 40.4017C151.147 40.5784 150.186 40.9193 149.384 41.7485L150.103 42.4435C150.694 41.8327 151.412 41.5496 152.459 41.3903L152.309 40.4017ZM149.374 41.7593C148.246 42.9981 147.876 44.9115 147.972 48.1588L148.972 48.1292C148.876 44.8965 149.274 43.3539 150.113 42.4327L149.374 41.7593ZM147.972 48.144V54.48H148.972V48.144H147.972ZM147.972 54.48C147.972 56.3321 147.996 58.1871 148.068 60.0197L149.067 59.9803C148.996 58.1649 148.972 56.3239 148.972 54.48H147.972ZM148.568 59.5H146.048V60.5H148.568V59.5ZM147.82 48.408V47.496H146.82V48.408H147.82ZM147.32 47.996H152.072V46.996H147.32V47.996ZM151.572 47.496V48.408H152.572V47.496H151.572ZM152.072 47.908H147.32V48.908H152.072V47.908ZM152.62 60V59.328H151.62V60H152.62ZM152.169 59.8256L154.857 59.5616L154.759 58.5664L152.071 58.8304L152.169 59.8256ZM154.808 59.564H155.816V58.564H154.808V59.564ZM155.769 59.5618L158.577 59.8258L158.671 58.8302L155.863 58.5662L155.769 59.5618ZM158.124 59.328V60H159.124V59.328H158.124ZM158.624 59.5H152.12V60.5H158.624V59.5ZM154.636 60.0156C154.684 58.4725 154.708 56.2348 154.708 54.48H153.708C153.708 56.2292 153.684 58.4555 153.636 59.9844L154.636 60.0156ZM154.708 54.48V41.256H153.708V54.48H154.708ZM154.358 41.733L156.494 41.061L156.194 40.107L154.058 40.779L154.358 41.733ZM156.05 40.9884L156.314 41.1804L156.902 40.3716L156.638 40.1796L156.05 40.9884ZM156.108 40.7633L156.012 44.5553L157.012 44.5807L157.108 40.7887L156.108 40.7633ZM156.012 44.568V54.48H157.012V44.568H156.012ZM156.012 54.48C156.012 56.2336 156.036 58.4752 156.108 60.0234L157.107 59.9766C157.036 58.4528 157.012 56.2304 157.012 54.48H156.012ZM156.608 59.5H154.136V60.5H156.608V59.5ZM171.503 53.64V54.14H171.893L171.988 53.7613L171.503 53.64ZM161.519 53.64H161.019V54.14H161.519V53.64ZM161.519 52.872V52.372H161.019V52.872H161.519ZM171.263 57.312L171.592 56.9357L171.207 56.5984L170.879 56.9919L171.263 57.312ZM171.647 57.648L172.074 57.907L172.292 57.5481L171.976 57.2717L171.647 57.648ZM166.727 59.884C165.006 59.884 163.578 59.3536 162.58 58.3564C161.584 57.3605 160.963 55.8431 160.963 53.76H159.963C159.963 56.0449 160.649 57.8395 161.873 59.0636C163.096 60.2864 164.8 60.884 166.727 60.884V59.884ZM160.963 53.76C160.963 49.8981 163.581 47.636 166.559 47.636V46.636C163.009 46.636 159.963 49.3659 159.963 53.76H160.963ZM166.559 47.636C168.047 47.636 169.183 48.1437 169.948 48.9427C170.716 49.7453 171.147 50.8811 171.147 52.2H172.147C172.147 50.6629 171.642 49.2667 170.67 48.2513C169.695 47.2323 168.287 46.636 166.559 46.636V47.636ZM171.147 52.2C171.147 52.7519 171.1 53.1879 171.018 53.5187L171.988 53.7613C172.097 53.3241 172.147 52.8001 172.147 52.2H171.147ZM171.503 53.14H161.519V54.14H171.503V53.14ZM162.019 53.64V52.872H161.019V53.64H162.019ZM161.519 53.372H168.263V52.372H161.519V53.372ZM168.263 53.372C168.781 53.372 169.264 53.2441 169.576 52.8154C169.855 52.4327 169.915 51.9096 169.915 51.36H168.915C168.915 51.8904 168.843 52.1233 168.768 52.2266C168.726 52.2839 168.633 52.372 168.263 52.372V53.372ZM169.915 51.36C169.915 50.2434 169.616 49.2554 169.015 48.5372C168.406 47.8088 167.523 47.404 166.463 47.404V48.404C167.251 48.404 167.844 48.6952 168.248 49.1788C168.661 49.6726 168.915 50.4126 168.915 51.36H169.915ZM166.463 47.404C165.291 47.404 164.263 47.9971 163.546 49.0582C162.838 50.1075 162.435 51.6068 162.435 53.472H163.435C163.435 51.7372 163.812 50.4525 164.375 49.6178C164.931 48.7949 165.666 48.404 166.463 48.404V47.404ZM162.435 53.472C162.435 55.5009 162.92 57.0385 163.82 58.0749C164.729 59.1212 166.002 59.588 167.423 59.588V58.588C166.228 58.588 165.256 58.2028 164.575 57.4191C163.886 56.6255 163.435 55.3551 163.435 53.472H162.435ZM167.423 59.588C169.281 59.588 170.596 58.8934 171.647 57.6321L170.879 56.9919C170.01 58.0346 168.972 58.588 167.423 58.588V59.588ZM170.934 57.6883L171.318 58.0243L171.976 57.2717L171.592 56.9357L170.934 57.6883ZM171.219 57.389C170.275 58.9481 168.778 59.884 166.727 59.884V60.884C169.139 60.884 170.955 59.7559 172.074 57.907L171.219 57.389Z" fill="#FFD445" mask="url(#path-3-outside-1_708_6525)"/>
</g>
<g filter="url(#filter2_i_708_6525)">
<path d="M48.4703 53.7193C45.0682 54.4193 45.1985 51.0497 43.5869 49.2428C40.4941 45.7593 35.9688 42.9758 31.3784 42.341C35.6107 46.2314 41.2429 46.7523 44.3845 52.4984C43.2939 54.1914 43.0661 53.231 42.1219 53.1658C40.1523 53.0356 32.0458 52.0427 30.9063 51.3264C27.7647 49.3242 24.3789 39.3784 26.495 35.8135L41.5359 42.3247C44.8729 45.271 48.0634 48.9987 48.4541 53.7193H48.4703Z" fill="url(#paint3_linear_708_6525)"/>
<path d="M50.095 52.9054C50.7624 46.3291 60.0409 45.6291 63.9313 41.1038C63.2965 39.8993 61.9779 41.2829 61.2617 41.6898C58.2991 43.3502 54.5877 45.1245 51.9018 46.9965C51.0717 47.5825 48.3044 51.9776 48.4509 48.4289C48.6137 44.6036 51.8042 42.5363 54.7994 40.9248L67.6264 35.8135C69.6775 39.4923 66.1777 49.194 62.7918 51.359C61.4896 52.1892 50.6973 53.4751 50.1113 52.9217L50.095 52.9054Z" fill="url(#paint4_linear_708_6525)"/>
<path d="M47.9334 65.4394C47.4614 65.8626 47.8683 67.0183 47.2497 66.7416C43.8964 62.0861 33.9994 62.3628 34.6994 55.4121C35.7412 53.8657 54.9818 54.468 58.2374 54.9238C62.7627 60.3606 51.5471 62.2489 47.9334 65.4394ZM54.1679 56.9748C52.182 57.512 49.138 58.4886 47.1684 58.5049C44.6127 58.5375 40.0711 55.933 38.7201 58.5863C42.9686 59.3351 48.438 60.1653 52.5889 58.9933C54.0377 58.5863 54.4934 58.7654 54.1679 56.9585V56.9748Z" fill="url(#paint5_linear_708_6525)"/>
<path d="M52.5243 35L53.1917 40.5508L47.2502 45.5807C44.3202 41.5763 38.216 41.0066 41.1623 35C44.6132 36.3185 49.1222 36.3022 52.5406 35H52.5243Z" fill="url(#paint6_linear_708_6525)"/>
<path d="M60.6786 59.417L59.0508 53.7359C64.2272 52.3849 69.371 53.6057 73.6847 49.6501C73.6196 56.3892 66.8968 60.3448 60.6786 59.417Z" fill="url(#paint7_linear_708_6525)"/>
<path d="M33.82 59.417C26.8042 60.1332 20.8302 57.0892 20 49.6501C24.3951 53.1011 28.5785 52.8244 33.8363 53.2964C35.4153 54.1592 33.1038 55.2335 32.9736 56.6009C32.8759 57.6752 33.5759 58.4566 33.82 59.4007V59.417Z" fill="url(#paint8_linear_708_6525)"/>
</g>
<g filter="url(#filter3_i_708_6525)">
<path d="M214.47 53.7193C211.068 54.4193 211.198 51.0497 209.587 49.2428C206.494 45.7593 201.969 42.9758 197.378 42.341C201.611 46.2314 207.243 46.7523 210.385 52.4984C209.294 54.1914 209.066 53.231 208.122 53.1658C206.152 53.0356 198.046 52.0427 196.906 51.3264C193.765 49.3242 190.379 39.3784 192.495 35.8135L207.536 42.3247C210.873 45.271 214.063 48.9987 214.454 53.7193H214.47Z" fill="url(#paint9_linear_708_6525)"/>
<path d="M216.095 52.9054C216.762 46.3291 226.041 45.6291 229.931 41.1038C229.296 39.8993 227.978 41.2829 227.262 41.6898C224.299 43.3502 220.588 45.1245 217.902 46.9965C217.072 47.5825 214.304 51.9776 214.451 48.4289C214.614 44.6036 217.804 42.5363 220.799 40.9248L233.626 35.8135C235.677 39.4923 232.178 49.194 228.792 51.359C227.49 52.1892 216.697 53.4751 216.111 52.9217L216.095 52.9054Z" fill="url(#paint10_linear_708_6525)"/>
<path d="M213.933 65.4394C213.461 65.8626 213.868 67.0183 213.25 66.7416C209.896 62.0861 199.999 62.3628 200.699 55.4121C201.741 53.8657 220.982 54.468 224.237 54.9238C228.763 60.3606 217.547 62.2489 213.933 65.4394ZM220.168 56.9748C218.182 57.512 215.138 58.4886 213.168 58.5049C210.613 58.5375 206.071 55.933 204.72 58.5863C208.969 59.3351 214.438 60.1653 218.589 58.9933C220.038 58.5863 220.493 58.7654 220.168 56.9585V56.9748Z" fill="url(#paint11_linear_708_6525)"/>
<path d="M218.524 35L219.192 40.5508L213.25 45.5807C210.32 41.5763 204.216 41.0066 207.162 35C210.613 36.3185 215.122 36.3022 218.541 35H218.524Z" fill="url(#paint12_linear_708_6525)"/>
<path d="M226.679 59.417L225.051 53.7359C230.227 52.3849 235.371 53.6057 239.685 49.6501C239.62 56.3892 232.897 60.3448 226.679 59.417Z" fill="url(#paint13_linear_708_6525)"/>
<path d="M199.82 59.417C192.804 60.1332 186.83 57.0892 186 49.6501C190.395 53.1011 194.579 52.8244 199.836 53.2964C201.415 54.1592 199.104 55.2335 198.974 56.6009C198.876 57.6752 199.576 58.4566 199.82 59.4007V59.417Z" fill="url(#paint14_linear_708_6525)"/>
</g>
<path d="M174.568 22.9508L179.389 21.5215C179.586 21.4629 179.761 21.3445 179.889 21.1826C180.656 20.2118 180.806 19.055 180.781 17.9974C180.764 17.2988 180.661 16.5179 180.565 15.7925C180.522 15.4658 180.48 15.1504 180.448 14.8588C180.338 13.8403 180.322 12.9637 180.547 12.2106C180.757 11.5059 181.197 10.8455 182.155 10.2841L182.156 10.2836C184.77 8.74821 187.212 11.2791 186.017 13.6472C185.304 14.3151 184.916 14.3485 184.788 14.3351C184.654 14.3209 184.44 14.2163 184.165 13.8098C183.899 13.4166 183.693 12.9128 183.517 12.4443C183.5 12.3969 183.481 12.3474 183.463 12.2972C183.4 12.1288 183.335 11.9526 183.279 11.8224C183.246 11.7448 183.185 11.6077 183.095 11.4813C183.054 11.4228 182.955 11.2916 182.789 11.1834C182.594 11.0569 182.249 10.9336 181.858 11.0811C181.669 11.1528 181.506 11.2803 181.39 11.4468C180.498 12.7341 180.304 14.0448 180.86 15.1631C181.384 16.215 182.447 16.8334 183.502 17.0898C184.571 17.3498 185.804 17.2858 186.868 16.793C187.963 16.2858 188.864 15.3245 189.155 13.8856L189.155 13.8842C189.495 12.1876 189.246 10.9226 188.658 9.92002C188.187 9.11651 187.51 8.52754 187.015 8.09693C187.004 8.0882 186.995 8.07953 186.985 8.07093C186.985 8.07093 186.985 8.07092 186.985 8.07092C186.915 8.01073 186.85 7.9537 186.79 7.89967C186.223 7.39344 186.061 7.14029 186.042 6.86218C186.018 6.53681 186.174 5.85346 187.234 4.49263C188.33 3.08752 190.628 2.20963 193.121 2.18251C195.614 2.15539 197.881 2.98189 198.968 4.46781C199.323 4.95351 199.46 5.50333 199.639 6.2283C199.686 6.41582 199.735 6.61505 199.792 6.82792C200.042 7.76189 200.468 8.97109 201.855 9.54403C201.976 9.59403 202.106 9.61976 202.237 9.61976H202.251C202.709 9.61976 203.109 9.30776 203.221 8.86288C203.687 7.00179 205.113 6.38852 206.305 6.59996C206.917 6.70852 207.467 7.03367 207.832 7.53768C208.092 7.89769 208.284 8.38556 208.31 9.01955C203.695 9.72588 200.766 14.7522 202.925 18.9579L200.131 21.302C197.865 19.7461 195.111 19.8171 193.303 20.9395C192.292 21.5677 191.515 22.5741 191.411 23.8555C191.308 25.1337 191.893 26.4473 193.104 27.6668C193.401 27.9661 193.854 28.0468 194.236 27.8685C194.618 27.6903 194.848 27.2915 194.809 26.8715C194.772 26.458 194.702 26.0571 194.642 25.7136C194.633 25.6629 194.624 25.6134 194.616 25.5654C194.548 25.1697 194.502 24.8612 194.499 24.5827C194.496 24.3173 194.532 24.1137 194.611 23.9354C194.681 23.7786 194.803 23.5953 195.038 23.3885C195.975 22.9839 196.655 23.0518 197.119 23.2669C197.623 23.5005 198.03 23.9806 198.248 24.6263C198.696 25.9495 198.252 27.5781 196.746 28.2669C193.876 29.5695 190.968 27.7544 190.572 24.7916C190.529 24.4714 190.334 24.1916 190.049 24.0404C189.763 23.8892 189.422 23.8853 189.133 24.0299C185.848 25.6738 183.161 25.6653 180.484 25.0109C179.118 24.6769 177.754 24.1738 176.287 23.6104C176.107 23.5413 175.925 23.4713 175.742 23.4006C175.358 23.2524 174.966 23.1016 174.568 22.9508ZM174.568 22.9508L172.994 23.4174C174.455 23.7385 175.629 24.3798 176.662 24.9801C176.777 25.0464 176.888 25.1117 176.998 25.1759C178.191 25.8733 179.149 26.4328 180.31 26.6122C181.444 26.7826 183.086 26.5855 184.724 26.3464C184.895 26.3214 185.066 26.2959 185.236 26.2707C185.843 26.1805 186.433 26.0929 186.937 26.0374C187.262 26.0017 187.577 25.9763 187.858 25.9734C188.121 25.9707 188.438 25.9855 188.727 26.076C188.756 26.0853 188.786 26.0951 188.814 26.1056C188.713 25.768 188.638 25.4178 188.59 25.0568L189.581 24.9242L190.028 25.8185C189.72 25.9729 189.415 26.1146 189.114 26.2443M212.543 12.3255C212.941 12.2342 213.207 11.9841 213.354 11.8241C213.508 11.6564 213.645 11.4571 213.751 11.3018C213.77 11.274 213.789 11.2464 213.807 11.219C214.021 10.9051 214.215 10.6187 214.482 10.3541C214.756 10.0825 215.097 9.8472 215.573 9.71262C216.056 9.57614 216.74 9.52594 217.719 9.7225L217.72 9.72266C218.574 9.89326 219.114 10.1828 219.45 10.4841C219.778 10.7789 219.955 11.1237 220.028 11.4985C220.183 12.2905 219.873 13.29 219.273 14.0612C218.626 14.8915 218.021 15.0282 217.766 14.9476C217.646 14.9097 217.421 14.7838 217.182 14.3269C216.953 13.8882 216.742 13.1948 216.628 12.1539L200.143 23.9857C200.49 25.0108 200.51 26.2115 200.13 27.31C200.296 27.3156 200.485 27.36 200.675 27.4842C200.854 27.6013 200.99 27.7726 201.065 27.9729C201.785 29.9117 203.164 31.1065 204.831 31.6522C206.243 32.1142 207.892 32.1179 209.54 31.6509C209.54 31.6509 209.54 31.6509 209.54 31.6509C209.865 31.5586 210.191 31.448 210.514 31.3188L210.514 31.3188C211.374 30.9757 212.204 30.7072 212.986 30.484C213.029 30.4484 213.071 30.4139 213.114 30.3802C213.335 30.2056 213.482 30.1296 213.587 30.0991M212.543 12.3255L212.319 11.3508L212.543 12.3253C212.543 12.3254 212.543 12.3254 212.543 12.3255ZM212.543 12.3255C211.689 12.5217 210.72 12.5342 209.867 12.5452L209.841 12.5456C208.931 12.5573 208.125 12.5687 207.42 12.7086C206.733 12.8451 206.261 13.0831 205.944 13.4626C205.627 13.8431 205.346 14.5104 205.346 15.7529C205.346 16.8825 205.692 17.4573 206.128 17.8575C206.572 18.2657 207.137 18.5325 207.877 18.8812C207.999 18.9392 208.127 18.9994 208.26 19.0629C209.117 19.4731 210.152 20.0147 210.882 21.026C211.635 22.07 211.963 23.4628 211.767 25.3782M211.767 25.3782L210.772 25.2775L211.767 25.3792C211.767 25.3789 211.767 25.3785 211.767 25.3782ZM211.767 25.3782C211.476 28.2539 208.848 29.4766 206.643 29.4019C205.511 29.3636 204.348 28.9986 203.454 28.2484C202.534 27.4768 201.951 26.3356 201.982 24.9023C201.993 24.4174 202.35 24.01 202.829 23.9359C203.716 23.7988 204.429 24.0217 204.966 24.5255C205.364 24.8983 205.623 25.4046 205.787 25.7269C205.792 25.7365 205.797 25.7459 205.802 25.7551C205.816 25.7829 205.83 25.8092 205.842 25.8336C206.049 26.23 206.158 26.3695 206.255 26.434L206.256 26.435C206.288 26.4559 206.438 26.5564 206.956 26.4175L206.956 26.4174C208.392 26.0331 208.879 24.9496 208.72 23.9426C208.556 22.9127 207.693 21.878 206.084 21.7782L206.084 21.7782C204.238 21.6636 203.081 22.3083 202.421 23.1772C201.736 24.0801 201.488 25.36 201.752 26.6569C202.015 27.9449 202.772 29.1743 203.992 29.9586C205.197 30.7341 206.945 31.1306 209.298 30.5935M209.298 30.5935C209.297 30.5936 209.297 30.5937 209.296 30.5938L209.521 31.5682L209.298 30.5933C209.298 30.5934 209.298 30.5934 209.298 30.5935ZM209.298 30.5935C209.951 30.4426 210.453 30.0649 211.007 29.5705C211.069 29.5145 211.136 29.454 211.205 29.3911C211.416 29.1998 211.651 28.9863 211.876 28.8088C212.187 28.564 212.575 28.307 213.046 28.1739L213.052 28.1722C213.685 27.9973 214.364 27.9756 214.963 27.9806C215.213 27.9827 215.442 27.9888 215.661 27.9947C216.016 28.0043 216.344 28.0132 216.692 28.0025C217.768 27.9693 218.309 27.751 218.615 27.1591C218.614 27.1597 218.614 27.1602 218.614 27.1608L219.314 27.5173C219.291 27.5553 219.269 27.5929 219.247 27.6299C219.203 27.7017 219.162 27.7712 219.122 27.837C218.683 28.5581 218.369 28.9517 218.028 29.1005C217.302 29.4093 216.396 29.6275 215.241 29.9055C215.14 29.93 215.036 29.9549 214.931 29.9804C214.373 29.9763 213.934 30.004 213.587 30.0991M213.587 30.0991C213.588 30.0989 213.589 30.0987 213.59 30.0984L213.318 29.1362L213.584 30.1001C213.585 30.0998 213.586 30.0995 213.587 30.0991ZM191.338 28.7769C192.498 29.623 193.519 29.9226 194.388 29.9525C195.266 29.9828 196.067 29.7397 196.78 29.3797C196.91 29.314 197.036 29.2449 197.159 29.1735C197.712 28.8506 198.186 28.4798 198.579 28.1587C198.627 28.1193 198.676 28.0787 198.726 28.0378C198.902 27.8926 199.082 27.7447 199.226 27.6401C199.316 27.5749 199.454 27.4796 199.612 27.4114C199.646 27.397 199.733 27.3595 199.855 27.3342L191.338 28.7769ZM191.338 28.7769C191.032 28.5533 190.784 28.1859 190.421 27.6486C190.405 27.6257 190.39 27.6025 190.374 27.579C190.202 27.3242 189.993 27.0218 189.753 26.7632C189.588 26.5846 189.377 26.3926 189.114 26.2443M191.338 28.7769L189.114 26.2443M199.982 23.5728C199.982 23.5726 199.982 23.5723 199.982 23.5721C199.982 23.5721 199.982 23.5722 199.982 23.5722C199.982 23.5724 199.982 23.5726 199.982 23.5728ZM205.331 19.7723C205.222 19.7769 205.114 19.7838 205.007 19.7928C205.051 19.7376 205.087 19.6787 205.118 19.617C205.188 19.6705 205.259 19.7222 205.331 19.7723ZM199.255 28.8399C199.333 28.7498 199.406 28.6574 199.475 28.563L199.848 28.4248C199.725 28.5104 199.569 28.6391 199.381 28.7937C199.346 28.8227 199.31 28.8525 199.272 28.8831C199.267 28.8688 199.261 28.8543 199.255 28.8399ZM190.944 29.315C190.945 29.3151 190.945 29.3152 190.945 29.3153L190.748 29.5845L190.944 29.315Z" fill="#FF1C1C" stroke="url(#paint15_linear_708_6525)" stroke-width="2" stroke-linejoin="round"/>
<path d="M36.568 86.9508L41.3886 85.5215C41.5864 85.4629 41.7612 85.3445 41.8891 85.1826C42.656 84.2118 42.806 83.055 42.7806 81.9974C42.7639 81.2988 42.6607 80.5179 42.5648 79.7925C42.5216 79.4658 42.48 79.1504 42.4483 78.8588C42.3379 77.8403 42.3223 76.9637 42.5471 76.2106C42.7574 75.5059 43.1975 74.8455 44.1553 74.2841L44.1562 74.2836C46.7698 72.7482 49.2124 75.2791 48.0172 77.6472C47.3043 78.3151 46.916 78.3485 46.7885 78.3351C46.6536 78.3209 46.4404 78.2163 46.1651 77.8098C45.8989 77.4166 45.6927 76.9128 45.5174 76.4443C45.4996 76.3969 45.4813 76.3474 45.4628 76.2972C45.4005 76.1288 45.3353 75.9526 45.2793 75.8224C45.2459 75.7448 45.1848 75.6077 45.0953 75.4813C45.0539 75.4228 44.9553 75.2916 44.7888 75.1834C44.5942 75.0569 44.2487 74.9336 43.8585 75.0811C43.669 75.1528 43.5057 75.2803 43.3903 75.4468C42.4979 76.7341 42.3038 78.0448 42.8603 79.1631C43.3837 80.215 44.4465 80.8334 45.5017 81.0898C46.5715 81.3498 47.8045 81.2858 48.8683 80.793C49.9632 80.2858 50.8643 79.3245 51.1547 77.8856L51.155 77.8842C51.495 76.1876 51.246 74.9226 50.6581 73.92C50.1871 73.1165 49.5097 72.5275 49.0145 72.0969C49.0045 72.0882 48.9945 72.0795 48.9846 72.0709C48.9846 72.0709 48.9846 72.0709 48.9846 72.0709C48.9154 72.0107 48.85 71.9537 48.7896 71.8997C48.2232 71.3934 48.0614 71.1403 48.0416 70.8622C48.0183 70.5368 48.1739 69.8535 49.2336 68.4926C50.3303 67.0875 52.6281 66.2096 55.1212 66.1825C57.6144 66.1554 59.8807 66.9819 60.9683 68.4678C61.3232 68.9535 61.4596 69.5033 61.6395 70.2283C61.686 70.4158 61.7354 70.6151 61.7923 70.8279C62.0418 71.7619 62.4678 72.9711 63.8549 73.544C63.976 73.594 64.1057 73.6198 64.2367 73.6198H64.2507C64.7094 73.6198 65.1092 73.3078 65.2207 72.8629C65.6872 71.0018 67.1135 70.3885 68.3053 70.6C68.9172 70.7085 69.4672 71.0337 69.8316 71.5377C70.092 71.8977 70.2837 72.3856 70.3097 73.0196C65.6951 73.7259 62.766 78.7522 64.9248 82.9579L62.1314 85.302C59.8653 83.7461 57.1108 83.8171 55.3035 84.9395C54.2918 85.5677 53.5146 86.5741 53.4109 87.8555C53.3075 89.1337 53.8929 90.4473 55.1038 91.6668C55.4009 91.9661 55.8539 92.0468 56.236 91.8685C56.6182 91.6903 56.8476 91.2915 56.8093 90.8715C56.7716 90.458 56.7016 90.0571 56.6417 89.7136C56.6328 89.6629 56.6242 89.6134 56.6159 89.5654C56.5477 89.1697 56.5021 88.8612 56.4987 88.5827C56.4955 88.3173 56.5323 88.1137 56.6112 87.9354C56.6806 87.7786 56.8029 87.5953 57.0383 87.3885C57.9746 86.9839 58.6551 87.0518 59.1194 87.2669C59.6234 87.5005 60.0301 87.9806 60.2484 88.6263C60.6958 89.9495 60.2522 91.5781 58.7456 92.2669C55.8762 93.5695 52.9683 91.7544 52.5719 88.7916C52.529 88.4714 52.3341 88.1916 52.0486 88.0404C51.7631 87.8892 51.4221 87.8853 51.1332 88.0299C47.8482 89.6738 45.1609 89.6653 42.4844 89.0109C41.1183 88.6769 39.7538 88.1738 38.2865 87.6104C38.1065 87.5413 37.9249 87.4713 37.7418 87.4006C37.3576 87.2524 36.9664 87.1016 36.568 86.9508ZM36.568 86.9508L34.9942 87.4174C36.4551 87.7385 37.6294 88.3798 38.6625 88.9801C38.7766 89.0464 38.8884 89.1117 38.9982 89.1759C40.1915 89.8733 41.1487 90.4328 42.3096 90.6122C43.4437 90.7826 45.086 90.5855 46.7236 90.3464C46.8948 90.3214 47.0661 90.2959 47.2359 90.2707C47.8435 90.1805 48.4333 90.0929 48.9373 90.0374C49.2625 90.0017 49.5772 89.9763 49.8585 89.9734C50.121 89.9707 50.4382 89.9855 50.7269 90.076C50.7565 90.0853 50.7856 90.0951 50.8141 90.1056C50.7135 89.768 50.6378 89.4178 50.5895 89.0568L51.5807 88.9242L52.0282 89.8185C51.7197 89.9729 51.4151 90.1146 51.1142 90.2443M74.5427 76.3255C74.941 76.2342 75.2072 75.9841 75.3541 75.8241C75.508 75.6564 75.6454 75.4571 75.7512 75.3018C75.7702 75.274 75.7889 75.2464 75.8075 75.219C76.0208 74.9051 76.2153 74.6187 76.4822 74.3541C76.7562 74.0825 77.0972 73.8472 77.5733 73.7126C78.0562 73.5761 78.7397 73.5259 79.7193 73.7225L79.7201 73.7227C80.574 73.8933 81.114 74.1828 81.4497 74.4841C81.7781 74.7789 81.9553 75.1237 82.0284 75.4985C82.1828 76.2905 81.8735 77.29 81.2729 78.0612C80.6262 78.8915 80.0214 79.0282 79.7657 78.9476C79.6458 78.9097 79.4207 78.7838 79.1822 78.3269C78.9532 77.8882 78.7421 77.1948 78.6285 76.1539L62.1431 87.9857C62.4897 89.0108 62.5101 90.2115 62.1298 91.31C62.2958 91.3156 62.4853 91.36 62.675 91.4842C62.8538 91.6013 62.9905 91.7726 63.0648 91.9729C63.7845 93.9117 65.1641 95.1065 66.8311 95.6522C68.2427 96.1142 69.8922 96.1179 71.5398 95.6509C71.5398 95.6509 71.5399 95.6509 71.5399 95.6509C71.8654 95.5586 72.1908 95.448 72.5142 95.3188L72.5144 95.3188C73.3745 94.9757 74.2038 94.7072 74.9863 94.484C75.0287 94.4484 75.0709 94.4139 75.1137 94.3802C75.3354 94.2056 75.4816 94.1296 75.5873 94.0991M74.5427 76.3255L74.3193 75.3508L74.5435 76.3253C74.5432 76.3254 74.543 76.3254 74.5427 76.3255ZM74.5427 76.3255C73.6893 76.5217 72.7198 76.5342 71.8672 76.5452L71.8406 76.5456C70.9307 76.5573 70.1245 76.5687 69.4201 76.7086C68.7332 76.8451 68.261 77.0831 67.9445 77.4626C67.627 77.8431 67.346 78.5104 67.346 79.7529C67.346 80.8825 67.692 81.4573 68.1276 81.8575C68.5718 82.2657 69.1374 82.5325 69.8766 82.8812C69.9994 82.9392 70.1271 82.9994 70.2599 83.0629C71.1169 83.4731 72.1522 84.0147 72.8818 85.026C73.6351 86.07 73.9631 87.4628 73.7673 89.3782M73.7673 89.3782L72.7724 89.2775L73.7672 89.3792C73.7673 89.3789 73.7673 89.3785 73.7673 89.3782ZM73.7673 89.3782C73.4763 92.2539 70.8482 93.4766 68.643 93.4019C67.5112 93.3636 66.3476 92.9986 65.4536 92.2484C64.5341 91.4768 63.9508 90.3356 63.9822 88.9023C63.9928 88.4174 64.3499 88.01 64.8292 87.9359C65.7161 87.7988 66.4288 88.0217 66.9661 88.5255C67.3637 88.8983 67.6226 89.4046 67.7874 89.7269C67.7924 89.7365 67.7972 89.7459 67.8019 89.7551C67.8161 89.7829 67.8296 89.8092 67.8424 89.8336C68.0494 90.23 68.1578 90.3695 68.2548 90.434L68.2563 90.435C68.2875 90.4559 68.4375 90.5564 68.956 90.4175L68.9562 90.4174C70.3924 90.0331 70.8789 88.9496 70.7195 87.9426C70.5565 86.9127 69.6925 85.878 68.0841 85.7782L68.084 85.7782C66.2383 85.6636 65.0807 86.3083 64.4214 87.1772C63.7363 88.0801 63.4875 89.36 63.7523 90.6569C64.0151 91.9449 64.7719 93.1743 65.9915 93.9586C67.1974 94.7341 68.945 95.1306 71.2977 94.5935M71.2977 94.5935C71.2972 94.5936 71.2968 94.5937 71.2964 94.5938L71.5209 95.5682L71.2983 94.5933C71.2981 94.5934 71.2979 94.5934 71.2977 94.5935ZM71.2977 94.5935C71.951 94.4426 72.4526 94.0649 73.0065 93.5705C73.0693 93.5145 73.1359 93.454 73.2051 93.3911C73.4159 93.1998 73.651 92.9863 73.8764 92.8088C74.1873 92.564 74.5749 92.307 75.0456 92.1739L75.0516 92.1722C75.6853 91.9973 76.3641 91.9756 76.9632 91.9806C77.2135 91.9827 77.4424 91.9888 77.6608 91.9947C78.0164 92.0043 78.3443 92.0132 78.6917 92.0025C79.7675 91.9693 80.3093 91.751 80.6147 91.1591C80.6144 91.1597 80.6141 91.1602 80.6139 91.1608L81.3143 91.5173C81.2914 91.5553 81.2688 91.5929 81.2466 91.6299C81.2035 91.7017 81.1618 91.7712 81.1217 91.837C80.6832 92.5581 80.3686 92.9517 80.0275 93.1005C79.3017 93.4093 78.3956 93.6275 77.2415 93.9055C77.1399 93.93 77.0364 93.9549 76.9309 93.9804C76.3726 93.9763 75.9342 94.004 75.5873 94.0991M75.5873 94.0991C75.5882 94.0989 75.589 94.0987 75.5898 94.0984L75.3177 93.1362L75.5838 94.1001C75.585 94.0998 75.5861 94.0995 75.5873 94.0991ZM53.3375 92.7769C54.4979 93.623 55.5188 93.9226 56.3875 93.9525C57.2659 93.9828 58.0667 93.7397 58.7799 93.3797C58.91 93.314 59.0363 93.2449 59.1587 93.1735C59.7118 92.8506 60.1859 92.4798 60.5787 92.1587C60.6269 92.1193 60.6762 92.0787 60.7258 92.0378C60.9021 91.8926 61.0816 91.7447 61.2257 91.6401C61.3155 91.5749 61.4537 91.4796 61.6121 91.4114C61.6457 91.397 61.7333 91.3595 61.855 91.3342L53.3375 92.7769ZM53.3375 92.7769C53.0324 92.5533 52.784 92.1859 52.4209 91.6486C52.4055 91.6257 52.3898 91.6025 52.3739 91.579C52.2016 91.3242 51.9928 91.0218 51.7532 90.7632C51.5878 90.5846 51.3773 90.3926 51.1142 90.2443M53.3375 92.7769L51.1142 90.2443M61.9822 87.5728C61.9821 87.5726 61.982 87.5723 61.9819 87.5721C61.9821 87.5721 61.9822 87.5722 61.9824 87.5722C61.9824 87.5724 61.9823 87.5726 61.9822 87.5728ZM67.3311 83.7723C67.2218 83.7769 67.1139 83.7838 67.0075 83.7928C67.0506 83.7376 67.0874 83.6787 67.1175 83.617C67.1876 83.6705 67.2589 83.7222 67.3311 83.7723ZM61.2552 92.8399C61.3327 92.7498 61.406 92.6574 61.4752 92.563L61.8476 92.4248C61.7251 92.5104 61.5689 92.6391 61.3811 92.7937C61.346 92.8227 61.3097 92.8525 61.2724 92.8831C61.2667 92.8688 61.2609 92.8543 61.2552 92.8399ZM52.9444 93.315C52.9446 93.3151 52.9447 93.3152 52.9448 93.3153L52.7479 93.5845L52.9444 93.315Z" fill="#FF1C1C" stroke="url(#paint16_linear_708_6525)" stroke-width="2" stroke-linejoin="round"/>
<defs>
<filter id="filter0_d_708_6525" x="6" y="23" width="249" height="57" filterUnits="userSpaceOnUse" color-interpolation-filters="sRGB">
<feFlood flood-opacity="0" result="BackgroundImageFix"/>
<feColorMatrix in="SourceAlpha" type="matrix" values="0 0 0 0 0 0 0 0 0 0 0 0 0 0 0 0 0 0 127 0" result="hardAlpha"/>
<feOffset dx="1" dy="2"/>
<feGaussianBlur stdDeviation="0.5"/>
<feComposite in2="hardAlpha" operator="out"/>
<feColorMatrix type="matrix" values="0 0 0 0 0 0 0 0 0 0 0 0 0 0 0 0 0 0 0.25 0"/>
<feBlend mode="normal" in2="BackgroundImageFix" result="effect1_dropShadow_708_6525"/>
<feBlend mode="normal" in="SourceGraphic" in2="effect1_dropShadow_708_6525" result="shape"/>
</filter>
<filter id="filter1_d_708_6525" x="86.5742" y="37.3201" width="89.0742" height="28.0879" filterUnits="userSpaceOnUse" color-interpolation-filters="sRGB">
<feFlood flood-opacity="0" result="BackgroundImageFix"/>
<feColorMatrix in="SourceAlpha" type="matrix" values="0 0 0 0 0 0 0 0 0 0 0 0 0 0 0 0 0 0 127 0" result="hardAlpha"/>
<feOffset dy="1"/>
<feGaussianBlur stdDeviation="2"/>
<feComposite in2="hardAlpha" operator="out"/>
<feColorMatrix type="matrix" values="0 0 0 0 0 0 0 0 0 0 0 0 0 0 0 0 0 0 0.25 0"/>
<feBlend mode="normal" in2="BackgroundImageFix" result="effect1_dropShadow_708_6525"/>
<feBlend mode="normal" in="SourceGraphic" in2="effect1_dropShadow_708_6525" result="shape"/>
</filter>
<filter id="filter2_i_708_6525" x="20" y="35" width="53.6836" height="31.7839" filterUnits="userSpaceOnUse" color-interpolation-filters="sRGB">
<feFlood flood-opacity="0" result="BackgroundImageFix"/>
<feBlend mode="normal" in="SourceGraphic" in2="BackgroundImageFix" result="shape"/>
<feColorMatrix in="SourceAlpha" type="matrix" values="0 0 0 0 0 0 0 0 0 0 0 0 0 0 0 0 0 0 127 0" result="hardAlpha"/>
<feOffset/>
<feGaussianBlur stdDeviation="0.5"/>
<feComposite in2="hardAlpha" operator="arithmetic" k2="-1" k3="1"/>
<feColorMatrix type="matrix" values="0 0 0 0 0 0 0 0 0 0 0 0 0 0 0 0 0 0 0.25 0"/>
<feBlend mode="normal" in2="shape" result="effect1_innerShadow_708_6525"/>
</filter>
<filter id="filter3_i_708_6525" x="186" y="35" width="53.6836" height="31.7839" filterUnits="userSpaceOnUse" color-interpolation-filters="sRGB">
<feFlood flood-opacity="0" result="BackgroundImageFix"/>
<feBlend mode="normal" in="SourceGraphic" in2="BackgroundImageFix" result="shape"/>
<feColorMatrix in="SourceAlpha" type="matrix" values="0 0 0 0 0 0 0 0 0 0 0 0 0 0 0 0 0 0 127 0" result="hardAlpha"/>
<feOffset/>
<feGaussianBlur stdDeviation="0.5"/>
<feComposite in2="hardAlpha" operator="arithmetic" k2="-1" k3="1"/>
<feColorMatrix type="matrix" values="0 0 0 0 0 0 0 0 0 0 0 0 0 0 0 0 0 0 0.25 0"/>
<feBlend mode="normal" in2="shape" result="effect1_innerShadow_708_6525"/>
</filter>
<linearGradient id="paint0_linear_708_6525" x1="273.688" y1="86.912" x2="264.935" y2="-6.15173" gradientUnits="userSpaceOnUse">
<stop stop-color="#CBA118"/>
<stop offset="0.333333" stop-color="#FFCB1F"/>
<stop offset="0.465" stop-color="white"/>
<stop offset="0.635" stop-color="#FFB300"/>
<stop offset="1" stop-color="#FFB300"/>
</linearGradient>
<linearGradient id="paint1_linear_708_6525" x1="75.5" y1="20" x2="76" y2="65.5" gradientUnits="userSpaceOnUse">
<stop stop-color="#FFEFBC"/>
<stop offset="0.7" stop-color="#FF0000"/>
<stop offset="0.965" stop-color="#D11F1F"/>
</linearGradient>
<linearGradient id="paint2_linear_708_6525" x1="177.083" y1="69.0463" x2="169.748" y2="21.0575" gradientUnits="userSpaceOnUse">
<stop stop-color="#CBA118"/>
<stop offset="0.333333" stop-color="#FFCB1F"/>
<stop offset="0.465" stop-color="white"/>
<stop offset="0.635" stop-color="#FFB300"/>
<stop offset="1" stop-color="#FFB300"/>
</linearGradient>
<linearGradient id="paint3_linear_708_6525" x1="49.5706" y1="54.8969" x2="42.4083" y2="31.0483" gradientUnits="userSpaceOnUse">
<stop stop-color="#CBA118"/>
<stop offset="0.333333" stop-color="#FFCB1F"/>
<stop offset="0.465" stop-color="white"/>
<stop offset="0.635" stop-color="#FFB300"/>
<stop offset="1" stop-color="#FFB300"/>
</linearGradient>
<linearGradient id="paint4_linear_708_6525" x1="69.1989" y1="54.0935" x2="61.8054" y2="31.621" gradientUnits="userSpaceOnUse">
<stop stop-color="#CBA118"/>
<stop offset="0.333333" stop-color="#FFCB1F"/>
<stop offset="0.465" stop-color="white"/>
<stop offset="0.635" stop-color="#FFB300"/>
<stop offset="1" stop-color="#FFB300"/>
</linearGradient>
<linearGradient id="paint5_linear_708_6525" x1="60.4941" y1="67.5282" x2="57.2246" y2="50.2845" gradientUnits="userSpaceOnUse">
<stop stop-color="#CBA118"/>
<stop offset="0.333333" stop-color="#FFCB1F"/>
<stop offset="0.465" stop-color="white"/>
<stop offset="0.635" stop-color="#FFB300"/>
<stop offset="1" stop-color="#FFB300"/>
</linearGradient>
<linearGradient id="paint6_linear_708_6525" x1="53.8146" y1="46.2175" x2="49.4709" y2="32.2892" gradientUnits="userSpaceOnUse">
<stop stop-color="#CBA118"/>
<stop offset="0.333333" stop-color="#FFCB1F"/>
<stop offset="0.465" stop-color="white"/>
<stop offset="0.635" stop-color="#FFB300"/>
<stop offset="1" stop-color="#FFB300"/>
</linearGradient>
<linearGradient id="paint7_linear_708_6525" x1="74.3961" y1="60.1469" x2="70.966" y2="46.7223" gradientUnits="userSpaceOnUse">
<stop stop-color="#CBA118"/>
<stop offset="0.333333" stop-color="#FFCB1F"/>
<stop offset="0.465" stop-color="white"/>
<stop offset="0.635" stop-color="#FFB300"/>
<stop offset="1" stop-color="#FFB300"/>
</linearGradient>
<linearGradient id="paint8_linear_708_6525" x1="35.0853" y1="60.1127" x2="31.6248" y2="46.7548" gradientUnits="userSpaceOnUse">
<stop stop-color="#CBA118"/>
<stop offset="0.333333" stop-color="#FFCB1F"/>
<stop offset="0.465" stop-color="white"/>
<stop offset="0.635" stop-color="#FFB300"/>
<stop offset="1" stop-color="#FFB300"/>
</linearGradient>
<linearGradient id="paint9_linear_708_6525" x1="215.571" y1="54.8969" x2="208.408" y2="31.0483" gradientUnits="userSpaceOnUse">
<stop stop-color="#CBA118"/>
<stop offset="0.333333" stop-color="#FFCB1F"/>
<stop offset="0.465" stop-color="white"/>
<stop offset="0.635" stop-color="#FFB300"/>
<stop offset="1" stop-color="#FFB300"/>
</linearGradient>
<linearGradient id="paint10_linear_708_6525" x1="235.199" y1="54.0935" x2="227.805" y2="31.621" gradientUnits="userSpaceOnUse">
<stop stop-color="#CBA118"/>
<stop offset="0.333333" stop-color="#FFCB1F"/>
<stop offset="0.465" stop-color="white"/>
<stop offset="0.635" stop-color="#FFB300"/>
<stop offset="1" stop-color="#FFB300"/>
</linearGradient>
<linearGradient id="paint11_linear_708_6525" x1="226.494" y1="67.5282" x2="223.225" y2="50.2845" gradientUnits="userSpaceOnUse">
<stop stop-color="#CBA118"/>
<stop offset="0.333333" stop-color="#FFCB1F"/>
<stop offset="0.465" stop-color="white"/>
<stop offset="0.635" stop-color="#FFB300"/>
<stop offset="1" stop-color="#FFB300"/>
</linearGradient>
<linearGradient id="paint12_linear_708_6525" x1="219.815" y1="46.2175" x2="215.471" y2="32.2892" gradientUnits="userSpaceOnUse">
<stop stop-color="#CBA118"/>
<stop offset="0.333333" stop-color="#FFCB1F"/>
<stop offset="0.465" stop-color="white"/>
<stop offset="0.635" stop-color="#FFB300"/>
<stop offset="1" stop-color="#FFB300"/>
</linearGradient>
<linearGradient id="paint13_linear_708_6525" x1="240.396" y1="60.1469" x2="236.966" y2="46.7223" gradientUnits="userSpaceOnUse">
<stop stop-color="#CBA118"/>
<stop offset="0.333333" stop-color="#FFCB1F"/>
<stop offset="0.465" stop-color="white"/>
<stop offset="0.635" stop-color="#FFB300"/>
<stop offset="1" stop-color="#FFB300"/>
</linearGradient>
<linearGradient id="paint14_linear_708_6525" x1="201.085" y1="60.1127" x2="197.625" y2="46.7548" gradientUnits="userSpaceOnUse">
<stop stop-color="#CBA118"/>
<stop offset="0.333333" stop-color="#FFCB1F"/>
<stop offset="0.465" stop-color="white"/>
<stop offset="0.635" stop-color="#FFB300"/>
<stop offset="1" stop-color="#FFB300"/>
</linearGradient>
<linearGradient id="paint15_linear_708_6525" x1="239.451" y1="34.9861" x2="231.335" y2="-11.2549" gradientUnits="userSpaceOnUse">
<stop stop-color="#CBA118"/>
<stop offset="0.333333" stop-color="#FFCB1F"/>
<stop offset="0.465" stop-color="white"/>
<stop offset="0.635" stop-color="#FFB300"/>
<stop offset="1" stop-color="#FFB300"/>
</linearGradient>
<linearGradient id="paint16_linear_708_6525" x1="101.451" y1="98.9861" x2="93.3349" y2="52.7451" gradientUnits="userSpaceOnUse">
<stop stop-color="#CBA118"/>
<stop offset="0.333333" stop-color="#FFCB1F"/>
<stop offset="0.465" stop-color="white"/>
<stop offset="0.635" stop-color="#FFB300"/>
<stop offset="1" stop-color="#FFB300"/>
</linearGradient>
</defs>
</svg>
