<svg width="66" height="66" viewBox="0 0 66 66" fill="none" xmlns="http://www.w3.org/2000/svg">
<g filter="url(#filter0_di_708_6557)">
<circle cx="33" cy="29.0002" r="29" fill="url(#paint0_linear_708_6557)"/>
<circle cx="33" cy="29.0002" r="26.5" stroke="url(#paint1_linear_708_6557)" stroke-width="5"/>
</g>
<g filter="url(#filter1_i_708_6557)">
<path d="M23.4805 37.5168C24.0195 38.6596 24.3198 40.3158 24.2636 42.1631C24.1367 43.0497 23.7336 44.9141 23.136 45.2784C23.8902 44.3089 25.3144 42.1594 24.9779 41.3177C25.354 41.7906 26.2249 42.7056 26.8901 42.8475M26.8901 42.8475C26.9418 42.8586 26.9923 42.8649 27.0412 42.866C27.7191 42.8816 27.2229 42.8602 26.8901 42.8475ZM26.8901 42.8475C25.971 42.2474 24.7205 38.8417 24.2101 37.2139" stroke="#FFCB1F" stroke-width="0.7"/>
<path d="M24.4668 36.3166C24.8574 36.0522 25.514 35.2621 25.0153 34.2166C25.0249 34.8098 24.9286 36.0604 24.4668 36.3166Z" stroke="#FFCB1F" stroke-width="0.7"/>
<path d="M23.2789 37.0655C22.8471 37.2554 21.8287 37.3904 21.2092 36.4116C21.7063 36.7356 22.8161 37.3199 23.2789 37.0655Z" stroke="#FFCB1F" stroke-width="0.7"/>
<path d="M16.8695 32.5148L16.3291 31.8352C16.979 31.7806 18.3933 31.8853 18.8519 32.7408C19.3104 33.5964 19.3452 34.0586 19.3053 34.1828C19.4288 34.4543 19.7233 34.9874 19.9133 34.9473C20.1507 34.8971 19.3535 35.1151 18.9656 34.453C18.7841 34.6898 18.2791 35.0544 17.7109 34.6189C17.0006 34.0744 16.5451 33.3274 16.8695 32.5148Z" stroke="#FFCB1F" stroke-width="0.7"/>
<path d="M20.1956 30.4228C20.2563 28.988 20.5344 25.8273 21.1615 24.663C21.0663 24.369 20.7465 23.9669 20.2291 24.7112C19.7117 25.4554 19.738 26.5345 19.8158 26.9811C19.626 26.1613 19.1347 24.5554 18.6868 24.6897C18.127 24.8576 18.3082 26.6547 18.7637 27.4018C18.5334 26.9378 17.9304 26.0401 17.3605 26.1604C16.6482 26.3109 16.6637 26.8533 17.0863 27.2105C17.509 27.5676 19.9602 29.7781 20.1956 30.4228Z" stroke="#FFCB1F" stroke-width="0.7"/>
<path d="M15.7078 28.028C15.6799 28.0594 15.6514 28.0923 15.6224 28.1266M15.6224 28.1266C14.7823 29.1202 13.7356 31.6732 14.9504 33.0646C16.5214 34.8639 18.0766 34.9087 19.8027 35.9959C22.3308 37.5882 23.042 38.1312 24.777 36.6129C26.5119 35.0946 25.9583 31.932 27.0548 29.2585C28.1513 26.5851 27.3157 22.5382 23.6293 22.8369L21.2532 23.1803L17.7513 23.8622L15.6224 28.1266Z" stroke="#FFCB1F" stroke-width="0.7"/>
<path d="M23.4735 28.7878C22.9962 29.722 23.8137 30.3198 24.2821 30.502C24.5523 30.8417 24.6069 31.4916 24.6004 31.7741C24.8182 31.49 24.8405 30.7974 24.8245 30.4866C25.0278 30.5098 25.5673 30.3396 26.0986 29.4734C26.6299 28.6071 25.3524 27.6633 24.6473 27.2997L24.3617 26.4175C24.2645 26.8184 23.9508 27.8536 23.4735 28.7878Z" stroke="#FFCB1F" stroke-width="0.7"/>
<circle cx="22.1607" cy="36.2082" r="0.35" transform="rotate(-38.4938 22.1607 36.2082)" stroke="#FFCB1F" stroke-width="0.168203"/>
<circle cx="23.9967" cy="35.0268" r="0.35" transform="rotate(-38.4938 23.9967 35.0268)" stroke="#FFCB1F" stroke-width="0.168203"/>
<path d="M27.8011 36.3668C26.1425 34.7996 26.4936 31.0502 26.8764 29.3713C22.9392 33.975 23.3524 39.4138 24.0512 41.5578C27.3897 47.8853 33.7743 46.5628 37.8652 44.8557C41.956 43.1486 49.9657 36.926 50.6778 30.3223C51.3899 23.7186 47.1571 21.6364 45.8105 20.4985C44.4638 19.3607 40.65 18.6387 39.1556 18.7963C37.6612 18.954 36.2407 18.4639 35.1359 17.7227C34.031 16.9815 35.3134 15.4463 36.0166 15.0344C36.5792 14.7048 36.0959 14.5786 35.784 14.5567C34.0703 14.6237 33.4032 16.2537 33.2838 17.0604C33.4578 19.1308 33.4013 19.9856 38.1591 21.0614C41.9653 21.922 44.0168 23.5202 44.5667 24.2118C48.1258 28.965 45.9637 32.8196 41.3786 37.4231C36.7934 42.0267 30.5381 42.2156 28.7876 40.6625C27.3873 39.4201 27.5465 37.281 27.8011 36.3668Z" stroke="#FFCB1F" stroke-width="0.7"/>
<path d="M25.9994 19.8382C23.3944 19.377 21.847 22.0851 21.3989 23.4967L17.6853 25.4929C17.5555 20.5895 21.5664 17.4734 23.5881 16.5283C30.5231 14.6944 31.8129 19.927 32.3151 20.5584C32.8173 21.1899 31.832 31.9867 32.001 32.6621C32.1701 33.3376 34.3069 35.0987 37.094 32.9559C39.8811 30.813 39.2583 28.3633 37.6953 27.3238C36.445 26.4922 33.5103 28.4186 32.1992 29.4858C32.114 29.0824 32.3596 25.9224 32.493 24.3928C33.5033 23.5894 35.1724 23.1946 35.8806 23.0977C40.4921 21.8601 43.0099 25.6743 43.9578 27.7919C44.9056 29.9096 42.975 34.6109 38.223 37.801C33.4709 40.9911 29.644 38.5861 28.8815 37.7199C28.119 36.8538 26.2191 34.0943 27.4383 29.517C28.6575 24.9397 29.2556 20.4146 25.9994 19.8382Z" stroke="#FFCB1F" stroke-width="0.7"/>
<path d="M38.3353 19.4025L37.9632 19.1734C37.9126 19.2874 37.9699 19.2574 38.027 19.3041C38.2381 19.4771 38.4355 19.5995 38.5025 19.8929C37.9488 19.9277 37.5243 19.5319 37.4347 19.0011C37.7645 19.0166 38.2025 19.0425 38.3344 19.4023L38.3353 19.4025Z" fill="#FFCB1F"/>
<path d="M38.3389 19.9744L37.5109 20.2759L37.5167 20.3473C37.8011 20.2261 38.078 20.0443 38.4074 20.0853L37.9744 20.3144L38.0473 20.4027L38.3088 20.2978C38.0208 20.691 37.5285 20.6381 37.137 20.447C37.0711 20.3452 37.6033 20.0572 37.6965 20.0195C37.9111 19.9329 38.1111 19.8921 38.338 19.9742L38.3389 19.9744Z" fill="#FFCB1F"/>
<path d="M37.4378 19.3807L37.2135 19.3277L37.3664 19.4822C37.2943 19.4907 37.204 19.6323 37.1775 19.6402C37.0684 19.6732 36.854 19.4823 36.8499 19.6679C37.1233 19.7136 37.1773 19.7055 37.2006 19.9876L37.0212 19.9452C37.0427 20.1425 37.2564 20.0159 37.3641 20.0973C37.0499 20.3886 36.4658 19.7381 36.6417 19.4908C36.7537 19.3336 37.455 19.0315 37.4387 19.3809L37.4378 19.3807Z" fill="#FFCB1F"/>
<path d="M36.122 18.8742L35.8391 18.5412C35.7556 18.6339 35.8194 18.6231 35.8593 18.6852C36.0065 18.915 36.1563 19.0925 36.1293 19.3922C35.5919 19.254 35.3107 18.7462 35.3898 18.2138C35.6986 18.3305 36.1072 18.4907 36.1212 18.8737L36.122 18.8742Z" fill="#FFCB1F"/>
<path d="M35.9517 19.4184L35.071 19.4489L35.0544 19.5186C35.3624 19.4913 35.6819 19.4042 35.9825 19.5451L35.4998 19.6289L35.5418 19.7354L35.823 19.7167C35.4274 20.0014 34.9757 19.7987 34.6626 19.4959C34.6314 19.3787 35.2266 19.2695 35.3268 19.2625C35.5577 19.2466 35.7606 19.2697 35.9509 19.4179L35.9517 19.4184Z" fill="#FFCB1F"/>
<path d="M35.2775 18.5761L35.0807 18.4563L35.1783 18.6506C35.1071 18.6364 34.9774 18.743 34.9497 18.7424C34.8358 18.7399 34.691 18.4921 34.6296 18.6673C34.8754 18.7953 34.9293 18.8044 34.8641 19.0798L34.7067 18.984C34.6661 19.1783 34.9084 19.124 34.9857 19.2347C34.5967 19.4145 34.2427 18.6152 34.4865 18.4345C34.6416 18.3196 35.402 18.2494 35.2783 18.5766L35.2775 18.5761Z" fill="#FFCB1F"/>
<path d="M34.5732 17.8223L34.522 17.5235C34.4394 17.5494 34.4813 17.5655 34.4832 17.6167C34.4898 17.8059 34.5165 17.9648 34.3945 18.1342C34.1225 17.8618 34.1341 17.4592 34.3695 17.1693C34.5126 17.3481 34.6999 17.5882 34.5729 17.8218L34.5732 17.8223Z" fill="#FFCB1F"/>
<path d="M34.2815 18.0874L33.7449 17.7943L33.7104 17.8301C33.9039 17.9227 34.1255 17.9836 34.2552 18.1739L33.9373 18.0534L33.9248 18.1318L34.0993 18.22C33.7625 18.2502 33.5644 17.9695 33.4844 17.678C33.5072 17.5971 33.9012 17.7422 33.9635 17.7735C34.107 17.8456 34.22 17.9311 34.2812 18.0868L34.2815 18.0874Z" fill="#FFCB1F"/>
<path d="M34.1755 17.3459L34.1003 17.2048L34.0899 17.3552C34.0524 17.3216 33.9373 17.3394 33.921 17.3293C33.8539 17.2875 33.855 17.0884 33.7564 17.1713C33.8579 17.3346 33.8869 17.3591 33.7507 17.5005L33.6905 17.3876C33.5976 17.4893 33.7615 17.5426 33.7685 17.6359C33.4727 17.6058 33.5438 17.0035 33.7532 16.9817C33.8865 16.968 34.3653 17.1947 34.1758 17.3464L34.1755 17.3459Z" fill="#FFCB1F"/>
<path d="M34.3363 16.59L34.4778 16.4498C34.4327 16.4152 34.4399 16.4438 34.413 16.4641C34.3137 16.5389 34.2382 16.6132 34.1011 16.6114C34.1452 16.3623 34.3662 16.2168 34.6109 16.2343C34.5686 16.3787 34.51 16.57 34.3365 16.5896L34.3363 16.59Z" fill="#FFCB1F"/>
<path d="M34.0818 16.5309L34.0373 16.1316L34.005 16.1265C34.0282 16.2656 34.0789 16.4078 34.0253 16.5493L33.9704 16.3328L33.9235 16.3556L33.9418 16.4828C33.7986 16.3129 33.875 16.1005 34.0017 15.9476C34.0539 15.9294 34.1243 16.1961 34.1309 16.2414C34.1462 16.3458 34.1428 16.4388 34.082 16.5305L34.0818 16.5309Z" fill="#FFCB1F"/>
<path d="M34.4409 16.195L34.4885 16.1013L34.4036 16.1524C34.4076 16.1196 34.3546 16.0643 34.3539 16.0517C34.3511 15.9999 34.4587 15.9254 34.3769 15.9036C34.3273 16.0198 34.325 16.0446 34.1976 16.0246L34.2356 15.9497C34.1459 15.938 34.179 16.0463 34.1314 16.0852C34.0361 15.9147 34.3871 15.7259 34.4777 15.8305C34.5353 15.897 34.5937 16.2401 34.4407 16.1953L34.4409 16.195Z" fill="#FFCB1F"/>
<path d="M27.3348 17.4964C27.2585 17.4872 26.9452 17.5089 27.003 17.3553C27.0405 17.2566 27.2153 17.2804 27.2861 17.3284C27.228 17.0727 27.2877 17.1202 27.4678 17.2033C27.4309 17.0476 27.3019 16.9268 27.4336 16.7833C27.598 16.8221 27.5676 16.9893 27.5939 17.123C27.658 17.0135 27.7002 16.9411 27.7919 17.0951L27.6566 17.3016C27.6034 17.1582 27.5699 17.2643 27.5327 17.2521C27.5044 17.2431 27.4877 17.213 27.4684 17.2037C27.4738 17.2279 27.4652 17.2521 27.4979 17.275L27.4262 17.3261L27.4681 17.3787L27.3711 17.3924L27.4225 17.4346C27.4239 17.4444 27.3554 17.4725 27.3353 17.4969C27.4177 17.5072 27.4837 17.4824 27.5662 17.5392L27.349 17.6823L27.2856 17.5908C27.2892 17.5523 27.3129 17.5255 27.3353 17.4969L27.3348 17.4964Z" fill="#FFCB1F"/>
<path d="M27.6125 17.7056C27.6329 17.6377 27.6287 17.5794 27.6618 17.5237L27.7457 17.5868L27.7324 17.4893L27.995 17.6641C28.0198 17.6311 27.6573 17.4459 27.7993 17.3294L27.7312 17.265C27.7249 17.2234 28.0096 16.9464 28.1043 17.022C28.2601 17.1909 27.8561 17.2609 27.8585 17.3205L27.9929 17.3376L28.0152 17.4604L27.8303 17.4745C28.2972 17.6245 28.163 18.0402 27.8016 17.6289L27.7247 17.7892C27.6944 17.7585 27.6367 17.7352 27.6129 17.705C27.431 18.3074 27.1726 17.8186 27.5717 17.5864C27.5927 17.5864 27.5915 17.6776 27.6129 17.705L27.6125 17.7056Z" fill="#FFCB1F"/>
<path d="M21.8083 18.4355C21.7782 18.3649 21.6028 18.1044 21.7647 18.0777C21.869 18.0608 21.9357 18.2241 21.9295 18.3094C22.122 18.1312 22.1106 18.2067 22.1288 18.4042C22.2451 18.2944 22.2852 18.1223 22.4754 18.1646C22.524 18.3264 22.3639 18.3837 22.2613 18.4733C22.3881 18.4741 22.472 18.4744 22.3845 18.6308L22.138 18.6169C22.2356 18.4991 22.1269 18.5232 22.1189 18.4848C22.1126 18.4558 22.1303 18.4263 22.1287 18.4049C22.1104 18.4217 22.0851 18.4264 22.0817 18.4662L22.0016 18.4296L21.977 18.4921L21.9166 18.4149L21.9058 18.4806C21.898 18.4867 21.8393 18.4414 21.8083 18.4362C21.8405 18.5128 21.8949 18.5575 21.887 18.6574L21.6544 18.5408L21.702 18.4402C21.7371 18.424 21.7722 18.4311 21.8083 18.4362L21.8083 18.4355Z" fill="#FFCB1F"/>
<path d="M21.767 18.7838C21.836 18.7675 21.8844 18.7347 21.9492 18.7356L21.9364 18.8398L22.0143 18.7795L21.9941 19.0943C22.0351 19.0993 22.0144 18.6928 22.1862 18.7575L22.208 18.6664C22.2408 18.6401 22.6231 18.7482 22.6049 18.868C22.5365 19.0874 22.2739 18.7725 22.2235 18.8044L22.2759 18.9293L22.1807 19.01L22.0761 18.8569C22.1796 19.3363 21.7524 19.4278 21.9279 18.9092L21.7507 18.9228C21.7621 18.8812 21.7535 18.8195 21.7677 18.7839C21.1551 18.9275 21.4492 18.4593 21.8498 18.6889C21.8603 18.7071 21.7808 18.7516 21.7677 18.7839L21.767 18.7838Z" fill="#FFCB1F"/>
<path d="M30.9568 21.6135C30.9266 21.5428 30.7512 21.2824 30.9131 21.2556C31.0174 21.2388 31.0842 21.4021 31.078 21.4873C31.2704 21.3092 31.2591 21.3847 31.2772 21.5822C31.3936 21.4724 31.4337 21.3003 31.6238 21.3426C31.6724 21.5044 31.5124 21.5616 31.4098 21.6513C31.5366 21.652 31.6204 21.6524 31.5329 21.8088L31.2864 21.7949C31.384 21.6771 31.2753 21.7011 31.2673 21.6628C31.261 21.6338 31.2787 21.6043 31.2771 21.5829C31.2588 21.5997 31.2336 21.6044 31.2301 21.6441L31.15 21.6075L31.1254 21.6701L31.0651 21.5929L31.0542 21.6586C31.0464 21.6647 30.9878 21.6194 30.9567 21.6142C30.9889 21.6908 31.0434 21.7355 31.0354 21.8354L30.8029 21.7188L30.8505 21.6181C30.8856 21.602 30.9207 21.6091 30.9567 21.6142L30.9568 21.6135Z" fill="#FFCB1F"/>
<path d="M30.9155 21.96C30.9844 21.9438 31.0329 21.911 31.0976 21.9118L31.0849 22.016L31.1628 21.9558L31.1426 22.2706C31.1836 22.2756 31.1628 21.869 31.3347 21.9338L31.3564 21.8427C31.3892 21.8164 31.7715 21.9245 31.7534 22.0443C31.6849 22.2636 31.4224 21.9488 31.3719 21.9807L31.4244 22.1055L31.3292 22.1862L31.2245 22.0331C31.328 22.5126 30.9008 22.6041 31.0764 22.0855L30.8991 22.0991C30.9106 22.0575 30.9019 21.9958 30.9162 21.9601C30.3035 22.1037 30.5977 21.6356 30.9983 21.8651C31.0087 21.8833 30.9293 21.9279 30.9162 21.9601L30.9155 21.96Z" fill="#FFCB1F"/>
<path d="M30.5232 28.2912C30.4931 28.2206 30.3176 27.9601 30.4795 27.9334C30.5838 27.9165 30.6506 28.0798 30.6444 28.1651C30.8368 27.987 30.8255 28.0624 30.8436 28.26C30.96 28.1501 31.0001 27.978 31.1902 28.0203C31.2388 28.1821 31.0788 28.2394 30.9762 28.3291C31.103 28.3298 31.1868 28.3302 31.0993 28.4866L30.8528 28.4726C30.9504 28.3548 30.8417 28.3789 30.8337 28.3405C30.8274 28.3116 30.8451 28.282 30.8435 28.2606C30.8252 28.2774 30.8 28.2821 30.7965 28.3219L30.7164 28.2853L30.6918 28.3478L30.6315 28.2707L30.6206 28.3363C30.6128 28.3424 30.5542 28.2972 30.5231 28.2919C30.5553 28.3685 30.6098 28.4132 30.6018 28.5131L30.3693 28.3965L30.4169 28.2959C30.452 28.2797 30.4871 28.2868 30.5231 28.2919L30.5232 28.2912Z" fill="#FFCB1F"/>
<path d="M30.4819 28.6395C30.5508 28.6233 30.5993 28.5904 30.664 28.5913L30.6513 28.6955L30.7292 28.6352L30.709 28.95C30.75 28.955 30.7292 28.5485 30.9011 28.6132L30.9228 28.5221C30.9556 28.4958 31.338 28.6039 31.3198 28.7237C31.2513 28.9431 30.9888 28.6282 30.9383 28.6601L30.9908 28.785L30.8956 28.8657L30.7909 28.7126C30.8944 29.192 30.4672 29.2836 30.6428 28.7649L30.4656 28.7785C30.477 28.7369 30.4683 28.6752 30.4826 28.6396C29.8699 28.7832 30.1641 28.315 30.5647 28.5446C30.5752 28.5628 30.4957 28.6073 30.4826 28.6396L30.4819 28.6395Z" fill="#FFCB1F"/>
<path d="M35.0388 34.7112C35.0087 34.6405 34.8333 34.38 34.9952 34.3533C35.0995 34.3364 35.1662 34.4997 35.16 34.585C35.3524 34.4069 35.3411 34.4823 35.3592 34.6799C35.4756 34.57 35.5157 34.398 35.7058 34.4403C35.7544 34.602 35.5944 34.6593 35.4918 34.749C35.6186 34.7497 35.7025 34.7501 35.6149 34.9065L35.3685 34.8925C35.4661 34.7747 35.3574 34.7988 35.3494 34.7605C35.343 34.7315 35.3608 34.7019 35.3591 34.6806C35.3409 34.6974 35.3156 34.702 35.3122 34.7418L35.232 34.7052L35.2074 34.7678L35.1471 34.6906L35.1362 34.7562C35.1284 34.7623 35.0698 34.7171 35.0387 34.7119C35.071 34.7884 35.1254 34.8332 35.1174 34.933L34.8849 34.8164L34.9325 34.7158C34.9676 34.6996 35.0027 34.7068 35.0387 34.7119L35.0388 34.7112Z" fill="#FFCB1F"/>
<path d="M34.9975 35.0592C35.0665 35.0429 35.1149 35.0101 35.1797 35.011L35.1669 35.1152L35.2448 35.0549L35.2246 35.3697C35.2656 35.3747 35.2448 34.9682 35.4167 35.0329L35.4384 34.9418C35.4713 34.9155 35.8536 35.0236 35.8354 35.1434C35.767 35.3627 35.5044 35.0479 35.454 35.0798L35.5064 35.2046L35.4112 35.2854L35.3065 35.1322C35.41 35.6117 34.9828 35.7032 35.1584 35.1846L34.9812 35.1982C34.9926 35.1566 34.984 35.0949 34.9982 35.0593C34.3855 35.2029 34.6797 34.7347 35.0803 34.9642C35.0908 34.9825 35.0113 35.027 34.9982 35.0593L34.9975 35.0592Z" fill="#FFCB1F"/>
<path d="M38.863 32.112C38.8329 32.0414 38.6575 31.7809 38.8194 31.7542C38.9237 31.7373 38.9904 31.9006 38.9842 31.9859C39.1767 31.8078 39.1653 31.8832 39.1834 32.0808C39.2998 31.9709 39.3399 31.7988 39.53 31.8411C39.5786 32.0029 39.4186 32.0602 39.316 32.1499C39.4428 32.1506 39.5267 32.151 39.4392 32.3074L39.1927 32.2934C39.2903 32.1756 39.1816 32.1997 39.1736 32.1613C39.1673 32.1324 39.185 32.1028 39.1834 32.0814C39.1651 32.0982 39.1398 32.1029 39.1364 32.1427L39.0562 32.1061L39.0317 32.1686L38.9713 32.0915L38.9605 32.1571C38.9527 32.1632 38.894 32.118 38.8629 32.1127C38.8952 32.1893 38.9496 32.2341 38.9416 32.3339L38.7091 32.2173L38.7567 32.1167C38.7918 32.1005 38.8269 32.1076 38.8629 32.1127L38.863 32.112Z" fill="#FFCB1F"/>
<path d="M38.8217 32.46C38.8907 32.4438 38.9391 32.411 39.0039 32.4118L38.9911 32.516L39.069 32.4558L39.0488 32.7706C39.0898 32.7756 39.069 32.369 39.2409 32.4338L39.2626 32.3427C39.2955 32.3164 39.6778 32.4245 39.6596 32.5443C39.5912 32.7636 39.3286 32.4488 39.2782 32.4807L39.3306 32.6055L39.2354 32.6862L39.1308 32.5331C39.2343 33.0126 38.8071 33.1041 38.9826 32.5855L38.8054 32.5991C38.8168 32.5575 38.8082 32.4958 38.8224 32.4601C38.2097 32.6037 38.5039 32.1356 38.9045 32.3651C38.915 32.3833 38.8355 32.4279 38.8224 32.4601L38.8217 32.46Z" fill="#FFCB1F"/>
<path d="M41.1443 33.6841C41.1141 33.6134 40.9387 33.3529 41.1006 33.3262C41.2049 33.3093 41.2717 33.4726 41.2655 33.5579C41.4579 33.3798 41.4466 33.4552 41.4647 33.6528C41.5811 33.5429 41.6212 33.3709 41.8113 33.4132C41.8599 33.5749 41.6999 33.6322 41.5973 33.7219C41.7241 33.7226 41.8079 33.723 41.7204 33.8794L41.4739 33.8654C41.5715 33.7476 41.4628 33.7717 41.4548 33.7334C41.4485 33.7044 41.4662 33.6748 41.4646 33.6535C41.4463 33.6703 41.4211 33.6749 41.4176 33.7147L41.3375 33.6781L41.3129 33.7407L41.2526 33.6635L41.2417 33.7291C41.2339 33.7352 41.1753 33.69 41.1442 33.6848C41.1764 33.7613 41.2309 33.8061 41.2229 33.9059L40.9904 33.7893L41.038 33.6887C41.0731 33.6725 41.1082 33.6797 41.1442 33.6848L41.1443 33.6841Z" fill="#FFCB1F"/>
<path d="M41.103 34.0321C41.1719 34.0158 41.2204 33.983 41.2851 33.9839L41.2724 34.0881L41.3503 34.0278L41.3301 34.3426C41.3711 34.3476 41.3503 33.9411 41.5222 34.0058L41.5439 33.9147C41.5767 33.8884 41.959 33.9965 41.9409 34.1163C41.8724 34.3356 41.6099 34.0208 41.5594 34.0527L41.6119 34.1775L41.5167 34.2583L41.412 34.1051C41.5155 34.5846 41.0883 34.6761 41.2639 34.1575L41.0866 34.1711C41.0981 34.1295 41.0894 34.0678 41.1037 34.0322C40.491 34.1758 40.7852 33.7076 41.1858 33.9371C41.1962 33.9554 41.1168 33.9999 41.1037 34.0322L41.103 34.0321Z" fill="#FFCB1F"/>
<path d="M42.656 28.3608C42.6259 28.2902 42.4504 28.0297 42.6124 28.0029C42.7167 27.9861 42.7834 28.1494 42.7772 28.2346C42.9696 28.0565 42.9583 28.132 42.9764 28.3295C43.0928 28.2197 43.1329 28.0476 43.323 28.0899C43.3716 28.2517 43.2116 28.309 43.109 28.3986C43.2358 28.3993 43.3197 28.3997 43.2321 28.5561L42.9856 28.5422C43.0833 28.4244 42.9745 28.4485 42.9665 28.4101C42.9602 28.3811 42.9779 28.3516 42.9763 28.3302C42.9581 28.347 42.9328 28.3517 42.9293 28.3915L42.8492 28.3549L42.8246 28.4174L42.7643 28.3402L42.7534 28.4059C42.7456 28.412 42.687 28.3667 42.6559 28.3615C42.6881 28.4381 42.7426 28.4828 42.7346 28.5827L42.5021 28.4661L42.5497 28.3654C42.5848 28.3493 42.6199 28.3564 42.6559 28.3615L42.656 28.3608Z" fill="#FFCB1F"/>
<path d="M42.6147 28.7088C42.6836 28.6926 42.7321 28.6597 42.7968 28.6606L42.7841 28.7648L42.862 28.7045L42.8418 29.0194C42.8828 29.0244 42.862 28.6178 43.0339 28.6826L43.0556 28.5915C43.0884 28.5652 43.4708 28.6733 43.4526 28.793C43.3841 29.0124 43.1216 28.6975 43.0712 28.7294L43.1236 28.8543L43.0284 28.935L42.9237 28.7819C43.0272 29.2613 42.6 29.3529 42.7756 28.8343L42.5984 28.8478C42.6098 28.8062 42.6011 28.7445 42.6154 28.7089C42.0027 28.8525 42.2969 28.3844 42.6975 28.6139C42.708 28.6321 42.6285 28.6767 42.6154 28.7089L42.6147 28.7088Z" fill="#FFCB1F"/>
<path d="M37.2888 23.6475C37.2587 23.5768 37.0833 23.3163 37.2452 23.2896C37.3495 23.2727 37.4162 23.436 37.41 23.5213C37.6024 23.3432 37.5911 23.4186 37.6092 23.6162C37.7256 23.5063 37.7657 23.3342 37.9558 23.3765C38.0044 23.5383 37.8444 23.5956 37.7418 23.6853C37.8686 23.686 37.9525 23.6864 37.8649 23.8428L37.6185 23.8288C37.7161 23.711 37.6074 23.7351 37.5994 23.6967C37.593 23.6678 37.6108 23.6382 37.6091 23.6168C37.5909 23.6336 37.5656 23.6383 37.5622 23.6781L37.482 23.6415L37.4574 23.704L37.3971 23.6269L37.3862 23.6925C37.3784 23.6986 37.3198 23.6534 37.2887 23.6481C37.321 23.7247 37.3754 23.7695 37.3674 23.8693L37.1349 23.7527L37.1825 23.6521C37.2176 23.6359 37.2527 23.643 37.2887 23.6481L37.2888 23.6475Z" fill="#FFCB1F"/>
<path d="M37.2475 23.9954C37.3165 23.9792 37.3649 23.9464 37.4297 23.9472L37.4169 24.0514L37.4948 23.9912L37.4746 24.306C37.5156 24.311 37.4948 23.9044 37.6667 23.9692L37.6884 23.8781C37.7213 23.8518 38.1036 23.9599 38.0854 24.0797C38.017 24.299 37.7544 23.9842 37.704 24.0161L37.7564 24.1409L37.6612 24.2216L37.5565 24.0685C37.66 24.548 37.2328 24.6395 37.4084 24.1209L37.2312 24.1345C37.2426 24.0929 37.234 24.0312 37.2482 23.9955C36.6355 24.1391 36.9297 23.671 37.3303 23.9005C37.3408 23.9187 37.2613 23.9633 37.2482 23.9955L37.2475 23.9954Z" fill="#FFCB1F"/>
<path d="M24.4138 37.2722C24.3837 37.2015 24.2083 36.941 24.3702 36.9143C24.4745 36.8975 24.5412 37.0608 24.535 37.146C24.7274 36.9679 24.7161 37.0434 24.7342 37.2409C24.8506 37.1311 24.8907 36.959 25.0808 37.0013C25.1294 37.1631 24.9694 37.2203 24.8668 37.31C24.9936 37.3107 25.0775 37.3111 24.9899 37.4675L24.7435 37.4536C24.8411 37.3358 24.7324 37.3598 24.7244 37.3215C24.718 37.2925 24.7358 37.263 24.7341 37.2416C24.7159 37.2584 24.6906 37.2631 24.6872 37.3028L24.607 37.2662L24.5824 37.3288L24.5221 37.2516L24.5112 37.3173C24.5034 37.3234 24.4448 37.2781 24.4137 37.2729C24.446 37.3495 24.5004 37.3942 24.4924 37.4941L24.2599 37.3775L24.3075 37.2768C24.3426 37.2607 24.3777 37.2678 24.4137 37.2729L24.4138 37.2722Z" fill="#FFCB1F"/>
<path d="M24.3725 37.6192C24.4415 37.603 24.4899 37.5701 24.5547 37.571L24.5419 37.6752L24.6198 37.6149L24.5996 37.9298C24.6406 37.9348 24.6198 37.5282 24.7917 37.593L24.8134 37.5019C24.8463 37.4756 25.2286 37.5837 25.2104 37.7034C25.142 37.9228 24.8794 37.6079 24.829 37.6398L24.8814 37.7647L24.7862 37.8454L24.6815 37.6923C24.785 38.1717 24.3578 38.2633 24.5334 37.7447L24.3562 37.7582C24.3676 37.7166 24.359 37.6549 24.3732 37.6193C23.7605 37.7629 24.0547 37.2948 24.4553 37.5243C24.4658 37.5425 24.3863 37.5871 24.3732 37.6193L24.3725 37.6192Z" fill="#FFCB1F"/>
<path d="M25.5154 42.7292C25.4852 42.6586 25.3098 42.3981 25.4717 42.3714C25.576 42.3545 25.6428 42.5178 25.6366 42.6031C25.829 42.4249 25.8177 42.5004 25.8358 42.6979C25.9522 42.5881 25.9923 42.416 26.1824 42.4583C26.231 42.6201 26.071 42.6774 25.9683 42.767C26.0952 42.7678 26.179 42.7681 26.0915 42.9245L25.845 42.9106C25.9426 42.7928 25.8339 42.8169 25.8259 42.7785C25.8196 42.7495 25.8373 42.72 25.8357 42.6986C25.8174 42.7154 25.7922 42.7201 25.7887 42.7599L25.7086 42.7233L25.684 42.7858L25.6237 42.7086L25.6128 42.7743C25.605 42.7804 25.5464 42.7351 25.5153 42.7299C25.5475 42.8065 25.602 42.8512 25.594 42.9511L25.3615 42.8345L25.409 42.7339C25.4442 42.7177 25.4792 42.7248 25.5153 42.7299L25.5154 42.7292Z" fill="#FFCB1F"/>
<path d="M25.4741 43.0763C25.543 43.06 25.5915 43.0272 25.6562 43.028L25.6435 43.1322L25.7214 43.072L25.7012 43.3868C25.7421 43.3918 25.7214 42.9853 25.8933 43.05L25.915 42.9589C25.9478 42.9326 26.3301 43.0407 26.312 43.1605C26.2435 43.3798 25.981 43.065 25.9305 43.0969L25.9829 43.2217L25.8878 43.3025L25.7831 43.1493C25.8866 43.6288 25.4594 43.7203 25.635 43.2017L25.4577 43.2153C25.4692 43.1737 25.4605 43.112 25.4747 43.0763C24.8621 43.2199 25.1563 42.7518 25.5569 42.9813C25.5673 42.9995 25.4879 43.0441 25.4747 43.0763L25.4741 43.0763Z" fill="#FFCB1F"/>
<path d="M31.1169 42.5466C31.0868 42.476 30.9114 42.2155 31.0733 42.1887C31.1776 42.1719 31.2443 42.3352 31.2381 42.4204C31.4306 42.2423 31.4192 42.3178 31.4373 42.5153C31.5537 42.4055 31.5938 42.2334 31.784 42.2757C31.8326 42.4375 31.6725 42.4947 31.5699 42.5844C31.6967 42.5851 31.7806 42.5855 31.6931 42.7419L31.4466 42.728C31.5442 42.6102 31.4355 42.6343 31.4275 42.5959C31.4212 42.5669 31.4389 42.5374 31.4373 42.516C31.419 42.5328 31.3937 42.5375 31.3903 42.5773L31.3102 42.5407L31.2856 42.6032L31.2252 42.526L31.2144 42.5917C31.2066 42.5978 31.1479 42.5525 31.1168 42.5473C31.1491 42.6239 31.2035 42.6686 31.1955 42.7685L30.963 42.6519L31.0106 42.5512C31.0457 42.5351 31.0808 42.5422 31.1168 42.5473L31.1169 42.5466Z" fill="#FFCB1F"/>
<path d="M31.0717 42.8949C31.1407 42.8786 31.1891 42.8458 31.2539 42.8466L31.2411 42.9509L31.319 42.8906L31.2988 43.2054C31.3398 43.2104 31.319 42.8039 31.4909 42.8686L31.5126 42.7775C31.5455 42.7512 31.9278 42.8593 31.9096 42.9791C31.8412 43.1984 31.5786 42.8836 31.5282 42.9155L31.5806 43.0403L31.4854 43.1211L31.3808 42.9679C31.4843 43.4474 31.0571 43.5389 31.2326 43.0203L31.0554 43.0339C31.0668 42.9923 31.0582 42.9306 31.0724 42.8949C30.4597 43.0386 30.7539 42.5704 31.1545 42.7999C31.165 42.8181 31.0855 42.8627 31.0724 42.8949L31.0717 42.8949Z" fill="#FFCB1F"/>
<path d="M36.4763 41.5195C36.4462 41.4489 36.2708 41.1884 36.4327 41.1616C36.537 41.1448 36.6037 41.3081 36.5975 41.3933C36.7899 41.2152 36.7786 41.2907 36.7967 41.4882C36.9131 41.3784 36.9532 41.2063 37.1433 41.2486C37.1919 41.4104 37.0319 41.4676 36.9293 41.5573C37.0561 41.558 37.14 41.5584 37.0524 41.7148L36.806 41.7009C36.9036 41.5831 36.7949 41.6072 36.7869 41.5688C36.7805 41.5398 36.7983 41.5103 36.7966 41.4889C36.7784 41.5057 36.7531 41.5104 36.7497 41.5502L36.6695 41.5136L36.6449 41.5761L36.5846 41.4989L36.5737 41.5646C36.5659 41.5707 36.5073 41.5254 36.4762 41.5202C36.5085 41.5968 36.5629 41.6415 36.5549 41.7414L36.3224 41.6248L36.37 41.5241C36.4051 41.508 36.4402 41.5151 36.4762 41.5202L36.4763 41.5195Z" fill="#FFCB1F"/>
<path d="M36.435 41.8675C36.504 41.8513 36.5524 41.8184 36.6172 41.8193L36.6044 41.9235L36.6823 41.8632L36.6621 42.1781C36.7031 42.1831 36.6823 41.7765 36.8542 41.8413L36.8759 41.7501C36.9088 41.7238 37.2911 41.832 37.2729 41.9517C37.2045 42.1711 36.9419 41.8562 36.8915 41.8881L36.9439 42.013L36.8487 42.0937L36.744 41.9406C36.8475 42.42 36.4203 42.5116 36.5959 41.993L36.4187 42.0065C36.4301 41.9649 36.4215 41.9032 36.4357 41.8676C35.823 42.0112 36.1172 41.5431 36.5178 41.7726C36.5283 41.7908 36.4488 41.8354 36.4357 41.8676L36.435 41.8675Z" fill="#FFCB1F"/>
<path d="M40.9177 38.5798C40.8876 38.5092 40.7122 38.2487 40.8741 38.2219C40.9784 38.2051 41.0451 38.3684 41.0389 38.4536C41.2313 38.2755 41.22 38.351 41.2381 38.5485C41.3545 38.4387 41.3946 38.2666 41.5847 38.3089C41.6333 38.4707 41.4733 38.528 41.3707 38.6176C41.4975 38.6183 41.5814 38.6187 41.4938 38.7751L41.2474 38.7612C41.345 38.6434 41.2363 38.6675 41.2283 38.6291C41.2219 38.6001 41.2397 38.5706 41.238 38.5492C41.2198 38.566 41.1945 38.5707 41.1911 38.6105L41.1109 38.5739L41.0864 38.6364L41.026 38.5592L41.0151 38.6249C41.0073 38.631 40.9487 38.5857 40.9176 38.5805C40.9499 38.6571 41.0043 38.7018 40.9963 38.8017L40.7638 38.6851L40.8114 38.5844C40.8465 38.5683 40.8816 38.5754 40.9176 38.5805L40.9177 38.5798Z" fill="#FFCB1F"/>
<path d="M40.8725 38.9281C40.9415 38.9118 40.9899 38.879 41.0547 38.8799L41.0419 38.9841L41.1198 38.9238L41.0996 39.2386C41.1406 39.2436 41.1198 38.8371 41.2917 38.9018L41.3134 38.8107C41.3463 38.7844 41.7286 38.8925 41.7104 39.0123C41.642 39.2316 41.3794 38.9168 41.329 38.9487L41.3814 39.0735L41.2862 39.1543L41.1815 39.0011C41.285 39.4806 40.8578 39.5721 41.0334 39.0535L40.8562 39.0671C40.8676 39.0255 40.859 38.9638 40.8732 38.9282C40.2605 39.0718 40.5547 38.6036 40.9553 38.8331C40.9658 38.8513 40.8863 38.8959 40.8732 38.9282L40.8725 38.9281Z" fill="#FFCB1F"/>
<path d="M44.5076 35.135C44.4774 35.0643 44.302 34.8038 44.4639 34.7771C44.5682 34.7603 44.635 34.9236 44.6288 35.0088C44.8212 34.8307 44.8098 34.9062 44.828 35.1037C44.9444 34.9938 44.9844 34.8218 45.1746 34.8641C45.2232 35.0259 45.0632 35.0831 44.9605 35.1728C45.0874 35.1735 45.1712 35.1739 45.0837 35.3303L44.8372 35.3164C44.9348 35.1986 44.8261 35.2226 44.8181 35.1843C44.8118 35.1553 44.8295 35.1257 44.8279 35.1044C44.8096 35.1212 44.7844 35.1259 44.7809 35.1656L44.7008 35.129L44.6762 35.1916L44.6158 35.1144L44.605 35.1801C44.5972 35.1862 44.5386 35.1409 44.5075 35.1357C44.5397 35.2123 44.5942 35.257 44.5862 35.3568L44.3537 35.2403L44.4012 35.1396C44.4363 35.1235 44.4714 35.1306 44.5075 35.1357L44.5076 35.135Z" fill="#FFCB1F"/>
<path d="M44.4662 35.483C44.5352 35.4668 44.5836 35.4339 44.6484 35.4348L44.6357 35.539L44.7135 35.4787L44.6933 35.7935C44.7343 35.7985 44.7136 35.392 44.8854 35.4567L44.9072 35.3656C44.94 35.3393 45.3223 35.4474 45.3041 35.5672C45.2357 35.7866 44.9732 35.4717 44.9227 35.5036L44.9751 35.6285L44.8799 35.7092L44.7753 35.5561C44.8788 36.0355 44.4516 36.1271 44.6272 35.6085L44.4499 35.622C44.4614 35.5804 44.4527 35.5187 44.4669 35.4831C43.8543 35.6267 44.1485 35.1586 44.5491 35.3881C44.5595 35.4063 44.48 35.4508 44.4669 35.4831L44.4662 35.483Z" fill="#FFCB1F"/>
<path d="M46.6755 31.199C46.6454 31.1283 46.47 30.8678 46.6319 30.8411C46.7362 30.8242 46.8029 30.9875 46.7967 31.0728C46.9892 30.8947 46.9778 30.9701 46.9959 31.1677C47.1123 31.0578 47.1524 30.8857 47.3425 30.928C47.3911 31.0898 47.2311 31.1471 47.1285 31.2368C47.2553 31.2375 47.3392 31.2379 47.2517 31.3943L47.0052 31.3803C47.1028 31.2625 46.9941 31.2866 46.9861 31.2482C46.9798 31.2193 46.9975 31.1897 46.9959 31.1684C46.9776 31.1852 46.9523 31.1898 46.9489 31.2296L46.8687 31.193L46.8442 31.2556L46.7838 31.1784L46.773 31.244C46.7652 31.2501 46.7065 31.2049 46.6754 31.1997C46.7077 31.2762 46.7621 31.321 46.7541 31.4208L46.5216 31.3042L46.5692 31.2036C46.6043 31.1874 46.6394 31.1945 46.6754 31.1997L46.6755 31.199Z" fill="#FFCB1F"/>
<path d="M46.6342 31.547C46.7032 31.5307 46.7516 31.4979 46.8164 31.4987L46.8036 31.6029L46.8815 31.5427L46.8613 31.8575C46.9023 31.8625 46.8815 31.456 47.0534 31.5207L47.0751 31.4296C47.108 31.4033 47.4903 31.5114 47.4721 31.6312C47.4037 31.8505 47.1411 31.5357 47.0907 31.5676L47.1431 31.6924L47.0479 31.7732L46.9433 31.62C47.0468 32.0995 46.6196 32.191 46.7951 31.6724L46.6179 31.686C46.6293 31.6444 46.6207 31.5827 46.6349 31.547C46.0222 31.6907 46.3164 31.2225 46.717 31.452C46.7275 31.4702 46.648 31.5148 46.6349 31.547L46.6342 31.547Z" fill="#FFCB1F"/>
<path d="M49.4333 27.2475C49.4032 27.1769 49.2278 26.9164 49.3897 26.8897C49.494 26.8728 49.5607 27.0361 49.5545 27.1214C49.747 26.9433 49.7356 27.0187 49.7538 27.2162C49.8701 27.1064 49.9102 26.9343 50.1004 26.9766C50.149 27.1384 49.9889 27.1957 49.8863 27.2854C50.0131 27.2861 50.097 27.2865 50.0095 27.4428L49.763 27.4289C49.8606 27.3111 49.7519 27.3352 49.7439 27.2968C49.7376 27.2679 49.7553 27.2383 49.7537 27.2169C49.7354 27.2337 49.7101 27.2384 49.7067 27.2782L49.6266 27.2416L49.602 27.3041L49.5416 27.227L49.5308 27.2926C49.523 27.2987 49.4643 27.2535 49.4333 27.2482C49.4655 27.3248 49.5199 27.3695 49.512 27.4694L49.2794 27.3528L49.327 27.2522C49.3621 27.236 49.3972 27.2431 49.4333 27.2482L49.4333 27.2475Z" fill="#FFCB1F"/>
<path d="M49.3881 27.5955C49.4571 27.5793 49.5055 27.5465 49.5703 27.5473L49.5575 27.6515L49.6354 27.5913L49.6152 27.9061C49.6562 27.9111 49.6355 27.5045 49.8073 27.5693L49.8291 27.4782C49.8619 27.4519 50.2442 27.56 50.226 27.6798C50.1576 27.8991 49.895 27.5843 49.8446 27.6162L49.897 27.741L49.8018 27.8217L49.6972 27.6686C49.8007 28.1481 49.3735 28.2396 49.549 27.721L49.3718 27.7346C49.3832 27.693 49.3746 27.6313 49.3888 27.5956C48.7761 27.7392 49.0703 27.2711 49.4709 27.5006C49.4814 27.5188 49.4019 27.5634 49.3888 27.5956L49.3881 27.5955Z" fill="#FFCB1F"/>
<path d="M46.8982 22.7754C46.8681 22.7047 46.6926 22.4442 46.8545 22.4175C46.9588 22.4006 47.0256 22.5639 47.0194 22.6492C47.2118 22.4711 47.2005 22.5466 47.2186 22.7441C47.335 22.6342 47.3751 22.4622 47.5652 22.5045C47.6138 22.6662 47.4538 22.7235 47.3512 22.8132C47.478 22.8139 47.5618 22.8143 47.4743 22.9707L47.2278 22.9567C47.3254 22.8389 47.2167 22.863 47.2087 22.8247C47.2024 22.7957 47.2201 22.7661 47.2185 22.7448C47.2002 22.7616 47.175 22.7662 47.1715 22.806L47.0914 22.7694L47.0668 22.832L47.0065 22.7548L46.9956 22.8204C46.9878 22.8265 46.9292 22.7813 46.8981 22.7761C46.9303 22.8526 46.9848 22.8974 46.9768 22.9972L46.7443 22.8806L46.7919 22.78C46.827 22.7638 46.8621 22.771 46.8981 22.7761L46.8982 22.7754Z" fill="#FFCB1F"/>
<path d="M46.853 23.1229C46.9219 23.1067 46.9704 23.0738 47.0351 23.0747L47.0224 23.1789L47.1003 23.1186L47.0801 23.4334C47.1211 23.4384 47.1003 23.0319 47.2722 23.0966L47.2939 23.0055C47.3267 22.9792 47.709 23.0873 47.6909 23.2071C47.6224 23.4265 47.3599 23.1116 47.3094 23.1435L47.3619 23.2684L47.2667 23.3491L47.162 23.196C47.2655 23.6754 46.8383 23.767 47.0139 23.2483L46.8366 23.2619C46.8481 23.2203 46.8394 23.1586 46.8537 23.123C46.241 23.2666 46.5352 22.7984 46.9358 23.028C46.9462 23.0462 46.8668 23.0907 46.8537 23.123L46.853 23.1229Z" fill="#FFCB1F"/>
<path d="M42.4936 20.2301C42.5626 20.2138 42.611 20.181 42.6758 20.1819L42.663 20.2861L42.7409 20.2258L42.7207 20.5406C42.7617 20.5456 42.7409 20.1391 42.9128 20.2038L42.9345 20.1127C42.9674 20.0864 43.3497 20.1945 43.3315 20.3143C43.263 20.5336 43.0005 20.2188 42.9501 20.2507L43.0025 20.3755L42.9073 20.4563L42.8026 20.3031C42.9061 20.7826 42.4789 20.8741 42.6545 20.3555L42.4773 20.3691C42.4887 20.3275 42.48 20.2658 42.4943 20.2302C41.8816 20.3738 42.1758 19.9056 42.5764 20.1351C42.5869 20.1534 42.5074 20.1979 42.4943 20.2302L42.4936 20.2301Z" fill="#FFCB1F"/>
<path d="M21.326 22.5889C21.3915 22.627 21.1034 22.8772 21.0351 22.864C21.0398 22.9207 21.1418 22.8748 21.1682 22.8622C21.2735 22.8106 21.3066 22.7128 21.4038 22.6678C21.4398 22.6953 21.3729 23.0345 21.3419 23.0849C21.1491 23.3944 20.5583 22.8042 20.9513 22.6628C21.0638 22.6224 21.2091 22.6226 21.3266 22.5887L21.326 22.5889Z" fill="#FFCB1F"/>
<path d="M21.5081 22.3973C21.4671 22.2393 21.562 22.1208 21.583 21.9759C21.4487 22.0787 21.4533 22.2325 21.4268 22.3817C21.1744 22.1309 21.0782 21.7937 21.5579 21.8003C22.0377 21.8069 21.7772 22.2823 21.5081 22.3973Z" fill="#FFCB1F"/>
<path d="M21.3579 22.4254C21.2084 22.4423 21.1101 22.2928 20.9799 22.2477C21.0257 22.4042 21.2044 22.438 21.3149 22.527C20.9956 22.6642 20.5708 22.5951 20.8079 22.1706C21.015 21.7988 21.2884 22.1683 21.3578 22.4248L21.3579 22.4254Z" fill="#FFCB1F"/>
<path d="M22.2685 20.9366C22.3147 20.9967 21.9533 21.1191 21.8951 21.081C21.8779 21.1353 21.9897 21.1314 22.0189 21.1298C22.1359 21.1219 22.2036 21.044 22.3106 21.0392C22.3335 21.0783 22.1431 21.3668 22.0953 21.4017C21.7996 21.6151 21.4764 20.8451 21.8937 20.8631C22.0131 20.8683 22.1475 20.9236 22.2691 20.9367L22.2685 20.9366Z" fill="#FFCB1F"/>
<path d="M22.5117 20.8283C22.5336 20.6665 22.6663 20.5928 22.7406 20.4666C22.5774 20.5109 22.5233 20.655 22.4424 20.783C22.3038 20.4553 22.3425 20.1068 22.784 20.2947C23.2254 20.4826 22.8043 20.8238 22.5117 20.8283Z" fill="#FFCB1F"/>
<path d="M22.3605 20.7984C22.2157 20.7574 22.1814 20.5817 22.078 20.4907C22.0611 20.6529 22.2136 20.752 22.2821 20.8761C21.9347 20.8822 21.5678 20.6572 21.948 20.3542C22.2805 20.0886 22.3936 20.5341 22.3606 20.7978L22.3605 20.7984Z" fill="#FFCB1F"/>
<path d="M23.9696 19.4729C24.0056 19.5649 23.5092 19.5869 23.4502 19.5182C23.409 19.5799 23.5503 19.6156 23.5874 19.6241C23.7365 19.6567 23.8495 19.5837 23.9851 19.6165C23.9995 19.6737 23.6568 19.9655 23.5844 19.9919C23.1372 20.1516 23.0122 19.0713 23.5275 19.2452C23.675 19.2949 23.823 19.4128 23.9703 19.4733L23.9696 19.4729Z" fill="#FFCB1F"/>
<path d="M24.3109 19.4254C24.3969 19.2309 24.5897 19.1869 24.7284 19.056C24.5081 19.0523 24.3883 19.2129 24.2407 19.3436C24.1861 18.8835 24.3609 18.4617 24.8449 18.8567C25.3289 19.2517 24.6785 19.5258 24.3109 19.4254Z" fill="#FFCB1F"/>
<path d="M24.1355 19.3318C23.9693 19.228 23.99 18.9959 23.8937 18.8445C23.8138 19.0412 23.9687 19.2204 24.0093 19.4006C23.5726 19.2821 23.1953 18.8678 23.7807 18.6266C24.2929 18.415 24.2727 19.0132 24.1359 19.3311L24.1355 19.3318Z" fill="#FFCB1F"/>
<path d="M26.6652 19.2616C26.6034 19.3981 26.0542 18.8816 26.0665 18.7447C25.9559 18.7652 26.0665 18.9565 26.0965 19.0059C26.2189 19.2026 26.4177 19.2483 26.5255 19.4303C26.4786 19.5065 25.7987 19.4426 25.6934 19.3917C25.0467 19.0744 26.0891 17.7957 26.4452 18.54C26.5471 18.753 26.5756 19.0386 26.6656 19.2628L26.6652 19.2616Z" fill="#FFCB1F"/>
<path d="M27.079 19.5817C27.3815 19.4695 27.6332 19.6325 27.9223 19.6448C27.6934 19.4014 27.392 19.441 27.0936 19.4188C27.5362 18.8727 28.1798 18.6165 28.2623 19.5607C28.3448 20.5049 27.3587 20.0876 27.079 19.5817Z" fill="#FFCB1F"/>
<path d="M26.9889 19.2909C26.926 19.0004 27.2003 18.7774 27.263 18.5126C26.9645 18.6337 26.9335 18.9917 26.7807 19.2265C26.4474 18.6263 26.4988 17.7777 27.3803 18.1591C28.1523 18.4922 27.4805 19.1031 26.9901 19.2906L26.9889 19.2909Z" fill="#FFCB1F"/>
<path d="M28.7021 21.2563C28.5531 21.2718 28.7218 20.5371 28.8461 20.4786C28.7727 20.3935 28.6633 20.5855 28.6359 20.6363C28.5278 20.8412 28.5887 21.0359 28.486 21.2209C28.3965 21.2188 28.1086 20.5997 28.0993 20.4831C28.0469 19.7646 29.6768 20.0191 29.2141 20.7022C29.0816 20.8976 28.8494 21.0664 28.7013 21.2572L28.7021 21.2563Z" fill="#FFCB1F"/>
<path d="M28.632 21.7744C28.8815 21.9789 28.8678 22.2785 29.0031 22.5343C29.0977 22.2138 28.9114 21.9736 28.78 21.7048C29.4748 21.8113 30.0208 22.2376 29.2473 22.7854C28.4739 23.3331 28.3364 22.2712 28.632 21.7744Z" fill="#FFCB1F"/>
<path d="M28.8408 21.5524C29.0599 21.3514 29.3908 21.4757 29.6511 21.3962C29.3959 21.1996 29.0711 21.3536 28.7913 21.3401C29.1412 20.7494 29.8998 20.3655 30.0154 21.319C30.1175 22.1535 29.2511 21.882 28.8417 21.5532L28.8408 21.5524Z" fill="#FFCB1F"/>
<path d="M29.2821 24.0338C29.1758 24.0154 29.4365 23.5392 29.5341 23.523C29.4999 23.4496 29.3865 23.5613 29.3575 23.5912C29.2425 23.712 29.2466 23.8589 29.1392 23.967C29.0776 23.948 28.9992 23.4625 29.0156 23.3799C29.1199 22.8717 30.1998 23.3671 29.7453 23.7499C29.6153 23.8595 29.4213 23.931 29.2813 24.0343L29.2821 24.0338Z" fill="#FFCB1F"/>
<path d="M29.1367 24.3796C29.2696 24.5702 29.2015 24.7752 29.2452 24.9789C29.3735 24.7753 29.2914 24.5723 29.2529 24.3603C29.7136 24.5701 30.0086 24.9724 29.3653 25.2007C28.7221 25.429 28.8346 24.6661 29.1367 24.3796Z" fill="#FFCB1F"/>
<path d="M29.3224 24.2665C29.5136 24.1701 29.7186 24.321 29.9146 24.3168C29.7762 24.1306 29.521 24.1738 29.3297 24.1097C29.6878 23.7688 30.2886 23.6511 30.1822 24.3347C30.0897 24.933 29.5423 24.5752 29.3229 24.2673L29.3224 24.2665Z" fill="#FFCB1F"/>
<path d="M28.6805 26.4254C28.5742 26.407 28.8349 25.9308 28.9325 25.9146C28.8983 25.8412 28.7849 25.9529 28.7559 25.9828C28.6409 26.1036 28.6451 26.2505 28.5377 26.3586C28.4761 26.3396 28.3976 25.8541 28.4141 25.7715C28.5183 25.2633 29.5982 25.7587 29.1438 26.1415C29.0137 26.2511 28.8198 26.3226 28.6798 26.4259L28.6805 26.4254Z" fill="#FFCB1F"/>
<path d="M28.5351 26.7712C28.668 26.9618 28.5999 27.1668 28.6436 27.3705C28.7719 27.1669 28.6898 26.9639 28.6513 26.7519C29.112 26.9617 29.4071 27.364 28.7638 27.5923C28.1205 27.8206 28.233 27.0577 28.5351 26.7712Z" fill="#FFCB1F"/>
<path d="M28.7209 26.6581C28.912 26.5617 29.1171 26.7126 29.313 26.7084C29.1746 26.5222 28.9194 26.5654 28.7281 26.5013C29.0862 26.1604 29.6871 26.0427 29.5807 26.7263C29.4881 27.3246 28.9407 26.9668 28.7213 26.6589L28.7209 26.6581Z" fill="#FFCB1F"/>
<path d="M35.5222 26.6885C35.554 26.7916 35.0113 26.7753 34.9526 26.6956C34.9027 26.7594 35.0537 26.8098 35.0934 26.8221C35.2533 26.8697 35.3823 26.7994 35.5274 26.8461C35.5385 26.9096 35.1414 27.1997 35.0603 27.2226C34.5601 27.3603 34.5116 26.1731 35.059 26.4044C35.2156 26.4706 35.3674 26.611 35.5229 26.6889L35.5222 26.6885Z" fill="#FFCB1F"/>
<path d="M35.8969 26.6642C36.0064 26.4593 36.22 26.427 36.3817 26.2957C36.142 26.2737 35.9984 26.4389 35.827 26.5694C35.8049 26.0637 36.0296 25.6182 36.5249 26.0879C37.0201 26.5576 36.2892 26.8035 35.8969 26.6642Z" fill="#FFCB1F"/>
<path d="M35.7121 26.5488C35.5394 26.4222 35.5809 26.171 35.4882 25.9983C35.3851 26.2061 35.5394 26.414 35.569 26.6135C35.1028 26.449 34.7253 25.9669 35.3827 25.7517C35.958 25.5627 35.8874 26.2128 35.7125 26.5481L35.7121 26.5488Z" fill="#FFCB1F"/>
<path d="M38.0128 26.5535C37.9654 26.619 37.7306 26.2866 37.7519 26.2156C37.6912 26.2145 37.7291 26.3276 37.7396 26.3569C37.7831 26.4741 37.8834 26.5197 37.9207 26.6276C37.8877 26.6629 37.5351 26.5558 37.4849 26.5175C37.177 26.28 37.8661 25.7161 37.9742 26.1481C38.0052 26.2717 37.9894 26.4259 38.0129 26.5541L38.0128 26.5535Z" fill="#FFCB1F"/>
<path d="M38.1964 26.7675C38.3685 26.7408 38.484 26.8541 38.6355 26.8918C38.5407 26.7384 38.3771 26.7269 38.2217 26.6829C38.5146 26.4419 38.8826 26.3757 38.8244 26.884C38.7663 27.3922 38.2898 27.0652 38.1964 26.7675Z" fill="#FFCB1F"/>
<path d="M38.179 26.6047C38.177 26.4443 38.3461 26.3559 38.4078 26.2227C38.2369 26.2545 38.1819 26.4406 38.0758 26.5482C37.9642 26.1949 38.0829 25.7516 38.5079 26.0484C38.8803 26.3077 38.4592 26.5584 38.1796 26.6047L38.179 26.6047Z" fill="#FFCB1F"/>
<path d="M39.514 27.9869C39.4414 28.0223 39.3908 27.6186 39.443 27.5659C39.39 27.5364 39.3701 27.654 39.3656 27.6848C39.3488 27.8087 39.4157 27.8961 39.3979 28.0089C39.3522 28.0245 39.0915 27.7639 39.0652 27.7066C38.9055 27.3521 39.7789 27.1791 39.6709 27.6111C39.6399 27.7347 39.5535 27.8633 39.5138 27.9875L39.514 27.9869Z" fill="#FFCB1F"/>
<path d="M39.5747 28.2611C39.739 28.3185 39.7876 28.4729 39.9036 28.5775C39.8922 28.3975 39.7532 28.3103 39.6368 28.1984C40.0087 28.1236 40.3645 28.2385 40.0739 28.6595C39.7833 29.0805 39.5169 28.5677 39.5747 28.2611Z" fill="#FFCB1F"/>
<path d="M39.6423 28.1116C39.7161 27.9691 39.9069 27.9708 40.0241 27.8823C39.8583 27.8299 39.7222 27.9681 39.5779 28.0131C39.6458 27.6489 39.9592 27.3137 40.1945 27.7757C40.4009 28.1798 39.9113 28.2026 39.6429 28.1118L39.6423 28.1116Z" fill="#FFCB1F"/>
<path d="M33.277 27.9291C33.3318 28.022 32.8001 28.1319 32.7245 28.068C32.6908 28.1416 32.8494 28.1556 32.8909 28.1584C33.0574 28.1677 33.1667 28.0694 33.3186 28.0812C33.3441 28.1404 33.025 28.5147 32.9514 28.5557C32.4967 28.8055 32.1746 27.6619 32.7606 27.7601C32.9283 27.7882 33.1085 27.8896 33.2778 27.9293L33.277 27.9291Z" fill="#FFCB1F"/>
<path d="M33.6381 27.8181C33.6972 27.5934 33.8974 27.5125 34.0243 27.3472C33.7861 27.3814 33.6847 27.5754 33.5481 27.742C33.4095 27.2552 33.5249 26.7698 34.1155 27.112C34.7061 27.4542 34.052 27.8626 33.6381 27.8181Z" fill="#FFCB1F"/>
<path d="M33.4281 27.7493C33.2308 27.6662 33.2129 27.4122 33.0828 27.2656C33.0307 27.4917 33.2289 27.6581 33.3039 27.8454C32.8123 27.7934 32.3334 27.4119 32.923 27.0502C33.4389 26.7331 33.5209 27.3819 33.4284 27.7485L33.4281 27.7493Z" fill="#FFCB1F"/>
<path d="M28.298 28.8578C28.2128 28.8431 28.4217 28.4615 28.4999 28.4485C28.4725 28.3898 28.3817 28.4792 28.3584 28.5032C28.2663 28.6 28.2696 28.7177 28.1836 28.8043C28.1342 28.7891 28.0714 28.4001 28.0845 28.3339C28.168 27.9267 29.0332 28.3236 28.6692 28.6304C28.565 28.7181 28.4096 28.7755 28.2974 28.8582L28.298 28.8578Z" fill="#FFCB1F"/>
<path d="M28.177 29.1354C28.2835 29.2881 28.2289 29.4523 28.2639 29.6155C28.3667 29.4524 28.3009 29.2898 28.2701 29.12C28.6392 29.288 28.8756 29.6104 28.3602 29.7933C27.8448 29.9762 27.935 29.3649 28.177 29.1354Z" fill="#FFCB1F"/>
<path d="M28.3275 29.0445C28.4806 28.9673 28.6449 29.0882 28.8019 29.0848C28.691 28.9356 28.4865 28.9702 28.3333 28.9189C28.6202 28.6458 29.1016 28.5515 29.0163 29.0991C28.9422 29.5785 28.5036 29.2919 28.3278 29.0451L28.3275 29.0445Z" fill="#FFCB1F"/>
<path d="M27.8957 30.9452C27.8105 30.9305 28.0194 30.5489 28.0976 30.5359C28.0701 30.4772 27.9793 30.5667 27.9561 30.5906C27.864 30.6874 27.8673 30.8051 27.7812 30.8917C27.7319 30.8765 27.669 30.4875 27.6822 30.4213C27.7657 30.0141 28.6309 30.411 28.2668 30.7178C28.1626 30.8055 28.0072 30.8629 27.8951 30.9456L27.8957 30.9452Z" fill="#FFCB1F"/>
<path d="M27.7747 31.2228C27.8812 31.3755 27.8266 31.5397 27.8616 31.7029C27.9644 31.5398 27.8986 31.3772 27.8678 31.2074C28.2369 31.3754 28.4732 31.6978 27.9579 31.8807C27.4425 32.0636 27.5326 31.4523 27.7747 31.2228Z" fill="#FFCB1F"/>
<path d="M27.9251 31.1324C28.0783 31.0551 28.2426 31.1761 28.3996 31.1727C28.2887 31.0235 28.0842 31.0581 27.9309 31.0068C28.2179 30.7337 28.6993 30.6394 28.614 31.187C28.5398 31.6664 28.1013 31.3797 27.9255 31.133L27.9251 31.1324Z" fill="#FFCB1F"/>
<path d="M27.6691 32.8888C27.5839 32.8741 27.7928 32.4925 27.871 32.4795C27.8436 32.4208 27.7527 32.5103 27.7295 32.5342C27.6374 32.631 27.6407 32.7487 27.5547 32.8353C27.5053 32.8201 27.4425 32.4311 27.4556 32.3649C27.5391 31.9577 28.4043 32.3546 28.0403 32.6614C27.9361 32.7491 27.7807 32.8065 27.6685 32.8892L27.6691 32.8888Z" fill="#FFCB1F"/>
<path d="M27.5481 33.1664C27.6546 33.3191 27.6 33.4833 27.635 33.6465C27.7378 33.4834 27.672 33.3208 27.6412 33.151C28.0103 33.319 28.2467 33.6414 27.7313 33.8243C27.2159 34.0072 27.3061 33.3959 27.5481 33.1664Z" fill="#FFCB1F"/>
<path d="M27.6986 33.076C27.8517 32.9987 28.016 33.1197 28.173 33.1163C28.0621 32.9671 27.8576 33.0017 27.7044 32.9504C27.9913 32.6773 28.4727 32.583 28.3874 33.1306C28.3133 33.61 27.8747 33.3233 27.6989 33.0766L27.6986 33.076Z" fill="#FFCB1F"/>
<path d="M28.0363 34.5842C27.9517 34.6023 28.0031 34.1704 28.0708 34.1291C28.0234 34.0848 27.9725 34.2018 27.9599 34.2326C27.9106 34.3568 27.9576 34.4648 27.9101 34.5772C27.8587 34.5816 27.6551 34.2442 27.6426 34.1779C27.5681 33.769 28.5189 33.8141 28.2957 34.2346C28.2318 34.3549 28.109 34.4661 28.0359 34.5848L28.0363 34.5842Z" fill="#FFCB1F"/>
<path d="M28.0287 34.8862C28.1845 34.988 28.1952 35.1608 28.2886 35.2991C28.323 35.1094 28.2013 34.9831 28.1093 34.8371C28.5145 34.8552 28.8541 35.0659 28.4443 35.428C28.0345 35.7901 27.8899 35.1895 28.0287 34.8862Z" fill="#FFCB1F"/>
<path d="M28.1365 34.7459C28.2498 34.617 28.4473 34.6679 28.5917 34.6061C28.4331 34.5092 28.2564 34.6176 28.095 34.6272C28.2592 34.2667 28.6706 33.9995 28.7959 34.5393C28.9062 35.0118 28.3923 34.9096 28.1371 34.7463L28.1365 34.7459Z" fill="#FFCB1F"/>
<path d="M28.778 36.4771C28.7033 36.5206 28.6179 36.0941 28.6695 36.0338C28.6106 36.0065 28.5986 36.1334 28.5962 36.1666C28.5879 36.3 28.6661 36.388 28.6559 36.5097C28.6084 36.5298 28.3101 36.2723 28.2776 36.2132C28.0797 35.8476 28.9975 35.5952 28.916 36.0643C28.8926 36.1985 28.8105 36.3423 28.7778 36.4778L28.778 36.4771Z" fill="#FFCB1F"/>
<path d="M28.8665 36.7654C29.0462 36.8139 29.11 36.9747 29.2418 37.0772C29.2156 36.8862 29.0606 36.804 28.9278 36.6937C29.3186 36.5851 29.7068 36.6799 29.4298 37.1514C29.1527 37.6229 28.8287 37.0968 28.8665 36.7654Z" fill="#FFCB1F"/>
<path d="M28.9209 36.5996C28.9885 36.442 29.1921 36.4289 29.3101 36.3254C29.1293 36.2825 28.9949 36.4404 28.8445 36.4997C28.8886 36.106 29.1967 35.7242 29.4835 36.1985C29.735 36.6133 29.2148 36.6758 28.9216 36.5999L28.9209 36.5996Z" fill="#FFCB1F"/>
<path d="M31.8661 45.3186C31.8635 45.4764 31.1166 45.2073 31.0712 45.0699C30.9729 45.136 31.1599 45.2745 31.2096 45.3096C31.4101 45.4485 31.6214 45.4094 31.8017 45.5401C31.7883 45.6334 31.1047 45.8563 30.9816 45.8512C30.2239 45.8154 30.6957 44.1435 31.3514 44.7135C31.539 44.8766 31.6861 45.1407 31.8669 45.3196L31.8661 45.3186Z" fill="#FFCB1F"/>
<path d="M32.3977 45.4548C32.643 45.2198 32.9544 45.2719 33.2389 45.1628C32.9158 45.0235 32.6411 45.1879 32.3436 45.2913C32.5426 44.5784 33.0572 44.0614 33.5322 44.9392C34.0072 45.8169 32.8797 45.8266 32.3977 45.4548Z" fill="#FFCB1F"/>
<path d="M32.1926 45.2105C32.0101 44.9561 32.1818 44.6258 32.1315 44.3437C31.8938 44.5857 32.0138 44.9446 31.9644 45.2354C31.3911 44.7951 31.0855 43.9536 32.0969 43.9531C32.9822 43.9517 32.5889 44.8232 32.1936 45.2097L32.1926 45.2105Z" fill="#FFCB1F"/>
<path d="M35.2171 44.7384C35.2255 44.8851 34.5135 44.6865 34.4619 44.5621C34.3752 44.6302 34.5583 44.746 34.6069 44.7752C34.8026 44.8903 34.9961 44.8395 35.1726 44.9485C35.1665 45.036 34.547 45.29 34.4324 45.2937C33.7264 45.3126 34.0495 43.7277 34.6976 44.2119C34.883 44.3505 35.0378 44.5856 35.2179 44.7393L35.2171 44.7384Z" fill="#FFCB1F"/>
<path d="M35.7209 44.8281C35.9325 44.593 36.2253 44.6199 36.482 44.4991C36.1724 44.3919 35.9287 44.5634 35.6595 44.6799C35.7953 44.0043 36.2375 43.4888 36.739 44.2712C37.2404 45.0536 36.1941 45.1401 35.7209 44.8281Z" fill="#FFCB1F"/>
<path d="M35.5141 44.6156C35.3271 44.3919 35.4639 44.0734 35.3978 43.8149C35.1937 44.056 35.3298 44.381 35.3039 44.6545C34.7413 44.285 34.3996 43.5246 35.3388 43.4546C36.1607 43.3924 35.8555 44.2287 35.5149 44.6148L35.5141 44.6156Z" fill="#FFCB1F"/>
<path d="M38.4308 43.728C38.4918 43.8617 37.7563 43.9347 37.663 43.8374C37.6069 43.9323 37.8196 43.9739 37.8754 43.9835C38.0996 44.0198 38.2615 43.9023 38.4654 43.94C38.4915 44.0237 38.0062 44.485 37.9007 44.53C37.2495 44.8034 36.9763 43.2092 37.7558 43.4256C37.9788 43.4876 38.2083 43.6506 38.4319 43.7285L38.4308 43.728Z" fill="#FFCB1F"/>
<path d="M38.9341 43.6285C39.0462 43.3327 39.3288 43.2517 39.5242 43.0461C39.1968 43.0584 39.0318 43.3066 38.8232 43.5128C38.7049 42.8338 38.9303 42.1931 39.6812 42.7406C40.432 43.2881 39.4882 43.7479 38.9341 43.6285Z" fill="#FFCB1F"/>
<path d="M38.6623 43.5055C38.407 43.3648 38.419 43.0183 38.2637 42.8014C38.1609 43.1 38.4055 43.3536 38.4805 43.6179C37.8222 43.4774 37.2282 42.8925 38.0781 42.4869C38.8217 42.1311 38.8403 43.0212 38.6628 43.5044L38.6623 43.5055Z" fill="#FFCB1F"/>
<path d="M41.4577 41.785C41.5292 41.9134 40.8018 42.0449 40.7011 41.9554C40.6528 42.0545 40.8681 42.0789 40.9245 42.0841C41.1508 42.1024 41.3028 41.9723 41.5092 41.9935C41.5418 42.075 41.0949 42.5735 40.9934 42.6268C40.3661 42.9514 39.9664 41.3841 40.7606 41.5375C40.9879 41.5815 41.2297 41.7256 41.4588 41.7855L41.4577 41.785Z" fill="#FFCB1F"/>
<path d="M41.9506 41.6462C42.0386 41.3424 42.3139 41.2391 42.4922 41.0185C42.1669 41.0569 42.0223 41.3175 41.8307 41.5397C41.6586 40.8724 41.832 40.2157 42.6242 40.7014C43.4165 41.1871 42.5124 41.7209 41.9506 41.6462Z" fill="#FFCB1F"/>
<path d="M41.67 41.5448C41.4043 41.425 41.3886 41.0787 41.2165 40.8748C41.1378 41.1807 41.4019 41.414 41.4978 41.6714C40.8304 41.584 40.1915 41.0485 41.0063 40.5762C41.7191 40.1621 41.8087 41.0478 41.6704 41.5437L41.67 41.5448Z" fill="#FFCB1F"/>
<path d="M44.177 39.5792C44.2726 39.6908 43.5859 39.9644 43.4695 39.8967C43.4418 40.0034 43.6576 39.9845 43.7139 39.9783C43.9394 39.9512 44.0625 39.7935 44.2689 39.7733C44.3171 39.8466 43.9783 40.4241 43.8895 40.4965C43.3393 40.9394 42.6357 39.483 43.4447 39.4753C43.6761 39.4732 43.9417 39.5663 44.1782 39.5794L44.177 39.5792Z" fill="#FFCB1F"/>
<path d="M44.631 39.345C44.6569 39.0297 44.9061 38.8737 45.0369 38.622C44.7258 38.7244 44.6359 39.0086 44.4924 39.2644C44.1909 38.6447 44.2302 37.9666 45.1033 38.285C45.9763 38.6034 45.1965 39.3064 44.631 39.345Z" fill="#FFCB1F"/>
<path d="M44.3379 39.3018C44.0537 39.2372 43.9694 38.9009 43.7601 38.7354C43.7439 39.0508 44.0492 39.2269 44.1943 39.4601C43.5228 39.5071 42.7903 39.1095 43.4948 38.4845C44.1109 37.9369 44.375 38.7871 44.3381 39.3006L44.3379 39.3018Z" fill="#FFCB1F"/>
<path d="M46.4191 37.1945C46.492 37.2795 45.9685 37.4881 45.8797 37.4365C45.8586 37.5179 46.0231 37.5035 46.066 37.4988C46.2379 37.4781 46.3318 37.3579 46.4891 37.3424C46.5259 37.3983 46.2676 37.8386 46.1999 37.8938C45.7804 38.2315 45.2441 37.1211 45.8608 37.1153C46.0372 37.1136 46.2397 37.1847 46.42 37.1946L46.4191 37.1945Z" fill="#FFCB1F"/>
<path d="M46.7674 37.0156C46.7871 36.7753 46.9771 36.6563 47.0769 36.4645C46.8396 36.5425 46.7711 36.7592 46.6617 36.9542C46.4319 36.4818 46.4619 35.9649 47.1274 36.2076C47.793 36.4503 47.1985 36.9862 46.7674 37.0156Z" fill="#FFCB1F"/>
<path d="M46.5435 36.9827C46.3268 36.9335 46.2626 36.6771 46.1031 36.5509C46.0907 36.7914 46.3234 36.9256 46.434 37.1034C45.9221 37.1393 45.3637 36.8361 45.9008 36.3597C46.3705 35.9422 46.5718 36.5904 46.5437 36.9818L46.5435 36.9827Z" fill="#FFCB1F"/>
<path d="M47.8912 35.0182C47.9824 35.0833 47.5242 35.4114 47.4256 35.3826C47.4247 35.4666 47.581 35.4132 47.6215 35.3983C47.7834 35.337 47.8457 35.1978 47.9947 35.1451C48.0438 35.1905 47.8987 35.6799 47.8462 35.7497C47.52 36.1781 46.7329 35.2289 47.3302 35.0753C47.5011 35.0314 47.7147 35.0517 47.8921 35.0182L47.8912 35.0182Z" fill="#FFCB1F"/>
<path d="M48.1873 34.7609C48.1487 34.5229 48.3047 34.3618 48.3555 34.1516C48.1439 34.2843 48.1294 34.5111 48.0699 34.7266C47.7335 34.3231 47.6386 33.8141 48.3429 33.8901C49.0473 33.9661 48.5987 34.6289 48.1873 34.7609Z" fill="#FFCB1F"/>
<path d="M47.9587 34.7832C47.7365 34.7873 47.6127 34.5539 47.4275 34.4697C47.4732 34.7061 47.7313 34.7806 47.8814 34.9266C47.393 35.0842 46.7781 34.9239 47.1853 34.3326C47.5411 33.8146 47.892 34.3955 47.9586 34.7823L47.9587 34.7832Z" fill="#FFCB1F"/>
<path d="M49.1512 32.8517C49.2352 32.9117 48.8128 33.2142 48.7219 33.1877C48.721 33.2651 48.8651 33.2159 48.9025 33.2021C49.0518 33.1456 49.1092 33.0173 49.2466 32.9687C49.2918 33.0105 49.1581 33.4617 49.1096 33.5261C48.8089 33.9211 48.0833 33.0459 48.6339 32.9043C48.7915 32.8638 48.9885 32.8826 49.152 32.8517L49.1512 32.8517Z" fill="#FFCB1F"/>
<path d="M49.4204 32.6158C49.3849 32.3964 49.5286 32.2479 49.5755 32.0541C49.3804 32.1765 49.367 32.3855 49.3122 32.5842C49.002 32.2122 48.9146 31.743 49.5639 31.813C50.2133 31.8831 49.7997 32.4942 49.4204 32.6158Z" fill="#FFCB1F"/>
<path d="M49.2109 32.6355C49.006 32.6394 48.8919 32.4242 48.7212 32.3465C48.7633 32.5645 49.0012 32.6331 49.1396 32.7678C48.6894 32.9131 48.1225 32.7653 48.4978 32.2201C48.8259 31.7426 49.1494 32.2782 49.2108 32.6347L49.2109 32.6355Z" fill="#FFCB1F"/>
<path d="M46.9974 27.3037C46.8952 27.3187 46.9899 26.8079 47.0737 26.764C47.0207 26.7076 46.951 26.843 46.9336 26.8788C46.8652 27.023 46.9129 27.1553 46.8476 27.2856C46.7859 27.2868 46.5695 26.869 46.5597 26.789C46.5025 26.2959 47.6322 26.4233 47.3336 26.9072C47.2481 27.0456 47.0932 27.1686 46.9968 27.3043L46.9974 27.3037Z" fill="#FFCB1F"/>
<path d="M46.9658 27.6624C47.1435 27.7959 47.1429 28.0025 47.2435 28.1747C47.2993 27.9513 47.164 27.7913 47.0656 27.6101C47.5471 27.6631 47.9355 27.9406 47.4191 28.3404C46.9026 28.7402 46.7768 28.0131 46.9658 27.6624Z" fill="#FFCB1F"/>
<path d="M47.1023 27.5037C47.2472 27.3589 47.4787 27.4348 47.6555 27.3724C47.474 27.2446 47.255 27.3601 47.0619 27.359C47.2856 26.9421 47.7965 26.6556 47.9041 27.3086C47.9989 27.8802 47.3944 27.7186 47.1029 27.5043L47.1023 27.5037Z" fill="#FFCB1F"/>
<path d="M46.085 25.3417C46.0047 25.3731 45.9858 24.9393 46.0459 24.8878C45.9921 24.8517 45.9608 24.9751 45.9533 25.0075C45.9247 25.1379 45.9883 25.2367 45.9596 25.3551C45.9096 25.3676 45.6549 25.0679 45.6319 25.0046C45.4927 24.6137 46.4368 24.5054 46.2844 24.9556C46.2408 25.0844 46.1377 25.2137 46.0847 25.3423L46.085 25.3417Z" fill="#FFCB1F"/>
<path d="M46.1288 25.6396C46.2987 25.7149 46.337 25.8834 46.4513 26.0047C46.4547 25.8122 46.3145 25.7074 46.2003 25.5783C46.6024 25.531 46.9709 25.684 46.6253 26.1067C46.2798 26.5293 46.0408 25.9607 46.1288 25.6396Z" fill="#FFCB1F"/>
<path d="M46.2067 25.4847C46.2976 25.3395 46.5004 25.3578 46.6327 25.2738C46.4609 25.2038 46.3042 25.339 46.1467 25.3744C46.2506 24.9928 46.6129 24.6634 46.8232 25.1752C47.0077 25.6229 46.485 25.6048 46.2073 25.485L46.2067 25.4847Z" fill="#FFCB1F"/>
<path d="M45.0474 23.7379C44.9825 23.7815 44.8805 23.4015 44.9236 23.3441C44.8689 23.3229 44.8654 23.4381 44.8652 23.4683C44.8655 23.5892 44.9412 23.6641 44.9391 23.7745C44.8973 23.7954 44.6131 23.5804 44.5803 23.5289C44.3804 23.2105 45.1941 22.9291 45.1479 23.3572C45.1346 23.4797 45.0688 23.6144 45.0473 23.7386L45.0474 23.7379Z" fill="#FFCB1F"/>
<path d="M45.1455 23.9928C45.3106 24.026 45.3776 24.1675 45.5025 24.2523C45.4677 24.0814 45.323 24.0162 45.1967 23.9245C45.5431 23.8036 45.8991 23.8666 45.6765 24.3083C45.4539 24.7501 45.1307 24.2941 45.1455 23.9928Z" fill="#FFCB1F"/>
<path d="M45.1861 23.8402C45.238 23.6939 45.421 23.6703 45.5215 23.5699C45.3557 23.5417 45.2437 23.6922 45.1114 23.7544C45.1282 23.3965 45.384 23.0339 45.6706 23.4452C45.9218 23.805 45.4559 23.8918 45.1868 23.8403L45.1861 23.8402Z" fill="#FFCB1F"/>
<path d="M43.6057 22.5167C43.5604 22.5804 43.3305 22.2611 43.3505 22.1922C43.2918 22.1917 43.3294 22.3007 43.3398 22.329C43.3829 22.442 43.4802 22.4852 43.5173 22.5892C43.4857 22.6235 43.1437 22.523 43.0948 22.4865C42.7951 22.2595 43.4566 21.7082 43.5649 22.125C43.5959 22.2443 43.582 22.3935 43.6058 22.5173L43.6057 22.5167Z" fill="#FFCB1F"/>
<path d="M43.7836 22.7222C43.9498 22.6949 44.0625 22.8035 44.2094 22.8386C44.1163 22.6911 43.958 22.6813 43.8074 22.6402C44.0885 22.4046 44.4438 22.3374 44.392 22.8294C44.3401 23.3214 43.8765 23.0093 43.7836 22.7222Z" fill="#FFCB1F"/>
<path d="M43.7724 22.5634C43.7691 22.4082 43.9319 22.3213 43.9904 22.1919C43.8254 22.2242 43.7738 22.4046 43.6721 22.5096C43.5612 22.1689 43.6721 21.7392 44.0857 22.0225C44.448 22.2701 44.043 22.5161 43.773 22.5633L43.7724 22.5634Z" fill="#FFCB1F"/>
<path d="M42.1291 21.7755C42.0838 21.8392 41.854 21.5199 41.8739 21.451C41.8152 21.4505 41.8528 21.5595 41.8633 21.5878C41.9063 21.7007 42.0037 21.744 42.0407 21.848C42.0091 21.8823 41.6672 21.7818 41.6183 21.7453C41.3186 21.5182 41.98 20.967 42.0883 21.3838C42.1193 21.5031 42.1054 21.6523 42.1292 21.7761L42.1291 21.7755Z" fill="#FFCB1F"/>
<path d="M42.3071 21.9805C42.4732 21.9532 42.5859 22.0618 42.7328 22.0969C42.6398 21.9494 42.4814 21.9396 42.3308 21.8985C42.612 21.6629 42.9672 21.5957 42.9154 22.0877C42.8636 22.5797 42.3999 22.2676 42.3071 21.9805Z" fill="#FFCB1F"/>
<path d="M42.2958 21.8217C42.2925 21.6665 42.4553 21.5796 42.5138 21.4502C42.3488 21.4825 42.2973 21.6629 42.1955 21.7679C42.0846 21.4272 42.1955 20.9975 42.6091 21.2808C42.9714 21.5284 42.5664 21.7744 42.2965 21.8216L42.2958 21.8217Z" fill="#FFCB1F"/>
<path d="M30.3117 38.0302C30.2523 38.1131 29.9541 37.6956 29.9804 37.6058C29.9039 37.6048 29.9524 37.7472 29.9659 37.7842C30.0215 37.9317 30.1482 37.9885 30.1961 38.1243C30.1547 38.169 29.7092 38.0363 29.6457 37.9884C29.2559 37.6908 30.1212 36.9752 30.2604 37.5193C30.3002 37.675 30.2814 37.8695 30.3118 38.031L30.3117 38.0302Z" fill="#FFCB1F"/>
<path d="M30.5431 38.2982C30.7599 38.2634 30.9064 38.4056 31.0978 38.4521C30.9772 38.2592 30.7707 38.2457 30.5745 38.1914C30.9423 37.8855 31.4059 37.7996 31.3359 38.4409C31.2659 39.0822 30.6628 38.673 30.5431 38.2982Z" fill="#FFCB1F"/>
<path d="M30.5257 38.0929C30.5221 37.8906 30.7348 37.778 30.8118 37.6095C30.5964 37.6509 30.5283 37.8858 30.3952 38.0223C30.2522 37.5774 30.3989 37.0177 30.9369 37.3891C31.4082 37.7137 30.8788 38.0326 30.5265 38.0928L30.5257 38.0929Z" fill="#FFCB1F"/>
<path d="M32.3493 38.768C32.3391 38.8695 31.8726 38.6559 31.8507 38.565C31.7838 38.6023 31.8968 38.7016 31.9269 38.7269C32.0486 38.8271 32.1868 38.8133 32.296 38.9072C32.2823 38.9665 31.8299 39.0733 31.7509 39.0634C31.2648 38.9996 31.6587 37.9481 32.0503 38.3505C32.1624 38.4657 32.243 38.6437 32.3498 38.7687L32.3493 38.768Z" fill="#FFCB1F"/>
<path d="M32.6868 38.8839C32.8575 38.7458 33.0553 38.7961 33.2444 38.7411C33.0438 38.634 32.858 38.7251 32.6608 38.7757C32.8273 38.3272 33.1866 38.0219 33.4453 38.6128C33.7041 39.2038 32.9773 39.1493 32.6868 38.8839Z" fill="#FFCB1F"/>
<path d="M32.5637 38.7153C32.4598 38.5416 32.5882 38.3381 32.571 38.1537C32.4049 38.2968 32.4628 38.5344 32.4154 38.7191C32.0698 38.4046 31.9182 37.8461 32.5697 37.9002C33.14 37.947 32.8398 38.4872 32.5644 38.7148L32.5637 38.7153Z" fill="#FFCB1F"/>
<path d="M35.0631 38.4332C35.0878 38.5496 34.4936 38.4774 34.4371 38.3841C34.376 38.4491 34.5367 38.5196 34.5791 38.537C34.7498 38.6053 34.8985 38.5411 35.0531 38.6068C35.0589 38.6777 34.5939 38.9564 34.5026 38.9734C33.9396 39.0745 34.0053 37.7663 34.5831 38.075C34.7484 38.1634 34.901 38.3327 35.0639 38.4338L35.0631 38.4332Z" fill="#FFCB1F"/>
<path d="M35.4765 38.4443C35.6173 38.2303 35.855 38.2163 36.0457 38.0882C35.7848 38.0402 35.6106 38.2072 35.4092 38.3332C35.4357 37.7758 35.7269 37.3093 36.2237 37.8745C36.7204 38.4398 35.8933 38.6365 35.4765 38.4443Z" fill="#FFCB1F"/>
<path d="M35.287 38.2983C35.1101 38.142 35.1808 37.8704 35.0964 37.6715C34.9624 37.8893 35.1109 38.133 35.1235 38.355C34.6281 38.1277 34.262 37.5607 35.0053 37.3902C35.6557 37.2403 35.5132 37.947 35.2876 38.2975L35.287 38.2983Z" fill="#FFCB1F"/>
<path d="M37.8479 37.3212C37.8972 37.4295 37.3015 37.4879 37.2261 37.4091C37.1805 37.4859 37.3527 37.5197 37.3979 37.5276C37.5794 37.5572 37.7106 37.4622 37.8758 37.4929C37.8968 37.5607 37.5034 37.9338 37.4179 37.9701C36.8903 38.191 36.6705 36.8998 37.3015 37.0757C37.4821 37.1261 37.6678 37.2583 37.8488 37.3216L37.8479 37.3212Z" fill="#FFCB1F"/>
<path d="M38.2524 37.2416C38.3434 37.0022 38.5724 36.9368 38.7308 36.7705C38.4656 36.7802 38.3318 36.981 38.1627 37.1478C38.0675 36.5979 38.2506 36.0793 38.8581 36.5232C39.4657 36.9672 38.701 37.3387 38.2524 37.2416Z" fill="#FFCB1F"/>
<path d="M38.0362 37.1409C37.8296 37.0267 37.8396 36.7462 37.7141 36.5704C37.6305 36.8121 37.8284 37.0177 37.8889 37.2317C37.3559 37.1174 36.8755 36.6433 37.564 36.3156C38.1665 36.0281 38.1807 36.7489 38.0366 37.14L38.0362 37.1409Z" fill="#FFCB1F"/>
<path d="M40.08 35.6493C40.144 35.717 39.7176 35.9111 39.6418 35.8718C39.6275 35.9402 39.7636 35.9216 39.7991 35.916C39.941 35.892 40.0141 35.7884 40.1441 35.7693C40.1769 35.8142 39.98 36.1901 39.926 36.2387C39.5912 36.5358 39.1015 35.6353 39.6133 35.6058C39.7597 35.5974 39.9307 35.6483 40.0808 35.6493L40.08 35.6493Z" fill="#FFCB1F"/>
<path d="M40.3956 35.4625C40.4024 35.2622 40.5554 35.1558 40.6306 34.9925C40.4367 35.0668 40.3885 35.2494 40.3054 35.4158C40.0957 35.0326 40.0999 34.6022 40.6623 34.7772C41.2246 34.9521 40.7524 35.4209 40.3956 35.4625Z" fill="#FFCB1F"/>
<path d="M40.2087 35.4423C40.0268 35.41 39.9632 35.1998 39.8257 35.1014C39.8251 35.3015 40.0237 35.4037 40.1226 35.5469C39.699 35.5971 39.2232 35.3677 39.6501 34.9507C40.0235 34.5852 40.2165 35.1154 40.2088 35.4415L40.2087 35.4423Z" fill="#FFCB1F"/>
<path d="M19.9552 20.6449C20.0264 20.4791 20.1662 20.5847 20.291 20.5697C20.5314 20.5413 20.7844 20.4311 20.9478 20.2543C20.6563 20.3192 20.4668 20.5438 20.1286 20.507C20.0888 20.4102 20.1365 20.4291 20.1673 20.3908C20.2314 20.3107 20.5145 19.9946 20.5788 19.9673C20.7575 19.8929 21.2819 20.0439 21.3711 20.24L20.6468 20.6877C20.4221 20.7425 20.1685 20.7678 19.9557 20.6442L19.9552 20.6449Z" fill="#FFCB1F"/>
<path d="M19.9373 20.7387C20.1978 20.9625 19.9521 21.3788 20.0294 21.679C20.0996 21.6877 20.0798 21.5904 20.0837 21.5478C20.101 21.3722 20.1356 21.1613 20.1355 20.9912C20.1352 20.9385 20.0301 20.69 20.177 20.8016C20.3352 20.9222 20.3285 21.1195 20.3083 21.2951L20.1452 21.9936C19.9275 21.9718 19.6179 21.5345 19.6262 21.3259C19.6295 21.2457 19.8952 20.7475 19.9362 20.739L19.9373 20.7387Z" fill="#FFCB1F"/>
<path d="M19.4681 20.2751C19.4641 20.2424 19.4028 20.2254 19.4329 20.2073C19.7309 20.2026 20.0131 19.7725 20.2885 20.0088C20.3235 20.0991 19.7264 20.9014 19.6103 21.0266C19.2442 21.058 19.4968 20.5239 19.4681 20.2751ZM19.6438 20.7922C19.6798 20.6916 19.7286 20.5329 19.7864 20.4484C19.8609 20.3385 20.1068 20.2223 20.0338 20.0859C19.8758 20.2448 19.6779 20.4532 19.6046 20.665C19.5789 20.7388 19.5578 20.7529 19.6445 20.7927L19.6438 20.7922Z" fill="#FFCB1F"/>
<path d="M20.6276 21.3739L20.3712 21.2375L20.3332 20.8349C20.5909 20.8289 20.7965 20.5856 20.965 20.8896C20.8063 20.9975 20.6731 21.1902 20.6271 21.3746L20.6276 21.3739Z" fill="#FFCB1F"/>
<path d="M19.344 20.9969L19.6344 21.0962C19.5383 21.357 19.3335 21.5399 19.374 21.8413C19.0887 21.6384 19.1197 21.2343 19.344 20.9969Z" fill="#FFCB1F"/>
<path d="M20.142 19.8517C20.3199 19.5314 20.627 19.3672 20.9688 19.5527C20.6911 19.6376 20.5787 19.8241 20.4024 20.0342C20.3188 20.0759 20.3416 19.9455 20.2872 19.8993C20.2443 19.8632 20.1902 19.8699 20.1427 19.8522L20.142 19.8517Z" fill="#FFCB1F"/>
<path d="M24.9844 17.165C25.1488 17.0907 25.1807 17.2629 25.283 17.3361C25.4795 17.4773 25.7406 17.5667 25.9805 17.5464C25.7216 17.3976 25.4302 17.4355 25.2054 17.1802C25.2413 17.0819 25.2638 17.128 25.3124 17.1205C25.4137 17.1046 25.8359 17.0624 25.9018 17.0857C26.0839 17.1513 26.3691 17.6167 26.3025 17.8215L25.4659 17.6633C25.2632 17.5521 25.0589 17.3996 24.9852 17.1648L24.9844 17.165Z" fill="#FFCB1F"/>
<path d="M24.9126 17.2251C24.9539 17.566 24.4917 17.7075 24.3462 17.9812C24.3921 18.035 24.4431 17.9499 24.4748 17.9211C24.606 17.8031 24.7738 17.6708 24.8885 17.5452C24.9239 17.5061 25.014 17.2517 25.0471 17.4332C25.0825 17.629 24.9444 17.7702 24.811 17.886L24.2193 18.2915C24.0734 18.1285 24.14 17.5969 24.2868 17.4485C24.3433 17.3916 24.8756 17.2032 24.9116 17.2245L24.9126 17.2251Z" fill="#FFCB1F"/>
<path d="M24.8774 16.5656C24.8965 16.5387 24.8627 16.4848 24.8972 16.4918C25.1203 16.6894 25.6187 16.5624 25.6626 16.9226C25.6275 17.0129 24.6455 17.2021 24.4753 17.2161C24.1839 16.9923 24.7307 16.7685 24.8774 16.5656ZM24.6581 17.0657C24.7526 17.0158 24.8958 16.9316 24.9954 16.9082C25.1245 16.8774 25.3844 16.9575 25.4226 16.8077C25.1987 16.8182 24.9121 16.8386 24.7151 16.9454C24.6463 16.9826 24.6212 16.9787 24.6583 17.0665L24.6581 17.0657Z" fill="#FFCB1F"/>
<path d="M24.9939 18.1599L24.8966 17.8862L25.1403 17.5635C25.3345 17.733 25.6504 17.6921 25.5697 18.0302C25.3797 18.0028 25.1514 18.0551 24.993 18.1601L24.9939 18.1599Z" fill="#FFCB1F"/>
<path d="M24.3021 17.0163L24.4494 17.2856C24.2025 17.4132 23.9279 17.4101 23.7545 17.6598C23.6808 17.3175 23.9763 17.0403 24.3021 17.0163Z" fill="#FFCB1F"/>
<path d="M25.6607 16.71C26.0081 16.5935 26.3456 16.6796 26.4727 17.0471C26.2105 16.9224 26.0017 16.9842 25.7298 17.0203C25.6399 16.9946 25.7448 16.9138 25.7358 16.843C25.7285 16.7875 25.6841 16.7558 25.6609 16.7108L25.6607 16.71Z" fill="#FFCB1F"/>
<path d="M30.2737 18.8971C30.424 18.9969 30.2949 19.1154 30.2873 19.241C30.2719 19.4825 30.3348 19.7512 30.4794 19.9437C30.468 19.6453 30.2812 19.4185 30.3781 19.0924C30.4805 19.0707 30.4534 19.1143 30.4855 19.1515C30.5528 19.2289 30.8128 19.5642 30.828 19.6324C30.8691 19.8215 30.6262 20.3103 30.4173 20.3627L30.1071 19.5697C30.0937 19.3388 30.1145 19.0848 30.2743 18.8977L30.2737 18.8971Z" fill="#FFCB1F"/>
<path d="M30.1833 18.8673C29.9163 19.0833 29.5511 18.7667 29.2418 18.7888C29.2206 18.8563 29.3199 18.8543 29.3611 18.8658C29.5307 18.9143 29.732 18.9863 29.8993 19.0168C29.9512 19.026 30.2146 18.9673 30.0783 19.0917C29.9313 19.2257 29.7383 19.1836 29.5693 19.1321L28.9115 18.846C28.9722 18.6358 29.458 18.4099 29.6617 18.4556C29.74 18.4733 30.1823 18.8242 30.1833 18.8661L30.1833 18.8673Z" fill="#FFCB1F"/>
<path d="M30.7218 18.4879C30.7547 18.4899 30.7825 18.4326 30.7949 18.4655C30.7459 18.7595 31.1182 19.1144 30.8362 19.3429C30.7411 19.361 30.0593 18.6294 29.957 18.4926C29.992 18.1268 30.472 18.4714 30.7218 18.4879ZM30.1816 18.5677C30.274 18.6213 30.4214 18.6978 30.4941 18.7699C30.5888 18.8629 30.6589 19.1257 30.8062 19.0785C30.6784 18.8944 30.5089 18.6623 30.3138 18.5521C30.2458 18.5135 30.2357 18.4902 30.181 18.5683L30.1816 18.5677Z" fill="#FFCB1F"/>
<path d="M29.4306 19.4329L29.6109 19.2052L30.0138 19.2403C29.9733 19.4949 30.1757 19.7409 29.8463 19.852C29.7687 19.6765 29.6031 19.5108 29.43 19.4323L29.4306 19.4329Z" fill="#FFCB1F"/>
<path d="M30.035 18.2382L29.8851 18.506C29.6458 18.3646 29.5027 18.1302 29.199 18.1158C29.4499 17.8716 29.8417 17.9749 30.035 18.2382Z" fill="#FFCB1F"/>
<path d="M31.0186 19.2289C31.3017 19.4615 31.408 19.7932 31.1641 20.0959C31.1305 19.8076 30.9673 19.6634 30.7923 19.4522C30.7664 19.3624 30.8906 19.4084 30.9458 19.3632C30.989 19.3275 30.9922 19.2731 31.018 19.2295L31.0186 19.2289Z" fill="#FFCB1F"/>
<path d="M31.2244 25.2028C31.2629 25.3791 31.0878 25.3744 30.9949 25.4593C30.8159 25.6222 30.6742 25.859 30.6442 26.0978C30.8436 25.8755 30.867 25.5826 31.1635 25.4158C31.2522 25.4714 31.2024 25.4838 31.1996 25.5329C31.1941 25.6353 31.1477 26.057 31.1112 26.1167C31.0092 26.2811 30.4947 26.4633 30.3082 26.3557L30.6369 25.5702C30.7878 25.395 30.9794 25.2269 31.2244 25.2036L31.2244 25.2028Z" fill="#FFCB1F"/>
<path d="M31.1837 25.1176C30.8416 25.0871 30.7994 24.6055 30.5619 24.4063C30.4997 24.4401 30.5724 24.5077 30.594 24.5446C30.6821 24.6975 30.7766 24.8891 30.8756 25.0275C30.9066 25.0702 31.1366 25.2112 30.9522 25.2058C30.7534 25.1998 30.644 25.0354 30.5584 24.8808L30.2847 24.2177C30.4745 24.1089 30.9807 24.2845 31.0953 24.459C31.1392 24.5261 31.2129 25.0859 31.1845 25.1167L31.1837 25.1176Z" fill="#FFCB1F"/>
<path d="M31.8337 25.2229C31.856 25.2472 31.9158 25.2253 31.9018 25.2576C31.6621 25.4347 31.6827 25.9487 31.3212 25.9167C31.2402 25.8636 31.2593 24.8637 31.2809 24.6943C31.5605 24.4558 31.6657 25.0372 31.8337 25.2229ZM31.3901 24.9044C31.4192 25.0072 31.4719 25.1647 31.474 25.2671C31.4773 25.3998 31.3449 25.6374 31.4836 25.7059C31.5198 25.4847 31.5594 25.2 31.4959 24.9852C31.4738 24.9102 31.4829 24.8864 31.3892 24.9044L31.3901 24.9044Z" fill="#FFCB1F"/>
<path d="M30.254 25.0029L30.5419 24.9647L30.807 25.2701C30.6008 25.4249 30.5751 25.7423 30.2612 25.5931C30.3275 25.413 30.3238 25.1788 30.254 25.002L30.254 25.0029Z" fill="#FFCB1F"/>
<path d="M31.5141 24.5643L31.2201 24.6524C31.1466 24.3844 31.2067 24.1164 30.9985 23.8949C31.3486 23.894 31.5584 24.2407 31.5141 24.5643Z" fill="#FFCB1F"/>
<path d="M31.5298 25.9595C31.5715 26.3235 31.4172 26.6358 31.0312 26.6836C31.2077 26.4531 31.1907 26.236 31.2119 25.9625C31.2557 25.88 31.313 25.9994 31.3841 26.0053C31.44 26.0097 31.4801 25.9728 31.529 25.9595L31.5298 25.9595Z" fill="#FFCB1F"/>
<path d="M30.9026 32.0131C30.9885 32.1718 30.8189 32.2159 30.7532 32.3231C30.6264 32.5292 30.5558 32.7961 30.5931 33.0339C30.7231 32.765 30.6645 32.4771 30.9032 32.2346C31.0037 32.2635 30.9594 32.2892 30.9703 32.3372C30.9934 32.4371 31.0656 32.8552 31.0471 32.9226C30.9946 33.1089 30.5507 33.4265 30.3417 33.3747L30.4399 32.5289C30.5364 32.3188 30.6739 32.1042 30.9029 32.0139L30.9026 32.0131Z" fill="#FFCB1F"/>
<path d="M30.8371 31.9438C30.5 32.0092 30.326 31.5583 30.0425 31.4326C29.9922 31.4823 30.0808 31.5271 30.1117 31.5566C30.2388 31.6791 30.3827 31.8371 30.5161 31.9426C30.5577 31.9751 30.8178 32.0468 30.6391 32.0927C30.4464 32.142 30.2957 32.0143 30.1706 31.8895L29.724 31.3282C29.8762 31.171 30.4112 31.1996 30.5697 31.3355C30.6305 31.3878 30.8564 31.9053 30.8376 31.9427L30.8371 31.9438Z" fill="#FFCB1F"/>
<path d="M31.4937 31.8634C31.5219 31.8805 31.5732 31.843 31.5688 31.8779C31.3875 32.1145 31.5497 32.6026 31.1935 32.672C31.101 32.6434 30.8423 31.6774 30.8162 31.5086C31.0187 31.202 31.2808 31.7315 31.4937 31.8634ZM30.9792 31.6803C31.0357 31.771 31.13 31.9077 31.1603 32.0055C31.2003 32.1321 31.1388 32.397 31.2911 32.4244C31.2646 32.2019 31.2238 31.9174 31.1033 31.7285C31.0613 31.6626 31.0634 31.6372 30.9784 31.6805L30.9792 31.6803Z" fill="#FFCB1F"/>
<path d="M29.9116 32.091L30.1776 31.9745L30.5169 32.1946C30.3617 32.4004 30.4249 32.7125 30.082 32.6561C30.0958 32.4647 30.0274 32.2407 29.9113 32.0902L29.9116 32.091Z" fill="#FFCB1F"/>
<path d="M31.0043 31.3194L30.7462 31.4856C30.6013 31.2484 30.5849 30.9742 30.3235 30.819C30.6596 30.7212 30.9572 30.9962 31.0043 31.3194Z" fill="#FFCB1F"/>
<path d="M31.4074 32.6544C31.5482 32.9926 31.4864 33.3354 31.1289 33.4883C31.2346 33.2179 31.1581 33.014 31.1027 32.7454C31.1219 32.6539 31.21 32.7528 31.28 32.7388C31.3349 32.7275 31.3633 32.681 31.4066 32.6547L31.4074 32.6544Z" fill="#FFCB1F"/>
<path d="M37.4031 33.9073C37.5326 33.7817 37.6209 33.933 37.742 33.9672C37.9747 34.0335 38.2507 34.0292 38.4695 33.9289C38.1755 33.8766 37.9142 34.0109 37.6162 33.8468C37.6167 33.7422 37.6535 33.7779 37.6967 33.7544C37.7866 33.7051 38.1696 33.5224 38.2395 33.522C38.433 33.5221 38.8589 33.8634 38.8657 34.0787L38.0249 34.2131C37.7964 34.1771 37.5526 34.1028 37.4038 33.9068L37.4031 33.9073Z" fill="#FFCB1F"/>
<path d="M37.3531 33.9885C37.5074 34.2953 37.1203 34.5849 37.0761 34.8917C37.1376 34.9268 37.1567 34.8294 37.1768 34.7915C37.2603 34.6361 37.3734 34.4548 37.4388 34.2978C37.4589 34.249 37.4575 33.9792 37.5501 34.1388C37.6497 34.3109 37.5676 34.4905 37.4813 34.6447L37.0618 35.2266C36.8693 35.1227 36.752 34.5999 36.8399 34.4106C36.8738 34.3378 37.3108 33.9803 37.3519 33.9882L37.3531 33.9885Z" fill="#FFCB1F"/>
<path d="M37.0992 33.3795C37.1081 33.3477 37.058 33.3084 37.0929 33.3033C37.3697 33.4137 37.7957 33.1254 37.959 33.4495C37.9565 33.5464 37.0965 34.0569 36.9412 34.1278C36.5912 34.0158 37.0299 33.6201 37.0992 33.3795ZM37.0623 33.9243C37.1343 33.8454 37.2404 33.7176 37.3263 33.662C37.4373 33.5892 37.709 33.5766 37.6942 33.4227C37.4871 33.5084 37.2243 33.6246 37.0751 33.7918C37.023 33.8501 36.998 33.855 37.0627 33.925L37.0623 33.9243Z" fill="#FFCB1F"/>
<path d="M37.7451 34.8411L37.561 34.6165L37.681 34.2303C37.9211 34.324 38.2045 34.1786 38.243 34.5241C38.055 34.5626 37.8579 34.6891 37.7444 34.8416L37.7451 34.8411Z" fill="#FFCB1F"/>
<path d="M36.7069 33.9981L36.9368 34.2016C36.7476 34.4052 36.4882 34.4953 36.4095 34.789C36.2243 34.4918 36.4085 34.1309 36.7069 33.9981Z" fill="#FFCB1F"/>
<path d="M37.8836 33.2499C38.171 33.0227 38.5178 32.9894 38.7617 33.2922C38.4728 33.2637 38.2972 33.3925 38.0537 33.5186C37.9604 33.5248 38.0317 33.4132 37.9993 33.3497C37.9736 33.2999 37.9211 33.2852 37.8841 33.2506L37.8836 33.2499Z" fill="#FFCB1F"/>
<path d="M39.8431 30.4532C39.8547 30.2732 40.0218 30.3259 40.1344 30.2699C40.3514 30.1627 40.5529 29.9742 40.6477 29.7529C40.3947 29.9116 40.2914 30.1866 39.9603 30.2652C39.8905 30.1874 39.9417 30.1891 39.9579 30.1427C39.9915 30.0458 40.1524 29.6532 40.2039 29.606C40.3474 29.476 40.8921 29.4428 41.0417 29.5977L40.5092 30.2621C40.3158 30.3888 40.0852 30.4976 39.8434 30.4524L39.8431 30.4532Z" fill="#FFCB1F"/>
<path d="M39.8592 30.5465C40.1796 30.6701 40.0874 31.1446 40.2608 31.4016C40.3299 31.3863 40.2786 31.3013 40.268 31.2598C40.2255 31.0886 40.1875 30.8783 40.1305 30.718C40.1126 30.6684 39.9303 30.4695 40.1061 30.5255C40.2955 30.5861 40.3554 30.7743 40.395 30.9465L40.4752 31.6593C40.2627 31.7116 39.8246 31.4032 39.7626 31.2039C39.7388 31.1272 39.8224 30.5688 39.8582 30.5471L39.8592 30.5465Z" fill="#FFCB1F"/>
<path d="M39.2579 30.2669C39.2431 30.2374 39.1796 30.2419 39.202 30.2147C39.4813 30.1106 39.6031 29.6109 39.9418 29.7413C40.005 29.8147 39.7109 30.7705 39.6434 30.9274C39.3089 31.0796 39.3682 30.4917 39.2579 30.2669ZM39.5965 30.6953C39.5968 30.5885 39.5896 30.4226 39.6158 30.3236C39.6492 30.1951 39.842 30.0033 39.7276 29.8992C39.6318 30.1018 39.5152 30.3645 39.517 30.5885C39.5175 30.6667 39.5023 30.6871 39.5973 30.6956L39.5965 30.6953Z" fill="#FFCB1F"/>
<path d="M40.7201 30.9145L40.4328 30.8718L40.2623 30.5051C40.5031 30.4132 40.6154 30.1151 40.876 30.3452C40.7626 30.5 40.7015 30.7261 40.7199 30.9153L40.7201 30.9145Z" fill="#FFCB1F"/>
<path d="M39.3867 30.9876L39.6937 30.984C39.6904 31.2619 39.5587 31.5029 39.6977 31.7733C39.3609 31.6776 39.255 31.2865 39.3867 30.9876Z" fill="#FFCB1F"/>
<path d="M39.7547 29.6418C39.815 29.2804 40.0495 29.0228 40.4336 29.0833C40.2004 29.2561 40.1569 29.4695 40.0611 29.7265C39.9962 29.7938 39.9741 29.6633 39.9074 29.638C39.8549 29.6183 39.8061 29.6427 39.7555 29.642L39.7547 29.6418Z" fill="#FFCB1F"/>
<path d="M42.5504 31.3361C42.5195 31.5139 42.3591 31.4434 42.241 31.4869C42.0138 31.5701 41.7931 31.7358 41.675 31.9455C41.9436 31.8151 42.076 31.5528 42.4136 31.5104C42.4746 31.5953 42.4239 31.588 42.4028 31.6324C42.359 31.7252 42.1566 32.0981 42.1003 32.1395C41.9437 32.2532 41.3985 32.2274 41.2665 32.0573L41.8676 31.4543C42.0736 31.3491 42.3145 31.2659 42.5501 31.3369L42.5504 31.3361Z" fill="#FFCB1F"/>
<path d="M42.5411 31.2421C42.236 31.0846 42.3788 30.6228 42.2342 30.3486C42.1639 30.3564 42.2057 30.4464 42.2117 30.4888C42.2355 30.6636 42.2506 30.8768 42.2899 31.0423C42.3024 31.0935 42.4622 31.311 42.2934 31.2363C42.1117 31.1556 42.0725 30.962 42.0516 30.7866L42.0489 30.0693C42.2658 30.0402 42.668 30.3941 42.7082 30.599C42.7235 30.6777 42.5801 31.2239 42.5422 31.2416L42.5411 31.2421Z" fill="#FFCB1F"/>
<path d="M43.1019 31.5857C43.1133 31.6165 43.177 31.6189 43.1518 31.6435C42.8629 31.7169 42.6878 32.2005 42.3652 32.0343C42.3103 31.9545 42.7058 31.0361 42.7899 30.8874C43.1388 30.7722 43.0165 31.3502 43.1019 31.5857ZM42.8115 31.1231C42.7996 31.2294 42.7889 31.3951 42.7522 31.4906C42.7051 31.6147 42.4927 31.7846 42.5952 31.9005C42.7123 31.7094 42.8566 31.4608 42.879 31.2379C42.8869 31.1601 42.9042 31.1415 42.8107 31.1228L42.8115 31.1231Z" fill="#FFCB1F"/>
<path d="M41.7196 30.7831L42.0006 30.8566L42.1305 31.2395C41.8812 31.3049 41.7374 31.5891 41.5032 31.3323C41.6327 31.1906 41.7177 30.9723 41.7199 30.7823L41.7196 30.7831Z" fill="#FFCB1F"/>
<path d="M43.0538 30.8556L42.7483 30.8261C42.7815 30.5502 42.9385 30.3248 42.8295 30.041C43.154 30.1725 43.2171 30.5727 43.0538 30.8556Z" fill="#FFCB1F"/>
<path d="M42.5439 32.1526C42.4449 32.5053 42.184 32.7361 41.8086 32.6345C42.0591 32.4878 42.1254 32.2804 42.2483 32.0352C42.3201 31.9753 42.328 32.1075 42.3916 32.1398C42.4417 32.165 42.4928 32.1461 42.5431 32.1523L42.5439 32.1526Z" fill="#FFCB1F"/>
<path d="M41.9397 26.1885C42.0733 26.3098 41.928 26.4076 41.9017 26.5306C41.8504 26.7671 41.8725 27.0422 41.9866 27.2542C42.02 26.9574 41.8691 26.7053 42.0137 26.3973C42.1182 26.3911 42.0849 26.4302 42.1111 26.4717C42.166 26.5583 42.373 26.9287 42.3779 26.9985C42.3902 27.1916 42.077 27.6386 41.8626 27.6591L41.6745 26.8287C41.6957 26.5985 41.7542 26.3504 41.9402 26.1892L41.9397 26.1885Z" fill="#FFCB1F"/>
<path d="M41.8537 26.1445C41.5574 26.3182 41.2436 25.9506 40.9345 25.9262C40.9035 25.9897 41.0019 26.0026 41.0409 26.0201C41.2014 26.0935 41.3896 26.1947 41.5505 26.2499C41.6005 26.2668 41.8697 26.2481 41.7164 26.3507C41.551 26.4612 41.3664 26.3908 41.207 26.3146L40.5994 25.9334C40.6907 25.7346 41.2049 25.5839 41.3995 25.6595C41.4742 25.6887 41.8591 26.1018 41.8539 26.1433L41.8537 26.1445Z" fill="#FFCB1F"/>
<path d="M42.446 25.8519C42.4782 25.8587 42.5142 25.8062 42.5216 25.8406C42.4292 26.124 42.7442 26.5306 42.4313 26.7143C42.3345 26.7181 41.7698 25.8927 41.6891 25.7422C41.7783 25.3858 42.2014 25.7982 42.446 25.8519ZM41.8999 25.85C41.9833 25.9168 42.1176 26.0145 42.1787 26.0966C42.2584 26.2028 42.2884 26.4731 42.4411 26.4484C42.3422 26.2473 42.2094 25.9925 42.0329 25.8543C41.9714 25.806 41.965 25.7814 41.8992 25.8505L41.8999 25.85Z" fill="#FFCB1F"/>
<path d="M41.0299 26.592L41.2422 26.3938L41.6354 26.4887C41.5573 26.7344 41.7206 27.0078 41.3783 27.0685C41.3278 26.8833 41.1889 26.6947 41.0294 26.5913L41.0299 26.592Z" fill="#FFCB1F"/>
<path d="M41.8011 25.5021L41.6127 25.7446C41.3974 25.5689 41.2908 25.3158 40.9927 25.2562C41.2773 25.0523 41.6493 25.2129 41.8011 25.5021Z" fill="#FFCB1F"/>
<path d="M42.6264 26.6293C42.8716 26.9015 42.9271 27.2454 42.6406 27.5083C42.6506 27.2182 42.5107 27.0512 42.3693 26.8163C42.357 26.7236 42.473 26.7876 42.5343 26.7511C42.5823 26.7223 42.5936 26.669 42.6258 26.6298L42.6264 26.6293Z" fill="#FFCB1F"/>
<path d="M35.028 24.3125C35.1757 24.209 35.2391 24.3723 35.3532 24.4252C35.5725 24.5275 35.8457 24.5668 36.0776 24.5024C35.7956 24.4042 35.5163 24.4956 35.248 24.2864C35.265 24.1832 35.2957 24.2243 35.3421 24.2079C35.4387 24.1735 35.8457 24.0536 35.9148 24.0642C36.1058 24.0949 36.4725 24.4992 36.4451 24.7128L35.5937 24.7127C35.3738 24.6411 35.1448 24.5292 35.0288 24.3122L35.028 24.3125Z" fill="#FFCB1F"/>
<path d="M34.9671 24.3849C35.071 24.7122 34.6431 24.937 34.551 25.2331C34.6061 25.2774 34.6404 25.1842 34.6662 25.15C34.7731 25.0098 34.9135 24.8486 35.0029 24.7039C35.0304 24.6589 35.0717 24.3922 35.1379 24.5644C35.209 24.7502 35.0996 24.9146 34.99 25.0532L34.4839 25.5615C34.3103 25.4284 34.2769 24.8937 34.3937 24.7206C34.4387 24.6542 34.9267 24.3702 34.966 24.3845L34.9671 24.3849Z" fill="#FFCB1F"/>
<path d="M34.8118 23.7417C34.8256 23.7117 34.7823 23.665 34.8175 23.6655C35.0735 23.8182 35.5396 23.6008 35.6496 23.9467C35.6319 24.0419 34.7021 24.4102 34.5375 24.4556C34.2096 24.2898 34.7053 23.9683 34.8118 23.7417ZM34.6892 24.2738C34.7728 24.2073 34.8978 24.0979 34.9914 24.0565C35.1125 24.0022 35.3828 24.0327 35.3925 23.8783C35.1745 23.9302 34.8966 24.0035 34.7228 24.145C34.6622 24.1943 34.6367 24.1952 34.6895 24.2746L34.6892 24.2738Z" fill="#FFCB1F"/>
<path d="M35.2178 25.2884L35.0715 25.0376L35.251 24.6752C35.4733 24.8056 35.7761 24.7068 35.7595 25.054C35.5678 25.0623 35.3532 25.1561 35.217 25.2888L35.2178 25.2884Z" fill="#FFCB1F"/>
<path d="M34.3263 24.2918L34.5212 24.5291C34.3023 24.7003 34.0318 24.7482 33.9078 25.0258C33.7718 24.7032 34.0107 24.3759 34.3263 24.2918Z" fill="#FFCB1F"/>
<path d="M35.6083 23.7379C35.9281 23.559 36.2757 23.5809 36.4688 23.9185C36.188 23.8446 35.9943 23.9441 35.7338 24.0301C35.6408 24.0215 35.7288 23.9226 35.7068 23.8547C35.6893 23.8015 35.6398 23.7787 35.6087 23.7387L35.6083 23.7379Z" fill="#FFCB1F"/>
<path d="M25.0012 35.0298C24.9838 34.8502 25.1571 34.8755 25.2593 34.8022C25.4563 34.6617 25.625 34.4432 25.6831 34.2096C25.4588 34.4068 25.4009 34.6949 25.0867 34.8255C25.0053 34.7598 25.0562 34.7534 25.0647 34.705C25.0823 34.6039 25.1782 34.1906 25.2215 34.1357C25.3422 33.9845 25.8747 33.8643 26.0472 33.9933L25.628 34.7344C25.4574 34.8905 25.2473 35.0348 25.0013 35.029L25.0012 35.0298Z" fill="#FFCB1F"/>
<path d="M25.0338 35.1188C25.3698 35.1895 25.3549 35.6726 25.5672 35.8985C25.6329 35.8724 25.5687 35.7966 25.5516 35.7574C25.4822 35.5952 25.411 35.3937 25.3291 35.2447C25.3034 35.1985 25.0916 35.0314 25.2741 35.0585C25.4708 35.088 25.56 35.2642 25.6268 35.4278L25.8202 36.1185C25.6188 36.2042 25.1369 35.97 25.0437 35.7832C25.008 35.7113 25.001 35.1468 25.0328 35.1195L25.0338 35.1188Z" fill="#FFCB1F"/>
<path d="M24.3966 34.9382C24.3773 34.9115 24.3154 34.9262 24.3331 34.8957C24.592 34.7482 24.6322 34.2354 24.9874 34.3098C25.0616 34.3722 24.9245 35.3627 24.883 35.5284C24.5773 35.7322 24.5415 35.1425 24.3966 34.9382ZM24.7995 35.3069C24.7827 35.2014 24.749 35.0387 24.759 34.9369C24.7714 34.8047 24.9309 34.5844 24.8013 34.5C24.7392 34.7154 24.6662 34.9933 24.7039 35.2142C24.717 35.2913 24.7052 35.3139 24.8003 35.307L24.7995 35.3069Z" fill="#FFCB1F"/>
<path d="M25.9448 35.342L25.6544 35.3459L25.4273 35.0113C25.6503 34.882 25.7133 34.5698 26.0074 34.7551C25.9203 34.9261 25.8963 35.1591 25.9447 35.3428L25.9448 35.342Z" fill="#FFCB1F"/>
<path d="M24.6389 35.6297L24.9413 35.5769C24.9826 35.8517 24.8912 36.1107 25.0718 36.3553C24.724 36.3148 24.5567 35.9458 24.6389 35.6297Z" fill="#FFCB1F"/>
<path d="M24.7866 34.2417C24.7882 33.8753 24.9783 33.5835 25.3672 33.5815C25.1647 33.7896 25.156 34.0072 25.1026 34.2762C25.0494 34.353 25.0066 34.2277 24.9367 34.2134C24.8817 34.2025 24.8375 34.2343 24.7874 34.2417L24.7866 34.2417Z" fill="#FFCB1F"/>
<path d="M24.671 40.3669C24.5976 40.202 24.7701 40.1712 24.8439 40.0693C24.9863 39.8737 25.0773 39.6131 25.0585 39.3731C24.9081 39.6311 24.9442 39.9227 24.6875 40.146C24.5895 40.1095 24.6357 40.0872 24.6285 40.0386C24.6132 39.9372 24.5735 39.5148 24.5972 39.449C24.6639 39.2673 25.131 38.985 25.3354 39.0527L25.1722 39.8884C25.0597 40.0905 24.906 40.2938 24.6708 40.3661L24.671 40.3669Z" fill="#FFCB1F"/>
<path d="M24.7291 40.4397C25.0702 40.4005 25.2089 40.8635 25.4817 41.0107C25.5358 40.9651 25.4509 40.9135 25.4223 40.8817C25.3052 40.7498 25.1739 40.5812 25.049 40.4657C25.0101 40.4301 24.7563 40.3385 24.938 40.3065C25.1339 40.2722 25.2743 40.4112 25.3893 40.5453L25.7913 41.1394C25.6274 41.2844 25.0961 41.2146 24.9487 41.0668C24.8921 41.0099 24.7069 40.4766 24.7284 40.4407L24.7291 40.4397Z" fill="#FFCB1F"/>
<path d="M24.0724 40.4699C24.0457 40.4507 23.9916 40.4842 23.9988 40.4497C24.1978 40.2278 24.0737 39.7286 24.4342 39.6869C24.5243 39.7226 24.7075 40.7057 24.7206 40.876C24.495 41.1661 24.2745 40.6179 24.0724 40.4699ZM24.5713 40.6923C24.522 40.5975 24.4386 40.4538 24.4159 40.3541C24.3858 40.2247 24.4675 39.9653 24.3178 39.9262C24.3271 40.1502 24.3457 40.4369 24.4513 40.6346C24.4881 40.7036 24.484 40.7287 24.5721 40.6921L24.5713 40.6923Z" fill="#FFCB1F"/>
<path d="M25.6662 40.3644L25.3919 40.4599L25.0707 40.2143C25.2413 40.0211 25.2024 39.705 25.54 39.7878C25.5114 39.9776 25.5623 40.2062 25.6664 40.3652L25.6662 40.3644Z" fill="#FFCB1F"/>
<path d="M24.5225 41.0493L24.7927 40.9036C24.9187 41.1512 24.9139 41.4258 25.1626 41.6008C24.8199 41.6724 24.5445 41.3752 24.5225 41.0493Z" fill="#FFCB1F"/>
<path d="M24.2204 39.6863C24.1061 39.3383 24.1942 39.0013 24.5625 38.8765C24.4362 39.1379 24.4967 39.3471 24.5312 39.6191C24.505 39.7089 24.4248 39.6035 24.3539 39.6121C24.2983 39.6191 24.2665 39.6633 24.2213 39.6861L24.2204 39.6863Z" fill="#FFCB1F"/>
<path d="M33.8591 42.4923C34.0288 42.431 34.0472 42.6052 34.1435 42.686C34.3285 42.8421 34.5819 42.9514 34.8226 42.9499C34.576 42.7814 34.2826 42.7966 34.0782 42.5246C34.1217 42.4294 34.1406 42.4771 34.1896 42.4734C34.2918 42.4654 34.716 42.4561 34.7799 42.4844C34.9564 42.5639 35.2046 43.05 35.1224 43.2491L34.3005 43.0264C34.107 42.8998 33.9152 42.732 33.8599 42.4922L33.8591 42.4923Z" fill="#FFCB1F"/>
<path d="M33.7839 42.5462C33.7986 42.8892 33.3268 42.9944 33.1605 43.2561C33.2021 43.3132 33.2596 43.2323 33.2934 43.206C33.4333 43.0986 33.6109 42.9797 33.735 42.8634C33.7733 42.8271 33.8828 42.5805 33.9018 42.7641C33.9219 42.9619 33.7733 43.092 33.6313 43.1972L33.01 43.5556C32.8771 43.3817 32.9847 42.8569 33.1426 42.7203C33.2034 42.6679 33.7487 42.5214 33.7829 42.5455L33.7839 42.5462Z" fill="#FFCB1F"/>
<path d="M33.802 41.8855C33.8231 41.8602 33.7936 41.8038 33.8275 41.8134C34.0346 42.0278 34.5413 41.9398 34.5572 42.3023C34.5151 42.3896 33.5214 42.5021 33.3507 42.5029C33.0775 42.2571 33.64 42.0765 33.802 41.8855ZM33.5446 42.3671C33.6427 42.3247 33.7919 42.2518 33.8931 42.2363C34.0242 42.2156 34.2771 42.3156 34.3268 42.1691C34.1028 42.1623 33.8154 42.1604 33.6107 42.2516C33.5393 42.2833 33.5145 42.2775 33.5447 42.368L33.5446 42.3671Z" fill="#FFCB1F"/>
<path d="M33.7935 43.4841L33.7179 43.2037L33.9858 42.9008C34.1663 43.0848 34.4844 43.0686 34.3777 43.3994C34.1904 43.3573 33.9588 43.3918 33.7927 43.4842L33.7935 43.4841Z" fill="#FFCB1F"/>
<path d="M33.1912 42.2903L33.3172 42.5702C33.0611 42.6783 32.7876 42.6538 32.5953 42.8894C32.5484 42.5424 32.8646 42.2889 33.1912 42.2903Z" fill="#FFCB1F"/>
<path d="M34.5721 42.0901C34.9275 42.001 35.2573 42.113 35.3555 42.4893C35.1038 42.3446 34.8908 42.39 34.6169 42.4049C34.5293 42.3724 34.6402 42.2999 34.6367 42.2286C34.6337 42.1727 34.5919 42.1377 34.5723 42.091L34.5721 42.0901Z" fill="#FFCB1F"/>
<path d="M38.7218 40.4998C38.8453 40.3682 38.9406 40.5152 39.0631 40.5437C39.2987 40.5991 39.5741 40.5819 39.7881 40.4714C39.4919 40.4329 39.2372 40.5793 38.9318 40.4293C38.9274 40.3248 38.9659 40.3588 39.0079 40.3333C39.0954 40.2799 39.4694 40.0794 39.5392 40.0758C39.7325 40.0668 40.1739 40.3878 40.1908 40.6025L39.3572 40.7761C39.1273 40.7509 38.8803 40.688 38.7224 40.4993L38.7218 40.4998Z" fill="#FFCB1F"/>
<path d="M38.6763 40.5831C38.8447 40.8823 38.4717 41.1897 38.4419 41.4983C38.5049 41.5305 38.5195 41.4322 38.5377 41.3935C38.6138 41.2344 38.7183 41.048 38.7764 40.8881C38.7941 40.8384 38.7801 40.5689 38.88 40.724C38.9876 40.8913 38.914 41.0746 38.835 41.2326L38.4433 41.8335C38.2461 41.7387 38.1044 41.222 38.1834 41.0287C38.2138 40.9545 38.6336 40.5769 38.6751 40.5829L38.6763 40.5831Z" fill="#FFCB1F"/>
<path d="M38.3918 39.9862C38.3992 39.9541 38.3473 39.9172 38.3819 39.9104C38.6636 40.0077 39.0756 39.6998 39.2539 40.0159C39.2559 40.1128 38.4208 40.663 38.269 40.741C37.9141 40.6456 38.3338 40.2298 38.3918 39.9862ZM38.3804 40.5322C38.4486 40.4499 38.5487 40.3174 38.6318 40.2577C38.7394 40.1799 39.0102 40.1545 38.9881 40.0014C38.7853 40.0968 38.5282 40.2252 38.387 40.3992C38.3377 40.4598 38.313 40.4659 38.3809 40.5329L38.3804 40.5322Z" fill="#FFCB1F"/>
<path d="M39.1093 41.4155L38.9148 41.1997L39.0166 40.8083C39.2608 40.8907 39.5371 40.7322 39.5917 41.0754C39.4057 41.1227 39.2148 41.2584 39.1086 41.416L39.1093 41.4155Z" fill="#FFCB1F"/>
<path d="M38.0331 40.6223L38.2723 40.8148C38.0929 41.0271 37.8379 41.1292 37.7731 41.4262C37.5742 41.1381 37.7413 40.7689 38.0331 40.6223Z" fill="#FFCB1F"/>
<path d="M39.1756 39.8187C39.452 39.5783 39.7968 39.5288 40.0547 39.8198C39.7648 39.8048 39.5954 39.9418 39.358 40.0791C39.2652 40.0897 39.3312 39.9749 39.2958 39.9129C39.2678 39.8644 39.2147 39.8521 39.176 39.8194L39.1756 39.8187Z" fill="#FFCB1F"/>
<path d="M42.963 37.2313C43.0499 37.0731 43.1788 37.1918 43.3045 37.1889C43.5465 37.1839 43.809 37.0987 43.9887 36.9385C43.6923 36.9749 43.482 37.1801 43.1489 37.1108C43.1187 37.0106 43.1644 37.034 43.1987 36.9988C43.2702 36.9253 43.5826 36.6382 43.6493 36.6172C43.8343 36.5604 44.3417 36.7615 44.4114 36.9653L43.6472 37.3408C43.4183 37.3736 43.1634 37.3742 42.9636 37.2306L42.963 37.2313Z" fill="#FFCB1F"/>
<path d="M42.9403 37.3228C43.1779 37.5707 42.8931 37.9612 42.941 38.2675C43.01 38.283 42.9997 38.1842 43.0078 38.1422C43.0419 37.9691 43.0967 37.7626 43.1132 37.5933C43.1179 37.5407 43.0373 37.2832 43.1727 37.4085C43.3186 37.5438 43.2928 37.7396 43.2557 37.9124L43.0258 38.5919C42.8112 38.5491 42.5454 38.0839 42.5738 37.877C42.5848 37.7976 42.8975 37.3274 42.9391 37.3229L42.9403 37.3228Z" fill="#FFCB1F"/>
<path d="M42.5194 36.8149C42.5186 36.782 42.4592 36.7591 42.491 36.744C42.788 36.7682 43.1105 36.3674 43.3618 36.6292C43.3878 36.7225 42.7159 37.4632 42.5883 37.5766C42.2208 37.5725 42.5239 37.0653 42.5194 36.8149ZM42.6442 37.3466C42.6899 37.2499 42.7538 37.0967 42.8195 37.0182C42.9043 36.916 43.1602 36.8241 43.1008 36.6813C42.9281 36.8241 42.711 37.0125 42.6176 37.2161C42.5849 37.2871 42.5624 37.2991 42.6449 37.3471L42.6442 37.3466Z" fill="#FFCB1F"/>
<path d="M43.5675 38.0226L43.3254 37.862L43.3266 37.4576C43.5837 37.4766 43.8119 37.2544 43.9502 37.5732C43.7818 37.6653 43.6306 37.8442 43.5669 38.0232L43.5675 38.0226Z" fill="#FFCB1F"/>
<path d="M42.3284 37.5225L42.6079 37.6495C42.487 37.8997 42.2655 38.062 42.2766 38.3659C42.0123 38.1363 42.0823 37.7372 42.3284 37.5225Z" fill="#FFCB1F"/>
<path d="M43.2342 36.46C43.4421 36.1584 43.7638 36.0247 44.0859 36.2424C43.8014 36.3 43.6714 36.4748 43.4757 36.6668C43.3884 36.7002 43.4237 36.5726 43.374 36.5214C43.3348 36.4814 43.2804 36.4827 43.2348 36.4606L43.2342 36.46Z" fill="#FFCB1F"/>
<path d="M45.7653 33.6198C45.8102 33.4451 45.9646 33.528 46.0856 33.4939C46.3188 33.429 46.5519 33.2812 46.6861 33.0814C46.408 33.1902 46.2553 33.4413 45.9155 33.4569C45.8613 33.3674 45.9113 33.3787 45.9359 33.3361C45.9869 33.2471 46.218 32.8913 46.2774 32.8545C46.4425 32.7535 46.984 32.8222 47.1022 33.0022L46.4553 33.5559C46.2417 33.6445 45.995 33.7085 45.7657 33.6191L45.7653 33.6198Z" fill="#FFCB1F"/>
<path d="M45.7661 33.7147C46.0579 33.8958 45.879 34.3449 46.0016 34.6296C46.0723 34.6275 46.0378 34.5344 46.0351 34.4917C46.0251 34.3155 46.0269 34.1018 46.0007 33.9338C45.9923 33.8817 45.8502 33.6523 46.0125 33.74C46.1874 33.8348 46.2112 34.0309 46.2181 34.2074L46.1643 34.9227C45.9458 34.9346 45.5727 34.5501 45.5488 34.3427C45.5398 34.263 45.7258 33.7298 45.765 33.7151L45.7661 33.7147Z" fill="#FFCB1F"/>
<path d="M45.2337 33.3281C45.2247 33.2964 45.1615 33.2891 45.1885 33.2665C45.4823 33.2161 45.695 32.7478 46.0035 32.9389C46.0519 33.0228 45.5852 33.9072 45.4897 34.0488C45.1328 34.1361 45.3003 33.5695 45.2337 33.3281ZM45.4867 33.8121C45.5069 33.7071 45.5307 33.5428 45.5749 33.4505C45.6316 33.3304 45.8567 33.1778 45.7637 33.0542C45.6319 33.2355 45.4684 33.4719 45.4285 33.6924C45.4145 33.7693 45.3957 33.7865 45.4875 33.8125L45.4867 33.8121Z" fill="#FFCB1F"/>
<path d="M46.5473 34.2359L46.273 34.1405L46.1737 33.7485C46.4274 33.703 46.5931 33.431 46.8064 33.7055C46.6661 33.8365 46.5641 34.0474 46.547 34.2367L46.5473 34.2359Z" fill="#FFCB1F"/>
<path d="M45.2218 34.0604L45.5241 34.1139C45.4692 34.3863 45.2949 34.5986 45.3812 34.8902C45.0681 34.7335 45.0367 34.3295 45.2218 34.0604Z" fill="#FFCB1F"/>
<path d="M45.8345 32.8063C45.961 32.4624 46.2393 32.253 46.6055 32.3838C46.3442 32.5103 46.2617 32.7119 46.1198 32.9466C46.0436 33.0006 46.0461 32.8682 45.9853 32.831C45.9373 32.8019 45.8849 32.8168 45.8353 32.8066L45.8345 32.8063Z" fill="#FFCB1F"/>
<path d="M48.7444 24.9833C48.8453 25.1329 48.6809 25.1933 48.626 25.3065C48.5198 25.5239 48.4756 25.7964 48.5359 26.0294C48.6391 25.7492 48.5527 25.4683 48.7666 25.2037C48.8695 25.2226 48.8278 25.2526 48.8434 25.2992C48.8761 25.3964 48.9888 25.8055 48.9769 25.8744C48.9429 26.0649 48.5321 26.4243 48.319 26.3931L48.3342 25.5418C48.4097 25.3233 48.5257 25.0963 48.7447 24.9841L48.7444 24.9833Z" fill="#FFCB1F"/>
<path d="M48.6712 24.9215C48.3421 25.0195 48.1249 24.5877 47.8306 24.4903C47.7853 24.5447 47.8778 24.5806 47.9116 24.607C48.0499 24.7164 48.2086 24.8596 48.3516 24.9516C48.3962 24.9799 48.6621 25.0259 48.4887 25.089C48.3017 25.1569 48.1393 25.0445 48.0026 24.9325L47.5034 24.4175C47.6395 24.2462 48.1748 24.2224 48.3457 24.3422C48.4114 24.3883 48.6867 24.8813 48.6717 24.9204L48.6712 24.9215Z" fill="#FFCB1F"/>
<path d="M49.31 24.7769C49.3396 24.7912 49.3871 24.7488 49.386 24.7839C49.2287 25.0371 49.4378 25.5071 49.0901 25.6109C48.9952 25.5915 48.6435 24.6553 48.601 24.4899C48.7726 24.165 49.0852 24.6664 49.31 24.7769ZM48.78 24.6448C48.8451 24.7296 48.9523 24.8565 48.992 24.9508C49.0441 25.0729 49.0089 25.3426 49.163 25.355C49.115 25.1361 49.0466 24.857 48.9082 24.6808C48.86 24.6192 48.8596 24.5938 48.7792 24.6452L48.78 24.6448Z" fill="#FFCB1F"/>
<path d="M47.7597 25.1595L48.0132 25.0176L48.3723 25.2035C48.2379 25.4235 48.3313 25.728 47.9845 25.7053C47.9796 25.5134 47.8896 25.2972 47.7594 25.1587L47.7597 25.1595Z" fill="#FFCB1F"/>
<path d="M48.7729 24.2845L48.5322 24.4751C48.3649 24.2532 48.3218 23.9819 48.0464 23.853C48.3715 23.7228 48.6945 23.9675 48.7729 24.2845Z" fill="#FFCB1F"/>
<path d="M49.3051 25.5738C49.4783 25.8967 49.4503 26.2439 49.1094 26.4309C49.1882 26.1515 49.0921 25.956 49.0108 25.6941C49.021 25.6012 49.1184 25.691 49.1866 25.6702C49.2402 25.6537 49.2638 25.6046 49.3044 25.5742L49.3051 25.5738Z" fill="#FFCB1F"/>
<path d="M44.8622 21.0795C45.0361 21.1277 44.9502 21.2804 44.9819 21.4021C45.0424 21.6365 45.1856 21.8724 45.3828 22.0105C45.2793 21.7304 45.0313 21.5728 45.0222 21.2327C45.1127 21.1803 45.1005 21.2301 45.1426 21.2555C45.2306 21.3082 45.5818 21.5462 45.6175 21.6063C45.7153 21.7733 45.6362 22.3133 45.4539 22.428L44.9128 21.7706C44.8284 21.5553 44.7692 21.3074 44.863 21.0799L44.8622 21.0795Z" fill="#FFCB1F"/>
<path d="M44.7662 21.0784C44.5795 21.3667 44.134 21.1792 43.8469 21.2962C43.8477 21.3669 43.9415 21.3342 43.9842 21.3324C44.1605 21.3258 44.3742 21.3317 44.5427 21.3088C44.5949 21.3014 44.827 21.1638 44.7362 21.3244C44.638 21.4973 44.4415 21.5173 44.2649 21.5209L43.5507 21.4532C43.5431 21.2345 43.9348 20.8689 44.1426 20.8491C44.2225 20.8416 44.7519 21.0378 44.7659 21.0773L44.7662 21.0784Z" fill="#FFCB1F"/>
<path d="M45.1634 20.5505C45.1952 20.5421 45.2038 20.479 45.2258 20.5065C45.2705 20.8012 45.7346 21.0229 45.5376 21.3276C45.4528 21.3745 44.5775 20.8907 44.4378 20.7925C44.3574 20.4339 44.9207 20.6124 45.1634 20.5505ZM44.6746 20.7941C44.7791 20.8163 44.943 20.8433 45.0344 20.8892C45.1533 20.9483 45.3016 21.1763 45.4269 21.0856C45.2482 20.9503 45.0151 20.7824 44.7954 20.7382C44.7188 20.7227 44.7019 20.7036 44.6742 20.7948L44.6746 20.7941Z" fill="#FFCB1F"/>
<path d="M44.2315 21.8492L44.3321 21.5767L44.726 21.485C44.7666 21.7395 45.0353 21.9105 44.7568 22.1184C44.6285 21.9757 44.4196 21.8696 44.2307 21.8488L44.2315 21.8492Z" fill="#FFCB1F"/>
<path d="M44.4335 20.5267L44.3742 20.828C44.1028 20.7678 43.894 20.5894 43.6008 20.6701C43.7635 20.3601 44.168 20.3365 44.4335 20.5267Z" fill="#FFCB1F"/>
<path d="M45.6745 21.1641C46.0159 21.2972 46.2199 21.5795 46.082 21.9431C45.9606 21.6794 45.7607 21.5931 45.5288 21.4467C45.4762 21.3694 45.6085 21.3745 45.6469 21.3144C45.6769 21.267 45.6631 21.2143 45.6742 21.1649L45.6745 21.1641Z" fill="#FFCB1F"/>
</g>
<g filter="url(#filter2_f_708_6557)">
<circle cx="37" cy="24.0002" r="15" fill="white" fill-opacity="0.5"/>
</g>
<g filter="url(#filter3_f_708_6557)">
<circle cx="40" cy="20.0002" r="6" fill="white" fill-opacity="0.5"/>
</g>
<g filter="url(#filter4_i_708_6557)">
<path d="M31.6863 41.4482C30.5023 41.4482 29.5743 40.4882 29.5743 39.3362C29.5743 38.1842 30.5023 37.2882 31.6863 37.2882C32.9343 37.2882 33.8303 38.1842 33.8303 39.3362C33.8303 40.4882 32.9343 41.4482 31.6863 41.4482ZM38.6943 24.3282C38.6943 26.8242 37.6703 28.2002 35.3983 29.1922L34.0223 29.8322C32.5183 30.5682 32.1663 30.8882 32.1343 31.9442L32.1663 33.9922H31.2703L30.9183 32.6802C30.6302 31.5282 30.4383 30.9202 30.4383 30.2802C30.4383 29.0962 31.1423 28.3922 33.0623 27.5282L34.7583 26.8882C36.6783 25.8962 37.2863 25.1282 37.2863 23.5922C37.2863 21.8322 36.2303 20.5842 33.9263 19.2402L37.4143 21.3202L31.1743 20.4242C29.5423 20.2002 29.0623 19.5282 29.0623 18.6322C29.0623 17.6722 29.6063 17.1922 30.5663 16.9362C34.1823 17.7362 38.6943 20.0402 38.6943 24.3282Z" fill="#FFCB1F"/>
</g>
<defs>
<filter id="filter0_di_708_6557" x="0" y="0.000244141" width="66" height="66" filterUnits="userSpaceOnUse" color-interpolation-filters="sRGB">
<feFlood flood-opacity="0" result="BackgroundImageFix"/>
<feColorMatrix in="SourceAlpha" type="matrix" values="0 0 0 0 0 0 0 0 0 0 0 0 0 0 0 0 0 0 127 0" result="hardAlpha"/>
<feOffset dy="4"/>
<feGaussianBlur stdDeviation="2"/>
<feComposite in2="hardAlpha" operator="out"/>
<feColorMatrix type="matrix" values="0 0 0 0 0 0 0 0 0 0 0 0 0 0 0 0 0 0 0.25 0"/>
<feBlend mode="normal" in2="BackgroundImageFix" result="effect1_dropShadow_708_6557"/>
<feBlend mode="normal" in="SourceGraphic" in2="effect1_dropShadow_708_6557" result="shape"/>
<feColorMatrix in="SourceAlpha" type="matrix" values="0 0 0 0 0 0 0 0 0 0 0 0 0 0 0 0 0 0 127 0" result="hardAlpha"/>
<feOffset dy="1"/>
<feGaussianBlur stdDeviation="1"/>
<feComposite in2="hardAlpha" operator="arithmetic" k2="-1" k3="1"/>
<feColorMatrix type="matrix" values="0 0 0 0 0 0 0 0 0 0 0 0 0 0 0 0 0 0 0.25 0"/>
<feBlend mode="normal" in2="shape" result="effect2_innerShadow_708_6557"/>
</filter>
<filter id="filter1_i_708_6557" x="14.0469" y="14.2063" width="37.0625" height="32.4109" filterUnits="userSpaceOnUse" color-interpolation-filters="sRGB">
<feFlood flood-opacity="0" result="BackgroundImageFix"/>
<feBlend mode="normal" in="SourceGraphic" in2="BackgroundImageFix" result="shape"/>
<feColorMatrix in="SourceAlpha" type="matrix" values="0 0 0 0 0 0 0 0 0 0 0 0 0 0 0 0 0 0 127 0" result="hardAlpha"/>
<feOffset/>
<feGaussianBlur stdDeviation="0.5"/>
<feComposite in2="hardAlpha" operator="arithmetic" k2="-1" k3="1"/>
<feColorMatrix type="matrix" values="0 0 0 0 1 0 0 0 0 0.567393 0 0 0 0 0.00167643 0 0 0 1 0"/>
<feBlend mode="normal" in2="shape" result="effect1_innerShadow_708_6557"/>
</filter>
<filter id="filter2_f_708_6557" x="18" y="5.00024" width="38" height="38" filterUnits="userSpaceOnUse" color-interpolation-filters="sRGB">
<feFlood flood-opacity="0" result="BackgroundImageFix"/>
<feBlend mode="normal" in="SourceGraphic" in2="BackgroundImageFix" result="shape"/>
<feGaussianBlur stdDeviation="2" result="effect1_foregroundBlur_708_6557"/>
</filter>
<filter id="filter3_f_708_6557" x="32" y="12.0002" width="16" height="16" filterUnits="userSpaceOnUse" color-interpolation-filters="sRGB">
<feFlood flood-opacity="0" result="BackgroundImageFix"/>
<feBlend mode="normal" in="SourceGraphic" in2="BackgroundImageFix" result="shape"/>
<feGaussianBlur stdDeviation="1" result="effect1_foregroundBlur_708_6557"/>
</filter>
<filter id="filter4_i_708_6557" x="29.0625" y="16.9363" width="9.63281" height="25.512" filterUnits="userSpaceOnUse" color-interpolation-filters="sRGB">
<feFlood flood-opacity="0" result="BackgroundImageFix"/>
<feBlend mode="normal" in="SourceGraphic" in2="BackgroundImageFix" result="shape"/>
<feColorMatrix in="SourceAlpha" type="matrix" values="0 0 0 0 0 0 0 0 0 0 0 0 0 0 0 0 0 0 127 0" result="hardAlpha"/>
<feOffset dy="1"/>
<feGaussianBlur stdDeviation="2"/>
<feComposite in2="hardAlpha" operator="arithmetic" k2="-1" k3="1"/>
<feColorMatrix type="matrix" values="0 0 0 0 0 0 0 0 0 0 0 0 0 0 0 0 0 0 0.25 0"/>
<feBlend mode="normal" in2="shape" result="effect1_innerShadow_708_6557"/>
</filter>
<linearGradient id="paint0_linear_708_6557" x1="33" y1="0.000244141" x2="33" y2="58.0002" gradientUnits="userSpaceOnUse">
<stop offset="0.635" stop-color="#FFC300"/>
<stop offset="1" stop-color="#C69800"/>
</linearGradient>
<linearGradient id="paint1_linear_708_6557" x1="64.8194" y1="61.491" x2="37.1306" y2="-11.8285" gradientUnits="userSpaceOnUse">
<stop stop-color="#CBA118"/>
<stop offset="0.333333" stop-color="#FFCB1F"/>
<stop offset="0.465" stop-color="white"/>
<stop offset="0.635" stop-color="#FFB300"/>
<stop offset="1" stop-color="#FFB300"/>
</linearGradient>
</defs>
</svg>
