<svg width="324" height="327" viewBox="0 0 324 327" fill="none" xmlns="http://www.w3.org/2000/svg">
<g filter="url(#filter0_d_570_1774)">
<path d="M180.772 39.5016L180.83 39.6185L180.835 39.628L180.952 39.8669L180.82 40.0978L180.237 41.1139L180.072 41.401L179.743 41.3614C178.386 41.1981 176.956 41.2131 175.495 41.2366L175.305 41.2396C173.919 41.2622 172.506 41.2853 171.163 41.1487M180.772 39.5016L170.044 40.0642L169.549 39.9965C169.509 40.2835 169.541 40.5835 169.734 40.8233C169.922 41.0582 170.184 41.1329 170.372 41.1588C170.559 41.1848 170.752 41.1724 170.887 41.1627L170.935 41.1592C171.064 41.1498 171.124 41.1454 171.163 41.1487M180.772 39.5016L180.665 39.4276M180.772 39.5016L180.665 39.4276M171.163 41.1487C171.162 41.1486 171.161 41.1485 171.16 41.1484L171.211 40.6514L171.164 41.1488C171.164 41.1488 171.163 41.1487 171.163 41.1487ZM180.665 39.4276C180.377 39.2293 180.045 39.1574 179.747 39.1334C179.448 39.1094 179.138 39.1304 178.867 39.1531C178.812 39.1578 178.758 39.1625 178.706 39.167C178.491 39.1858 178.308 39.2019 178.141 39.2021C177.926 39.2024 177.84 39.1729 177.817 39.1589L177.815 39.1579M180.665 39.4276L177.815 39.1579M177.815 39.1579C177.772 39.1324 177.725 39.0843 177.648 38.9275M177.815 39.1579L177.648 38.9275M177.648 38.9275C177.634 38.8972 177.616 38.8575 177.595 38.8114M177.648 38.9275L177.595 38.8114M177.595 38.8114C177.531 38.6699 177.441 38.4687 177.332 38.3003M177.595 38.8114L177.332 38.3003M177.332 38.3003C177.168 38.0439 176.932 37.7948 176.559 37.6135M177.332 38.3003L176.559 37.6135M176.559 37.6135C176.196 37.4371 175.734 37.3396 175.137 37.3282L176.559 37.6135ZM153.821 39.7563L153.824 39.7548C154.073 39.639 154.29 39.4505 154.476 39.2694C154.578 39.1713 154.697 39.0475 154.816 38.9235C154.904 38.8325 154.992 38.7413 155.073 38.66C155.493 38.2383 155.987 37.8064 156.677 37.5121C157.193 37.2932 158.018 37.0907 159.11 36.9132C160.193 36.7371 161.505 36.5905 162.978 36.4721C165.921 36.2354 169.478 36.1132 173.058 36.0889C176.638 36.0646 180.234 36.1383 183.256 36.2923C186.291 36.4469 188.708 36.6809 189.952 36.9681C194.142 37.9367 198.222 40.265 202.189 42.9606C203.917 44.1341 205.613 45.3703 207.285 46.5884C207.531 46.7678 207.776 46.9469 208.022 47.1252C209.927 48.5119 211.801 49.8589 213.632 51.0274L213.633 51.0276C215.948 52.502 218.463 53.7802 220.973 55.0561L220.982 55.0604C223.498 56.3388 226.01 57.6157 228.364 59.1006L228.365 59.1007C304.641 107.153 307.11 218.823 232.225 269.905C163.684 316.654 68.8093 285.536 41.4962 207.111C16.0337 133.99 62.3157 55.1027 138.199 41.5004L138.2 41.5003C139.309 41.3003 142.434 41.01 145.619 40.7142C145.92 40.6863 146.221 40.6583 146.52 40.6304C148.249 40.4693 149.932 40.3097 151.236 40.1659C151.888 40.0941 152.45 40.0257 152.878 39.9625C153.092 39.931 153.277 39.9 153.426 39.8696C153.56 39.8422 153.71 39.807 153.821 39.7563ZM172.428 38.9197C172.428 38.9199 172.427 38.9201 172.427 38.9203L172.642 39.3716L172.428 38.9196C172.428 38.9196 172.428 38.9197 172.428 38.9197ZM151.136 48.4075L150.747 48.6636L150.675 48.2492C93.4392 58.1804 52.3043 109.201 54.8032 167.616C57.9052 240.176 129.068 289.737 197.907 262.338C267.661 234.579 284.855 142.07 230.035 91.0322C227.592 88.7549 223.357 85.2009 218.982 81.9653C214.625 78.7433 210.061 75.7863 206.978 74.7603L206.978 74.7602C206.231 74.5122 205.18 74.3625 204.004 74.266C202.819 74.1687 201.469 74.1229 200.107 74.0964C199.287 74.0805 198.466 74.0715 197.672 74.0628C195.804 74.0423 194.085 74.0235 192.892 73.9202C192.392 73.8769 191.863 73.8345 191.315 73.7905C188.039 73.5275 184.061 73.2083 181.306 72.3158C179.968 71.8825 177.818 70.723 175.251 69.1177C172.698 67.5213 169.773 65.5103 166.899 63.406C164.026 61.3019 161.21 59.1082 158.875 57.1475C156.531 55.1795 154.699 53.4687 153.77 52.3257C153.276 51.7158 152.908 51.0962 152.525 50.4519L152.494 50.3999C152.104 49.7442 151.695 49.0619 151.136 48.4075ZM163.726 57.0329L163.544 57.569L164.098 57.6838C164.797 57.8285 165.131 58.075 165.315 58.3212C165.511 58.5828 165.596 58.917 165.657 59.3614C165.67 59.4539 165.681 59.5531 165.692 59.6573C165.782 60.459 165.905 61.5553 167.046 62.1788C167.439 62.3952 167.8 62.5017 168.141 62.5265C168.482 62.5512 168.774 62.4924 169.023 62.417C169.145 62.3799 169.259 62.3379 169.359 62.3007L169.388 62.2901C169.48 62.256 169.557 62.2271 169.634 62.2023C169.8 62.1491 169.918 62.13 170.03 62.1417C170.087 62.1485 170.22 62.2045 170.458 62.3725C170.566 62.449 170.679 62.536 170.8 62.6305L170.844 62.6647C170.95 62.7471 171.062 62.8344 171.172 62.9154C171.405 63.0868 171.711 63.2942 172.027 63.3614C172.2 63.3982 172.409 63.4002 172.615 63.3043C172.821 63.2081 172.964 63.0421 173.061 62.8573L173.062 62.8552C173.194 62.5979 173.239 62.3315 173.182 62.0695C173.129 61.819 172.993 61.624 172.862 61.4796C172.731 61.3364 172.579 61.2164 172.457 61.1233C172.424 61.0981 172.394 61.0752 172.366 61.0539C172.277 60.9873 172.211 60.9375 172.154 60.8862C171.751 60.5234 170.013 59.1783 168.346 57.9616C167.508 57.3503 166.675 56.7624 166.025 56.3387C165.701 56.1279 165.412 55.9509 165.185 55.8315C165.074 55.7728 164.961 55.7195 164.859 55.6843C164.808 55.667 164.743 55.648 164.671 55.6393C164.613 55.6323 164.473 55.6217 164.327 55.6976L164.15 55.7902L164.085 55.9798L163.726 57.0329Z" stroke="url(#paint0_linear_570_1774)"/>
<path d="M212.699 76.2852C211.031 73.9936 211.666 71.7098 213.41 69.6526C213.882 70.7009 214.571 71.1028 215.684 71.0753C214.261 72.6897 213.003 74.4201 213.165 76.6538L212.699 76.2852Z" fill="url(#paint1_linear_570_1774)"/>
<path d="M220.583 74.1081C220.558 74.035 220.75 73.2478 220.795 73.2383C222.824 73.3837 223.52 76.0414 225.303 75.6742L223.442 74.1995L225.15 72.5225L227.011 73.9973C227.546 72.8914 225.348 72.4447 225.334 72.2899L226.255 70.1716C227.235 70.13 227.611 72.0261 228.617 71.4827C227.908 70.1027 225.978 70.0051 225.253 68.8171C224.893 68.2291 224.953 67.6178 225.644 67.635C226.3 67.6477 228.871 70.139 229.315 70.8693C229.894 71.8207 230.65 75.8957 229.758 76.5526C229.182 76.9828 225.769 77.2473 224.936 77.1028C223.56 76.8608 220.985 75.4265 220.574 74.1007L220.583 74.1081Z" fill="url(#paint2_linear_570_1774)"/>
<path d="M218.27 67.8222C218.968 66.4059 220.082 67.2658 221.249 67.1221C222.92 66.9159 224.645 65.5792 226.32 65.3006L226.137 64.595C224.035 65.5273 221.794 67.0464 219.377 66.4346C221.335 64.3273 222.492 62.245 225.644 63.1138C227.281 63.5623 228.13 64.212 229.193 65.5087C225.463 66.7269 222.4 70.2765 218.267 67.8269L218.27 67.8222Z" fill="url(#paint3_linear_570_1774)"/>
<path d="M217.904 68.2873C220.102 70.1499 217.795 72.995 218.192 75.3324C218.685 75.4275 218.573 74.7178 218.646 74.4346C219.127 72.7097 219.518 70.8684 219.16 69.0927C219.442 68.536 219.701 68.8778 219.993 69.2075C221.873 71.3181 218.862 75.5676 219.248 78.0626C217.459 77.5008 215.367 74.9878 215.367 73.1242C215.365 71.7214 217.088 69.451 217.904 68.2873Z" fill="url(#paint4_linear_570_1774)"/>
<path d="M220.841 63.0916C221.016 63.5784 216.79 68.9406 216.059 69.6718C212.518 73.2135 214.772 65.3879 214.368 64.1585C215.889 64.4091 220.023 60.8071 220.841 63.0916ZM214.943 68.2121C215.983 68.5818 215.573 67.5221 215.974 66.9306C216.793 65.7242 217.718 64.5099 219.087 63.9287C218.588 63.3441 218.588 63.7076 218.143 63.9155C216.455 64.6985 215.419 66.4835 214.935 68.2131L214.943 68.2121Z" fill="url(#paint5_linear_570_1774)"/>
<path d="M220.554 69.2441L224.271 68.4627L225.428 70.0613C225.406 70.3469 224.189 70.9358 223.859 71.3333C222.829 72.5471 223.536 74.3036 221.112 72.6785L220.557 69.2395L220.554 69.2441Z" fill="url(#paint6_linear_570_1774)"/>
<path d="M221.405 63.8669C221.189 62.696 221.045 61.9605 219.684 61.7462C221.207 59.7104 223.709 58.1865 226.023 59.9595C223.903 60.6574 222.657 62.0864 221.41 63.8706L221.405 63.8669Z" fill="url(#paint7_linear_570_1774)"/>
<path d="M259.546 136.261C259.758 133.435 261.721 132.106 264.382 131.667C264.063 132.771 264.328 133.524 265.193 134.223C263.064 134.532 260.985 135.037 259.662 136.843L259.546 136.261Z" fill="url(#paint8_linear_570_1774)"/>
<path d="M266.963 139.706C266.991 139.634 267.647 139.159 267.688 139.181C269.139 140.605 267.949 143.081 269.546 143.956L269.082 141.627L271.469 141.455L271.933 143.784C273.057 143.288 271.671 141.523 271.76 141.397L273.834 140.379C274.608 140.981 273.666 142.67 274.785 142.907C275.138 141.396 273.73 140.072 273.947 138.698C274.054 138.017 274.495 137.59 275.011 138.05C275.503 138.485 275.849 142.048 275.714 142.892C275.54 143.992 273.477 147.586 272.372 147.51C271.655 147.465 268.882 145.456 268.341 144.807C267.449 143.732 266.416 140.971 266.961 139.695L266.963 139.706Z" fill="url(#paint9_linear_570_1774)"/>
<path d="M269.269 133.418C270.717 132.791 271.01 134.167 271.992 134.813C273.398 135.738 275.579 135.836 277.036 136.709L277.353 136.052C275.147 135.402 272.456 135.108 271.011 133.078C273.867 132.739 276.097 131.902 277.937 134.605C278.894 136.006 279.12 137.051 279.09 138.727C275.459 137.241 270.827 137.963 269.263 133.419L269.269 133.418Z" fill="url(#paint10_linear_570_1774)"/>
<path d="M268.689 133.534C269.158 136.376 265.557 137.051 264.347 139.089C264.661 139.481 265.035 138.868 265.274 138.699C266.757 137.696 268.247 136.545 269.124 134.961C269.7 134.719 269.676 135.147 269.685 135.587C269.751 138.413 264.705 139.702 263.384 141.854C262.384 140.267 262.417 136.998 263.623 135.577C264.53 134.507 267.313 133.892 268.689 133.534Z" fill="url(#paint11_linear_570_1774)"/>
<path d="M274.288 131.475C274.106 131.959 267.413 133.309 266.383 133.393C261.391 133.8 268.176 129.296 268.664 128.097C269.661 129.273 275.143 129.204 274.288 131.475ZM266.478 131.559C267.031 132.514 267.405 131.441 268.093 131.249C269.498 130.86 270.989 130.534 272.409 130.977C272.407 130.209 272.172 130.486 271.698 130.356C269.905 129.86 267.96 130.549 266.471 131.554L266.478 131.559Z" fill="url(#paint12_linear_570_1774)"/>
<path d="M270.09 135.979L273.428 137.791L273.275 139.758C273.074 139.962 271.765 139.623 271.256 139.712C269.686 139.97 269.087 141.766 268.292 138.958L270.096 135.978L270.09 135.979Z" fill="url(#paint13_linear_570_1774)"/>
<path d="M274.22 132.433C274.814 131.401 275.18 130.747 274.282 129.703C276.76 129.137 279.654 129.596 280.27 132.446C278.201 131.604 276.327 131.887 274.221 132.439L274.22 132.433Z" fill="url(#paint14_linear_570_1774)"/>
<path d="M259.526 199.328C261.287 197.107 263.657 197.108 266.106 198.236C265.223 198.972 265.02 199.744 265.344 200.808C263.408 199.869 261.404 199.121 259.295 199.875L259.526 199.328Z" fill="url(#paint15_linear_570_1774)"/>
<path d="M263.734 206.34C263.797 206.296 264.607 206.27 264.629 206.312C265.032 208.305 262.658 209.688 263.489 211.307L264.412 209.119L266.484 210.315L265.562 212.503C266.771 212.723 266.613 210.485 266.758 210.43L269.046 210.75C269.348 211.683 267.622 212.553 268.415 213.377C269.555 212.324 269.132 210.439 270.082 209.422C270.552 208.918 271.157 208.812 271.326 209.482C271.49 210.118 269.778 213.262 269.193 213.885C268.432 214.698 264.708 216.518 263.836 215.835C263.267 215.395 262.098 212.177 262.015 211.337C261.879 209.946 262.571 207.081 263.738 206.329L263.734 206.34Z" fill="url(#paint16_linear_570_1774)"/>
<path d="M269.172 202.428C270.723 202.721 270.193 204.024 270.644 205.11C271.29 206.664 273.041 207.969 273.758 209.508L274.388 209.143C272.927 207.367 270.863 205.614 270.805 203.123C273.36 204.444 275.676 205.002 275.683 208.271C275.69 209.968 275.291 210.96 274.326 212.331C272.154 209.064 267.914 207.064 269.167 202.425L269.172 202.428Z" fill="url(#paint17_linear_570_1774)"/>
<path d="M268.626 202.197C267.42 204.814 264.061 203.353 261.916 204.362C261.956 204.862 262.61 204.564 262.902 204.559C264.693 204.56 266.572 204.443 268.187 203.623C268.799 203.745 268.539 204.087 268.299 204.456C266.769 206.833 261.869 205.07 259.568 206.11C259.63 204.236 261.491 201.548 263.287 201.048C264.638 200.671 267.287 201.723 268.626 202.197Z" fill="url(#paint18_linear_570_1774)"/>
<path d="M274.416 203.634C273.994 203.932 267.696 201.297 266.796 200.789C262.435 198.326 270.578 198.402 271.655 197.683C271.82 199.215 276.398 202.233 274.416 203.634ZM267.903 199.323C267.826 200.424 268.737 199.745 269.414 199.972C270.796 200.439 272.213 201.004 273.14 202.168C273.57 201.531 273.219 201.628 272.9 201.255C271.693 199.838 269.696 199.318 267.9 199.315L267.903 199.323Z" fill="url(#paint19_linear_570_1774)"/>
<path d="M268.414 205.007L270.163 208.379L268.932 209.922C268.651 209.978 267.758 208.964 267.287 208.752C265.841 208.085 264.338 209.236 265.255 206.465L268.42 205.01L268.414 205.007Z" fill="url(#paint20_linear_570_1774)"/>
<path d="M273.823 204.388C274.893 203.866 275.563 203.53 275.405 202.162C277.774 203.084 279.913 205.087 278.824 207.791C277.584 205.935 275.873 205.117 273.82 204.394L273.823 204.388Z" fill="url(#paint21_linear_570_1774)"/>
<path d="M225.114 248.101C227.767 247.103 229.799 248.324 231.317 250.553C230.181 250.729 229.61 251.286 229.34 252.365C228.163 250.564 226.831 248.89 224.635 248.451L225.114 248.101Z" fill="url(#paint22_linear_570_1774)"/>
<path d="M225.112 256.279C225.189 256.274 225.897 256.668 225.894 256.715C225.213 258.631 222.466 258.594 222.345 260.411L224.262 259.01L225.423 261.102L223.506 262.503C224.429 263.314 225.445 261.314 225.598 261.342L227.394 262.794C227.173 263.75 225.246 263.607 225.501 264.721C227.02 264.406 227.629 262.572 228.967 262.189C229.63 261.999 230.203 262.22 230.002 262.882C229.815 263.511 226.729 265.325 225.906 265.558C224.835 265.862 220.706 265.504 220.311 264.47C220.049 263.8 220.704 260.44 221.065 259.676C221.665 258.414 223.734 256.315 225.122 256.272L225.112 256.279Z" fill="url(#paint23_linear_570_1774)"/>
<path d="M231.787 255.724C232.966 256.775 231.841 257.619 231.668 258.782C231.422 260.447 232.25 262.467 232.072 264.155L232.801 264.167C232.463 261.892 231.596 259.327 232.83 257.161C234.339 259.61 236.038 261.28 234.36 264.087C233.492 265.545 232.639 266.189 231.106 266.868C230.926 262.949 228.321 259.051 231.784 255.72L231.787 255.724Z" fill="url(#paint24_linear_570_1774)"/>
<path d="M231.436 255.246C229.055 256.867 226.928 253.885 224.569 253.645C224.346 254.095 225.06 254.176 225.313 254.322C226.848 255.245 228.518 256.113 230.325 256.241C230.786 256.661 230.388 256.82 229.992 257.013C227.457 258.263 224.164 254.228 221.656 253.935C222.674 252.361 225.654 251.015 227.45 251.511C228.803 251.883 230.532 254.149 231.436 255.246Z" fill="url(#paint25_linear_570_1774)"/>
<path d="M235.661 259.459C235.145 259.498 231.104 253.996 230.594 253.097C228.124 248.74 235.065 252.998 236.358 252.936C235.711 254.335 238.081 259.28 235.661 259.459ZM232.298 252.41C231.664 253.314 232.795 253.201 233.258 253.745C234.203 254.856 235.127 256.071 235.322 257.546C236.018 257.221 235.668 257.124 235.586 256.64C235.281 254.804 233.837 253.33 232.299 252.402L232.298 252.41Z" fill="url(#paint26_linear_570_1774)"/>
<path d="M229.806 257.545L229.568 261.336L227.719 262.025C227.449 261.928 227.206 260.599 226.911 260.175C226.015 258.858 224.134 259.071 226.347 257.168L229.809 257.55L229.806 257.545Z" fill="url(#paint27_linear_570_1774)"/>
<path d="M234.762 259.8C235.948 259.904 236.695 259.961 237.264 258.707C238.821 260.716 239.623 263.535 237.297 265.293C237.19 263.062 236.144 261.481 234.757 259.803L234.762 259.8Z" fill="url(#paint28_linear_570_1774)"/>
<path d="M163.463 269.93C166.243 270.485 167.323 272.595 167.435 275.29C166.377 274.839 165.598 275.01 164.798 275.784C164.751 273.632 164.503 271.508 162.871 269.974L163.463 269.93Z" fill="url(#paint29_linear_570_1774)"/>
<path d="M159.139 276.872C159.207 276.909 159.599 277.618 159.572 277.656C157.982 278.923 155.669 277.441 154.606 278.919L156.974 278.742L156.855 281.132L154.487 281.309C154.842 282.485 156.762 281.324 156.877 281.428L157.635 283.61C156.942 284.305 155.381 283.165 155.009 284.247C156.466 284.781 157.951 283.545 159.29 283.927C159.952 284.116 160.322 284.606 159.803 285.062C159.311 285.497 155.733 285.407 154.911 285.171C153.841 284.863 150.524 282.378 150.735 281.291C150.867 280.585 153.198 278.077 153.908 277.619C155.084 276.865 157.949 276.175 159.15 276.871L159.139 276.872Z" fill="url(#paint30_linear_570_1774)"/>
<path d="M165.1 279.928C165.547 281.443 164.145 281.565 163.384 282.461C162.295 283.745 161.932 285.897 160.889 287.237L161.502 287.632C162.416 285.522 163.035 282.886 165.226 281.699C165.215 284.575 165.774 286.891 162.868 288.387C161.36 289.167 160.296 289.264 158.635 289.03C160.553 285.607 160.4 280.922 165.1 279.922L165.1 279.928Z" fill="url(#paint31_linear_570_1774)"/>
<path d="M165.057 279.336C162.179 279.456 161.948 275.8 160.072 274.35C159.645 274.614 160.208 275.06 160.346 275.318C161.162 276.912 162.122 278.531 163.588 279.595C163.758 280.195 163.335 280.119 162.898 280.075C160.085 279.796 159.42 274.631 157.445 273.058C159.142 272.258 162.383 272.689 163.646 274.06C164.598 275.09 164.869 277.927 165.057 279.336Z" fill="url(#paint32_linear_570_1774)"/>
<path d="M166.417 285.146C165.958 284.907 165.433 278.1 165.475 277.067C165.679 272.063 169.324 279.345 170.454 279.975C169.166 280.822 168.566 286.272 166.417 285.146ZM167.285 277.384C166.269 277.817 167.289 278.318 167.395 279.025C167.61 280.467 167.753 281.987 167.139 283.342C167.902 283.434 167.656 283.167 167.843 282.712C168.554 280.992 168.106 278.978 167.29 277.378L167.285 277.384Z" fill="url(#paint33_linear_570_1774)"/>
<path d="M162.458 280.429L160.254 283.522L158.32 283.13C158.142 282.905 158.638 281.648 158.611 281.132C158.546 279.541 156.837 278.728 159.72 278.281L162.459 280.434L162.458 280.429Z" fill="url(#paint34_linear_570_1774)"/>
<path d="M165.476 284.961C166.428 285.676 167.032 286.119 168.178 285.355C168.438 287.883 167.63 290.7 164.727 290.964C165.813 289.013 165.761 287.118 165.47 284.961L165.476 284.961Z" fill="url(#paint35_linear_570_1774)"/>
<path d="M88.0252 241.128C89.4333 243.589 88.552 245.789 86.594 247.644C86.2392 246.55 85.5983 246.075 84.4895 245.981C86.0804 244.532 87.5195 242.949 87.603 240.711L88.0252 241.128Z" fill="url(#paint36_linear_570_1774)"/>
<path d="M79.9516 242.431C79.9688 242.506 79.692 243.268 79.6459 243.272C77.6455 242.906 77.2434 240.188 75.4309 240.358L77.1198 242.028L75.2394 243.508L73.5505 241.839C72.8975 242.879 75.034 243.564 75.0307 243.719L73.8838 245.724C72.9053 245.658 72.7387 243.732 71.6792 244.163C72.2334 245.612 74.141 245.92 74.7319 247.18C75.0252 247.804 74.8986 248.405 74.2138 248.312C73.5626 248.228 71.2796 245.47 70.9183 244.696C70.4464 243.687 70.141 239.554 71.0991 238.998C71.7182 238.634 75.1402 238.744 75.9518 238.978C77.2932 239.369 79.696 241.076 79.96 242.439L79.9516 242.431Z" fill="url(#paint37_linear_570_1774)"/>
<path d="M81.5648 248.932C80.7162 250.264 79.703 249.287 78.5277 249.302C76.8445 249.325 74.983 250.465 73.2876 250.559L73.3926 251.28C75.584 250.583 77.9779 249.318 80.3128 250.19C78.1367 252.071 76.7585 254.014 73.7205 252.806C72.1427 252.182 71.3701 251.443 70.4551 250.038C74.2958 249.235 77.7278 246.041 81.569 248.928L81.5648 248.932Z" fill="url(#paint38_linear_570_1774)"/>
<path d="M81.9825 248.51C80.0015 246.418 82.6059 243.842 82.4662 241.476C81.9867 241.327 82.0203 242.045 81.917 242.318C81.2508 243.981 80.6609 245.768 80.8226 247.572C80.4814 248.095 80.261 247.727 80.007 247.367C78.369 245.064 81.8263 241.169 81.715 238.646C83.4322 239.4 85.2364 242.127 85.0332 243.979C84.8818 245.374 82.9208 247.442 81.9825 248.51Z" fill="url(#paint39_linear_570_1774)"/>
<path d="M78.4975 253.354C78.377 252.851 83.1636 247.983 83.9701 247.336C87.8768 244.202 84.7808 251.735 85.0484 253.001C83.5641 252.585 79.0612 255.714 78.4975 253.354ZM84.9196 248.909C83.9261 248.427 84.2179 249.526 83.7551 250.07C82.8087 251.179 81.7573 252.285 80.3325 252.713C80.7644 253.349 80.8042 252.988 81.2693 252.83C83.0332 252.236 84.2576 250.575 84.928 248.908L84.9196 248.909Z" fill="url(#paint40_linear_570_1774)"/>
<path d="M79.4518 247.269L75.6716 247.64L74.6961 245.924C74.749 245.643 76.0225 245.19 76.394 244.831C77.5505 243.737 77.0403 241.914 79.272 243.794L79.4476 247.273L79.4518 247.269Z" fill="url(#paint41_linear_570_1774)"/>
<path d="M78.0178 252.521C78.1045 253.709 78.1676 254.456 79.4963 254.817C77.7608 256.675 75.1065 257.916 73 255.901C75.1844 255.439 76.579 254.154 78.0136 252.517L78.0178 252.521Z" fill="url(#paint42_linear_570_1774)"/>
<path d="M51.7971 171.647C51.3429 173.524 49.8771 174.201 48.0403 174.202C48.3764 173.495 48.2813 172.96 47.7766 172.395C49.2421 172.422 50.6949 172.312 51.7834 171.243L51.7971 171.647Z" fill="url(#paint43_linear_570_1774)"/>
<path d="M47.1886 168.515C47.1618 168.56 46.6685 168.807 46.6436 168.788C45.8248 167.671 46.8975 166.137 45.9208 165.374L45.9757 166.99L44.3523 166.843L44.2974 165.226C43.4873 165.436 44.2246 166.774 44.1503 166.85L42.6445 167.305C42.1909 166.815 43.0096 165.784 42.2838 165.501C41.8801 166.478 42.6802 167.523 42.383 168.423C42.2364 168.869 41.8925 169.107 41.5968 168.741C41.314 168.394 41.4741 165.962 41.6577 165.409C41.8962 164.689 43.6789 162.5 44.4131 162.674C44.8901 162.783 46.5323 164.438 46.8243 164.934C47.3053 165.755 47.6958 167.725 47.1889 168.523L47.1886 168.515Z" fill="url(#paint44_linear_570_1774)"/>
<path d="M44.9468 172.487C43.9038 172.749 43.8591 171.791 43.2702 171.249C42.4266 170.473 40.9718 170.166 40.0888 169.419L39.8032 169.825C41.214 170.506 42.9907 171 43.7383 172.524C41.7812 172.437 40.1898 172.754 39.2514 170.734C38.7627 169.687 38.7259 168.96 38.9305 167.836C41.2073 169.236 44.4003 169.261 44.9508 172.487L44.9468 172.487Z" fill="url(#paint45_linear_570_1774)"/>
<path d="M45.3514 172.473C45.3495 170.511 47.8439 170.454 48.8821 169.218C48.7142 168.92 48.3951 169.291 48.216 169.378C47.1086 169.889 45.9802 170.498 45.2161 171.466C44.8027 171.565 44.8658 171.28 44.9084 170.983C45.1754 169.076 48.709 168.766 49.8341 167.466C50.3312 168.642 49.9486 170.836 48.9812 171.658C48.2537 172.277 46.3153 172.384 45.3514 172.473Z" fill="url(#paint46_linear_570_1774)"/>
<path d="M41.3578 173.24C41.5335 172.934 46.1805 172.764 46.8823 172.821C50.2822 173.098 45.2254 175.378 44.7654 176.13C44.2251 175.23 40.5325 174.672 41.3578 173.24ZM46.6164 174.044C46.3497 173.341 45.9804 174.021 45.4967 174.074C44.5091 174.18 43.4712 174.236 42.5656 173.781C42.482 174.298 42.6708 174.138 42.9749 174.277C44.1258 174.808 45.5091 174.559 46.6205 174.048L46.6164 174.044Z" fill="url(#paint47_linear_570_1774)"/>
<path d="M44.6788 170.675L42.6344 169.09L42.9542 167.784C43.1121 167.67 43.9542 168.042 44.306 168.038C45.3903 168.038 45.9908 166.896 46.2156 168.871L44.6747 170.675L44.6788 170.675Z" fill="url(#paint48_linear_570_1774)"/>
<path d="M41.51 172.604C40.9973 173.232 40.6791 173.631 41.1675 174.432C39.4395 174.539 37.545 173.912 37.4453 171.928C38.7426 172.722 40.0338 172.739 41.5099 172.6L41.51 172.604Z" fill="url(#paint49_linear_570_1774)"/>
<path d="M61.0442 120.513C59.8847 122.057 58.2706 122.098 56.583 121.373C57.1715 120.856 57.2959 120.328 57.0561 119.609C58.3913 120.213 59.769 120.687 61.1915 120.136L61.0442 120.513Z" fill="url(#paint50_linear_570_1774)"/>
<path d="M58.053 115.814C58.0104 115.845 57.4595 115.877 57.4443 115.849C57.1344 114.499 58.7262 113.515 58.1314 112.427L57.5423 113.934L56.1096 113.156L56.6988 111.65C55.8718 111.522 56.0194 113.043 55.9213 113.082L54.3581 112.905C54.1355 112.275 55.2954 111.652 54.7408 111.105C53.9836 111.843 54.305 113.119 53.6759 113.828C53.3647 114.18 52.9546 114.262 52.828 113.809C52.7053 113.379 53.815 111.208 54.2021 110.773C54.7061 110.206 57.2093 108.901 57.815 109.351C58.2099 109.64 59.063 111.81 59.135 112.381C59.2519 113.326 58.8314 115.289 58.0501 115.821L58.053 115.814Z" fill="url(#paint51_linear_570_1774)"/>
<path d="M54.4215 118.574C53.3599 118.402 53.6977 117.505 53.3714 116.774C52.9039 115.727 51.6891 114.87 51.1736 113.834L50.7506 114.094C51.7771 115.277 53.2134 116.434 53.297 118.13C51.5341 117.275 49.9471 116.937 49.8843 114.711C49.8499 113.555 50.1037 112.873 50.7362 111.922C52.2735 114.108 55.196 115.395 54.4252 118.575L54.4215 118.574Z" fill="url(#paint52_linear_570_1774)"/>
<path d="M54.796 118.721C55.5706 116.918 57.8837 117.854 59.3266 117.128C59.2903 116.789 58.8504 117.003 58.6515 117.012C57.4323 117.043 56.1551 117.156 55.0701 117.743C54.6513 117.67 54.8222 117.433 54.9786 117.178C55.9782 115.532 59.3462 116.646 60.8941 115.896C60.8851 117.174 59.6657 119.037 58.4521 119.409C57.5389 119.69 55.7166 119.021 54.796 118.721Z" fill="url(#paint53_linear_570_1774)"/>
<path d="M50.8297 117.846C51.1119 117.635 55.4469 119.317 56.0689 119.647C59.0817 121.247 53.5356 121.34 52.8157 121.848C52.6756 120.808 49.5052 118.834 50.8297 117.846ZM55.3409 120.665C55.3741 119.914 54.7658 120.392 54.3007 120.25C53.3516 119.957 52.3764 119.597 51.7247 118.821C51.4435 119.262 51.6803 119.19 51.9044 119.438C52.7511 120.382 54.1202 120.7 55.3432 120.67L55.3409 120.665Z" fill="url(#paint54_linear_570_1774)"/>
<path d="M54.8932 116.804L53.6429 114.539L54.4531 113.467C54.6435 113.424 55.2697 114.099 55.5944 114.234C56.5903 114.663 57.5933 113.853 57.0184 115.755L54.8894 116.803L54.8932 116.804Z" fill="url(#paint55_linear_570_1774)"/>
<path d="M51.2198 117.322C50.5003 117.696 50.0501 117.937 50.1819 118.865C48.5525 118.28 47.0608 116.954 47.7539 115.094C48.6314 116.336 49.8106 116.862 51.2213 117.318L51.2198 117.322Z" fill="url(#paint56_linear_570_1774)"/>
<path d="M91.3932 70.3731C90.6565 70.757 90.0222 70.4735 89.5018 69.8787C89.8262 69.7874 89.9726 69.6053 90.013 69.2816C90.419 69.7643 90.8659 70.204 91.5203 70.2543L91.3932 70.3731Z" fill="url(#paint57_linear_570_1774)"/>
<path d="M91.1044 67.9942C91.0821 67.9983 90.8623 67.9085 90.8615 67.8949C90.9919 67.3134 91.7924 67.227 91.7636 66.6943L91.2552 67.1696L90.8435 66.6018L91.3518 66.1265C91.0546 65.9233 90.8295 66.541 90.7841 66.5383L90.2102 66.1792C90.2407 65.8934 90.8066 65.8669 90.6929 65.5517C90.2621 65.6972 90.1499 66.2523 89.774 66.4107C89.588 66.4894 89.4134 66.4454 89.4485 66.2459C89.4807 66.0562 90.3145 65.4195 90.5455 65.3227C90.8464 65.1962 92.0603 65.1545 92.2119 65.4415C92.3115 65.627 92.2397 66.6278 92.1617 66.8628C92.0317 67.2511 91.504 67.935 91.1019 67.9965L91.1044 67.9942Z" fill="url(#paint58_linear_570_1774)"/>
<path d="M89.1831 68.391C88.803 68.1271 89.1006 67.8416 89.1097 67.4973C89.1226 67.0041 88.8102 66.4458 88.8023 65.9483L88.5899 65.9707C88.7687 66.6205 89.1114 67.3361 88.8291 68.0098C88.3034 67.3508 87.7503 66.9247 88.1392 66.0491C88.3403 65.5942 88.5655 65.3765 88.9876 65.1248C89.1784 66.2588 90.074 67.3007 89.1842 68.3922L89.1831 68.391Z" fill="url(#paint59_linear_570_1774)"/>
<path d="M89.3014 68.518C89.9368 67.9621 90.661 68.7545 91.3558 68.741C91.4047 68.6023 91.1942 68.6038 91.1153 68.5704C90.6363 68.3561 90.1196 68.1627 89.5894 68.1892C89.4404 68.0833 89.5507 68.023 89.6589 67.9527C90.3524 67.4997 91.453 68.5571 92.1929 68.5537C91.9523 69.0478 91.133 69.5447 90.5929 69.4637C90.1862 69.4033 89.6032 68.8052 89.3014 68.518Z" fill="url(#paint60_linear_570_1774)"/>
<path d="M87.9261 67.4414C88.0748 67.4119 89.4451 68.8699 89.6252 69.1135C90.4977 70.2938 88.3277 69.3001 87.9538 69.3638C88.0926 68.934 87.2284 67.5792 87.9261 67.4414ZM89.1536 69.3734C89.306 69.088 88.9811 69.1608 88.827 69.019C88.513 68.729 88.2013 68.4083 88.0924 67.9862C87.9013 68.1053 88.0066 68.1211 88.0475 68.2591C88.201 68.7825 88.6733 69.1603 89.1535 69.3759L89.1536 69.3734Z" fill="url(#paint61_linear_570_1774)"/>
<path d="M89.6952 67.7912L89.6304 66.68L90.144 66.4141C90.2258 66.4329 90.3436 66.811 90.4444 66.924C90.7514 67.2753 91.2912 67.1469 90.7148 67.7787L89.694 67.79L89.6952 67.7912Z" fill="url(#paint62_linear_570_1774)"/>
<path d="M88.1738 67.3105C87.825 67.3221 87.6056 67.332 87.4843 67.7169C86.9605 67.1872 86.6277 66.3956 87.2422 65.802C87.3522 66.447 87.7122 66.8703 88.175 67.3093L88.1738 67.3105Z" fill="url(#paint63_linear_570_1774)"/>
<path d="M54.6654 211.146C54.9749 210.691 55.8667 208.625 56.6544 209.498C57.1595 210.062 56.4333 211.096 55.8952 211.388C57.7137 211.859 57.2147 212.083 56.0939 212.957C57.2066 213.233 58.3992 212.809 58.8799 214.119C58.0925 215.038 57.1281 214.295 56.1902 214.023C56.6767 214.791 56.9988 215.298 55.7171 215.375L54.8475 213.835C55.9354 213.968 55.3696 213.406 55.5699 213.209C55.7201 213.059 55.9669 213.051 56.0894 212.959C55.9174 212.914 55.7916 212.779 55.5384 212.912L55.449 212.288L54.9767 212.382L55.2086 211.719L54.7707 211.908C54.7038 211.884 54.7497 211.356 54.6609 211.148C54.3239 211.639 54.2649 212.14 53.632 212.478L53.4352 210.625L54.2261 210.523C54.4594 210.672 54.5523 210.911 54.6609 211.148L54.6654 211.146Z" fill="url(#paint64_linear_570_1774)"/>
<path d="M52.4058 212.233C52.7705 212.586 53.1561 212.751 53.4014 213.145L52.7238 213.471L53.3885 213.707L51.4122 214.804C51.5406 215.07 53.9115 213.372 54.1862 214.659L54.8197 214.437C55.1053 214.533 55.9327 217.257 55.1403 217.611C53.5528 218.047 54.4354 215.246 54.0479 215.065L53.4978 215.864L52.6427 215.602L53.161 214.379C50.6708 216.858 48.4657 214.637 52.272 213.689L51.5044 212.672C51.7996 212.58 52.1381 212.289 52.4079 212.237C49.1714 209.099 53.1324 209.061 53.2986 212.365C53.2293 212.498 52.6531 212.192 52.4079 212.237L52.4058 212.233Z" fill="url(#paint65_linear_570_1774)"/>
<path d="M47.4037 136.075C47.7132 135.62 48.605 133.555 49.3927 134.427C49.8978 134.991 49.1716 136.025 48.6335 136.318C50.4519 136.789 49.953 137.013 48.8322 137.886C49.9449 138.163 51.1375 137.739 51.6181 139.049C50.8308 139.968 49.8663 139.225 48.9285 138.953C49.4149 139.72 49.7371 140.227 48.4554 140.305L47.5857 138.765C48.6737 138.897 48.1079 138.335 48.3082 138.139C48.4584 137.988 48.7052 137.981 48.8277 137.888C48.6557 137.843 48.5299 137.709 48.2767 137.842L48.1873 137.217L47.715 137.311L47.9468 136.649L47.509 136.837C47.4421 136.814 47.488 136.285 47.3992 136.078C47.0622 136.568 47.0032 137.07 46.3702 137.408L46.1735 135.555L46.9644 135.452C47.1977 135.601 47.2906 135.84 47.3992 136.078L47.4037 136.075Z" fill="url(#paint66_linear_570_1774)"/>
<path d="M45.144 137.162C45.5088 137.515 45.8943 137.68 46.1397 138.074L45.462 138.401L46.1268 138.637L44.1505 139.733C44.2789 140 46.6498 138.302 46.9245 139.588L47.5579 139.367C47.8436 139.463 48.671 142.187 47.8786 142.54C46.2911 142.976 47.1737 140.175 46.7861 139.994L46.236 140.794L45.381 140.532L45.8993 139.309C43.4091 141.788 41.204 139.566 45.0103 138.618L44.2427 137.602C44.5379 137.51 44.8763 137.219 45.1462 137.167C41.9097 134.029 45.8707 133.991 46.0369 137.295C45.9676 137.428 45.3913 137.121 45.1462 137.167L45.144 137.162Z" fill="url(#paint67_linear_570_1774)"/>
<path d="M117.091 271.397C117.401 270.942 118.293 268.876 119.08 269.749C119.585 270.313 118.859 271.347 118.321 271.639C120.139 272.11 119.641 272.334 118.52 273.208C119.632 273.484 120.825 273.06 121.306 274.37C120.518 275.289 119.554 274.546 118.616 274.274C119.102 275.042 119.425 275.549 118.143 275.626L117.273 274.086C118.361 274.219 117.795 273.657 117.996 273.46C118.146 273.31 118.393 273.302 118.515 273.21C118.343 273.165 118.217 273.031 117.964 273.164L117.875 272.539L117.402 272.633L117.634 271.97L117.196 272.159C117.13 272.135 117.176 271.607 117.087 271.399C116.75 271.89 116.691 272.391 116.058 272.729L115.861 270.876L116.652 270.774C116.885 270.923 116.978 271.162 117.087 271.399L117.091 271.397Z" fill="url(#paint68_linear_570_1774)"/>
<path d="M114.832 272.484C115.196 272.837 115.582 273.002 115.827 273.396L115.15 273.722L115.814 273.958L113.838 275.055C113.966 275.321 116.337 273.623 116.612 274.91L117.245 274.688C117.531 274.785 118.358 277.508 117.566 277.862C115.979 278.298 116.861 275.497 116.474 275.316L115.924 276.115L115.069 275.854L115.587 274.63C113.097 277.109 110.892 274.888 114.698 273.94L113.93 272.924C114.225 272.831 114.564 272.54 114.834 272.488C111.597 269.35 115.558 269.313 115.724 272.616C115.655 272.75 115.079 272.443 114.834 272.488L114.832 272.484Z" fill="url(#paint69_linear_570_1774)"/>
<path d="M197.04 272.434C197.35 271.979 198.242 269.913 199.029 270.786C199.535 271.349 198.808 272.384 198.27 272.676C200.089 273.147 199.59 273.371 198.469 274.244C199.582 274.521 200.774 274.097 201.255 275.407C200.468 276.326 199.503 275.583 198.565 275.311C199.052 276.079 199.374 276.586 198.092 276.663L197.222 275.123C198.31 275.256 197.745 274.693 197.945 274.497C198.095 274.347 198.342 274.339 198.464 274.247C198.292 274.201 198.167 274.067 197.913 274.2L197.824 273.576L197.352 273.669L197.584 273.007L197.146 273.195C197.079 273.172 197.125 272.643 197.036 272.436C196.699 272.926 196.64 273.428 196.007 273.766L195.81 271.913L196.601 271.81C196.834 271.96 196.927 272.199 197.036 272.436L197.04 272.434Z" fill="url(#paint70_linear_570_1774)"/>
<path d="M194.781 273.521C195.146 273.874 195.531 274.039 195.776 274.433L195.099 274.759L195.764 274.995L193.787 276.092C193.916 276.358 196.287 274.66 196.561 275.947L197.195 275.725C197.48 275.821 198.308 278.545 197.515 278.899C195.928 279.335 196.81 276.534 196.423 276.353L195.873 277.152L195.018 276.89L195.536 275.667C193.046 278.146 190.841 275.925 194.647 274.976L193.879 273.96C194.175 273.868 194.513 273.577 194.783 273.525C191.546 270.387 195.507 270.349 195.674 273.653C195.604 273.786 195.028 273.48 194.783 273.525L194.781 273.521Z" fill="url(#paint71_linear_570_1774)"/>
<path d="M255.501 232.339C255.811 231.884 256.703 229.819 257.49 230.691C257.995 231.255 257.269 232.289 256.731 232.582C258.55 233.053 258.051 233.276 256.93 234.15C258.043 234.427 259.235 234.003 259.716 235.313C258.928 236.232 257.964 235.489 257.026 235.217C257.513 235.984 257.835 236.491 256.553 236.569L255.683 235.029C256.771 235.161 256.206 234.599 256.406 234.402C256.556 234.252 256.803 234.245 256.925 234.152C256.753 234.107 256.628 233.973 256.374 234.106L256.285 233.481L255.813 233.575L256.044 232.912L255.607 233.101C255.54 233.078 255.586 232.549 255.497 232.341C255.16 232.832 255.101 233.334 254.468 233.672L254.271 231.819L255.062 231.716C255.295 231.865 255.388 232.104 255.497 232.341L255.501 232.339Z" fill="url(#paint72_linear_570_1774)"/>
<path d="M253.242 233.426C253.606 233.779 253.992 233.944 254.237 234.338L253.56 234.664L254.224 234.901L252.248 235.997C252.377 236.264 254.747 234.565 255.022 235.852L255.656 235.631C255.941 235.727 256.769 238.45 255.976 238.804C254.389 239.24 255.271 236.439 254.884 236.258L254.334 237.058L253.479 236.796L253.997 235.572C251.507 238.052 249.302 235.83 253.108 234.882L252.34 233.866C252.636 233.774 252.974 233.483 253.244 233.431C250.007 230.292 253.968 230.255 254.135 233.558C254.065 233.692 253.489 233.385 253.244 233.431L253.242 233.426Z" fill="url(#paint73_linear_570_1774)"/>
<path d="M274.165 165.161C274.475 164.705 275.367 162.64 276.154 163.513C276.66 164.076 275.933 165.111 275.395 165.403C277.214 165.874 276.715 166.098 275.594 166.971C276.707 167.248 277.899 166.824 278.38 168.134C277.593 169.053 276.628 168.31 275.69 168.038C276.177 168.805 276.499 169.313 275.217 169.39L274.347 167.85C275.435 167.983 274.87 167.42 275.07 167.224C275.22 167.073 275.467 167.066 275.589 166.974C275.417 166.928 275.292 166.794 275.038 166.927L274.949 166.302L274.477 166.396L274.709 165.734L274.271 165.922C274.204 165.899 274.25 165.37 274.161 165.163C273.824 165.653 273.765 166.155 273.132 166.493L272.935 164.64L273.726 164.537C273.959 164.687 274.052 164.926 274.161 165.163L274.165 165.161Z" fill="url(#paint74_linear_570_1774)"/>
<path d="M271.906 166.248C272.271 166.601 272.656 166.766 272.901 167.16L272.224 167.486L272.889 167.722L270.912 168.819C271.041 169.085 273.412 167.387 273.686 168.674L274.32 168.452C274.605 168.548 275.433 171.272 274.64 171.626C273.053 172.062 273.935 169.26 273.548 169.08L272.998 169.879L272.143 169.617L272.661 168.394C270.171 170.873 267.966 168.652 271.772 167.703L271.004 166.687C271.3 166.595 271.638 166.304 271.908 166.252C268.671 163.114 272.632 163.076 272.799 166.38C272.729 166.513 272.153 166.207 271.908 166.252L271.906 166.248Z" fill="url(#paint75_linear_570_1774)"/>
<path d="M256.872 101.791C257.182 101.336 258.074 99.2704 258.861 100.143C259.367 100.707 258.64 101.741 258.102 102.034C259.921 102.505 259.422 102.728 258.301 103.602C259.414 103.879 260.606 103.455 261.087 104.765C260.3 105.684 259.335 104.94 258.397 104.669C258.884 105.436 259.206 105.943 257.924 106.021L257.054 104.48C258.142 104.613 257.577 104.051 257.777 103.854C257.927 103.704 258.174 103.697 258.296 103.604C258.124 103.559 257.999 103.425 257.745 103.558L257.656 102.933L257.184 103.027L257.416 102.364L256.978 102.553C256.911 102.53 256.957 102.001 256.868 101.793C256.531 102.284 256.472 102.785 255.839 103.124L255.642 101.271L256.433 101.168C256.666 101.317 256.759 101.556 256.868 101.793L256.872 101.791Z" fill="url(#paint76_linear_570_1774)"/>
<path d="M254.613 102.878C254.978 103.231 255.363 103.396 255.608 103.79L254.931 104.116L255.596 104.353L253.619 105.449C253.748 105.716 256.119 104.017 256.393 105.304L257.027 105.083C257.312 105.179 258.14 107.902 257.347 108.256C255.76 108.692 256.642 105.891 256.255 105.71L255.705 106.509L254.85 106.248L255.368 105.024C252.878 107.504 250.673 105.282 254.479 104.334L253.711 103.318C254.007 103.226 254.345 102.935 254.615 102.883C251.378 99.7444 255.339 99.7068 255.506 103.01C255.436 103.144 254.86 102.837 254.615 102.883L254.613 102.878Z" fill="url(#paint77_linear_570_1774)"/>
<path d="M198.212 58.1359C198.522 57.6808 199.414 55.6152 200.201 56.488C200.706 57.0517 199.98 58.0859 199.442 58.3784C201.261 58.8495 200.762 59.073 199.641 59.9467C200.753 60.2234 201.946 59.7993 202.427 61.1094C201.639 62.0283 200.675 61.2852 199.737 61.0133C200.224 61.7808 200.546 62.2879 199.264 62.3653L198.394 60.8252C199.482 60.958 198.917 60.3957 199.117 60.199C199.267 60.0488 199.514 60.0412 199.636 59.9489C199.464 59.9037 199.338 59.7695 199.085 59.9026L198.996 59.2778L198.524 59.3717L198.755 58.7091L198.318 58.8977C198.251 58.8743 198.297 58.3457 198.208 58.1381C197.871 58.6287 197.812 59.1301 197.179 59.4683L196.982 57.6153L197.773 57.5127C198.006 57.6619 198.099 57.901 198.208 58.1381L198.212 58.1359Z" fill="url(#paint78_linear_570_1774)"/>
<path d="M195.953 59.2229C196.317 59.576 196.703 59.7409 196.948 60.1348L196.271 60.4611L196.935 60.6974L194.959 61.7939C195.087 62.0604 197.458 60.3621 197.733 61.6489L198.367 61.4274C198.652 61.5235 199.48 64.2471 198.687 64.6009C197.1 65.037 197.982 62.2357 197.595 62.055L197.045 62.8542L196.19 62.5925L196.708 61.3691C194.218 63.8482 192.013 61.6267 195.819 60.6786L195.051 59.6625C195.346 59.5705 195.685 59.2795 195.955 59.2274C192.718 56.0891 196.679 56.0515 196.845 59.3551C196.776 59.4886 196.2 59.1818 195.955 59.2274L195.953 59.2229Z" fill="url(#paint79_linear_570_1774)"/>
</g>
<defs>
<filter id="filter0_d_570_1774" x="13.9609" y="15.5845" width="293.543" height="296.78" filterUnits="userSpaceOnUse" color-interpolation-filters="sRGB">
<feFlood flood-opacity="0" result="BackgroundImageFix"/>
<feColorMatrix in="SourceAlpha" type="matrix" values="0 0 0 0 0 0 0 0 0 0 0 0 0 0 0 0 0 0 127 0" result="hardAlpha"/>
<feOffset/>
<feGaussianBlur stdDeviation="10"/>
<feComposite in2="hardAlpha" operator="out"/>
<feColorMatrix type="matrix" values="0 0 0 0 1 0 0 0 0 0.794808 0 0 0 0 0.120605 0 0 0 1 0"/>
<feBlend mode="normal" in2="BackgroundImageFix" result="effect1_dropShadow_570_1774"/>
<feBlend mode="normal" in="SourceGraphic" in2="effect1_dropShadow_570_1774" result="shape"/>
</filter>
<linearGradient id="paint0_linear_570_1774" x1="41.6768" y1="122.31" x2="281.753" y2="204.111" gradientUnits="userSpaceOnUse">
<stop stop-color="#FFD445"/>
<stop offset="1" stop-color="#D53030"/>
</linearGradient>
<linearGradient id="paint1_linear_570_1774" x1="215.221" y1="70.7085" x2="211.534" y2="75.3616" gradientUnits="userSpaceOnUse">
<stop stop-color="#FFD445"/>
<stop offset="1" stop-color="#D53030"/>
</linearGradient>
<linearGradient id="paint2_linear_570_1774" x1="229.069" y1="70.123" x2="223.604" y2="77.0206" gradientUnits="userSpaceOnUse">
<stop stop-color="#FFD445"/>
<stop offset="1" stop-color="#D53030"/>
</linearGradient>
<linearGradient id="paint3_linear_570_1774" x1="226.525" y1="63.1003" x2="221.039" y2="70.0235" gradientUnits="userSpaceOnUse">
<stop stop-color="#FFD445"/>
<stop offset="1" stop-color="#D53030"/>
</linearGradient>
<linearGradient id="paint4_linear_570_1774" x1="221.091" y1="70.001" x2="216.294" y2="76.055" gradientUnits="userSpaceOnUse">
<stop stop-color="#FFD445"/>
<stop offset="1" stop-color="#D53030"/>
</linearGradient>
<linearGradient id="paint5_linear_570_1774" x1="219.392" y1="61.6926" x2="213.174" y2="69.5399" gradientUnits="userSpaceOnUse">
<stop stop-color="#FFD445"/>
<stop offset="1" stop-color="#D53030"/>
</linearGradient>
<linearGradient id="paint6_linear_570_1774" x1="224.074" y1="68.3072" x2="220.804" y2="72.4345" gradientUnits="userSpaceOnUse">
<stop stop-color="#FFD445"/>
<stop offset="1" stop-color="#D53030"/>
</linearGradient>
<linearGradient id="paint7_linear_570_1774" x1="224.51" y1="58.7602" x2="220.827" y2="63.4086" gradientUnits="userSpaceOnUse">
<stop stop-color="#FFD445"/>
<stop offset="1" stop-color="#D53030"/>
</linearGradient>
<linearGradient id="paint8_linear_570_1774" x1="265.078" y1="133.644" x2="259.256" y2="134.803" gradientUnits="userSpaceOnUse">
<stop stop-color="#FFD445"/>
<stop offset="1" stop-color="#D53030"/>
</linearGradient>
<linearGradient id="paint9_linear_570_1774" x1="276.01" y1="142.164" x2="267.379" y2="143.882" gradientUnits="userSpaceOnUse">
<stop stop-color="#FFD445"/>
<stop offset="1" stop-color="#D53030"/>
</linearGradient>
<linearGradient id="paint10_linear_570_1774" x1="278.616" y1="135.164" x2="269.953" y2="136.888" gradientUnits="userSpaceOnUse">
<stop stop-color="#FFD445"/>
<stop offset="1" stop-color="#D53030"/>
</linearGradient>
<linearGradient id="paint11_linear_570_1774" x1="270.008" y1="136.903" x2="262.432" y2="138.411" gradientUnits="userSpaceOnUse">
<stop stop-color="#FFD445"/>
<stop offset="1" stop-color="#D53030"/>
</linearGradient>
<linearGradient id="paint12_linear_570_1774" x1="274.089" y1="129.47" x2="264.27" y2="131.425" gradientUnits="userSpaceOnUse">
<stop stop-color="#FFD445"/>
<stop offset="1" stop-color="#D53030"/>
</linearGradient>
<linearGradient id="paint13_linear_570_1774" x1="273.38" y1="137.545" x2="268.215" y2="138.573" gradientUnits="userSpaceOnUse">
<stop stop-color="#FFD445"/>
<stop offset="1" stop-color="#D53030"/>
</linearGradient>
<linearGradient id="paint14_linear_570_1774" x1="279.893" y1="130.552" x2="274.076" y2="131.71" gradientUnits="userSpaceOnUse">
<stop stop-color="#FFD445"/>
<stop offset="1" stop-color="#D53030"/>
</linearGradient>
<linearGradient id="paint15_linear_570_1774" x1="265.574" y1="200.264" x2="260.103" y2="197.958" gradientUnits="userSpaceOnUse">
<stop stop-color="#FFD445"/>
<stop offset="1" stop-color="#D53030"/>
</linearGradient>
<linearGradient id="paint16_linear_570_1774" x1="269.846" y1="213.449" x2="261.737" y2="210.031" gradientUnits="userSpaceOnUse">
<stop stop-color="#FFD445"/>
<stop offset="1" stop-color="#D53030"/>
</linearGradient>
<linearGradient id="paint17_linear_570_1774" x1="275.932" y1="209.116" x2="267.793" y2="205.685" gradientUnits="userSpaceOnUse">
<stop stop-color="#FFD445"/>
<stop offset="1" stop-color="#D53030"/>
</linearGradient>
<linearGradient id="paint18_linear_570_1774" x1="267.829" y1="205.727" x2="260.711" y2="202.727" gradientUnits="userSpaceOnUse">
<stop stop-color="#FFD445"/>
<stop offset="1" stop-color="#D53030"/>
</linearGradient>
<linearGradient id="paint19_linear_570_1774" x1="275.376" y1="201.862" x2="266.15" y2="197.974" gradientUnits="userSpaceOnUse">
<stop stop-color="#FFD445"/>
<stop offset="1" stop-color="#D53030"/>
</linearGradient>
<linearGradient id="paint20_linear_570_1774" x1="270.26" y1="208.149" x2="265.407" y2="206.103" gradientUnits="userSpaceOnUse">
<stop stop-color="#FFD445"/>
<stop offset="1" stop-color="#D53030"/>
</linearGradient>
<linearGradient id="paint21_linear_570_1774" x1="279.574" y1="206.012" x2="274.109" y2="203.708" gradientUnits="userSpaceOnUse">
<stop stop-color="#FFD445"/>
<stop offset="1" stop-color="#D53030"/>
</linearGradient>
<linearGradient id="paint22_linear_570_1774" x1="229.817" y1="252.017" x2="226.315" y2="247.223" gradientUnits="userSpaceOnUse">
<stop stop-color="#FFD445"/>
<stop offset="1" stop-color="#D53030"/>
</linearGradient>
<linearGradient id="paint23_linear_570_1774" x1="226.691" y1="265.519" x2="221.5" y2="258.413" gradientUnits="userSpaceOnUse">
<stop stop-color="#FFD445"/>
<stop offset="1" stop-color="#D53030"/>
</linearGradient>
<linearGradient id="paint24_linear_570_1774" x1="234.139" y1="264.939" x2="228.928" y2="257.806" gradientUnits="userSpaceOnUse">
<stop stop-color="#FFD445"/>
<stop offset="1" stop-color="#D53030"/>
</linearGradient>
<linearGradient id="paint25_linear_570_1774" x1="228.935" y1="257.86" x2="224.378" y2="251.623" gradientUnits="userSpaceOnUse">
<stop stop-color="#FFD445"/>
<stop offset="1" stop-color="#D53030"/>
</linearGradient>
<linearGradient id="paint26_linear_570_1774" x1="237.396" y1="258.435" x2="231.49" y2="250.351" gradientUnits="userSpaceOnUse">
<stop stop-color="#FFD445"/>
<stop offset="1" stop-color="#D53030"/>
</linearGradient>
<linearGradient id="paint27_linear_570_1774" x1="229.77" y1="261.188" x2="226.664" y2="256.936" gradientUnits="userSpaceOnUse">
<stop stop-color="#FFD445"/>
<stop offset="1" stop-color="#D53030"/>
</linearGradient>
<linearGradient id="paint28_linear_570_1774" x1="238.856" y1="264.153" x2="235.358" y2="259.364" gradientUnits="userSpaceOnUse">
<stop stop-color="#FFD445"/>
<stop offset="1" stop-color="#D53030"/>
</linearGradient>
<linearGradient id="paint29_linear_570_1774" x1="165.387" y1="275.74" x2="164.946" y2="269.82" gradientUnits="userSpaceOnUse">
<stop stop-color="#FFD445"/>
<stop offset="1" stop-color="#D53030"/>
</linearGradient>
<linearGradient id="paint30_linear_570_1774" x1="155.598" y1="285.553" x2="154.944" y2="276.777" gradientUnits="userSpaceOnUse">
<stop stop-color="#FFD445"/>
<stop offset="1" stop-color="#D53030"/>
</linearGradient>
<linearGradient id="paint31_linear_570_1774" x1="162.229" y1="288.994" x2="161.573" y2="280.185" gradientUnits="userSpaceOnUse">
<stop stop-color="#FFD445"/>
<stop offset="1" stop-color="#D53030"/>
</linearGradient>
<linearGradient id="paint32_linear_570_1774" x1="161.552" y1="280.235" x2="160.978" y2="272.533" gradientUnits="userSpaceOnUse">
<stop stop-color="#FFD445"/>
<stop offset="1" stop-color="#D53030"/>
</linearGradient>
<linearGradient id="paint33_linear_570_1774" x1="168.431" y1="285.193" x2="167.686" y2="275.209" gradientUnits="userSpaceOnUse">
<stop stop-color="#FFD445"/>
<stop offset="1" stop-color="#D53030"/>
</linearGradient>
<linearGradient id="paint34_linear_570_1774" x1="160.504" y1="283.503" x2="160.112" y2="278.252" gradientUnits="userSpaceOnUse">
<stop stop-color="#FFD445"/>
<stop offset="1" stop-color="#D53030"/>
</linearGradient>
<linearGradient id="paint35_linear_570_1774" x1="166.652" y1="290.82" x2="166.211" y2="284.906" gradientUnits="userSpaceOnUse">
<stop stop-color="#FFD445"/>
<stop offset="1" stop-color="#D53030"/>
</linearGradient>
<linearGradient id="paint36_linear_570_1774" x1="84.9096" y1="246.396" x2="89.0828" y2="242.174" gradientUnits="userSpaceOnUse">
<stop stop-color="#FFD445"/>
<stop offset="1" stop-color="#D53030"/>
</linearGradient>
<linearGradient id="paint37_linear_570_1774" x1="71.0813" y1="245.465" x2="77.2676" y2="239.206" gradientUnits="userSpaceOnUse">
<stop stop-color="#FFD445"/>
<stop offset="1" stop-color="#D53030"/>
</linearGradient>
<linearGradient id="paint38_linear_570_1774" x1="72.8441" y1="252.724" x2="79.0534" y2="246.441" gradientUnits="userSpaceOnUse">
<stop stop-color="#FFD445"/>
<stop offset="1" stop-color="#D53030"/>
</linearGradient>
<linearGradient id="paint39_linear_570_1774" x1="79.0021" y1="246.458" x2="84.4318" y2="240.965" gradientUnits="userSpaceOnUse">
<stop stop-color="#FFD445"/>
<stop offset="1" stop-color="#D53030"/>
</linearGradient>
<linearGradient id="paint40_linear_570_1774" x1="79.7855" y1="254.903" x2="86.8235" y2="247.782" gradientUnits="userSpaceOnUse">
<stop stop-color="#FFD445"/>
<stop offset="1" stop-color="#D53030"/>
</linearGradient>
<linearGradient id="paint41_linear_570_1774" x1="75.8497" y1="247.816" x2="79.5514" y2="244.07" gradientUnits="userSpaceOnUse">
<stop stop-color="#FFD445"/>
<stop offset="1" stop-color="#D53030"/>
</linearGradient>
<linearGradient id="paint42_linear_570_1774" x1="74.3735" y1="257.258" x2="78.5426" y2="253.04" gradientUnits="userSpaceOnUse">
<stop stop-color="#FFD445"/>
<stop offset="1" stop-color="#D53030"/>
</linearGradient>
<linearGradient id="paint43_linear_570_1774" x1="47.7903" y1="172.797" x2="51.8315" y2="172.66" gradientUnits="userSpaceOnUse">
<stop stop-color="#FFD445"/>
<stop offset="1" stop-color="#D53030"/>
</linearGradient>
<linearGradient id="paint44_linear_570_1774" x1="41.3786" y1="165.866" x2="47.3692" y2="165.662" gradientUnits="userSpaceOnUse">
<stop stop-color="#FFD445"/>
<stop offset="1" stop-color="#D53030"/>
</linearGradient>
<linearGradient id="paint45_linear_570_1774" x1="38.8563" y1="170.283" x2="44.8691" y2="170.079" gradientUnits="userSpaceOnUse">
<stop stop-color="#FFD445"/>
<stop offset="1" stop-color="#D53030"/>
</linearGradient>
<linearGradient id="paint46_linear_570_1774" x1="44.8362" y1="170.063" x2="50.0941" y2="169.884" gradientUnits="userSpaceOnUse">
<stop stop-color="#FFD445"/>
<stop offset="1" stop-color="#D53030"/>
</linearGradient>
<linearGradient id="paint47_linear_570_1774" x1="41.2705" y1="174.609" x2="48.0858" y2="174.377" gradientUnits="userSpaceOnUse">
<stop stop-color="#FFD445"/>
<stop offset="1" stop-color="#D53030"/>
</linearGradient>
<linearGradient id="paint48_linear_570_1774" x1="42.6402" y1="169.26" x2="46.2247" y2="169.139" gradientUnits="userSpaceOnUse">
<stop stop-color="#FFD445"/>
<stop offset="1" stop-color="#D53030"/>
</linearGradient>
<linearGradient id="paint49_linear_570_1774" x1="37.4899" y1="173.243" x2="41.5271" y2="173.106" gradientUnits="userSpaceOnUse">
<stop stop-color="#FFD445"/>
<stop offset="1" stop-color="#D53030"/>
</linearGradient>
<linearGradient id="paint50_linear_570_1774" x1="56.9095" y1="119.983" x2="60.6753" y2="121.456" gradientUnits="userSpaceOnUse">
<stop stop-color="#FFD445"/>
<stop offset="1" stop-color="#D53030"/>
</linearGradient>
<linearGradient id="paint51_linear_570_1774" x1="53.7652" y1="111.082" x2="59.3473" y2="113.266" gradientUnits="userSpaceOnUse">
<stop stop-color="#FFD445"/>
<stop offset="1" stop-color="#D53030"/>
</linearGradient>
<linearGradient id="paint52_linear_570_1774" x1="49.6999" y1="114.14" x2="55.3028" y2="116.332" gradientUnits="userSpaceOnUse">
<stop stop-color="#FFD445"/>
<stop offset="1" stop-color="#D53030"/>
</linearGradient>
<linearGradient id="paint53_linear_570_1774" x1="55.2764" y1="116.304" x2="60.1758" y2="118.22" gradientUnits="userSpaceOnUse">
<stop stop-color="#FFD445"/>
<stop offset="1" stop-color="#D53030"/>
</linearGradient>
<linearGradient id="paint54_linear_570_1774" x1="50.2077" y1="119.069" x2="56.5585" y2="121.553" gradientUnits="userSpaceOnUse">
<stop stop-color="#FFD445"/>
<stop offset="1" stop-color="#D53030"/>
</linearGradient>
<linearGradient id="paint55_linear_570_1774" x1="53.5808" y1="114.698" x2="56.921" y2="116.004" gradientUnits="userSpaceOnUse">
<stop stop-color="#FFD445"/>
<stop offset="1" stop-color="#D53030"/>
</linearGradient>
<linearGradient id="paint56_linear_570_1774" x1="47.2748" y1="116.318" x2="51.0367" y2="117.79" gradientUnits="userSpaceOnUse">
<stop stop-color="#FFD445"/>
<stop offset="1" stop-color="#D53030"/>
</linearGradient>
<linearGradient id="paint57_linear_570_1774" x1="89.8866" y1="69.3999" x2="91.0748" y2="70.6708" gradientUnits="userSpaceOnUse">
<stop stop-color="#FFD445"/>
<stop offset="1" stop-color="#D53030"/>
</linearGradient>
<linearGradient id="paint58_linear_570_1774" x1="90.3185" y1="65.3615" x2="92.0799" y2="67.2454" gradientUnits="userSpaceOnUse">
<stop stop-color="#FFD445"/>
<stop offset="1" stop-color="#D53030"/>
</linearGradient>
<linearGradient id="paint59_linear_570_1774" x1="88.1735" y1="65.7934" x2="89.9414" y2="67.6843" gradientUnits="userSpaceOnUse">
<stop stop-color="#FFD445"/>
<stop offset="1" stop-color="#D53030"/>
</linearGradient>
<linearGradient id="paint60_linear_570_1774" x1="89.9367" y1="67.669" x2="91.4826" y2="69.3225" gradientUnits="userSpaceOnUse">
<stop stop-color="#FFD445"/>
<stop offset="1" stop-color="#D53030"/>
</linearGradient>
<linearGradient id="paint61_linear_570_1774" x1="87.4576" y1="67.8007" x2="89.4615" y2="69.944" gradientUnits="userSpaceOnUse">
<stop stop-color="#FFD445"/>
<stop offset="1" stop-color="#D53030"/>
</linearGradient>
<linearGradient id="paint62_linear_570_1774" x1="89.5768" y1="66.7301" x2="90.6307" y2="67.8573" gradientUnits="userSpaceOnUse">
<stop stop-color="#FFD445"/>
<stop offset="1" stop-color="#D53030"/>
</linearGradient>
<linearGradient id="paint63_linear_570_1774" x1="86.8288" y1="66.1885" x2="88.0158" y2="67.4581" gradientUnits="userSpaceOnUse">
<stop stop-color="#FFD445"/>
<stop offset="1" stop-color="#D53030"/>
</linearGradient>
<linearGradient id="paint64_linear_570_1774" x1="54.675" y1="209.986" x2="57.1352" y2="215.094" gradientUnits="userSpaceOnUse">
<stop stop-color="#FFD445"/>
<stop offset="1" stop-color="#D53030"/>
</linearGradient>
<linearGradient id="paint65_linear_570_1774" x1="50.4307" y1="210.371" x2="54.1474" y2="218.089" gradientUnits="userSpaceOnUse">
<stop stop-color="#FFD445"/>
<stop offset="1" stop-color="#D53030"/>
</linearGradient>
<linearGradient id="paint66_linear_570_1774" x1="47.4133" y1="134.915" x2="49.8735" y2="140.024" gradientUnits="userSpaceOnUse">
<stop stop-color="#FFD445"/>
<stop offset="1" stop-color="#D53030"/>
</linearGradient>
<linearGradient id="paint67_linear_570_1774" x1="43.169" y1="135.301" x2="46.8857" y2="143.019" gradientUnits="userSpaceOnUse">
<stop stop-color="#FFD445"/>
<stop offset="1" stop-color="#D53030"/>
</linearGradient>
<linearGradient id="paint68_linear_570_1774" x1="117.101" y1="270.237" x2="119.561" y2="275.345" gradientUnits="userSpaceOnUse">
<stop stop-color="#FFD445"/>
<stop offset="1" stop-color="#D53030"/>
</linearGradient>
<linearGradient id="paint69_linear_570_1774" x1="112.857" y1="270.622" x2="116.573" y2="278.34" gradientUnits="userSpaceOnUse">
<stop stop-color="#FFD445"/>
<stop offset="1" stop-color="#D53030"/>
</linearGradient>
<linearGradient id="paint70_linear_570_1774" x1="197.05" y1="271.273" x2="199.51" y2="276.382" gradientUnits="userSpaceOnUse">
<stop stop-color="#FFD445"/>
<stop offset="1" stop-color="#D53030"/>
</linearGradient>
<linearGradient id="paint71_linear_570_1774" x1="192.806" y1="271.659" x2="196.522" y2="279.377" gradientUnits="userSpaceOnUse">
<stop stop-color="#FFD445"/>
<stop offset="1" stop-color="#D53030"/>
</linearGradient>
<linearGradient id="paint72_linear_570_1774" x1="255.511" y1="231.179" x2="257.971" y2="236.288" gradientUnits="userSpaceOnUse">
<stop stop-color="#FFD445"/>
<stop offset="1" stop-color="#D53030"/>
</linearGradient>
<linearGradient id="paint73_linear_570_1774" x1="251.267" y1="231.565" x2="254.983" y2="239.283" gradientUnits="userSpaceOnUse">
<stop stop-color="#FFD445"/>
<stop offset="1" stop-color="#D53030"/>
</linearGradient>
<linearGradient id="paint74_linear_570_1774" x1="274.175" y1="164" x2="276.635" y2="169.109" gradientUnits="userSpaceOnUse">
<stop stop-color="#FFD445"/>
<stop offset="1" stop-color="#D53030"/>
</linearGradient>
<linearGradient id="paint75_linear_570_1774" x1="269.931" y1="164.386" x2="273.647" y2="172.104" gradientUnits="userSpaceOnUse">
<stop stop-color="#FFD445"/>
<stop offset="1" stop-color="#D53030"/>
</linearGradient>
<linearGradient id="paint76_linear_570_1774" x1="256.882" y1="100.631" x2="259.342" y2="105.74" gradientUnits="userSpaceOnUse">
<stop stop-color="#FFD445"/>
<stop offset="1" stop-color="#D53030"/>
</linearGradient>
<linearGradient id="paint77_linear_570_1774" x1="252.638" y1="101.017" x2="256.354" y2="108.734" gradientUnits="userSpaceOnUse">
<stop stop-color="#FFD445"/>
<stop offset="1" stop-color="#D53030"/>
</linearGradient>
<linearGradient id="paint78_linear_570_1774" x1="198.222" y1="56.9756" x2="200.682" y2="62.0844" gradientUnits="userSpaceOnUse">
<stop stop-color="#FFD445"/>
<stop offset="1" stop-color="#D53030"/>
</linearGradient>
<linearGradient id="paint79_linear_570_1774" x1="193.978" y1="57.3614" x2="197.694" y2="65.0792" gradientUnits="userSpaceOnUse">
<stop stop-color="#FFD445"/>
<stop offset="1" stop-color="#D53030"/>
</linearGradient>
</defs>
</svg>
